<svg id="svg" version="1.1" xmlns="http://www.w3.org/2000/svg" width="400" height="400" viewBox="0, 0, 400,400"><g id="svgg"><path id="path0" d="M102.400 72.401 C 102.400 74.186,102.209 76.490,101.975 77.523 C 101.742 78.555,101.364 80.210,101.137 81.200 C 98.592 92.261,91.519 102.003,80.600 109.483 C 75.519 112.963,66.793 115.909,59.500 116.606 L 56.800 116.864 56.800 136.217 L 56.800 155.570 62.713 155.564 C 87.960 155.535,107.981 173.977,110.197 199.300 L 110.468 202.400 186.334 202.399 L 262.200 202.398 262.327 199.099 C 263.013 181.236,276.395 163.868,294.000 157.992 C 300.711 155.752,309.471 154.872,315.723 155.809 L 317.600 156.091 317.600 136.314 L 317.600 116.537 310.100 116.523 C 302.771 116.509,302.159 116.438,295.987 114.880 C 287.508 112.740,277.923 106.041,271.457 97.736 C 270.324 96.281,269.018 95.074,268.269 94.789 C 267.571 94.523,266.460 94.071,265.800 93.784 C 265.140 93.497,263.633 92.882,262.450 92.418 C 257.965 90.654,245.394 84.000,244.701 83.022 C 244.537 82.790,244.515 81.565,244.653 80.300 C 244.933 77.729,244.985 77.767,242.077 78.425 C 238.693 79.190,236.625 79.651,235.000 80.000 C 233.242 80.378,230.822 80.914,227.900 81.572 C 226.855 81.807,225.145 82.193,224.100 82.428 C 221.178 83.086,218.758 83.622,217.000 84.000 C 216.120 84.189,214.500 84.549,213.400 84.800 C 209.677 85.649,208.215 85.972,200.409 87.675 C 193.267 89.232,192.750 89.402,194.209 89.703 C 206.211 92.183,215.756 99.868,222.398 112.400 L 224.200 115.800 231.800 115.800 L 239.400 115.800 239.400 120.400 L 239.400 125.000 233.173 125.110 L 226.945 125.220 227.269 127.910 C 227.447 129.389,227.678 130.825,227.784 131.100 C 227.931 131.486,230.978 131.600,241.145 131.600 C 256.337 131.600,254.803 131.046,254.794 136.533 C 254.785 141.639,256.135 141.173,240.998 141.294 L 227.836 141.400 227.565 142.800 C 227.416 143.570,227.200 144.965,227.085 145.900 L 226.876 147.600 233.638 147.600 L 240.400 147.600 240.400 152.416 L 240.400 157.231 232.225 157.116 L 224.051 157.000 222.925 159.388 C 207.987 191.094,169.160 191.657,153.142 160.400 L 151.400 157.000 145.200 157.000 L 139.000 157.000 139.000 152.400 L 139.000 147.800 143.838 147.688 L 148.675 147.576 148.336 145.288 C 148.149 144.030,147.904 142.595,147.791 142.100 L 147.585 141.200 137.635 141.200 C 126.142 141.200,127.200 141.687,127.200 136.400 C 127.200 131.113,126.142 131.600,137.635 131.600 L 147.585 131.600 147.797 130.700 C 147.914 130.205,148.152 128.720,148.325 127.400 L 148.641 125.000 144.221 125.000 L 139.800 125.000 139.687 120.300 L 139.575 115.600 145.554 115.600 L 151.533 115.600 153.152 112.400 C 159.349 100.147,169.387 92.189,181.995 89.533 L 184.589 88.986 182.318 87.875 C 176.317 84.939,172.400 78.710,172.400 72.103 C 172.400 69.388,176.547 69.703,136.900 69.411 L 102.400 69.156 102.400 72.401 " stroke="none" fill="#8cc43c" fill-rule="evenodd"></path><path id="path1" d="M201.300 0.282 C 200.805 0.378,200.400 0.623,200.400 0.828 C 200.400 1.033,200.132 1.200,199.805 1.200 C 199.147 1.200,198.128 1.938,196.078 3.900 C 195.331 4.615,194.603 5.202,194.460 5.204 C 194.317 5.206,193.750 5.779,193.200 6.478 C 192.650 7.176,191.966 7.940,191.679 8.174 C 191.393 8.408,190.454 9.230,189.592 10.000 C 188.731 10.770,187.616 11.711,187.113 12.090 C 185.992 12.937,180.696 17.853,176.057 22.353 C 174.156 24.197,171.520 26.536,170.200 27.551 C 168.880 28.565,166.323 30.836,164.518 32.598 C 160.210 36.802,154.931 41.741,153.284 43.108 C 152.560 43.708,151.425 44.650,150.763 45.200 C 150.100 45.750,148.136 47.550,146.397 49.200 C 144.658 50.850,141.313 54.000,138.964 56.200 C 132.691 62.075,130.800 64.032,130.800 64.648 C 130.800 64.952,130.620 65.200,130.400 65.200 C 130.180 65.200,130.000 65.560,130.000 66.000 C 130.000 66.440,129.809 66.800,129.575 66.800 C 129.336 66.800,129.204 67.370,129.275 68.100 L 129.400 69.400 150.800 69.600 L 172.200 69.800 172.474 73.000 C 173.078 80.065,176.492 85.085,182.715 88.055 C 187.793 90.478,188.589 90.394,213.300 84.828 C 214.345 84.593,216.055 84.207,217.100 83.972 C 220.022 83.314,222.442 82.778,224.200 82.400 C 225.958 82.022,228.378 81.486,231.300 80.828 C 233.331 80.371,235.752 79.831,238.500 79.225 C 239.435 79.018,241.045 78.658,242.077 78.425 C 244.985 77.767,244.933 77.729,244.653 80.300 C 244.515 81.565,244.537 82.790,244.701 83.022 C 245.394 84.000,257.965 90.654,262.450 92.418 C 263.633 92.882,265.140 93.497,265.800 93.784 C 266.460 94.071,267.571 94.523,268.269 94.789 C 269.018 95.074,270.324 96.281,271.457 97.736 C 277.923 106.041,287.508 112.740,295.987 114.880 C 302.017 116.402,302.830 116.495,310.500 116.547 C 314.845 116.576,318.400 116.465,318.400 116.300 C 318.400 116.135,318.760 116.000,319.200 116.000 C 319.640 116.000,320.000 115.820,320.000 115.600 C 320.000 115.380,320.265 115.200,320.589 115.200 C 320.913 115.200,321.948 114.742,322.889 114.182 C 323.830 113.623,324.915 113.062,325.300 112.936 C 325.685 112.810,326.000 112.548,326.000 112.353 C 326.000 112.159,326.320 112.000,326.712 112.000 C 327.103 112.000,327.683 111.640,328.000 111.200 C 328.317 110.760,328.780 110.400,329.029 110.400 C 329.278 110.400,330.004 109.905,330.642 109.300 C 333.269 106.811,333.318 106.800,341.586 106.800 L 349.200 106.800 349.200 53.400 L 349.200 0.000 275.700 0.054 C 235.275 0.084,201.795 0.187,201.300 0.282 M56.800 93.032 L 56.800 116.864 59.500 116.606 C 66.793 115.909,75.519 112.963,80.600 109.483 C 91.519 102.003,98.592 92.261,101.137 81.200 C 101.364 80.210,101.742 78.555,101.975 77.523 C 102.209 76.490,102.400 74.195,102.400 72.423 L 102.400 69.200 79.600 69.200 L 56.800 69.200 56.800 93.032 M365.687 90.700 L 365.800 95.400 370.500 95.513 L 375.200 95.625 375.200 90.813 L 375.200 86.000 370.387 86.000 L 365.575 86.000 365.687 90.700 M139.687 120.300 L 139.800 125.000 144.102 125.114 C 149.049 125.244,148.363 125.821,150.191 120.000 C 150.778 118.130,151.351 116.375,151.463 116.100 C 151.621 115.713,150.300 115.600,145.621 115.600 L 139.575 115.600 139.687 120.300 M224.341 115.793 C 224.225 115.908,224.627 117.577,225.235 119.501 C 225.842 121.426,226.447 123.500,226.579 124.110 L 226.820 125.220 233.110 125.110 L 239.400 125.000 239.400 120.400 L 239.400 115.800 231.975 115.691 C 227.892 115.632,224.456 115.677,224.341 115.793 M127.443 132.233 C 127.309 132.581,127.200 134.456,127.200 136.400 C 127.200 141.687,126.141 141.200,137.643 141.200 L 147.600 141.200 147.600 136.400 L 147.600 131.600 137.643 131.600 C 128.932 131.600,127.655 131.679,127.443 132.233 M228.000 136.400 L 228.000 141.200 241.157 141.200 C 256.314 141.200,254.800 141.733,254.800 136.400 C 254.800 131.067,256.314 131.600,241.157 131.600 L 228.000 131.600 228.000 136.400 M138.973 148.127 C 138.861 148.417,138.822 150.532,138.885 152.827 L 139.000 157.000 144.782 157.111 C 152.150 157.254,151.699 157.559,150.353 153.336 C 149.734 151.391,149.127 149.305,149.006 148.700 L 148.785 147.600 143.980 147.600 C 140.373 147.600,139.124 147.731,138.973 148.127 M226.577 148.700 C 226.446 149.305,225.842 151.374,225.235 153.299 C 224.627 155.223,224.221 156.888,224.332 156.999 C 224.443 157.109,228.103 157.200,232.467 157.200 L 240.400 157.200 240.400 152.400 L 240.400 147.600 233.608 147.600 L 226.815 147.600 226.577 148.700 M59.859 155.518 L 56.718 155.635 57.008 178.918 C 57.167 191.723,57.380 202.290,57.482 202.400 C 57.583 202.510,69.486 202.600,83.933 202.600 L 110.200 202.600 110.074 199.400 C 109.080 174.101,86.667 154.514,59.859 155.518 M305.200 155.635 C 296.588 156.267,287.693 159.696,280.692 165.083 C 273.606 170.535,267.021 179.556,264.727 186.952 C 262.834 193.056,261.629 201.272,262.478 202.294 C 262.947 202.859,315.791 203.054,316.652 202.494 C 316.973 202.285,317.189 195.543,317.399 179.135 L 317.695 156.069 315.547 155.851 C 311.208 155.410,308.916 155.362,305.200 155.635 " stroke="none" fill="#e3ccbb" fill-rule="evenodd"></path><path id="path2" d="M349.200 53.400 L 349.200 106.800 370.800 106.800 L 392.400 106.800 392.400 53.400 L 392.400 0.000 370.800 0.000 L 349.200 0.000 349.200 53.400 M375.200 90.813 L 375.200 95.625 370.500 95.513 L 365.800 95.400 365.687 90.700 L 365.575 86.000 370.387 86.000 L 375.200 86.000 375.200 90.813 M182.000 89.518 C 150.347 96.353,136.771 138.500,157.084 166.866 C 178.108 196.225,220.190 184.472,226.784 147.400 C 227.058 145.860,227.443 143.736,227.641 142.680 C 232.224 118.177,211.800 89.196,190.200 89.553 C 188.660 89.579,186.770 89.455,186.000 89.278 C 185.109 89.074,183.654 89.161,182.000 89.518 " stroke="none" fill="#f88c2b" fill-rule="evenodd"></path><path id="path3" d="M54.000 177.019 C 53.010 177.520,52.134 177.864,52.052 177.784 C 51.971 177.704,51.651 177.892,51.341 178.202 C 51.031 178.512,50.483 178.653,50.123 178.515 C 49.685 178.347,49.565 178.419,49.758 178.732 C 49.955 179.050,49.656 179.200,48.824 179.200 C 48.151 179.200,47.600 179.380,47.600 179.600 C 47.600 179.820,47.150 180.000,46.600 180.000 C 46.050 180.000,45.600 180.180,45.600 180.400 C 45.600 180.620,45.150 180.800,44.600 180.800 C 44.050 180.800,43.600 180.936,43.600 181.102 C 43.600 181.430,42.213 182.102,40.000 182.846 C 39.230 183.104,38.420 183.438,38.200 183.586 C 37.980 183.734,36.990 184.106,36.000 184.411 C 35.010 184.717,34.110 185.064,34.000 185.183 C 33.461 185.767,31.904 186.400,31.005 186.400 C 30.452 186.400,30.000 186.580,30.000 186.800 C 30.000 187.020,29.640 187.200,29.200 187.200 C 28.760 187.200,28.400 187.380,28.400 187.600 C 28.400 187.820,27.950 188.000,27.400 188.000 C 26.850 188.000,26.400 188.180,26.400 188.400 C 26.400 188.620,26.040 188.800,25.600 188.800 C 25.160 188.800,24.800 188.980,24.800 189.200 C 24.800 189.420,24.260 189.600,23.600 189.600 C 22.940 189.600,22.400 189.780,22.400 190.000 C 22.400 190.220,22.040 190.400,21.600 190.400 C 21.160 190.400,20.800 190.580,20.800 190.800 C 20.800 191.020,20.361 191.200,19.824 191.200 C 19.287 191.200,18.736 191.380,18.600 191.600 C 18.464 191.820,18.048 192.001,17.676 192.002 C 17.304 192.004,16.460 192.290,15.800 192.638 C 15.140 192.987,14.241 193.344,13.801 193.432 C 13.362 193.520,12.945 193.764,12.875 193.974 C 12.806 194.183,12.490 194.256,12.174 194.135 C 11.858 194.014,11.600 194.114,11.600 194.357 C 11.600 194.601,11.150 194.800,10.600 194.800 C 10.050 194.800,9.600 194.980,9.600 195.200 C 9.600 195.420,9.150 195.600,8.600 195.600 L 7.600 195.600 7.600 211.600 L 7.600 227.600 15.000 227.600 L 22.400 227.600 22.400 237.800 L 22.400 248.000 28.600 248.000 L 34.800 248.000 34.800 297.200 L 34.800 346.400 27.400 346.400 L 20.000 346.400 20.000 358.200 L 20.000 370.000 13.818 370.000 L 7.637 370.000 7.610 385.000 L 7.583 400.000 111.191 400.000 C 179.997 400.000,214.800 399.866,214.800 399.600 C 214.800 399.380,214.950 399.200,215.133 399.200 C 217.215 399.200,241.131 384.528,254.681 374.938 C 257.586 372.882,260.107 371.200,260.284 371.200 C 260.650 371.200,267.021 366.252,269.173 364.296 C 269.958 363.583,271.581 362.189,272.779 361.200 C 277.760 357.087,287.600 347.611,287.600 346.928 C 287.600 346.497,283.719 346.400,266.600 346.400 L 245.600 346.400 245.600 297.200 L 245.600 248.000 251.807 248.000 L 258.013 248.000 257.907 237.500 L 257.800 227.000 228.800 227.000 L 199.800 227.000 199.693 237.500 L 199.587 248.000 205.793 248.000 L 212.000 248.000 212.000 297.200 L 212.000 346.400 184.400 346.400 L 156.800 346.400 156.800 297.200 L 156.800 248.000 163.400 248.000 L 170.000 248.000 170.000 237.800 L 170.000 227.600 179.829 227.600 C 187.495 227.600,189.775 227.482,190.191 227.066 C 190.485 226.772,193.398 225.486,196.663 224.208 C 204.736 221.048,215.594 215.968,222.000 212.354 C 225.925 210.140,235.194 204.289,235.652 203.737 C 236.025 203.288,221.686 203.200,147.977 203.200 C 80.407 203.200,59.547 203.088,58.528 202.720 L 57.200 202.239 57.200 189.893 C 57.200 178.341,57.002 175.880,56.086 176.054 C 55.929 176.084,54.990 176.518,54.000 177.019 M348.800 191.600 C 348.800 191.820,349.171 192.000,349.624 192.000 C 350.077 192.000,350.336 191.820,350.200 191.600 C 350.064 191.380,349.693 191.200,349.376 191.200 C 349.059 191.200,348.800 191.380,348.800 191.600 M354.601 193.599 C 354.312 194.067,354.321 194.073,355.500 194.196 C 356.604 194.312,356.637 194.155,355.624 193.613 C 355.108 193.337,354.766 193.332,354.601 193.599 M287.900 227.357 C 287.266 227.838,287.200 228.836,287.200 237.944 L 287.200 248.000 293.798 248.000 L 300.397 248.000 300.498 297.500 L 300.600 347.000 316.800 347.000 L 333.000 347.000 333.102 297.500 L 333.203 248.000 339.802 248.000 L 346.400 248.000 346.400 237.643 C 346.400 228.567,346.322 227.256,345.767 227.043 C 344.351 226.499,288.631 226.802,287.900 227.357 M110.463 237.300 C 110.498 242.635,110.518 247.225,110.507 247.500 C 110.493 247.881,112.097 248.000,117.244 248.000 L 124.000 248.000 124.000 297.200 L 124.000 346.400 96.200 346.400 L 68.400 346.400 68.400 297.200 L 68.400 248.000 74.600 248.000 L 80.800 248.000 80.800 237.800 L 80.800 227.600 95.600 227.600 L 110.400 227.600 110.463 237.300 M347.867 346.667 C 347.720 346.813,347.600 352.303,347.600 358.867 L 347.600 370.800 354.424 370.800 C 358.871 370.800,361.161 370.661,361.000 370.400 C 360.853 370.162,358.329 370.000,354.776 370.000 L 348.800 370.000 348.800 358.200 C 348.800 347.428,348.673 345.860,347.867 346.667 " stroke="none" fill="#0b9cdb" fill-rule="evenodd"></path><path id="path4" d="M317.468 178.665 C 317.321 178.813,317.200 184.198,317.200 190.633 C 317.200 199.625,317.084 202.378,316.700 202.524 C 316.425 202.629,274.170 202.635,222.800 202.537 C 171.430 202.439,113.560 202.518,94.200 202.713 C 62.239 203.035,67.148 203.074,147.549 203.134 C 221.611 203.189,236.025 203.288,235.652 203.737 C 235.194 204.289,225.925 210.140,222.000 212.354 C 216.051 215.711,205.225 220.816,198.200 223.578 C 191.139 226.354,190.000 226.866,190.000 227.261 C 190.000 227.745,199.356 227.684,199.843 227.197 C 200.107 226.933,210.107 226.830,229.023 226.897 L 257.800 227.000 258.011 237.000 L 258.221 247.000 258.311 237.300 L 258.400 227.600 273.120 227.600 C 282.528 227.600,287.986 227.454,288.245 227.195 C 288.638 226.802,335.335 226.933,353.500 227.378 L 361.200 227.566 361.200 211.583 C 361.200 201.540,361.056 195.600,360.813 195.600 C 360.599 195.600,360.528 195.915,360.655 196.300 C 360.789 196.708,360.575 196.583,360.142 195.998 C 359.708 195.413,358.902 194.939,358.200 194.857 C 357.540 194.781,356.910 194.594,356.800 194.442 C 356.690 194.290,356.150 194.173,355.600 194.183 C 355.007 194.193,354.641 193.997,354.700 193.700 C 354.759 193.407,354.387 193.200,353.800 193.200 C 353.250 193.200,352.800 193.009,352.800 192.776 C 352.800 192.543,352.620 192.464,352.400 192.600 C 352.180 192.736,351.997 192.612,351.994 192.324 C 351.989 191.937,351.890 191.955,351.615 192.389 C 351.293 192.899,351.210 192.891,350.996 192.333 C 350.840 191.928,350.457 191.765,349.964 191.894 C 349.472 192.022,348.905 191.782,348.443 191.249 C 348.038 190.782,347.423 190.400,347.077 190.400 C 346.730 190.400,346.336 190.220,346.200 190.000 C 346.064 189.780,345.323 189.600,344.553 189.600 C 343.721 189.600,343.253 189.438,343.400 189.200 C 343.540 188.973,343.204 188.800,342.624 188.800 C 342.061 188.800,341.599 188.665,341.597 188.500 C 341.595 188.335,341.145 187.992,340.596 187.737 C 339.842 187.387,339.655 187.387,339.830 187.737 C 339.957 187.992,339.712 187.806,339.286 187.324 C 338.679 186.639,338.400 186.552,337.997 186.924 C 337.597 187.294,337.546 187.288,337.765 186.900 C 337.957 186.559,337.736 186.400,337.069 186.400 C 335.913 186.400,333.898 185.435,334.273 185.061 C 334.416 184.917,333.873 184.800,333.067 184.800 C 332.260 184.800,331.600 184.620,331.600 184.400 C 331.600 184.180,331.280 184.000,330.888 184.000 C 330.497 184.000,329.922 183.647,329.611 183.215 C 329.154 182.581,328.931 182.523,328.446 182.915 C 327.973 183.298,327.910 183.295,328.147 182.900 C 328.415 182.454,327.456 182.170,326.300 182.353 C 326.135 182.379,326.000 182.220,326.000 182.000 C 326.000 181.780,325.505 181.597,324.900 181.594 C 324.043 181.589,323.932 181.502,324.400 181.200 C 324.885 180.886,324.828 180.811,324.100 180.806 C 323.605 180.803,323.200 180.590,323.200 180.333 C 323.200 180.077,323.079 179.987,322.932 180.135 C 322.784 180.282,322.222 180.114,321.683 179.760 C 321.143 179.406,320.824 179.316,320.974 179.559 C 321.397 180.243,320.639 180.079,319.775 179.300 C 318.924 178.532,317.887 178.246,317.468 178.665 M287.600 346.928 C 287.600 347.611,277.760 357.087,272.779 361.200 C 271.581 362.189,269.958 363.583,269.173 364.296 C 267.021 366.252,260.650 371.200,260.284 371.200 C 260.107 371.200,257.586 372.882,254.681 374.938 C 241.131 384.528,217.215 399.200,215.133 399.200 C 214.950 399.200,214.800 399.380,214.800 399.600 C 214.800 399.865,239.467 400.000,288.000 400.000 L 361.200 400.000 361.200 385.400 L 361.200 370.800 354.389 370.800 L 347.577 370.800 347.689 358.600 L 347.800 346.400 340.524 346.400 C 336.104 346.400,333.150 346.557,333.000 346.800 C 332.842 347.056,327.004 347.200,316.800 347.200 C 306.596 347.200,300.758 347.056,300.600 346.800 C 300.197 346.148,287.600 346.272,287.600 346.928 " stroke="none" fill="#148cb4" fill-rule="evenodd"></path></g></svg>
