<?xml version="1.0" encoding="UTF-8"?>
<svg version="1.1" xmlns="http://www.w3.org/2000/svg" width="220" height="134">
<path d="M0 0 C8.1110918 0.55938564 14.78295624 3.5801428 20.625 9.25 C26.43217656 16.31904641 29.1710657 23.37875095 28.93359375 32.5703125 C27.94202295 41.18066149 24.30790029 48.67881091 17.625 54.25 C9.1105372 59.51086223 1.59741028 61.14173946 -8.375 60.25 C-17.03612321 57.91815914 -23.1976725 52.65331688 -27.75 45.0625 C-31.41135968 37.85725742 -32.62040508 30.12426938 -30.234375 22.2890625 C-26.47833366 13.37700077 -21.3029426 6.16534665 -12.41796875 2.03125 C-8.34729904 0.47458854 -4.30179699 0.31865163 0 0 Z " fill="#C4B882" transform="translate(107.375,6.75)"/>
<path d="M0 0 C4.91247651 0.44658877 8.45930329 2.70886782 12 6 C17.79994374 13.07116429 20.54591349 20.13464239 20.30859375 29.3203125 C19.31447596 37.95277835 15.6714121 45.39601384 9 51 C3.2125378 54.78592552 -2.12057159 56.61780953 -9 57 C-7.09349153 51.91597741 -4.74531902 48.09689463 -1.3046875 43.89453125 C1.58654639 39.69618264 1.14636993 34.98483223 1.1328125 30.05859375 C1.13376923 29.29450699 1.13472595 28.53042023 1.13571167 27.74317932 C1.1363907 26.13192665 1.13455573 24.52067121 1.13037109 22.90942383 C1.12501154 20.44280874 1.13032921 17.97637512 1.13671875 15.50976562 C1.13605806 13.94270793 1.1347771 12.37565035 1.1328125 10.80859375 C1.13483673 10.07104355 1.13686096 9.33349335 1.13894653 8.57359314 C1.12460119 5.44440529 0.99722717 2.9916815 0 0 Z " fill="#0E8952" transform="translate(116,10)"/>
<path d="M0 0 C0.99 0 1.98 0 3 0 C3 4.95 3 9.9 3 15 C4.98 15 6.96 15 9 15 C9 12.36 9 9.72 9 7 C10.32 7.33 11.64 7.66 13 8 C13 10.31 13 12.62 13 15 C13.99 15 14.98 15 16 15 C16 12.69 16 10.38 16 8 C17.32 8 18.64 8 20 8 C20 10.31 20 12.62 20 15 C20.99 15 21.98 15 23 15 C23 12.36 23 9.72 23 7 C23.99 7 24.98 7 26 7 C26.495 10.96 26.495 10.96 27 15 C28.28446919 12.43106162 28.32977144 10.23423663 28.5625 7.375 C28.68818359 5.87066406 28.68818359 5.87066406 28.81640625 4.3359375 C28.87699219 3.56507812 28.93757813 2.79421875 29 2 C30.65 2 32.3 2 34 2 C34 1.34 34 0.68 34 0 C34.99 0 35.98 0 37 0 C37.08069658 2.95887459 37.14034665 5.9155659 37.1875 8.875 C37.21263672 9.71675781 37.23777344 10.55851562 37.26367188 11.42578125 C37.27333984 12.23144531 37.28300781 13.03710938 37.29296875 13.8671875 C37.3086792 14.61081543 37.32438965 15.35444336 37.34057617 16.12060547 C37.22818604 16.74080566 37.1157959 17.36100586 37 18 C36.01 18.66 35.02 19.32 34 20 C33.7497843 23.08365871 33.7497843 23.08365871 34 26 C31.69 26 29.38 26 27 26 C27.875 21.125 27.875 21.125 29 20 C27.68 19.34 26.36 18.68 25 18 C24.505 18.495 24.505 18.495 24 19 C22.5985474 19.09804125 21.19223055 19.12798179 19.78735352 19.12939453 C18.89295059 19.13254669 17.99854767 19.13569885 17.07704163 19.13894653 C16.10415695 19.1369223 15.13127228 19.13489807 14.12890625 19.1328125 C13.13624252 19.13376923 12.1435788 19.13472595 11.12083435 19.13571167 C9.01667213 19.13639366 6.91250782 19.13453806 4.80834961 19.13037109 C1.5798674 19.12502874 -1.64847531 19.13031255 -4.87695312 19.13671875 C-6.91666698 19.13605786 -8.95638074 19.13477648 -10.99609375 19.1328125 C-11.96695419 19.13483673 -12.93781464 19.13686096 -13.93809509 19.13894653 C-14.83565018 19.13579437 -15.73320526 19.13264221 -16.65795898 19.12939453 C-17.84590309 19.12820114 -17.84590309 19.12820114 -19.05784607 19.12698364 C-21 19 -21 19 -23 18 C-23.40729228 15.67843403 -23.74438677 13.3431213 -24 11 C-24.99 11 -25.98 11 -27 11 C-26.98839844 11.62648438 -26.97679688 12.25296875 -26.96484375 12.8984375 C-26.95582031 13.71570313 -26.94679688 14.53296875 -26.9375 15.375 C-26.92589844 16.18710938 -26.91429688 16.99921875 -26.90234375 17.8359375 C-27 20 -27 20 -28 22 C-30.5625 22.625 -30.5625 22.625 -33 23 C-33.33 23.99 -33.66 24.98 -34 26 C-36.625 26.4375 -36.625 26.4375 -40 26 C-42.59930748 24.0329565 -44.41784033 21.84568996 -46 19 C-46.375 15.0625 -46.375 15.0625 -46 12 C-44.68 12 -43.36 12 -42 12 C-41.67 13.98 -41.34 15.96 -41 18 C-37.7 18 -34.4 18 -31 18 C-31.061875 16.9275 -31.12375 15.855 -31.1875 14.75 C-30.99456691 10.89133813 -30.60334924 9.71182212 -28 7 C-26.3603125 7.2475 -26.3603125 7.2475 -24.6875 7.5 C-21.09747804 7.98678264 -18.53427162 8.11130659 -15 7.375 C-12 7 -12 7 -9 9 C-8.8125 12.125 -8.8125 12.125 -9 15 C-6.07422062 12.07422062 -6.57340823 9.21663843 -6.34375 5.21484375 C-6.2303125 4.48394531 -6.116875 3.75304687 -6 3 C-5.34 2.67 -4.68 2.34 -4 2 C-3.34 2.33 -2.68 2.66 -2 3 C-1.34 2.01 -0.68 1.02 0 0 Z M33 3 C33 6.96 33 10.92 33 15 C33.33 15 33.66 15 34 15 C34 11.04 34 7.08 34 3 C33.67 3 33.34 3 33 3 Z M-15 11 C-15 12.32 -15 13.64 -15 15 C-14.01 14.67 -13.02 14.34 -12 14 C-12 13.01 -12 12.02 -12 11 C-12.99 11 -13.98 11 -15 11 Z " fill="#1A6D47" transform="translate(66,79)"/>
<path d="M0 0 C3.4542145 0.60357853 3.92420375 0.90781538 6.3125 3.8125 C8 7 8 7 7.8125 9.125 C7.544375 9.74375 7.27625 10.3625 7 11 C6.814375 11.7425 6.62875 12.485 6.4375 13.25 C6.293125 13.8275 6.14875 14.405 6 15 C7.32 14.67 8.64 14.34 10 14 C9.74412595 15.77305664 9.46972261 17.54344608 9.1875 19.3125 C9.03667969 20.29863281 8.88585937 21.28476562 8.73046875 22.30078125 C7.96563295 25.12699269 7.24741238 26.1959128 5 28 C4.67 27.67 4.34 27.34 4 27 C3.855625 27.78375 3.71125 28.5675 3.5625 29.375 C2 32 2 32 -0.13671875 32.77734375 C-2.41974691 33.26835609 -4.68695927 33.68112401 -7 34 C-7.66 31.36 -8.32 28.72 -9 26 C-7.68 25.67 -6.36 25.34 -5 25 C-5 24.34 -5 23.68 -5 23 C-6.98 23 -8.96 23 -11 23 C-12.5625 20.1875 -12.5625 20.1875 -14 17 C-12.86695008 13.60085025 -11.87481525 12.94745549 -9 11 C-7 12 -5 13 -3 14 C-3.433125 13.175 -3.86625 12.35 -4.3125 11.5 C-5.1018706 7.48138605 -4.7256734 6.93194244 -2.625 3.625 C-1.76915807 2.40302249 -0.8999503 1.18986718 0 0 Z " fill="#939554" transform="translate(105,28)"/>
<path d="M0 0 C2.46278801 2.46278801 2.99771255 4.70676982 4 8 C4.66 6.68 5.32 5.36 6 4 C6.08782542 7.52067351 6.14066643 11.04106144 6.1875 14.5625 C6.21263672 15.55314453 6.23777344 16.54378906 6.26367188 17.56445312 C6.34351433 25.57531282 5.06292177 30.82987964 -0.0625 37.1875 C-2.07203863 39.69814496 -3.64581884 42.0778196 -5 45 C-11.60496344 45.48036098 -16.2554825 44.34062314 -22 41 C-24.5625 38.75 -24.5625 38.75 -26 37 C-25.505 36.505 -25.505 36.505 -25 36 C-24.95936168 34.33382885 -24.957279 32.66611905 -25 31 C-22.69 31.66 -20.38 32.32 -18 33 C-18 32.01 -18 31.02 -18 30 C-18 29.67 -18 29.34 -18 29 C-16.02 29 -14.04 29 -12 29 C-12 29.66 -12 30.32 -12 31 C-12.99 31.33 -13.98 31.66 -15 32 C-14.67 34.64 -14.34 37.28 -14 40 C-11.03 39.01 -8.06 38.02 -5 37 C-4.67 34.69 -4.34 32.38 -4 30 C-3.01 30.99 -2.02 31.98 -1 33 C0.32 28.71 1.64 24.42 3 20 C1.68 20.33 0.36 20.66 -1 21 C-0.85831863 19.56208484 -0.71148957 18.1246763 -0.5625 16.6875 C-0.48128906 15.88699219 -0.40007812 15.08648437 -0.31640625 14.26171875 C0 12 0 12 1 9 C0.484375 8.195625 -0.03125 7.39125 -0.5625 6.5625 C-1.036875 5.716875 -1.51125 4.87125 -2 4 C-1.1875 1.6875 -1.1875 1.6875 0 0 Z " fill="#8F955D" transform="translate(112,22)"/>
<path d="M0 0 C0.99 0.33 1.98 0.66 3 1 C3 2.32 3 3.64 3 5 C4.1446875 5.0928125 4.1446875 5.0928125 5.3125 5.1875 C8 6 8 6 9.8125 8.5625 C10.204375 9.366875 10.59625 10.17125 11 11 C11.66 10.67 12.32 10.34 13 10 C12.01 9.34 11.02 8.68 10 8 C10.33 7.01 10.66 6.02 11 5 C14.33333333 5 17.66666667 5 21 5 C21 3.68 21 2.36 21 1 C21.99 0.67 22.98 0.34 24 0 C25 1 25 1 25.11352539 2.76586914 C25.10828857 3.51473389 25.10305176 4.26359863 25.09765625 5.03515625 C25.09443359 5.84404297 25.09121094 6.65292969 25.08789062 7.48632812 C25.07951172 8.33646484 25.07113281 9.18660156 25.0625 10.0625 C25.05798828 10.91650391 25.05347656 11.77050781 25.04882812 12.65039062 C25.03700373 14.76695663 25.01906769 16.88348685 25 19 C16.33333333 19 7.66666667 19 -1 19 C-1.02683987 16.02077407 -1.04676037 13.04178705 -1.0625 10.0625 C-1.07087891 9.21236328 -1.07925781 8.36222656 -1.08789062 7.48632812 C-1.09111328 6.67744141 -1.09433594 5.86855469 -1.09765625 5.03515625 C-1.10289307 4.2862915 -1.10812988 3.53742676 -1.11352539 2.76586914 C-1 1 -1 1 0 0 Z M3 9 C2.67 11.31 2.34 13.62 2 16 C3.32 15.67 4.64 15.34 6 15 C6 13.02 6 11.04 6 9 C5.01 9 4.02 9 3 9 Z M14 13 C14 13.99 14 14.98 14 16 C14.99 16 15.98 16 17 16 C17 15.01 17 14.02 17 13 C16.01 13 15.02 13 14 13 Z " fill="#21734B" transform="translate(48,110)"/>
<path d="M0 0 C0.9075 0.2475 1.815 0.495 2.75 0.75 C3.03875 1.719375 3.3275 2.68875 3.625 3.6875 C4.39214682 6.85664203 4.39214682 6.85664203 6.75 7.75 C6.75 5.44 6.75 3.13 6.75 0.75 C8.07 0.42 9.39 0.09 10.75 -0.25 C10.75 2.39 10.75 5.03 10.75 7.75 C12.73 7.75 14.71 7.75 16.75 7.75 C16.75 5.11 16.75 2.47 16.75 -0.25 C18.07 0.08 19.39 0.41 20.75 0.75 C20.95145347 4.24186021 21.09907805 6.94917389 19.6875 10.1875 C16.78810879 12.52571872 14.35897604 12.01247098 10.75 11.75 C8.59077949 11.72173339 8.59077949 11.72173339 5.8125 12 C2.75 11.75 2.75 11.75 0.875 10 C-0.25 7.75 -0.25 7.75 -0.25 3.75 C-1.24 3.75 -2.23 3.75 -3.25 3.75 C-3.23839844 4.37648438 -3.22679687 5.00296875 -3.21484375 5.6484375 C-3.20582031 6.46570313 -3.19679687 7.28296875 -3.1875 8.125 C-3.17589844 8.93710938 -3.16429687 9.74921875 -3.15234375 10.5859375 C-3.25 12.75 -3.25 12.75 -4.25 14.75 C-6.8125 15.375 -6.8125 15.375 -9.25 15.75 C-9.25 16.74 -9.25 17.73 -9.25 18.75 C-11.23 18.75 -13.21 18.75 -15.25 18.75 C-15.58 17.76 -15.91 16.77 -16.25 15.75 C-18.72130918 14.59478498 -18.72130918 14.59478498 -21.25 13.75 C-22.25 12.75 -22.25 12.75 -22.34765625 10.90234375 C-22.31510417 8.8515625 -22.28255208 6.80078125 -22.25 4.75 C-20.93 4.75 -19.61 4.75 -18.25 4.75 C-17.92 6.73 -17.59 8.71 -17.25 10.75 C-13.95 11.08 -10.65 11.41 -7.25 11.75 C-7.37375 9.89375 -7.37375 9.89375 -7.5 8 C-7.48893379 4.88486285 -7.35054772 3.90855602 -5.625 1.1875 C-3.25 -0.25 -3.25 -0.25 0 0 Z " fill="#226A4A" transform="translate(136.25,86.25)"/>
<path d="M0 0 C0.66 0 1.32 0 2 0 C2.33 1.32 2.66 2.64 3 4 C3.61875 3.505 4.2375 3.01 4.875 2.5 C7 1 7 1 9 1 C7.8905928 4.48670834 6.73662334 7.77484237 5 11 C5.94875 11.309375 6.8975 11.61875 7.875 11.9375 C11 13 11 13 13 14 C13 14.66 13 15.32 13 16 C10.09451118 18.04169485 8.59857954 19 5 19 C5.3609375 19.55429687 5.721875 20.10859375 6.09375 20.6796875 C6.5578125 21.40414062 7.021875 22.12859375 7.5 22.875 C7.9640625 23.59429687 8.428125 24.31359375 8.90625 25.0546875 C10 27 10 27 10 29 C5.25 28.25 5.25 28.25 3 26 C3.33 28.31 3.66 30.62 4 33 C3.01 33 2.02 33 1 33 C-3.76215339 25.8831287 -5.80231297 19.30083119 -4.70703125 10.69921875 C-3.82878081 6.7133129 -2.44999328 3.2666577 0 0 Z " fill="#99585D" transform="translate(81,22)"/>
<path d="M0 0 C1.588125 -0.061875 3.17625 -0.12375 4.8125 -0.1875 C6.15248047 -0.23970703 6.15248047 -0.23970703 7.51953125 -0.29296875 C10 0 10 0 11.8125 1.25 C13.91550277 4.34916197 13.17947602 7.35065417 13 11 C13.99 10.34 14.98 9.68 16 9 C15.34 8.67 14.68 8.34 14 8 C14.33 6.68 14.66 5.36 15 4 C17.97 4.33 20.94 4.66 24 5 C24 9.29 24 13.58 24 18 C20.7 18 17.4 18 14 18 C13.67 17.34 13.34 16.68 13 16 C12.01 16.66 11.02 17.32 10 18 C6.64683663 18.26402861 3.36941342 18.08751723 0 18 C0 12.06 0 6.12 0 0 Z M4 3 C4 4.32 4 5.64 4 7 C5.65 6.67 7.3 6.34 9 6 C8.67 5.01 8.34 4.02 8 3 C6.68 3 5.36 3 4 3 Z M4 11 C4 12.32 4 13.64 4 15 C5.65 14.67 7.3 14.34 9 14 C9 13.01 9 12.02 9 11 C7.35 11 5.7 11 4 11 Z M17 12 C17 12.99 17 13.98 17 15 C17.99 15 18.98 15 20 15 C20 14.01 20 13.02 20 12 C19.01 12 18.02 12 17 12 Z " fill="#1C6E47" transform="translate(150,111)"/>
<path d="M0 0 C1.32 0 2.64 0 4 0 C4.04898438 0.99902344 4.09796875 1.99804688 4.1484375 3.02734375 C4.22320312 4.31769531 4.29796875 5.60804687 4.375 6.9375 C4.44460937 8.22527344 4.51421875 9.51304688 4.5859375 10.83984375 C4.72257812 11.88269531 4.85921875 12.92554687 5 14 C5.66 14.33 6.32 14.66 7 15 C7 11.04 7 7.08 7 3 C7.99 3 8.98 3 10 3 C10.56618778 5.75005495 11.06265424 8.46543147 11.4375 11.25 C11.623125 12.1575 11.80875 13.065 12 14 C12.66 14.33 13.32 14.66 14 15 C14 12.36 14 9.72 14 7 C15.32 7.33 16.64 7.66 18 8 C18.125 14.625 18.125 14.625 17 18 C12.69327058 20.15336471 6.92674995 19.18585478 2.14160156 19.18530273 C0.00826135 19.18749152 -2.12456366 19.20565919 -4.2578125 19.22460938 C-5.60937323 19.22754294 -6.96093642 19.22952798 -8.3125 19.23046875 C-9.54613281 19.23457764 -10.77976563 19.23868652 -12.05078125 19.24291992 C-15 19 -15 19 -17 17 C-17.1953125 14.6171875 -17.1953125 14.6171875 -17.125 11.875 C-17.10695312 10.96492188 -17.08890625 10.05484375 -17.0703125 9.1171875 C-17.04710937 8.41851562 -17.02390625 7.71984375 -17 7 C-15.68 7 -14.36 7 -13 7 C-12.67 9.31 -12.34 11.62 -12 14 C-8.04 14.33 -4.08 14.66 0 15 C0 10.05 0 5.1 0 0 Z " fill="#236F4D" transform="translate(180,79)"/>
<path d="M0 0 C0.79148437 -0.01417969 1.58296875 -0.02835937 2.3984375 -0.04296875 C4.625 0.1875 4.625 0.1875 7.625 2.1875 C7.955 3.1775 8.285 4.1675 8.625 5.1875 C9.945 4.8575 11.265 4.5275 12.625 4.1875 C12.625 7.8175 12.625 11.4475 12.625 15.1875 C13.615 14.8575 14.605 14.5275 15.625 14.1875 C15.955 10.8875 16.285 7.5875 16.625 4.1875 C17.945 4.1875 19.265 4.1875 20.625 4.1875 C20.625 8.8075 20.625 13.4275 20.625 18.1875 C19.01625 18.249375 17.4075 18.31125 15.75 18.375 C14.84507813 18.40980469 13.94015625 18.44460937 13.0078125 18.48046875 C11.82832031 18.33544922 11.82832031 18.33544922 10.625 18.1875 C9.965 17.1975 9.305 16.2075 8.625 15.1875 C8.07328125 15.67863281 7.5215625 16.16976562 6.953125 16.67578125 C4.16129931 18.48859424 2.66314259 18.5047951 -0.625 18.375 C-1.51703125 18.34792969 -2.4090625 18.32085937 -3.328125 18.29296875 C-4.00359375 18.25816406 -4.6790625 18.22335938 -5.375 18.1875 C-5.40184312 15.37493719 -5.42176188 12.56262759 -5.4375 9.75 C-5.44587891 8.94755859 -5.45425781 8.14511719 -5.46289062 7.31835938 C-5.4715143 5.27454779 -5.4272815 3.23066098 -5.375 1.1875 C-3.79539731 -0.39210269 -2.17963184 0.01763456 0 0 Z M-1.375 3.1875 C-1.375 7.1475 -1.375 11.1075 -1.375 15.1875 C3.25519987 14.7422002 3.25519987 14.7422002 4.625 13.1875 C4.85418242 9.17092857 4.85418242 9.17092857 4.625 5.1875 C3.965 4.5275 3.305 3.8675 2.625 3.1875 C1.305 3.1875 -0.015 3.1875 -1.375 3.1875 Z " fill="#22724F" transform="translate(25.375,110.8125)"/>
<path d="M0 0 C-0.99 0.495 -0.99 0.495 -2 1 C-1.649375 1.639375 -1.29875 2.27875 -0.9375 2.9375 C0.34990613 7.1430267 -0.3091153 10.71464763 -1 15 C-1.29132813 14.39285156 -1.58265625 13.78570312 -1.8828125 13.16015625 C-4.1025266 8.86819157 -7.0168739 5.70283557 -11 3 C-11.33 5.97 -11.66 8.94 -12 12 C-16.25061356 13.41687119 -18.71851625 12.19320039 -23 11 C-22.67 8.03 -22.34 5.06 -22 2 C-24.18700941 4.18700941 -24.3802485 5.07831434 -25 8 C-26 11 -26 11 -29 13 C-29.99 13 -30.98 13 -32 13 C-32.25 10.6875 -32.25 10.6875 -32 8 C-30 6.1875 -30 6.1875 -28 5 C-28.66 4.67 -29.32 4.34 -30 4 C-21.27538008 -2.88785783 -10.31942698 -3.36960881 0 0 Z " fill="#B6D7B4" transform="translate(118,9)"/>
<path d="M0 0 C0.598125 0.309375 1.19625 0.61875 1.8125 0.9375 C4.08956772 2.10209704 4.08956772 2.10209704 7 3 C7 4.98 7 6.96 7 9 C7.99 9 8.98 9 10 9 C10.33 6.69 10.66 4.38 11 2 C12.99954746 1.95745644 15.00041636 1.95919217 17 2 C18 3 18 3 18.1328125 4.8125 C18.13023438 5.534375 18.12765625 6.25625 18.125 7 C18.12886719 8.0828125 18.12886719 8.0828125 18.1328125 9.1875 C18 11 18 11 17 12 C15.35659133 12.09854655 13.7088539 12.12972411 12.0625 12.125 C11.16660156 12.12757812 10.27070312 12.13015625 9.34765625 12.1328125 C7 12 7 12 5 11 C4.59270772 8.67843403 4.25561323 6.3431213 4 4 C3.01 4 2.02 4 1 4 C1.01160156 4.62648438 1.02320312 5.25296875 1.03515625 5.8984375 C1.04417969 6.71570313 1.05320312 7.53296875 1.0625 8.375 C1.07410156 9.18710938 1.08570312 9.99921875 1.09765625 10.8359375 C1 13 1 13 0 15 C-2.5625 15.625 -2.5625 15.625 -5 16 C-5.33 16.99 -5.66 17.98 -6 19 C-8.625 19.4375 -8.625 19.4375 -12 19 C-14.59930748 17.0329565 -16.41784033 14.84568996 -18 12 C-18.375 8.0625 -18.375 8.0625 -18 5 C-16.68 5 -15.36 5 -14 5 C-13.67 6.98 -13.34 8.96 -13 11 C-9.7 11 -6.4 11 -3 11 C-3.061875 9.9275 -3.12375 8.855 -3.1875 7.75 C-2.99456691 3.89133813 -2.60334924 2.71182212 0 0 Z M13 4 C13 5.32 13 6.64 13 8 C13.99 7.67 14.98 7.34 16 7 C16 6.01 16 5.02 16 4 C15.01 4 14.02 4 13 4 Z " fill="#256A4A" transform="translate(38,86)"/>
<path d="M0 0 C0.66 0.66 1.32 1.32 2 2 C1.65481673 4.77260114 0.78179976 7.30713416 0 10 C3.3 10.33 6.6 10.66 10 11 C10.33 7.7 10.66 4.4 11 1 C16.63254122 4.7858064 20.09584117 7.21643418 22 14 C22.1875 17.9375 22.1875 17.9375 22 21 C19.27573689 18.64722731 18.1858237 16.37503669 17 13 C15.59903754 16.07242053 15.59903754 16.07242053 17.4375 19.1875 C17.953125 20.115625 18.46875 21.04375 19 22 C18.34 22.66 17.68 23.32 17 24 C16.1028125 22.7934375 16.1028125 22.7934375 15.1875 21.5625 C13.19052724 18.77672016 13.19052724 18.77672016 10 18 C9.67 16.68 9.34 15.36 9 14 C5.37 13.34 1.74 12.68 -2 12 C-2.1953125 4.3828125 -2.1953125 4.3828125 -2 2 C-1.34 1.34 -0.68 0.68 0 0 Z " fill="#DBE4A8" transform="translate(95,10)"/>
<path d="M0 0 C0.66 0.33 1.32 0.66 2 1 C2.4140625 3.28515625 2.4140625 3.28515625 2.625 6.0625 C2.69976562 6.98160156 2.77453125 7.90070313 2.8515625 8.84765625 C2.90054688 9.55792969 2.94953125 10.26820312 3 11 C3.66 10.67 4.32 10.34 5 10 C4.34 9.67 3.68 9.34 3 9 C3 7.68 3 6.36 3 5 C9.625 4.75 9.625 4.75 13 7 C13.41820365 11.02590716 13.12945079 14.94387531 13 19 C8.05 19 3.1 19 -2 19 C-2 13.06 -2 7.12 -2 1 C-1.34 0.67 -0.68 0.34 0 0 Z M6 13 C6 13.99 6 14.98 6 16 C6.99 16 7.98 16 9 16 C9 15.01 9 14.02 9 13 C8.01 13 7.02 13 6 13 Z " fill="#1B6C47" transform="translate(98,110)"/>
<path d="M0 0 C1.32 0 2.64 0 4 0 C4.33 1.65 4.66 3.3 5 5 C5.66 4.67 6.32 4.34 7 4 C9.3329866 3.95977609 11.66706666 3.95679753 14 4 C14 5.32 14 6.64 14 8 C12.68 8.33 11.36 8.66 10 9 C11.32 9.66 12.64 10.32 14 11 C14.04254356 12.99954746 14.04080783 15.00041636 14 17 C13 18 13 18 10.05859375 18.09765625 C6.70572917 18.06510417 3.35286458 18.03255208 0 18 C0 12.06 0 6.12 0 0 Z M4 10 C4 11.65 4 13.3 4 15 C6.31 15 8.62 15 11 15 C8.63707344 12.47411298 7.33537489 11.11179163 4 10 Z " fill="#1C6945" transform="translate(81,111)"/>
<path d="M0 0 C10.7421875 -0.1953125 10.7421875 -0.1953125 14 0 C16 2 16 2 16.1953125 4.8203125 C16.17210937 5.91085938 16.14890625 7.00140625 16.125 8.125 C16.10695312 9.22070312 16.08890625 10.31640625 16.0703125 11.4453125 C16.04710937 12.28835937 16.02390625 13.13140625 16 14 C15.01 14 14.02 14 13 14 C13 10.7 13 7.4 13 4 C12.01 4 11.02 4 10 4 C10 7.3 10 10.6 10 14 C8.68 14 7.36 14 6 14 C6 10.7 6 7.4 6 4 C5.01 4.495 5.01 4.495 4 5 C4.020625 6.11375 4.04125 7.2275 4.0625 8.375 C4 12 4 12 3 14 C2.01 14 1.02 14 0 14 C0 9.38 0 4.76 0 0 Z " fill="#186742" transform="translate(112,115)"/>
<path d="M0 0 C0.66 0.33 1.32 0.66 2 1 C2 6.94 2 12.88 2 19 C-2.62 19 -7.24 19 -12 19 C-12 18.67 -12 18.34 -12 18 C-9.36 18 -6.72 18 -4 18 C-4.66 17.34 -5.32 16.68 -6 16 C-6 15.01 -6 14.02 -6 13 C-8.31 13 -10.62 13 -13 13 C-12.01 12.01 -11.02 11.02 -10 10 C-10.99 9.34 -11.98 8.68 -13 8 C-12.67 7.01 -12.34 6.02 -12 5 C-8.66666667 5 -5.33333333 5 -2 5 C-2 3.68 -2 2.36 -2 1 C-1.34 0.67 -0.68 0.34 0 0 Z " fill="#2A7050" transform="translate(71,110)"/>
<path d="M0 0 C0.33 0 0.66 0 1 0 C1 6.33333333 1 12.66666667 1 19 C1.66 19 2.32 19 3 19 C3.433125 18.525625 3.86625 18.05125 4.3125 17.5625 C6.44693733 15.58616914 8.16307947 15.38336764 11 15 C8.69617653 20.63156848 3.42472396 23.52750196 -2.0078125 25.86328125 C-5.26801447 26.90061824 -7.78590418 27.28563833 -11 26 C-8.98270034 22.3389747 -7.04329738 19.02712533 -4.375 15.8125 C-0.91634164 11.17257679 -0.61700144 5.60826678 0 0 Z " fill="#177746" transform="translate(118,40)"/>
<path d="M0 0 C4.52873901 0.53279282 7.57649071 1.97457318 11 5 C11.375 8.75 11.375 8.75 11 12 C10.401875 12.061875 9.80375 12.12375 9.1875 12.1875 C6.12856542 13.3236757 5.44958901 15.17330142 4 18 C4.66 18.33 5.32 18.66 6 19 C5.48967606 22.77639718 4.79233071 24.44722581 2 27 C1.8301095 24.50018262 1.66402047 22.00020399 1.5 19.5 C1.42845703 18.45585938 1.42845703 18.45585938 1.35546875 17.390625 C1.1228625 13.80184286 0.98513678 10.2530809 1.03125 6.65625 C1.18820383 3.05109797 1.18820383 3.05109797 0 0 Z " fill="#22AD76" transform="translate(116,10)"/>
<path d="M0 0 C0.33 0 0.66 0 1 0 C1.03738281 0.83144531 1.07476562 1.66289063 1.11328125 2.51953125 C1.17902344 3.60621094 1.24476563 4.69289063 1.3125 5.8125 C1.37050781 6.89144531 1.42851562 7.97039062 1.48828125 9.08203125 C2.04280238 12.2440716 2.53578802 13.07122174 5 15 C5.66 15.66 6.32 16.32 7 17 C3.20839703 17.05786668 -0.58309311 17.09355054 -4.375 17.125 C-5.99535156 17.15013672 -5.99535156 17.15013672 -7.6484375 17.17578125 C-8.6796875 17.18222656 -9.7109375 17.18867187 -10.7734375 17.1953125 C-12.20308838 17.21102295 -12.20308838 17.21102295 -13.66162109 17.22705078 C-16 17 -16 17 -18 15 C-18.1953125 12.6171875 -18.1953125 12.6171875 -18.125 9.875 C-18.10695312 8.96492188 -18.08890625 8.05484375 -18.0703125 7.1171875 C-18.04710937 6.41851562 -18.02390625 5.71984375 -18 5 C-16.68 5 -15.36 5 -14 5 C-13.67 7.31 -13.34 9.62 -13 12 C-8.71 12.33 -4.42 12.66 0 13 C0 8.71 0 4.42 0 0 Z " fill="#176A46" transform="translate(181,81)"/>
<path d="M0 0 C0.99 0.33 1.98 0.66 3 1 C3 4.96 3 8.92 3 13 C3.66 13.33 4.32 13.66 5 14 C4.01 14.495 4.01 14.495 3 15 C3.66 15.66 4.32 16.32 5 17 C1.7 17 -1.6 17 -5 17 C-5.33 14.03 -5.66 11.06 -6 8 C-8.97 7.505 -8.97 7.505 -12 7 C-12.33 9.31 -12.66 11.62 -13 14 C-13.99 14 -14.98 14 -16 14 C-16.33 12.02 -16.66 10.04 -17 8 C-18.65 7.67 -20.3 7.34 -22 7 C-22 6.34 -22 5.68 -22 5 C-21.071875 5.165 -20.14375 5.33 -19.1875 5.5 C-15.79617886 6.03197194 -13.36091259 6.07519012 -10 5.375 C-7 5 -7 5 -4 7 C-3.8125 10.125 -3.8125 10.125 -4 13 C-1.50600835 10.50600835 -1.67067912 9.38557427 -1.4375 5.9375 C-1.09722222 1.09722222 -1.09722222 1.09722222 0 0 Z " fill="#247450" transform="translate(61,81)"/>
<path d="M0 0 C1.75 0.125 1.75 0.125 4 1 C8 5.86486486 8 5.86486486 8 9 C6.56342441 11.87315117 4.92691028 14.43078629 3 17 C2.34 17 1.68 17 1 17 C-0.35278115 15.01310269 -1.68568305 13.01254782 -3 11 C-3.66 10.67 -4.32 10.34 -5 10 C-3.66511872 6.40608886 -2.03977277 3.24509304 0 0 Z " fill="#1C975B" transform="translate(105,28)"/>
<path d="M0 0 C2.35953094 2.35953094 2.49141413 3.77895617 3 7 C3.66 6.34 4.32 5.68 5 5 C5.99 5 6.98 5 8 5 C7.37240135 7.92879371 6.41377341 10.36095629 5 13 C5.7425 13.6496875 5.7425 13.6496875 6.5 14.3125 C8 16 8 16 8 19 C7.0925 18.814375 6.185 18.62875 5.25 18.4375 C1.8491925 17.77576292 1.8491925 17.77576292 -2 19 C-2 13.06 -2 7.12 -2 1 C-1.34 0.67 -0.68 0.34 0 0 Z " fill="#206543" transform="translate(189,110)"/>
<path d="M0 0 C1.98 0 3.96 0 6 0 C6 0.66 6 1.32 6 2 C5.01 2.33 4.02 2.66 3 3 C3.33 5.64 3.66 8.28 4 11 C7.465 10.505 7.465 10.505 11 10 C11 10.66 11 11.32 11 12 C5.92175031 13.76184173 2.34467618 14.48463227 -3 13 C-5.9375 10.4375 -5.9375 10.4375 -8 8 C-7.67 7.67 -7.34 7.34 -7 7 C-6.95936168 5.33382885 -6.957279 3.66611905 -7 2 C-4.69 2.66 -2.38 3.32 0 4 C0 3.01 0 2.02 0 1 C0 0.67 0 0.34 0 0 Z " fill="#ABC092" transform="translate(94,51)"/>
<path d="M0 0 C0.79148437 -0.01417969 1.58296875 -0.02835937 2.3984375 -0.04296875 C4.625 0.1875 4.625 0.1875 7.625 2.1875 C7.625 2.8475 7.625 3.5075 7.625 4.1875 C6.965 4.1875 6.305 4.1875 5.625 4.1875 C5.625 3.5275 5.625 2.8675 5.625 2.1875 C2.985 2.1875 0.345 2.1875 -2.375 2.1875 C-2.045 3.1775 -1.715 4.1675 -1.375 5.1875 C-1.30697033 6.91545352 -1.29004355 8.64585365 -1.3125 10.375 C-1.32152344 11.27605469 -1.33054687 12.17710938 -1.33984375 13.10546875 C-1.35144531 13.79253906 -1.36304688 14.47960937 -1.375 15.1875 C-0.446875 14.8575 0.48125 14.5275 1.4375 14.1875 C4.625 13.1875 4.625 13.1875 7.625 13.1875 C7.25 15.125 7.25 15.125 6.625 17.1875 C4.10024538 18.44987731 2.31299534 18.28606404 -0.5 18.25 C-1.41007812 18.24097656 -2.32015625 18.23195312 -3.2578125 18.22265625 C-4.30582031 18.20525391 -4.30582031 18.20525391 -5.375 18.1875 C-5.40184312 15.37493719 -5.42176188 12.56262759 -5.4375 9.75 C-5.44587891 8.94755859 -5.45425781 8.14511719 -5.46289062 7.31835938 C-5.4715143 5.27454779 -5.4272815 3.23066098 -5.375 1.1875 C-3.79539731 -0.39210269 -2.17963184 0.01763456 0 0 Z " fill="#1B6741" transform="translate(25.375,110.8125)"/>
<path d="M0 0 C0.598125 0.309375 1.19625 0.61875 1.8125 0.9375 C4.08956772 2.10209704 4.08956772 2.10209704 7 3 C7 4.98 7 6.96 7 9 C7.99 9 8.98 9 10 9 C10.33 6.69 10.66 4.38 11 2 C12.99954746 1.95745644 15.00041636 1.95919217 17 2 C18 3 18 3 18.1328125 4.8125 C18.13023438 5.534375 18.12765625 6.25625 18.125 7 C18.12886719 8.0828125 18.12886719 8.0828125 18.1328125 9.1875 C18 11 18 11 17 12 C15.35659133 12.09854655 13.7088539 12.12972411 12.0625 12.125 C11.16660156 12.12757812 10.27070312 12.13015625 9.34765625 12.1328125 C7 12 7 12 5 11 C4.59270772 8.67843403 4.25561323 6.3431213 4 4 C2.68 4 1.36 4 0 4 C0 6.31 0 8.62 0 11 C-0.33 11 -0.66 11 -1 11 C-1.125 3.375 -1.125 3.375 0 0 Z M13 4 C13 5.32 13 6.64 13 8 C13.99 7.67 14.98 7.34 16 7 C16 6.01 16 5.02 16 4 C15.01 4 14.02 4 13 4 Z " fill="#186E46" transform="translate(38,86)"/>
<path d="M0 0 C1.258125 -0.04125 2.51625 -0.0825 3.8125 -0.125 C4.52019531 -0.14820312 5.22789062 -0.17140625 5.95703125 -0.1953125 C8 0 8 0 11 2 C11.29296875 4.8203125 11.29296875 4.8203125 11.1875 8.125 C11.16042969 9.22070312 11.13335937 10.31640625 11.10546875 11.4453125 C11.07066406 12.28835937 11.03585938 13.13140625 11 14 C9.68 14 8.36 14 7 14 C7 10.7 7 7.4 7 4 C5.02 4.99 5.02 4.99 3 6 C3 8.64 3 11.28 3 14 C2.01 14 1.02 14 0 14 C0 9.38 0 4.76 0 0 Z " fill="#286B4D" transform="translate(175,115)"/>
<path d="M0 0 C-1.32 0.99 -2.64 1.98 -4 3 C-3.71872579 4.48117801 -3.42466268 5.95993249 -3.125 7.4375 C-2.88136719 8.67306641 -2.88136719 8.67306641 -2.6328125 9.93359375 C-2.31957031 10.95646484 -2.31957031 10.95646484 -2 12 C-1.34 12.33 -0.68 12.66 0 13 C-0.66 14.32 -1.32 15.64 -2 17 C-2.33 16.34 -2.66 15.68 -3 15 C-5.52733235 14.34444881 -5.52733235 14.34444881 -8 14 C-8.33 15.32 -8.66 16.64 -9 18 C-8.34 18.33 -7.68 18.66 -7 19 C-8.65 18.67 -10.3 18.34 -12 18 C-12 17.01 -12 16.02 -12 15 C-12.1496644 13.60224142 -12.31720487 12.2063129 -12.5 10.8125 C-12.665 9.554375 -12.83 8.29625 -13 7 C-9.04 8.98 -9.04 8.98 -5 11 C-5.3609375 10.44570313 -5.721875 9.89140625 -6.09375 9.3203125 C-6.5578125 8.59585938 -7.021875 7.87140625 -7.5 7.125 C-7.9640625 6.40570313 -8.428125 5.68640625 -8.90625 4.9453125 C-10 3 -10 3 -10 1 C-3.375 -1.125 -3.375 -1.125 0 0 Z " fill="#D7D7BD" transform="translate(96,40)"/>
<path d="M0 0 C7.71484375 -0.09765625 7.71484375 -0.09765625 10 0 C11 1 11 1 11.0625 4.0625 C11.041875 5.031875 11.02125 6.00125 11 7 C10.01 6.01 9.02 5.02 8 4 C7.01 4.33 6.02 4.66 5 5 C5 5.99 5 6.98 5 8 C4.34 8 3.68 8 3 8 C3.66 9.98 4.32 11.96 5 14 C4.34 14 3.68 14 3 14 C3 14.66 3 15.32 3 16 C4.65 16 6.3 16 8 16 C8.33 16.66 8.66 17.32 9 18 C6.03 18 3.06 18 0 18 C0 12.06 0 6.12 0 0 Z " fill="#1A6440" transform="translate(150,111)"/>
<path d="M0 0 C2.46278801 2.46278801 2.99771255 4.70676982 4 8 C4.66 6.68 5.32 5.36 6 4 C6 11.26 6 18.52 6 26 C5.34 26 4.68 26 4 26 C3.67 26.66 3.34 27.32 3 28 C3.33 25.36 3.66 22.72 4 20 C2.35 20.33 0.7 20.66 -1 21 C-0.85831863 19.56208484 -0.71148957 18.1246763 -0.5625 16.6875 C-0.44068359 15.48673828 -0.44068359 15.48673828 -0.31640625 14.26171875 C0 12 0 12 1 9 C0.484375 8.195625 -0.03125 7.39125 -0.5625 6.5625 C-1.036875 5.716875 -1.51125 4.87125 -2 4 C-1.1875 1.6875 -1.1875 1.6875 0 0 Z " fill="#A09A59" transform="translate(112,22)"/>
<path d="M0 0 C2.05078125 0.03255208 4.1015625 0.06510417 6.15234375 0.09765625 C6.81234375 1.41765625 7.47234375 2.73765625 8.15234375 4.09765625 C4.7843519 9.75107113 4.7843519 9.75107113 2.21484375 11.16015625 C-0.7323659 11.07084687 -2.46780393 9.75033147 -4.84765625 8.09765625 C-2.67780446 0.14153301 -2.67780446 0.14153301 0 0 Z " fill="#328D53" transform="translate(94.84765625,22.90234375)"/>
<path d="M0 0 C3.78717347 1.48781815 5.77407001 3.61988409 8 7 C7.67 7.99 7.34 8.98 7 10 C4.93359375 10.73046875 4.93359375 10.73046875 2.4375 11.1875 C1.61121094 11.34605469 0.78492187 11.50460938 -0.06640625 11.66796875 C-0.70449219 11.77753906 -1.34257813 11.88710938 -2 12 C-3.5625 9.1875 -3.5625 9.1875 -5 6 C-3.86695008 2.60085025 -2.87481525 1.94745549 0 0 Z " fill="#27A05F" transform="translate(96,39)"/>
<path d="M0 0 C0.66 0.33 1.32 0.66 2 1 C1.49984375 1.69609375 0.9996875 2.3921875 0.484375 3.109375 C-1.29939559 6.58303352 -1.17741946 8.40322485 -0.75 12.25 C-0.62882812 13.38695312 -0.50765625 14.52390625 -0.3828125 15.6953125 C-0.25648437 16.78585938 -0.13015625 17.87640625 0 19 C0.06445312 19.90492187 0.12890625 20.80984375 0.1953125 21.7421875 C0.51397423 25.9679191 0.77130241 28.22021223 4 31 C3.505 32.485 3.505 32.485 3 34 C-2.87036199 28.73691684 -4.49294986 23.42477346 -5.00390625 15.75 C-4.99546193 9.80519547 -3.39039416 4.93148242 0 0 Z " fill="#A57C78" transform="translate(81,22)"/>
<path d="M0 0 C-0.99 0.66 -1.98 1.32 -3 2 C-3.66 2.66 -4.32 3.32 -5 4 C-7.1640625 4.1953125 -7.1640625 4.1953125 -9.625 4.125 C-10.44226563 4.10695313 -11.25953125 4.08890625 -12.1015625 4.0703125 C-12.72804688 4.04710937 -13.35453125 4.02390625 -14 4 C-14.18175781 4.62648438 -14.36351563 5.25296875 -14.55078125 5.8984375 C-14.80214844 6.71570313 -15.05351563 7.53296875 -15.3125 8.375 C-15.55613281 9.18710937 -15.79976563 9.99921875 -16.05078125 10.8359375 C-17 13 -17 13 -20 15 C-20.99 15 -21.98 15 -23 15 C-23.25 12.6875 -23.25 12.6875 -23 10 C-21 8.1875 -21 8.1875 -19 7 C-19.66 6.67 -20.32 6.34 -21 6 C-14.71670485 1.03950383 -7.92050407 -0.16942255 0 0 Z " fill="#87A483" transform="translate(109,7)"/>
<path d="M0 0 C0.99 0.33 1.98 0.66 3 1 C3 2.32 3 3.64 3 5 C2.34 5 1.68 5 1 5 C1 8.96 1 12.92 1 17 C2.32 16.34 3.64 15.68 5 15 C5.81870185 11.43793339 5.81870185 11.43793339 6 8 C5.34 7.67 4.68 7.34 4 7 C5.32 7.33 6.64 7.66 8 8 C8 11.63 8 15.26 8 19 C5.03 19 2.06 19 -1 19 C-1.02683987 16.02077407 -1.04676037 13.04178705 -1.0625 10.0625 C-1.07087891 9.21236328 -1.07925781 8.36222656 -1.08789062 7.48632812 C-1.09111328 6.67744141 -1.09433594 5.86855469 -1.09765625 5.03515625 C-1.10289307 4.2862915 -1.10812988 3.53742676 -1.11352539 2.76586914 C-1 1 -1 1 0 0 Z " fill="#1D5E3E" transform="translate(48,110)"/>
<path d="M0 0 C0 1.32 0 2.64 0 4 C-1.65 4 -3.3 4 -5 4 C-5 5.98 -5 7.96 -5 10 C-3.35 10.33 -1.7 10.66 0 11 C0 11.99 0 12.98 0 14 C-3.375 14.125 -3.375 14.125 -7 14 C-9.41486943 11.58513057 -9.2961925 10.87292211 -9.3125 7.5625 C-9.32925781 6.78003906 -9.34601563 5.99757813 -9.36328125 5.19140625 C-8.45578066 -0.2828715 -4.85993784 -0.32399586 0 0 Z " fill="#156745" transform="translate(143,115)"/>
<path d="M0 0 C0 2.64 0 5.28 0 8 C-2.97 8.66 -5.94 9.32 -9 10 C-9.66 7.69 -10.32 5.38 -11 3 C-7.14243493 0.84694043 -4.44870215 -0.39253254 0 0 Z " fill="#308E53" transform="translate(107,52)"/>
<path d="M0 0 C1.32 0 2.64 0 4 0 C4.33 1.65 4.66 3.3 5 5 C5.66 4.67 6.32 4.34 7 4 C9.3329866 3.95977609 11.66706666 3.95679753 14 4 C14 5.32 14 6.64 14 8 C10.28400809 8.20086443 9.22791555 8.1519437 6 6 C6 7.65 6 9.3 6 11 C3.64551835 8.44931155 3.01672076 7.28982642 2.8125 3.75 C2.9053125 2.38875 2.9053125 2.38875 3 1 C2.34 1 1.68 1 1 1 C1 5.62 1 10.24 1 15 C1.66 15 2.32 15 3 15 C3 15.66 3 16.32 3 17 C6.3 17 9.6 17 13 17 C13 17.33 13 17.66 13 18 C8.71 18 4.42 18 0 18 C0 12.06 0 6.12 0 0 Z " fill="#2A6148" transform="translate(81,111)"/>
<path d="M0 0 C5.92024047 4.7690826 8.26008022 11.11951899 9.38671875 18.55078125 C9.69062753 25.1214986 7.91850511 31.13103534 5 37 C4.01 37.495 4.01 37.495 3 38 C3.55813174 35.02329739 4.23551484 32.16877114 5.0625 29.25 C6.98751561 21.47702029 6.477036 14.27413389 3 7 C1.00213319 4.49319339 1.00213319 4.49319339 -1 3 C-0.67 2.01 -0.34 1.02 0 0 Z " fill="#297E5B" transform="translate(127,16)"/>
<path d="M0 0 C1.32 0.33 2.64 0.66 4 1 C4 6.61 4 12.22 4 18 C2.68 18.33 1.36 18.66 0 19 C0 12.73 0 6.46 0 0 Z " fill="#197149" transform="translate(104,79)"/>
<path d="M0 0 C0.66 0.33 1.32 0.66 2 1 C2 6.94 2 12.88 2 19 C0.68 19 -0.64 19 -2 19 C-2 13.06 -2 7.12 -2 1 C-1.34 0.67 -0.68 0.34 0 0 Z " fill="#246749" transform="translate(131,110)"/>
<path d="M0 0 C5.63254122 3.7858064 9.09584117 6.21643418 11 13 C11.1875 16.9375 11.1875 16.9375 11 20 C8.13840263 17.5860268 7.32568005 15.4583325 6.375 11.875 C5.7005259 8.65634118 5.7005259 8.65634118 4 6 C3.34 7.32 2.68 8.64 2 10 C1.34 10 0.68 10 0 10 C0 6.7 0 3.4 0 0 Z " fill="#DDF2D8" transform="translate(106,11)"/>
<path d="M0 0 C0.80824219 0.19464844 1.61648437 0.38929687 2.44921875 0.58984375 C3.06410156 0.74582031 3.67898437 0.90179688 4.3125 1.0625 C3.3225 1.5575 3.3225 1.5575 2.3125 2.0625 C2.663125 2.701875 3.01375 3.34125 3.375 4 C4.66240613 8.2055267 4.0033847 11.77714763 3.3125 16.0625 C3.02375 15.464375 2.735 14.86625 2.4375 14.25 C1.26507974 11.86922208 1.26507974 11.86922208 -0.6875 9.0625 C-0.6875 7.7425 -0.6875 6.4225 -0.6875 5.0625 C-2.9975 4.0725 -5.3075 3.0825 -7.6875 2.0625 C-7.6875 1.4025 -7.6875 0.7425 -7.6875 0.0625 C-4.39053895 -1.03648702 -3.28255097 -0.80874444 0 0 Z " fill="#5AB593" transform="translate(113.6875,7.9375)"/>
<path d="M0 0 C2.74277578 3.19990508 4.6302836 6.00499382 6 10 C1.25 9.25 1.25 9.25 -1 7 C-1 8.65 -1 10.3 -1 12 C-2.5 10.9375 -2.5 10.9375 -4 9 C-4.1875 5.3125 -4.1875 5.3125 -4 2 C-2.68 1.34 -1.36 0.68 0 0 Z " fill="#986261" transform="translate(85,41)"/>
<path d="M0 0 C0.66 0.33 1.32 0.66 2 1 C2 4.96 2 8.92 2 13 C-1.3 13 -4.6 13 -8 13 C-8.6875 10.1875 -8.6875 10.1875 -9 7 C-7.6875 5.125 -7.6875 5.125 -6 4 C-5.34 4 -4.68 4 -4 4 C-4 4.66 -4 5.32 -4 6 C-3.34 6.33 -2.68 6.66 -2 7 C-2.33 7.66 -2.66 8.32 -3 9 C-4.32 9 -5.64 9 -7 9 C-6.67 9.66 -6.34 10.32 -6 11 C-4.35 11 -2.7 11 -1 11 C-0.67 7.37 -0.34 3.74 0 0 Z " fill="#256F50" transform="translate(109,116)"/>
<path d="M0 0 C1.32 0 2.64 0 4 0 C4.66 2.31 5.32 4.62 6 7 C9.3 7.33 12.6 7.66 16 8 C16 8.33 16 8.66 16 9 C15.38511719 9.06058594 14.77023438 9.12117188 14.13671875 9.18359375 C12.92435547 9.30927734 12.92435547 9.30927734 11.6875 9.4375 C10.88699219 9.51871094 10.08648437 9.59992188 9.26171875 9.68359375 C6.83912821 9.95265693 6.83912821 9.95265693 4 11 C1.8125 10.0625 1.8125 10.0625 0 8 C-0.35247494 5.24527279 -0.18331455 2.7955469 0 0 Z " fill="#1A6742" transform="translate(114,91)"/>
<path d="M0 0 C0.66 0.33 1.32 0.66 2 1 C1.38479725 4.99881788 -0.60268669 7.80358226 -3 11 C-3.66 11 -4.32 11 -5 11 C-6.98 7.535 -6.98 7.535 -9 4 C-8.443125 3.896875 -7.88625 3.79375 -7.3125 3.6875 C-4.84867158 3.06501112 -4.84867158 3.06501112 -2.375 1.375 C-1.59125 0.92125 -0.8075 0.4675 0 0 Z " fill="#188E51" transform="translate(111,34)"/>
<path d="M0 0 C0.66 0.99 1.32 1.98 2 3 C2.61875 2.505 3.2375 2.01 3.875 1.5 C6 0 6 0 8 0 C6.68938409 4.23429756 5.05643741 8.07407404 3 12 C0.16303761 9.2863838 -0.95941032 7.99444711 -1.125 3.9375 C-1 1 -1 1 0 0 Z " fill="#94534F" transform="translate(82,23)"/>
<path d="M0 0 C1.32 1.32 2.64 2.64 4 4 C3.608125 4.86625 3.21625 5.7325 2.8125 6.625 C1.63954497 10.05470991 1.63954497 10.05470991 3.375 13.375 C3.91125 14.24125 4.4475 15.1075 5 16 C4.34 16.66 3.68 17.32 3 18 C2.071875 16.824375 2.071875 16.824375 1.125 15.625 C-0.89858661 13.03162353 -0.89858661 13.03162353 -3 11 C-2.01 11 -1.02 11 0 11 C-0.185625 9.9275 -0.37125 8.855 -0.5625 7.75 C-0.9304568 4.59608454 -1.04465343 2.90181508 0 0 Z " fill="#95C6A4" transform="translate(109,16)"/>
<path d="M0 0 C0.99 0 1.98 0 3 0 C3 5.94 3 11.88 3 18 C2.67 18 2.34 18 2 18 C1.67 13.38 1.34 8.76 1 4 C0.67 4 0.34 4 0 4 C-0.33 7.63 -0.66 11.26 -1 15 C-1.33 15 -1.66 15 -2 15 C-2.33 11.7 -2.66 8.4 -3 5 C-3.33 7.31 -3.66 9.62 -4 12 C-4.33 12 -4.66 12 -5 12 C-5 8.7 -5 5.4 -5 2 C-3.35 2 -1.7 2 0 2 C0 1.34 0 0.68 0 0 Z " fill="#377057" transform="translate(100,79)"/>
<path d="M0 0 C2.90883109 1.40896506 5.57299378 2.84975764 8 5 C8.5 8.8125 8.5 8.8125 8 12 C7.38125 12.144375 6.7625 12.28875 6.125 12.4375 C3.96741678 12.93152225 3.96741678 12.93152225 2 14 C2 10.37 2 6.74 2 3 C1.34 3 0.68 3 0 3 C0 2.01 0 1.02 0 0 Z " fill="#219B69" transform="translate(119,10)"/>
<path d="M0 0 C-3.75 3 -3.75 3 -6 3 C-6 4.65 -6 6.3 -6 8 C-5.01 8.33 -4.02 8.66 -3 9 C-4.98 10.32 -6.96 11.64 -9 13 C-9 11.35 -9 9.7 -9 8 C-9.66 7.67 -10.32 7.34 -11 7 C-10.26418258 5.8450079 -9.51069961 4.70125815 -8.75 3.5625 C-8.33234375 2.92441406 -7.9146875 2.28632813 -7.484375 1.62890625 C-5.16356851 -0.9178735 -3.10530322 -1.55265161 0 0 Z " fill="#C8C6A7" transform="translate(92,14)"/>
<path d="M0 0 C2.35953094 2.35953094 2.49141413 3.77895617 3 7 C3.66 6.34 4.32 5.68 5 5 C5.99 5 6.98 5 8 5 C7.75 6.875 7.75 6.875 7 9 C4.41847698 10.72101535 3.15081975 11 0 11 C-0.144375 9.906875 -0.28875 8.81375 -0.4375 7.6875 C-0.88288104 4.06877013 -0.88288104 4.06877013 -2 1 C-1.34 0.67 -0.68 0.34 0 0 Z " fill="#2D7254" transform="translate(189,110)"/>
<path d="M0 0 C2.46278801 2.46278801 2.99771255 4.70676982 4 8 C4.66 6.68 5.32 5.36 6 4 C6 6.31 6 8.62 6 11 C4.35 11.33 2.7 11.66 1 12 C0.87625 11.278125 0.7525 10.55625 0.625 9.8125 C0.0095069 7.04278106 -0.88444374 4.6029646 -2 2 C-1.34 1.34 -0.68 0.68 0 0 Z " fill="#A8BB74" transform="translate(112,22)"/>
<path d="M0 0 C0 0.66 0 1.32 0 2 C-1.65 2.33 -3.3 2.66 -5 3 C-5 3.99 -5 4.98 -5 6 C-6.98 6 -8.96 6 -11 6 C-11.5625 4.0625 -11.5625 4.0625 -12 2 C-10.43670947 0.43670947 -8.72244543 0.6552225 -6.5625 0.4375 C-5.75941406 0.35371094 -4.95632812 0.26992187 -4.12890625 0.18359375 C-2 0 -2 0 0 0 Z " fill="#277450" transform="translate(132,99)"/>
<path d="M0 0 C-0.99 0.5259375 -0.99 0.5259375 -2 1.0625 C-4.41103961 2.96557142 -4.41103961 2.96557142 -4.25 6.6875 C-4.1675 7.780625 -4.085 8.87375 -4 10 C-7.08089673 7.22719294 -8.68775452 4.93673644 -10 1 C-3.375 -1.125 -3.375 -1.125 0 0 Z " fill="#DFD7B2" transform="translate(96,40)"/>
<path d="M0 0 C1.32 0 2.64 0 4 0 C4 1.98 4 3.96 4 6 C3.34 5.01 2.68 4.02 2 3 C2.33 4.65 2.66 6.3 3 8 C5.31 8.33 7.62 8.66 10 9 C9.67 9.99 9.34 10.98 9 12 C6.9375 12.6875 6.9375 12.6875 5 13 C0.07692308 7.95384615 0.07692308 7.95384615 -0.3125 3.125 C-0.209375 2.09375 -0.10625 1.0625 0 0 Z " fill="#257351" transform="translate(20,91)"/>
<path d="M0 0 C0.66 0 1.32 0 2 0 C1.74412595 1.77305664 1.46972261 3.54344608 1.1875 5.3125 C1.03667969 6.29863281 0.88585937 7.28476562 0.73046875 8.30078125 C-0.03436705 11.12699269 -0.75258762 12.1959128 -3 14 C-4.46813934 6.9039932 -4.46813934 6.9039932 -2.1875 2.5 C-1.465625 1.675 -0.74375 0.85 0 0 Z " fill="#2F783E" transform="translate(113,42)"/>
<path d="M0 0 C0.33 0 0.66 0 1 0 C1.03738281 0.81984375 1.07476562 1.6396875 1.11328125 2.484375 C1.21189453 4.10085937 1.21189453 4.10085937 1.3125 5.75 C1.39951172 7.35101563 1.39951172 7.35101563 1.48828125 8.984375 C1.83354132 12.41375758 1.83354132 12.41375758 5 16 C-0.94 16 -6.88 16 -13 16 C-13 15.67 -13 15.34 -13 15 C-9.04 15 -5.08 15 -1 15 C-0.67 10.05 -0.34 5.1 0 0 Z " fill="#096B3E" transform="translate(181,81)"/>
<path d="M0 0 C1.65 0 3.3 0 5 0 C5 0.66 5 1.32 5 2 C6.32 2.66 7.64 3.32 9 4 C9.33 3.34 9.66 2.68 10 2 C10 3.32 10 4.64 10 6 C7.03 6 4.06 6 1 6 C0.67 4.02 0.34 2.04 0 0 Z " fill="#136C44" transform="translate(57,122)"/>
<path d="M0 0 C2.31 0.66 4.62 1.32 7 2 C7.33 3.98 7.66 5.96 8 8 C2.25 6.125 2.25 6.125 0 5 C0 3.35 0 1.7 0 0 Z " fill="#3DA167" transform="translate(87,53)"/>
<path d="M0 0 C0.99 0.33 1.98 0.66 3 1 C2.67 1.66 2.34 2.32 2 3 C2.66 3.33 3.32 3.66 4 4 C3.34 4 2.68 4 2 4 C2 6.64 2 9.28 2 12 C1.01 12 0.02 12 -1 12 C-1.02687279 10.18757948 -1.04633715 8.37504767 -1.0625 6.5625 C-1.07410156 5.55316406 -1.08570313 4.54382813 -1.09765625 3.50390625 C-1 1 -1 1 0 0 Z " fill="#1C633F" transform="translate(176,117)"/>
<path d="M0 0 C0.99 0.33 1.98 0.66 3 1 C3 2.98 3 4.96 3 7 C0.69 7 -1.62 7 -4 7 C-3.6875 4.625 -3.6875 4.625 -3 2 C-2.01 1.34 -1.02 0.68 0 0 Z " fill="#316D50" transform="translate(174,81)"/>
<path d="M0 0 C1.65 0 3.3 0 5 0 C5 2.31 5 4.62 5 7 C2.69 7 0.38 7 -2 7 C-1.34 4.69 -0.68 2.38 0 0 Z " fill="#5BB37E" transform="translate(97,13)"/>
<path d="M0 0 C0 3 0 3 -2 6 C-1.67 6.66 -1.34 7.32 -1 8 C-1.99 8.33 -2.98 8.66 -4 9 C-2.68 9.33 -1.36 9.66 0 10 C0 10.66 0 11.32 0 12 C-2.64 12.33 -5.28 12.66 -8 13 C-6.00503547 7.75009334 -3.76315833 4.16998625 0 0 Z " fill="#2F7948" transform="translate(115,54)"/>
<path d="M0 0 C0.99 0.33 1.98 0.66 3 1 C3 2.98 3 4.96 3 7 C0.69 7 -1.62 7 -4 7 C-3.6875 4.625 -3.6875 4.625 -3 2 C-2.01 1.34 -1.02 0.68 0 0 Z " fill="#326D54" transform="translate(97,98)"/>
<path d="M0 0 C3 0.1875 3 0.1875 5 1.1875 C5 1.8475 5 2.5075 5 3.1875 C1.77208445 5.3394437 0.71599191 5.38836443 -3 5.1875 C-3 4.5275 -3 3.8675 -3 3.1875 C-3.66 2.8575 -4.32 2.5275 -5 2.1875 C-3 0.1875 -3 0.1875 0 0 Z " fill="#8B4546" transform="translate(89,34.8125)"/>
<path d="M0 0 C-0.3125 2.875 -0.3125 2.875 -1 6 C-4 8 -4 8 -7 8 C-7.3125 5.6875 -7.3125 5.6875 -7 3 C-4.6167054 1.18116991 -3.04181663 0 0 0 Z " fill="#3B8C54" transform="translate(93,14)"/>
<path d="M0 0 C0.33 0 0.66 0 1 0 C1.99 4.95 2.98 9.9 4 15 C2.68 15.33 1.36 15.66 0 16 C0 10.72 0 5.44 0 0 Z " fill="#0B6F44" transform="translate(97,112)"/>
<path d="M0 0 C0 1.32 0 2.64 0 4 C-3.71599191 4.20086443 -4.77208445 4.1519437 -8 2 C-8 3.65 -8 5.3 -8 7 C-8.66 6.01 -9.32 5.02 -10 4 C-9.67 3.01 -9.34 2.02 -9 1 C-6.04335481 -0.4783226 -3.25770263 -0.06032783 0 0 Z " fill="#287154" transform="translate(95,115)"/>
<path d="M0 0 C1.32 0.33 2.64 0.66 4 1 C4 4.63 4 8.26 4 12 C2.68 11.34 1.36 10.68 0 10 C0 6.7 0 3.4 0 0 Z " fill="#24754F" transform="translate(104,79)"/>
<path d="M0 0 C1.65 0 3.3 0 5 0 C5 0.99 5 1.98 5 3 C5.66 3 6.32 3 7 3 C7.33 4.32 7.66 5.64 8 7 C7.484375 6.67 6.96875 6.34 6.4375 6 C3.21973488 4.67989123 0.4429472 4.86757895 -3 5 C-2.67 4.34 -2.34 3.68 -2 3 C-1.34 3 -0.68 3 0 3 C0 2.01 0 1.02 0 0 Z " fill="#D5C187" transform="translate(94,35)"/>
<path d="M0 0 C2.97 0.495 2.97 0.495 6 1 C6.33 1.99 6.66 2.98 7 4 C6.34 4 5.68 4 5 4 C5 4.99 5 5.98 5 7 C4.01 7 3.02 7 2 7 C2 6.34 2 5.68 2 5 C1.34 5 0.68 5 0 5 C0 3.35 0 1.7 0 0 Z " fill="#10985E" transform="translate(94,24)"/>
<path d="M0 0 C0.66 0 1.32 0 2 0 C2 3.3 2 6.6 2 10 C0.68 10 -0.64 10 -2 10 C-1.85950482 8.52031676 -1.71245174 7.04125484 -1.5625 5.5625 C-1.48128906 4.73878906 -1.40007812 3.91507812 -1.31640625 3.06640625 C-1 1 -1 1 0 0 Z " fill="#1A6E44" transform="translate(120,119)"/>
<path d="M0 0 C0.33 0 0.66 0 1 0 C1.36190476 5.42857143 1.36190476 5.42857143 -0.1875 7.875 C-2.56036279 9.34781139 -4.25913944 9.22223194 -7 9 C-7.33 7.68 -7.66 6.36 -8 5 C-7.34 5 -6.68 5 -6 5 C-6 5.66 -6 6.32 -6 7 C-4.68 7 -3.36 7 -2 7 C-1.855625 6.030625 -1.71125 5.06125 -1.5625 4.0625 C-1 1 -1 1 0 0 Z " fill="#0F6A40" transform="translate(145,88)"/>
<path d="M0 0 C0.66 0 1.32 0 2 0 C2.94693195 3.7016431 3.30443767 5.39112465 1.5625 8.875 C1.046875 9.57625 0.53125 10.2775 0 11 C-1.32 10.34 -2.64 9.68 -4 9 C-3.34 8.071875 -2.68 7.14375 -2 6.1875 C0.26574554 3.20363444 0.26574554 3.20363444 0 0 Z " fill="#C2CB8D" transform="translate(102,24)"/>
<path d="M0 0 C0.99 0 1.98 0 3 0 C3 2.97 3 5.94 3 9 C1.35 8.67 -0.3 8.34 -2 8 C-1.34 5.36 -0.68 2.72 0 0 Z " fill="#7FC49C" transform="translate(102,13)"/>
<path d="M0 0 C0.66 0.33 1.32 0.66 2 1 C1.67 2.65 1.34 4.3 1 6 C-0.32 6 -1.64 6 -3 6 C-3 6.66 -3 7.32 -3 8 C-4.65 8.33 -6.3 8.66 -8 9 C-8 8.01 -8 7.02 -8 6 C-5.69 5.34 -3.38 4.68 -1 4 C-0.67 2.68 -0.34 1.36 0 0 Z " fill="#227550" transform="translate(161,113)"/>
<path d="M0 0 C0 1.32 0 2.64 0 4 C-2.33333333 4 -4.66666667 4 -7 4 C-7.66 5.32 -8.32 6.64 -9 8 C-9.22223194 5.25913944 -9.34781139 3.56036279 -7.875 1.1875 C-5.22464043 -0.49106106 -3.06753576 -0.20450238 0 0 Z " fill="#2C7052" transform="translate(143,115)"/>
<path d="M0 0 C0.598125 0.309375 1.19625 0.61875 1.8125 0.9375 C4.08956772 2.10209704 4.08956772 2.10209704 7 3 C7 4.98 7 6.96 7 9 C5.5 7.625 5.5 7.625 4 6 C4 5.34 4 4.68 4 4 C2.68 4 1.36 4 0 4 C0 6.31 0 8.62 0 11 C-0.33 11 -0.66 11 -1 11 C-1.125 3.375 -1.125 3.375 0 0 Z " fill="#0D633C" transform="translate(38,86)"/>
<path d="M0 0 C0.99 0 1.98 0 3 0 C3 0.99 3 1.98 3 3 C3.66 3.33 4.32 3.66 5 4 C4.01 7.96 3.02 11.92 2 16 C1.67 16 1.34 16 1 16 C1.01160156 15.09636719 1.02320312 14.19273438 1.03515625 13.26171875 C1.04417969 12.08222656 1.05320312 10.90273438 1.0625 9.6875 C1.07410156 8.51574219 1.08570312 7.34398437 1.09765625 6.13671875 C1.14899898 2.96940805 1.14899898 2.96940805 0 0 Z " fill="#38AE7F" transform="translate(116,10)"/>
<path d="M0 0 C-0.33 0.66 -0.66 1.32 -1 2 C0.32 1.67 1.64 1.34 3 1 C2.67 1.99 2.34 2.98 2 4 C0.741875 4.04125 -0.51625 4.0825 -1.8125 4.125 C-2.52019531 4.14820312 -3.22789063 4.17140625 -3.95703125 4.1953125 C-6 4 -6 4 -9 2 C-5.5647952 -0.29013653 -4.014669 -0.17842973 0 0 Z " fill="#668764" transform="translate(105,63)"/>
<path d="M0 0 C0.33 1.98 0.66 3.96 1 6 C-0.32 6.33 -1.64 6.66 -3 7 C-3.33 5.68 -3.66 4.36 -4 3 C-4.66 3 -5.32 3 -6 3 C-6 2.34 -6 1.68 -6 1 C-3 0 -3 0 0 0 Z " fill="#E7E4A8" transform="translate(108,21)"/>
<path d="M0 0 C0.66 0 1.32 0 2 0 C3.20272819 2.40545638 3.10071472 3.94996953 3.0625 6.625 C3.05347656 7.44226563 3.04445312 8.25953125 3.03515625 9.1015625 C3.02355469 9.72804688 3.01195312 10.35453125 3 11 C2.34 11 1.68 11 1 11 C-0.28317892 7.15046324 -0.06643637 4.05261865 0 0 Z " fill="#116B3F" transform="translate(182,117)"/>
<path d="M0 0 C1.62463842 -0.05395478 3.24978541 -0.09277195 4.875 -0.125 C5.77992187 -0.14820312 6.68484375 -0.17140625 7.6171875 -0.1953125 C10 0 10 0 12 2 C11.625 4.125 11.625 4.125 11 6 C10.34 5.01 9.68 4.02 9 3 C6.80545319 2.42006301 6.80545319 2.42006301 4.375 2.3125 C3.55773437 2.24675781 2.74046875 2.18101563 1.8984375 2.11328125 C1.27195312 2.07589844 0.64546875 2.03851563 0 2 C0 1.34 0 0.68 0 0 Z " fill="#297150" transform="translate(116,115)"/>
<path d="M0 0 C2.31 0 4.62 0 7 0 C6.67 1.32 6.34 2.64 6 4 C4.02 4 2.04 4 0 4 C0 2.68 0 1.36 0 0 Z " fill="#2D7555" transform="translate(59,115)"/>
<path d="M0 0 C1.32 0 2.64 0 4 0 C4.1875 2.375 4.1875 2.375 4 5 C3.01 5.66 2.02 6.32 1 7 C1.66 7.33 2.32 7.66 3 8 C2.34 8.99 1.68 9.98 1 11 C0 10 0 10 -0.09765625 7.71484375 C-0.08605469 6.79832031 -0.07445312 5.88179688 -0.0625 4.9375 C-0.05347656 4.01839844 -0.04445312 3.09929687 -0.03515625 2.15234375 C-0.02355469 1.44207031 -0.01195312 0.73179688 0 0 Z " fill="#236B4E" transform="translate(163,86)"/>
<path d="M0 0 C0.33 1.32 0.66 2.64 1 4 C5.29 4.66 9.58 5.32 14 6 C14 6.33 14 6.66 14 7 C11.87561661 7.08078641 9.7503677 7.13909141 7.625 7.1875 C6.44164062 7.22230469 5.25828125 7.25710937 4.0390625 7.29296875 C2.53472656 7.14794922 2.53472656 7.14794922 1 7 C-1 4 -1 4 -0.625 1.8125 C-0.41875 1.214375 -0.2125 0.61625 0 0 Z " fill="#0B653B" transform="translate(22,93)"/>
<path d="M0 0 C0.33 0 0.66 0 1 0 C1.433125 1.36125 1.433125 1.36125 1.875 2.75 C3.34486237 7.7602051 3.34486237 7.7602051 7 11 C6.67 11.99 6.34 12.98 6 14 C2.66838603 11.01303575 0.65173443 8.17280278 -1 4 C-0.6875 1.625 -0.6875 1.625 0 0 Z " fill="#B7997F" transform="translate(78,42)"/>
<path d="M0 0 C2 2 2 2 2 5 C2.66 5.33 3.32 5.66 4 6 C3.34 7.32 2.68 8.64 2 10 C1.67 9.34 1.34 8.68 1 8 C-1.52733235 7.34444881 -1.52733235 7.34444881 -4 7 C-3.67 6.01 -3.34 5.02 -3 4 C-2.34 3.67 -1.68 3.34 -1 3 C-0.67 2.01 -0.34 1.02 0 0 Z " fill="#C8CEA3" transform="translate(92,47)"/>
<path d="M0 0 C1.32 0.66 2.64 1.32 4 2 C4 2.33 4 2.66 4 3 C2.35 3 0.7 3 -1 3 C-1.33 5.31 -1.66 7.62 -2 10 C-3.5625 8.1875 -3.5625 8.1875 -5 6 C-3.86695008 2.60085025 -2.87481525 1.94745549 0 0 Z " fill="#4EA568" transform="translate(96,39)"/>
<path d="M0 0 C0.33 0 0.66 0 1 0 C1 2.97 1 5.94 1 9 C1.99 9.33 2.98 9.66 4 10 C3.67 11.32 3.34 12.64 3 14 C2.01 14 1.02 14 0 14 C0 9.38 0 4.76 0 0 Z " fill="#296E4F" transform="translate(187,115)"/>
<path d="M0 0 C3.42269984 1.14089995 4.7522146 2.20964571 7 5 C7.25 7.75 7.25 7.75 7 10 C6.401875 9.360625 5.80375 8.72125 5.1875 8.0625 C3.09189663 5.79689611 3.09189663 5.79689611 0 5 C0 3.35 0 1.7 0 0 Z " fill="#0F6842" transform="translate(87,117)"/>
<path d="M0 0 C0.33 0 0.66 0 1 0 C1.36253776 5.43806647 1.36253776 5.43806647 -0.25 7.9375 C-2 9 -2 9 -4.1875 8.6875 C-4.785625 8.460625 -5.38375 8.23375 -6 8 C-5.34 7.67 -4.68 7.34 -4 7 C-4 5.68 -4 4.36 -4 3 C-3.01 2.67 -2.02 2.34 -1 2 C-0.67 1.34 -0.34 0.68 0 0 Z " fill="#9D9F70" transform="translate(108,57)"/>
<path d="M0 0 C0.8971875 0.5259375 0.8971875 0.5259375 1.8125 1.0625 C4.10813214 2.33304698 4.10813214 2.33304698 7 1 C7.66 1.66 8.32 2.32 9 3 C7.625 5 7.625 5 6 7 C5.34 7 4.68 7 4 7 C2.02 3.535 2.02 3.535 0 0 Z " fill="#26874A" transform="translate(102,38)"/>
<path d="M0 0 C1.98 0.495 1.98 0.495 4 1 C4 3.97 4 6.94 4 10 C2.35 10.33 0.7 10.66 -1 11 C-1 10.34 -1 9.68 -1 9 C-0.34 8.67 0.32 8.34 1 8 C1.40729228 5.67843403 1.74438677 3.3431213 2 1 C1.34 0.67 0.68 0.34 0 0 Z " fill="#11653C" transform="translate(52,117)"/>
<path d="M0 0 C0 5.94 0 11.88 0 18 C-0.33 18 -0.66 18 -1 18 C-1 13.71 -1 9.42 -1 5 C-1.66 5 -2.32 5 -3 5 C-3 3.68 -3 2.36 -3 1 C-1 0 -1 0 0 0 Z " fill="#1E6244" transform="translate(72,110)"/>
<path d="M0 0 C0.66 0 1.32 0 2 0 C3.35384615 6.4 3.35384615 6.4 1.5625 9.4375 C1.046875 9.953125 0.53125 10.46875 0 11 C0 8.69 0 6.38 0 4 C-1.32 4 -2.64 4 -4 4 C-4 3.34 -4 2.68 -4 2 C-3.01 2 -2.02 2 -1 2 C-0.67 1.34 -0.34 0.68 0 0 Z " fill="#818C4E" transform="translate(107,48)"/>
<path d="M0 0 C0.33 0 0.66 0 1 0 C1.33 1.65 1.66 3.3 2 5 C2.66 5 3.32 5 4 5 C3.44855089 9.08072342 3.08669204 9.91330796 0 13 C0 8.71 0 4.42 0 0 Z " fill="#1E9D64" transform="translate(118,24)"/>
<path d="M0 0 C-1.875 5.75 -1.875 5.75 -3 8 C-3.99 7.67 -4.98 7.34 -6 7 C-6.33 6.34 -6.66 5.68 -7 5 C-6.34 5 -5.68 5 -5 5 C-5 4.01 -5 3.02 -5 2 C-2 0 -2 0 0 0 Z " fill="#92453E" transform="translate(90,23)"/>
<path d="M0 0 C2.64 0 5.28 0 8 0 C8.66 1.32 9.32 2.64 10 4 C9.34 4.66 8.68 5.32 8 6 C7.67 5.01 7.34 4.02 7 3 C3.99152582 1.77479736 3.99152582 1.77479736 1 1 C1 1.99 1 2.98 1 4 C0.34 4 -0.32 4 -1 4 C-0.67 2.68 -0.34 1.36 0 0 Z " fill="#469C63" transform="translate(93,23)"/>
<path d="M0 0 C2.31 0 4.62 0 7 0 C6.34 1.32 5.68 2.64 5 4 C3.35 4 1.7 4 0 4 C0 2.68 0 1.36 0 0 Z " fill="#2E7255" transform="translate(101,115)"/>
<path d="M0 0 C0.99 1.98 1.98 3.96 3 6 C2.34 6.66 1.68 7.32 1 8 C0.38125 7.21625 -0.2375 6.4325 -0.875 5.625 C-2.89858661 3.03162353 -2.89858661 3.03162353 -5 1 C-2 0 -2 0 0 0 Z " fill="#C0D194" transform="translate(111,26)"/>
<path d="M0 0 C1.64877185 3.29754371 2.53158436 5.44004117 3 9 C2.67 9.66 2.34 10.32 2 11 C1.01 11 0.02 11 -1 11 C-0.67 7.37 -0.34 3.74 0 0 Z " fill="#135C39" transform="translate(113,118)"/>
<path d="M0 0 C0.33 0 0.66 0 1 0 C1.33 2.64 1.66 5.28 2 8 C2.66 8 3.32 8 4 8 C4 9.32 4 10.64 4 12 C2.68 12 1.36 12 0 12 C-0.19477739 10.37585622 -0.38059458 8.75063577 -0.5625 7.125 C-0.66691406 6.22007813 -0.77132812 5.31515625 -0.87890625 4.3828125 C-1 2 -1 2 0 0 Z " fill="#126B44" transform="translate(188,112)"/>
<path d="M0 0 C1.99954746 -0.04254356 4.00041636 -0.04080783 6 0 C7 1 7 1 7.0625 4.0625 C7.041875 5.031875 7.02125 6.00125 7 7 C6.67 6.34 6.34 5.68 6 5 C5.34 4.67 4.68 4.34 4 4 C4.33 3.34 4.66 2.68 5 2 C3.68 2.33 2.36 2.66 1 3 C0.67 2.01 0.34 1.02 0 0 Z " fill="#11633C" transform="translate(49,88)"/>
<path d="M0 0 C0.33 0.66 0.66 1.32 1 2 C-0.70625501 4.78388975 -1.47626739 5.85384206 -4.6875 6.75 C-5.8321875 6.87375 -5.8321875 6.87375 -7 7 C-6.67 6.34 -6.34 5.68 -6 5 C-5.01 5 -4.02 5 -3 5 C-3 4.34 -3 3.68 -3 3 C-4.32 2.67 -5.64 2.34 -7 2 C-4.69 1.34 -2.38 0.68 0 0 Z " fill="#85A265" transform="translate(103,48)"/>
<path d="M0 0 C0.66 0.66 1.32 1.32 2 2 C1.7578125 3.9453125 1.7578125 3.9453125 1.125 6.125 C0.92132813 6.84945313 0.71765625 7.57390625 0.5078125 8.3203125 C0.34023437 8.87460937 0.17265625 9.42890625 0 10 C-0.66 10 -1.32 10 -2 10 C-2.1953125 3.9453125 -2.1953125 3.9453125 -2 2 C-1.34 1.34 -0.68 0.68 0 0 Z " fill="#D4DDB6" transform="translate(95,10)"/>
<path d="M0 0 C1.32 1.32 2.64 2.64 4 4 C3.34 4 2.68 4 2 4 C2 5.98 2 7.96 2 10 C1.34 10 0.68 10 0 10 C0 6.7 0 3.4 0 0 Z " fill="#EDF4DF" transform="translate(106,11)"/>
<path d="M0 0 C0.66 0.33 1.32 0.66 2 1 C2.4140625 3.50390625 2.4140625 3.50390625 2.625 6.5625 C2.69976562 7.57441406 2.77453125 8.58632813 2.8515625 9.62890625 C2.92503906 10.80259766 2.92503906 10.80259766 3 12 C2.566875 11.1028125 2.566875 11.1028125 2.125 10.1875 C0.95257974 7.80672208 0.95257974 7.80672208 -1 5 C-0.625 2.3125 -0.625 2.3125 0 0 Z " fill="#72C49D" transform="translate(114,12)"/>
<path d="M0 0 C1.32 0.33 2.64 0.66 4 1 C3.67 3.31 3.34 5.62 3 8 C2.34 7.67 1.68 7.34 1 7 C1 5.68 1 4.36 1 3 C0.01 2.67 -0.98 2.34 -2 2 C-1.34 2 -0.68 2 0 2 C0 1.34 0 0.68 0 0 Z " fill="#0D6A41" transform="translate(158,119)"/>
<path d="M0 0 C1.98 0 3.96 0 6 0 C5.01 0.495 5.01 0.495 4 1 C4 1.99 4 2.98 4 4 C2.35 4 0.7 4 -1 4 C-0.67 2.68 -0.34 1.36 0 0 Z " fill="#2E7254" transform="translate(165,115)"/>
<path d="M0 0 C0.66 0.33 1.32 0.66 2 1 C2 2.98 2 4.96 2 7 C0.68 6.34 -0.64 5.68 -2 5 C-2 3.68 -2 2.36 -2 1 C-1.34 0.67 -0.68 0.34 0 0 Z " fill="#386E53" transform="translate(131,110)"/>
<path d="M0 0 C3.125 -0.1875 3.125 -0.1875 6 0 C5.34 1.32 4.68 2.64 4 4 C4 3.34 4 2.68 4 2 C2.68 2 1.36 2 0 2 C0 4.31 0 6.62 0 9 C-0.33 9 -0.66 9 -1 9 C-1.625 6.1875 -1.625 6.1875 -2 3 C-1.34 2.01 -0.68 1.02 0 0 Z " fill="#086138" transform="translate(132,88)"/>
<path d="M0 0 C0.99 0 1.98 0 3 0 C3 0.66 3 1.32 3 2 C5.97 2.495 5.97 2.495 9 3 C9.33 3.99 9.66 4.98 10 6 C5.56909529 4.79157144 3.01887244 3.48331435 0 0 Z " fill="#759870" transform="translate(86,59)"/>
<path d="M0 0 C1.8125 0.1875 1.8125 0.1875 4 1 C5.75 3.5625 5.75 3.5625 7 6 C6.05125 5.67 5.1025 5.34 4.125 5 C1.22937548 3.89840809 1.22937548 3.89840809 -1 4 C-0.67 2.68 -0.34 1.36 0 0 Z " fill="#41A566" transform="translate(105,28)"/>
<path d="M0 0 C6.75 -0.125 6.75 -0.125 9 1 C9 2.65 9 4.3 9 6 C7.88625 5.071875 7.88625 5.071875 6.75 4.125 C4.51198812 2.39562719 2.56260013 1.13893339 0 0 Z " fill="#105E37" transform="translate(152,112)"/>
<path d="M0 0 C3 4 3 4 2.8125 6.6875 C2 9 2 9 0 10 C0 6.7 0 3.4 0 0 Z " fill="#13744A" transform="translate(61,83)"/>
<path d="M0 0 C1.65 0 3.3 0 5 0 C5 1.98 5 3.96 5 6 C3.0625 5.25 3.0625 5.25 1 4 C0.25 1.875 0.25 1.875 0 0 Z " fill="#A6B065" transform="translate(112,34)"/>
<path d="M0 0 C0.33 0 0.66 0 1 0 C1 1.65 1 3.3 1 5 C2.32 5.33 3.64 5.66 5 6 C4.38125 6.12375 3.7625 6.2475 3.125 6.375 C0.80879168 6.87197356 0.80879168 6.87197356 -1 9 C-1 7.68 -1 6.36 -1 5 C-1.66 4.67 -2.32 4.34 -3 4 C-2.01 3.67 -1.02 3.34 0 3 C0 2.01 0 1.02 0 0 Z " fill="#BFC990" transform="translate(92,17)"/>
<path d="M0 0 C1.32 0.33 2.64 0.66 4 1 C4 3.31 4 5.62 4 8 C1.44971017 6.72485508 1.06918289 5.59658703 0 3 C0 2.01 0 1.02 0 0 Z " fill="#327352" transform="translate(75,86)"/>
<path d="M0 0 C1.485 0.99 1.485 0.99 3 2 C3.1875 4.625 3.1875 4.625 3 7 C2.01 7 1.02 7 0 7 C-0.38133299 5.0085944 -0.71325582 3.00720923 -1 1 C-0.67 0.67 -0.34 0.34 0 0 Z " fill="#357153" transform="translate(188,81)"/>
<path d="M0 0 C0.99 0 1.98 0 3 0 C3.66 1.65 4.32 3.3 5 5 C3.35 5 1.7 5 0 5 C0 3.35 0 1.7 0 0 Z " fill="#1BAC68" transform="translate(94,44)"/>
<path d="M0 0 C0.99 0.33 1.98 0.66 3 1 C3 1.66 3 2.32 3 3 C3.66 3 4.32 3 5 3 C5 4.65 5 6.3 5 8 C2.20127563 5.47211993 0.54226981 3.79588866 0 0 Z " fill="#ECE9CB" transform="translate(87,42)"/>
<path d="M0 0 C2 2 2 2 2.125 4.625 C2.08375 5.40875 2.0425 6.1925 2 7 C1.01 6.67 0.02 6.34 -1 6 C-1.8125 4.0625 -1.8125 4.0625 -2 2 C-1.34 1.34 -0.68 0.68 0 0 Z " fill="#5EB284" transform="translate(112,22)"/>
<path d="M0 0 C2.31 0.66 4.62 1.32 7 2 C6.34 3.32 5.68 4.64 5 6 C3.2925002 4.71937515 1.62626404 3.38232443 0 2 C0 1.34 0 0.68 0 0 Z " fill="#8ECDB0" transform="translate(107,10)"/>
<path d="M0 0 C0.33 0 0.66 0 1 0 C1 2.31 1 4.62 1 7 C-0.98 6.34 -2.96 5.68 -5 5 C-3.68 4.67 -2.36 4.34 -1 4 C-0.67 2.68 -0.34 1.36 0 0 Z " fill="#176E46" transform="translate(66,116)"/>
<path d="M0 0 C0.99 0.33 1.98 0.66 3 1 C3 2.32 3 3.64 3 5 C1.68 5 0.36 5 -1 5 C-0.67 3.35 -0.34 1.7 0 0 Z " fill="#28604E" transform="translate(195,98)"/>
<path d="M0 0 C4.29 0 8.58 0 13 0 C13 0.33 13 0.66 13 1 C12.07767578 1.09087891 12.07767578 1.09087891 11.13671875 1.18359375 C10.32847656 1.26738281 9.52023438 1.35117188 8.6875 1.4375 C7.88699219 1.51871094 7.08648437 1.59992188 6.26171875 1.68359375 C3.83912821 1.95265693 3.83912821 1.95265693 1 3 C0.67 2.01 0.34 1.02 0 0 Z " fill="#07542F" transform="translate(117,99)"/>
<path d="M0 0 C0.33 0.66 0.66 1.32 1 2 C1.66 2 2.32 2 3 2 C3 2.66 3 3.32 3 4 C3.66 4.66 4.32 5.32 5 6 C3.68 6 2.36 6 1 6 C1 5.34 1 4.68 1 4 C0.01 4.33 -0.98 4.66 -2 5 C-1.34 3.35 -0.68 1.7 0 0 Z " fill="#1C7044" transform="translate(138,89)"/>
<path d="M0 0 C1.32 0 2.64 0 4 0 C4 2.31 4 4.62 4 7 C2 6 2 6 0 3 C0 2.01 0 1.02 0 0 Z " fill="#2C7956" transform="translate(82,87)"/>
<path d="M0 0 C1.98 0.99 1.98 0.99 4 2 C4 4.31 4 6.62 4 9 C1.47740939 7.02579865 1.0070192 6.03254358 0.3125 2.8125 C0.209375 1.884375 0.10625 0.95625 0 0 Z " fill="#C3E1AC" transform="translate(113,22)"/>
<path d="M0 0 C0.33 0 0.66 0 1 0 C1.1546875 1.8871875 1.1546875 1.8871875 1.3125 3.8125 C1.64858808 6.60499657 1.80025876 7.74433121 3.5625 10 C4.036875 10.33 4.51125 10.66 5 11 C3.35 10.67 1.7 10.34 0 10 C0 6.7 0 3.4 0 0 Z " fill="#0F6740" transform="translate(36,117)"/>
<path d="M0 0 C0.66 0.33 1.32 0.66 2 1 C2 2.32 2 3.64 2 5 C0.68 5 -0.64 5 -2 5 C-2 3.68 -2 2.36 -2 1 C-1.34 0.67 -0.68 0.34 0 0 Z " fill="#305F4A" transform="translate(145,98)"/>
<path d="M0 0 C1.65 0 3.3 0 5 0 C3.625 2.5 3.625 2.5 2 5 C1.34 5 0.68 5 0 5 C0 3.35 0 1.7 0 0 Z " fill="#129C60" transform="translate(99,55)"/>
<path d="M0 0 C0.66 0 1.32 0 2 0 C2.33 0.99 2.66 1.98 3 3 C4.49985609 4.66710346 4.49985609 4.66710346 6 6 C3.69 5.34 1.38 4.68 -1 4 C-0.67 2.68 -0.34 1.36 0 0 Z " fill="#DEB789" transform="translate(87,29)"/>
<path d="M0 0 C0.99 0.33 1.98 0.66 3 1 C2.67 2.65 2.34 4.3 2 6 C1.01 6 0.02 6 -1 6 C-0.67 4.02 -0.34 2.04 0 0 Z " fill="#3AA172" transform="translate(97,13)"/>
<path d="" fill="#000000" transform="translate(0,0)"/>
<path d="" fill="#555555" transform="translate(0,0)"/>
<path d="" fill="#000000" transform="translate(0,0)"/>
<path d="" fill="#008080" transform="translate(0,0)"/>
<path d="" fill="#555555" transform="translate(0,0)"/>
</svg>
