<svg id="Layer_1" data-name="Layer 1" xmlns="http://www.w3.org/2000/svg" viewBox="0 0 359.68 74.23"><defs><style>.cls-1{fill:#e50c2e;}.cls-1,.cls-2{fill-rule:evenodd;}.cls-2{fill:#0046b8;}</style></defs><title>E-Nets</title><path class="cls-1" d="M198.2,16.78l32.06.08c.48,6.71.06,39.56.05,49,0,7.85-.66,9.39,7.51,9.4,7.65,0,7.67-1.28,7.67-8.68,0-6.62-.35-46.6.14-49.63l31,0c.35,4.64-1.88,10.81,2.62,18.1,13.77,22.3,72.74-2,65.48,21-1.67,5.25-12.42,3.87-18.14,3.87-7.27,0-14.56,0-21.83,0-3.4,0-6.88-.15-9.65-1.4-3.69-1.65-2.17-3.72-3.42-7.54-1-3.19-4.29-2.71-8-2.72s-6.47.14-6.85,3.88a21.06,21.06,0,0,0,5.69,16.06c8.61,8.94,21.57,7.15,36.44,7.15,7.67,0,25.41,1.19,30.78-1.9,14-8,13.27-29.27,3.85-37.05-13.66-11.3-43.84-3.1-57.65-7.8-3.09-1.05-4.67-2.64-4.34-6.67.32-3.8,2.36-4.56,5.94-4.86,6.31-.53,38.16-.54,42.62.76,8.86,2.58-.75,10.69,11.16,10.65,3.71,0,7.22.61,8.25-2.67.77-2.47-.13-7.48-.85-9.82C355,3.8,344.16,1.4,329.46,1.4H220.36c-7,0-15.08-.37-22,.07.52,1.63,1.1,1.27,1.2,3.59l0,8.71C199.37,15.22,198.7,15.64,198.2,16.78Z" transform="translate(-0.76 -1.2)"/><path class="cls-1" d="M140,75.15c2.95-1.4,3-2.43,3-6.43,0-2.19-.37-7.3.17-9V30.59l.14-13.87c-.85-1.74-.3-6.8-.3-9.1,0-4.26-.2-4.52-3.19-6.16-14.7-.76-12,.36-12,19.25,0,5.77.28,26.76-.09,30.7-7.32-8.72-19.52-25.48-27.09-35.4-2.23-2.93-4.5-5.9-6.75-8.89C90.49,2.56,91.26,1.39,83.62,1.4,79.25,1.4,71.79.26,70,3.42c-1.19,2.08-.59,42.9-.59,47.11,0,5.22,0,10.43,0,15.64,0,7.08-.65,9,7,9,10.2,0,8.31-.22,8.31-23.16,0-10.34-.39-21.43,0-31.68,1.21.82,10.47,13.21,12,15.29l24,31.24C128,76.09,125.07,75.38,140,75.15Z" transform="translate(-0.76 -1.2)"/><path class="cls-2" d="M24.1,20.29C.52,24.59-6.3,51.6,8.73,66.87c13.4,13.62,35.31,8.2,40.5-1.27,1.38-2.51-.61-5.35-2.39-6.29-3.24-1.7-5.47.68-7,2-8.26,6.94-20.32,5.2-26.38-4.22C2.32,39.79,25.07,21.21,40,33.82a11.93,11.93,0,0,0,2.86,2.24c5,2.08,13.08-7-2-13.59A28,28,0,0,0,24.1,20.29Z" transform="translate(-0.76 -1.2)"/><path class="cls-2" d="M140,75.15c1.74.06,55.56.32,57.34,0,2.66-.53,2.2-3.31,2.19-6,0-11.07,3.77-9.35-23.19-9.35-11.05,0-22.12,0-33.17,0-.54,1.68-.17,6.79-.17,9C143,72.72,143,73.75,140,75.15Z" transform="translate(-0.76 -1.2)"/><path class="cls-2" d="M143.32,16.72l54.88.06c.5-1.14,1.17-1.56,1.35-3l0-8.71c-.1-2.32-.68-2-1.2-3.59H139.83c3,1.64,3.2,1.9,3.19,6.16C143,9.92,142.47,15,143.32,16.72Z" transform="translate(-0.76 -1.2)"/><path class="cls-2" d="M143.19,46.05l46.26,0c8.15,0,8,.78,8-7.54,0-9.81,1.94-8-22.88-8-10.09,0-21.43-.48-31.36.07Z" transform="translate(-0.76 -1.2)"/><path class="cls-2" d="M17.54,42.81a5,5,0,0,0-2.76,7.84c1.7,2.46,6.22,1.75,9.93,1.75,4.13,0,20.37.54,23.15-.17,3-.76,4.36-5.22,2.29-7.87s-6.48-1.7-9.8-1.7C36,42.66,20.54,42.1,17.54,42.81Z" transform="translate(-0.76 -1.2)"/></svg>