<?xml version="1.0" encoding="UTF-8"?>
<svg xmlns="http://www.w3.org/2000/svg" width="217.39pt" height="217.39pt" viewBox="0 0 217.39 217.39pt" version="1.1">
<defs>
<clipPath id="clip1">
  <path d="M 1 324 L 217.390625 324 L 217.390625 217.390625 L 1 217.390625 Z M 1 324 "/>
</clipPath>
</defs>
<g id="surface1">
<path style=" stroke:none;fill-rule:nonzero;fill:rgb(97.999573%,65.098572%,10.198975%);fill-opacity:1;" d="M 216 216.003906 L 0 216.003906 L 0 0.00390625 L 216 0.00390625 L 216 216.003906 "/>
<path style=" stroke:none;fill-rule:nonzero;fill:rgb(100%,100%,100%);fill-opacity:1;" d="M 166.722656 153.109375 C 166.722656 162.644531 158.992188 170.375 149.453125 170.375 L 66.542969 170.375 C 57.007813 170.375 49.28125 162.644531 49.28125 153.109375 L 49.28125 62.894531 C 49.28125 53.359375 57.007813 45.632813 66.542969 45.632813 L 149.453125 45.632813 C 158.992188 45.632813 166.722656 53.359375 166.722656 62.894531 L 166.722656 153.109375 "/>
<path style=" stroke:none;fill-rule:nonzero;fill:rgb(0%,35.699463%,66.699219%);fill-opacity:1;" d="M 68.160156 125.941406 L 68.324219 128.730469 L 67.859375 128.746094 C 67.710938 127.78125 67.460938 127.152344 67.105469 126.859375 C 66.753906 126.578125 66.164063 126.4375 65.3125 126.4375 C 64.6875 126.4375 64.308594 126.457031 64.15625 126.496094 C 64.027344 126.546875 63.96875 126.675781 63.96875 126.921875 L 63.96875 129.484375 C 64.066406 129.5 64.121094 129.503906 64.144531 129.507813 C 64.144531 129.507813 64.207031 129.507813 64.246094 129.507813 C 64.859375 129.507813 65.28125 129.359375 65.515625 129.035156 C 65.65625 128.847656 65.75 128.511719 65.804688 128.003906 L 66.304688 128.003906 L 66.304688 131.585938 L 65.804688 131.585938 L 65.804688 131.363281 C 65.777344 130.777344 65.585938 130.375 65.234375 130.171875 C 65.035156 130.054688 64.734375 129.992188 64.339844 129.988281 L 63.96875 129.988281 L 63.96875 132.796875 L 63.980469 132.996094 C 63.988281 133.125 64.042969 133.195313 64.132813 133.242188 C 64.222656 133.265625 64.371094 133.28125 64.5625 133.296875 C 64.613281 133.304688 64.714844 133.304688 64.875 133.304688 C 65.066406 133.3125 65.21875 133.3125 65.347656 133.3125 C 66.195313 133.3125 66.796875 133.183594 67.167969 132.921875 C 67.535156 132.664063 67.832031 132.027344 68.011719 131.015625 L 68.050781 130.910156 L 68.496094 130.9375 L 68.28125 133.828125 L 61.570313 133.828125 L 61.570313 133.367188 L 62.222656 133.328125 C 62.472656 133.324219 62.640625 133.253906 62.707031 133.144531 C 62.746094 133.058594 62.773438 132.902344 62.773438 132.664063 L 62.773438 127.082031 C 62.773438 126.757813 62.730469 126.5625 62.632813 126.511719 C 62.523438 126.457031 62.183594 126.421875 61.589844 126.40625 L 61.589844 125.941406 L 68.160156 125.941406 "/>
<path style=" stroke:none;fill-rule:evenodd;fill:rgb(0%,35.699463%,66.699219%);fill-opacity:1;" d="M 70.898438 131.226563 C 71.363281 131.035156 72.097656 130.851563 73.070313 130.695313 C 73.070313 130.648438 73.078125 130.601563 73.078125 130.570313 C 73.089844 130.539063 73.089844 130.488281 73.089844 130.421875 C 73.089844 129.9375 73 129.589844 72.855469 129.421875 C 72.683594 129.183594 72.34375 129.058594 71.871094 129.058594 C 71.660156 129.058594 71.425781 129.105469 71.203125 129.191406 C 70.988281 129.273438 70.871094 129.359375 70.871094 129.480469 C 70.871094 129.503906 70.914063 129.574219 70.992188 129.714844 C 71.070313 129.859375 71.113281 129.988281 71.113281 130.109375 C 71.113281 130.265625 71.058594 130.386719 70.960938 130.488281 C 70.855469 130.570313 70.703125 130.621094 70.535156 130.621094 C 70.351563 130.621094 70.195313 130.5625 70.078125 130.429688 C 69.972656 130.304688 69.914063 130.148438 69.914063 129.945313 C 69.914063 129.574219 70.117188 129.273438 70.519531 129 C 70.921875 128.742188 71.421875 128.609375 72.015625 128.609375 C 72.902344 128.609375 73.507813 128.816406 73.816406 129.242188 C 73.984375 129.480469 74.078125 129.808594 74.078125 130.265625 L 74.078125 130.53125 L 74.035156 132.183594 L 74.035156 132.402344 C 74.035156 132.671875 74.050781 132.875 74.09375 132.984375 C 74.164063 133.183594 74.289063 133.28125 74.492188 133.28125 C 74.558594 133.28125 74.640625 133.265625 74.742188 133.222656 C 74.835938 133.179688 74.898438 133.160156 74.941406 133.160156 C 74.976563 133.160156 75.003906 133.171875 75.019531 133.195313 C 75.046875 133.222656 75.066406 133.253906 75.066406 133.304688 C 75.066406 133.425781 74.976563 133.550781 74.785156 133.703125 C 74.597656 133.855469 74.363281 133.9375 74.097656 133.9375 C 73.78125 133.9375 73.539063 133.839844 73.371094 133.636719 C 73.277344 133.527344 73.199219 133.347656 73.117188 133.113281 C 72.894531 133.410156 72.582031 133.632813 72.234375 133.78125 C 71.886719 133.917969 71.542969 133.984375 71.195313 133.984375 C 70.71875 133.984375 70.34375 133.878906 70.054688 133.660156 C 69.765625 133.4375 69.617188 133.113281 69.617188 132.671875 C 69.617188 132.070313 70.046875 131.578125 70.898438 131.226563 Z M 72.359375 133.214844 C 72.816406 132.964844 73.039063 132.542969 73.050781 131.96875 L 73.070313 131.320313 L 73.070313 131.136719 C 72.34375 131.214844 71.761719 131.375 71.332031 131.585938 C 70.90625 131.8125 70.683594 132.128906 70.683594 132.546875 C 70.683594 132.796875 70.78125 132.996094 70.921875 133.175781 C 71.089844 133.359375 71.296875 133.4375 71.578125 133.4375 C 71.847656 133.4375 72.109375 133.367188 72.359375 133.214844 "/>
<path style=" stroke:none;fill-rule:nonzero;fill:rgb(0%,35.699463%,66.699219%);fill-opacity:1;" d="M 76.273438 129.027344 C 76.554688 128.730469 76.945313 128.585938 77.457031 128.585938 C 77.78125 128.585938 78.058594 128.644531 78.316406 128.746094 C 78.449219 128.804688 78.613281 128.902344 78.78125 129.050781 L 79.113281 128.640625 L 79.46875 128.640625 L 79.46875 130.46875 L 79.074219 130.46875 C 78.953125 130.09375 78.800781 129.777344 78.652344 129.574219 C 78.355469 129.21875 77.957031 129.035156 77.457031 129.035156 C 77.15625 129.035156 76.902344 129.105469 76.722656 129.257813 C 76.550781 129.394531 76.460938 129.574219 76.460938 129.808594 C 76.460938 130.070313 76.570313 130.273438 76.792969 130.40625 C 76.925781 130.488281 77.15625 130.558594 77.457031 130.621094 L 78.367188 130.804688 C 78.867188 130.917969 79.234375 131.09375 79.46875 131.320313 C 79.707031 131.570313 79.816406 131.917969 79.816406 132.386719 C 79.816406 132.894531 79.652344 133.28125 79.277344 133.570313 C 78.925781 133.855469 78.503906 133.984375 78.003906 133.984375 C 77.691406 133.984375 77.421875 133.941406 77.179688 133.839844 C 76.9375 133.738281 76.71875 133.605469 76.519531 133.460938 L 76.144531 133.941406 L 75.777344 133.941406 L 75.777344 131.859375 L 76.1875 131.859375 C 76.296875 132.28125 76.460938 132.617188 76.636719 132.875 C 76.976563 133.324219 77.457031 133.550781 78.058594 133.550781 C 78.40625 133.550781 78.671875 133.460938 78.867188 133.28125 C 79.066406 133.125 79.164063 132.921875 79.164063 132.703125 C 79.164063 132.402344 79.050781 132.199219 78.832031 132.082031 C 78.621094 131.96875 78.15625 131.835938 77.476563 131.667969 C 76.890625 131.527344 76.476563 131.363281 76.214844 131.144531 C 75.976563 130.941406 75.84375 130.601563 75.84375 130.109375 C 75.84375 129.664063 75.988281 129.304688 76.273438 129.027344 "/>
<path style=" stroke:none;fill-rule:nonzero;fill:rgb(0%,35.699463%,66.699219%);fill-opacity:1;" d="M 80.445313 128.765625 L 80.5625 128.746094 C 81.09375 128.714844 81.464844 128.386719 81.695313 127.78125 C 81.835938 127.414063 81.90625 127.003906 81.929688 126.535156 L 82.375 126.535156 L 82.375 128.765625 L 84.003906 128.765625 L 84.003906 129.207031 L 82.375 129.207031 L 82.375 132.417969 C 82.375 132.621094 82.402344 132.800781 82.464844 132.949219 C 82.566406 133.195313 82.765625 133.324219 83.050781 133.324219 C 83.382813 133.324219 83.617188 133.132813 83.777344 132.746094 C 83.847656 132.542969 83.898438 132.242188 83.914063 131.84375 L 84.359375 131.84375 C 84.347656 132.386719 84.265625 132.800781 84.136719 133.125 C 83.863281 133.699219 83.382813 133.964844 82.679688 133.964844 C 82.117188 133.964844 81.746094 133.78125 81.53125 133.371094 C 81.433594 133.171875 81.375 132.875 81.375 132.515625 L 81.375 129.242188 L 80.445313 129.242188 L 80.445313 128.765625 "/>
<path style=" stroke:none;fill-rule:evenodd;fill:rgb(0%,35.699463%,66.699219%);fill-opacity:1;" d="M 85.601563 129.402344 C 86.0625 128.863281 86.652344 128.585938 87.355469 128.585938 C 88.050781 128.585938 88.59375 128.855469 88.972656 129.359375 C 89.367188 129.894531 89.589844 130.558594 89.613281 131.363281 L 86.035156 131.363281 C 86.035156 131.847656 86.105469 132.253906 86.257813 132.578125 C 86.519531 133.148438 86.980469 133.425781 87.652344 133.425781 C 88.066406 133.425781 88.414063 133.296875 88.683594 133.03125 C 88.863281 132.886719 89.03125 132.621094 89.253906 132.257813 L 89.625 132.464844 C 89.410156 132.949219 89.121094 133.324219 88.773438 133.59375 C 88.414063 133.855469 87.953125 133.984375 87.390625 133.984375 C 86.703125 133.984375 86.121094 133.757813 85.636719 133.304688 C 85.15625 132.847656 84.90625 132.183594 84.90625 131.308594 C 84.90625 130.570313 85.132813 129.945313 85.601563 129.402344 Z M 88.382813 130.851563 C 88.441406 130.804688 88.472656 130.679688 88.472656 130.488281 C 88.472656 130.214844 88.421875 129.96875 88.328125 129.714844 C 88.144531 129.273438 87.804688 129.035156 87.34375 129.035156 C 86.824219 129.035156 86.453125 129.34375 86.234375 129.980469 C 86.121094 130.304688 86.0625 130.621094 86.0625 130.917969 L 88.035156 130.917969 C 88.214844 130.910156 88.339844 130.890625 88.382813 130.851563 "/>
<path style=" stroke:none;fill-rule:nonzero;fill:rgb(0%,35.699463%,66.699219%);fill-opacity:1;" d="M 90.214844 129.191406 L 90.214844 128.765625 L 92.132813 128.644531 L 92.132813 130.347656 C 92.300781 129.875 92.46875 129.523438 92.644531 129.296875 C 92.957031 128.863281 93.371094 128.644531 93.859375 128.644531 C 94.136719 128.644531 94.34375 128.730469 94.503906 128.886719 C 94.660156 129.058594 94.738281 129.257813 94.738281 129.507813 C 94.738281 129.703125 94.679688 129.859375 94.582031 130 C 94.472656 130.148438 94.3125 130.226563 94.089844 130.226563 C 93.929688 130.226563 93.792969 130.171875 93.6875 130.058594 C 93.566406 129.960938 93.515625 129.8125 93.515625 129.632813 C 93.515625 129.515625 93.527344 129.421875 93.566406 129.339844 C 93.617188 129.28125 93.671875 129.191406 93.75 129.113281 C 93.238281 129.191406 92.867188 129.566406 92.582031 130.238281 C 92.308594 130.910156 92.179688 131.6875 92.179688 132.558594 C 92.179688 132.917969 92.199219 133.148438 92.234375 133.242188 C 92.273438 133.328125 92.402344 133.386719 92.597656 133.386719 L 93.238281 133.394531 L 93.238281 133.828125 L 90.304688 133.828125 L 90.304688 133.394531 C 90.355469 133.394531 90.417969 133.394531 90.457031 133.394531 C 90.503906 133.386719 90.542969 133.386719 90.582031 133.386719 L 90.777344 133.386719 C 90.960938 133.386719 91.09375 133.359375 91.144531 133.28125 C 91.203125 133.222656 91.222656 133.085938 91.222656 132.886719 L 91.222656 130.265625 L 91.214844 129.890625 C 91.203125 129.628906 91.171875 129.457031 91.121094 129.359375 C 91.0625 129.273438 90.941406 129.207031 90.730469 129.191406 L 90.214844 129.191406 "/>
<path style=" stroke:none;fill-rule:nonzero;fill:rgb(0%,35.699463%,66.699219%);fill-opacity:1;" d="M 95.15625 133.394531 L 95.628906 133.386719 C 95.804688 133.386719 95.902344 133.359375 95.957031 133.3125 C 96.019531 133.265625 96.050781 133.160156 96.050781 132.996094 L 96.050781 129.78125 C 96.050781 129.5 96.003906 129.328125 95.902344 129.273438 C 95.804688 129.207031 95.511719 129.183594 95.0625 129.191406 L 95.0625 128.765625 L 97.007813 128.644531 L 97.007813 129.714844 C 97.222656 129.421875 97.402344 129.183594 97.585938 129.035156 C 97.902344 128.777344 98.304688 128.644531 98.757813 128.644531 C 99.320313 128.644531 99.738281 128.816406 100.019531 129.167969 C 100.304688 129.515625 100.433594 130 100.433594 130.621094 L 100.433594 133.023438 C 100.433594 133.160156 100.457031 133.253906 100.507813 133.304688 C 100.546875 133.359375 100.664063 133.386719 100.832031 133.386719 L 101.3125 133.394531 L 101.3125 133.828125 L 98.554688 133.828125 L 98.554688 133.394531 C 98.964844 133.394531 99.21875 133.367188 99.296875 133.34375 C 99.390625 133.304688 99.4375 133.195313 99.4375 133.007813 L 99.4375 130.621094 C 99.4375 130.214844 99.355469 129.894531 99.203125 129.664063 C 99.058594 129.441406 98.785156 129.316406 98.414063 129.316406 C 98.171875 129.316406 97.921875 129.386719 97.699219 129.542969 C 97.265625 129.847656 97.039063 130.386719 97.039063 131.15625 L 97.039063 132.984375 C 97.039063 133.148438 97.058594 133.253906 97.109375 133.304688 C 97.15625 133.359375 97.273438 133.386719 97.4375 133.386719 L 97.921875 133.394531 L 97.921875 133.828125 L 95.15625 133.828125 L 95.15625 133.394531 "/>
<path style=" stroke:none;fill-rule:evenodd;fill:rgb(0%,35.699463%,66.699219%);fill-opacity:1;" d="M 109.578125 129.28125 C 110.011719 129.089844 110.234375 128.667969 110.234375 128.007813 C 110.234375 127.320313 110.003906 126.859375 109.5625 126.640625 C 109.289063 126.488281 108.804688 126.414063 108.148438 126.414063 C 107.777344 126.414063 107.550781 126.457031 107.441406 126.535156 C 107.335938 126.59375 107.273438 126.765625 107.273438 127.003906 L 107.273438 129.503906 C 108.386719 129.542969 109.152344 129.480469 109.578125 129.28125 Z M 104.875 133.367188 C 105.484375 133.34375 105.839844 133.304688 105.941406 133.242188 C 106.042969 133.183594 106.085938 132.996094 106.085938 132.671875 L 106.085938 126.878906 L 106.078125 126.726563 C 106.070313 126.617188 106.003906 126.535156 105.898438 126.488281 C 105.789063 126.457031 105.664063 126.445313 105.484375 126.4375 L 104.875 126.40625 L 104.875 125.941406 L 108.960938 125.941406 C 109.847656 125.941406 110.480469 126.132813 110.878906 126.519531 C 111.28125 126.921875 111.46875 127.347656 111.46875 127.84375 C 111.46875 128.515625 111.207031 129.007813 110.660156 129.335938 C 110.375 129.507813 110.003906 129.632813 109.542969 129.707031 C 110.089844 129.773438 110.53125 129.894531 110.886719 130.09375 C 111.542969 130.429688 111.871094 130.96875 111.871094 131.6875 C 111.871094 132.597656 111.414063 133.222656 110.488281 133.550781 C 109.996094 133.738281 109.300781 133.828125 108.414063 133.828125 L 104.875 133.828125 Z M 107.757813 130 C 107.550781 130.019531 107.40625 130.019531 107.273438 130.019531 L 107.273438 132.707031 C 107.273438 133.007813 107.335938 133.183594 107.429688 133.253906 C 107.535156 133.304688 107.804688 133.328125 108.242188 133.328125 C 109.152344 133.328125 109.765625 133.214844 110.085938 132.964844 C 110.398438 132.710938 110.554688 132.277344 110.554688 131.613281 C 110.554688 130.921875 110.292969 130.464844 109.765625 130.226563 C 109.421875 130.070313 108.890625 129.988281 108.164063 129.988281 C 108.089844 129.988281 107.949219 129.992188 107.757813 130 "/>
<path style=" stroke:none;fill-rule:evenodd;fill:rgb(0%,35.699463%,66.699219%);fill-opacity:1;" d="M 114.195313 131.226563 C 114.664063 131.035156 115.394531 130.851563 116.371094 130.695313 C 116.382813 130.648438 116.382813 130.601563 116.382813 130.570313 C 116.382813 130.539063 116.382813 130.488281 116.382813 130.421875 C 116.382813 129.9375 116.308594 129.589844 116.164063 129.421875 C 115.984375 129.183594 115.65625 129.058594 115.175781 129.058594 C 114.957031 129.058594 114.730469 129.105469 114.496094 129.191406 C 114.277344 129.273438 114.160156 129.359375 114.160156 129.480469 C 114.160156 129.503906 114.210938 129.574219 114.300781 129.714844 C 114.371094 129.859375 114.414063 129.988281 114.414063 130.109375 C 114.414063 130.265625 114.367188 130.386719 114.257813 130.488281 C 114.152344 130.570313 114.011719 130.621094 113.835938 130.621094 C 113.644531 130.621094 113.484375 130.5625 113.378906 130.429688 C 113.269531 130.304688 113.230469 130.148438 113.230469 129.945313 C 113.230469 129.574219 113.414063 129.273438 113.816406 129 C 114.226563 128.742188 114.722656 128.609375 115.320313 128.609375 C 116.191406 128.609375 116.796875 128.816406 117.113281 129.242188 C 117.289063 129.480469 117.382813 129.808594 117.382813 130.265625 L 117.382813 130.53125 L 117.339844 132.183594 L 117.339844 132.402344 C 117.339844 132.671875 117.359375 132.875 117.390625 132.984375 C 117.457031 133.183594 117.578125 133.28125 117.789063 133.28125 C 117.863281 133.28125 117.933594 133.265625 118.042969 133.222656 C 118.128906 133.179688 118.195313 133.160156 118.238281 133.160156 C 118.28125 133.160156 118.304688 133.171875 118.324219 133.195313 C 118.355469 133.222656 118.371094 133.253906 118.371094 133.304688 C 118.371094 133.425781 118.28125 133.550781 118.085938 133.703125 C 117.890625 133.855469 117.664063 133.9375 117.402344 133.9375 C 117.078125 133.9375 116.84375 133.839844 116.675781 133.636719 C 116.585938 133.527344 116.496094 133.347656 116.421875 133.113281 C 116.1875 133.410156 115.886719 133.632813 115.535156 133.78125 C 115.191406 133.917969 114.84375 133.984375 114.492188 133.984375 C 114.011719 133.984375 113.628906 133.878906 113.347656 133.660156 C 113.0625 133.4375 112.925781 133.113281 112.925781 132.671875 C 112.925781 132.070313 113.347656 131.578125 114.195313 131.226563 Z M 115.671875 133.214844 C 116.109375 132.964844 116.339844 132.542969 116.363281 131.96875 L 116.371094 131.320313 L 116.371094 131.136719 C 115.652344 131.214844 115.0625 131.375 114.636719 131.585938 C 114.203125 131.8125 114.007813 132.128906 114.007813 132.546875 C 114.007813 132.796875 114.082031 132.996094 114.226563 133.175781 C 114.394531 133.359375 114.605469 133.4375 114.875 133.4375 C 115.136719 133.4375 115.394531 133.367188 115.671875 133.214844 "/>
<path style=" stroke:none;fill-rule:nonzero;fill:rgb(0%,35.699463%,66.699219%);fill-opacity:1;" d="M 118.835938 133.394531 L 119.308594 133.386719 C 119.472656 133.386719 119.578125 133.359375 119.640625 133.3125 C 119.703125 133.265625 119.722656 133.160156 119.722656 132.996094 L 119.722656 129.78125 C 119.722656 129.5 119.683594 129.328125 119.578125 129.273438 C 119.472656 129.207031 119.191406 129.183594 118.75 129.191406 L 118.75 128.765625 L 120.6875 128.644531 L 120.6875 129.714844 C 120.894531 129.421875 121.082031 129.183594 121.265625 129.035156 C 121.597656 128.777344 121.976563 128.644531 122.433594 128.644531 C 122.996094 128.644531 123.414063 128.816406 123.703125 129.167969 C 123.972656 129.515625 124.117188 130 124.117188 130.621094 L 124.117188 133.023438 C 124.117188 133.160156 124.140625 133.253906 124.1875 133.304688 C 124.230469 133.359375 124.347656 133.386719 124.511719 133.386719 L 125 133.394531 L 125 133.828125 L 122.230469 133.828125 L 122.230469 133.394531 C 122.640625 133.394531 122.875 133.367188 122.984375 133.34375 C 123.078125 133.304688 123.117188 133.195313 123.117188 133.007813 L 123.117188 130.621094 C 123.117188 130.214844 123.042969 129.894531 122.875 129.664063 C 122.734375 129.441406 122.472656 129.316406 122.097656 129.316406 C 121.839844 129.316406 121.609375 129.386719 121.378906 129.542969 C 120.9375 129.847656 120.714844 130.386719 120.714844 131.15625 L 120.714844 132.984375 C 120.714844 133.148438 120.742188 133.253906 120.792969 133.304688 C 120.839844 133.359375 120.960938 133.386719 121.121094 133.386719 L 121.601563 133.394531 L 121.601563 133.828125 L 118.835938 133.828125 L 118.835938 133.394531 "/>
<path style=" stroke:none;fill-rule:nonzero;fill:rgb(0%,35.699463%,66.699219%);fill-opacity:1;" d="M 125.351563 126.335938 L 125.351563 125.878906 L 127.328125 125.777344 L 127.328125 131.234375 L 128.960938 129.707031 C 129.019531 129.648438 129.070313 129.589844 129.105469 129.554688 C 129.132813 129.515625 129.140625 129.480469 129.140625 129.421875 C 129.140625 129.378906 129.125 129.339844 129.082031 129.296875 C 129.050781 129.257813 128.960938 129.21875 128.820313 129.207031 L 128.234375 129.191406 L 128.234375 128.765625 L 131.101563 128.765625 L 131.101563 129.191406 C 130.753906 129.21875 130.472656 129.296875 130.242188 129.386719 C 130.015625 129.480469 129.769531 129.648438 129.523438 129.890625 L 128.742188 130.570313 L 130.238281 132.578125 C 130.421875 132.847656 130.59375 133.03125 130.746094 133.148438 C 130.996094 133.324219 131.269531 133.410156 131.601563 133.394531 L 131.601563 133.828125 L 128.726563 133.828125 L 128.726563 133.394531 L 129.082031 133.386719 C 129.234375 133.371094 129.335938 133.367188 129.378906 133.347656 C 129.417969 133.324219 129.441406 133.28125 129.441406 133.242188 C 129.441406 133.203125 129.441406 133.175781 129.417969 133.144531 C 129.398438 133.101563 129.363281 133.03125 129.292969 132.9375 L 128.023438 131.195313 L 127.328125 131.835938 L 127.328125 132.949219 C 127.328125 133.125 127.351563 133.242188 127.40625 133.296875 C 127.453125 133.359375 127.554688 133.386719 127.699219 133.386719 L 128.15625 133.394531 L 128.15625 133.828125 L 125.460938 133.828125 L 125.460938 133.394531 L 125.917969 133.386719 C 126.113281 133.386719 126.226563 133.359375 126.277344 133.296875 C 126.324219 133.242188 126.339844 133.125 126.339844 132.949219 L 126.339844 126.84375 C 126.339844 126.636719 126.300781 126.496094 126.203125 126.445313 C 126.125 126.390625 125.9375 126.363281 125.65625 126.34375 L 125.351563 126.335938 "/>
<path style=" stroke:none;fill-rule:nonzero;fill:rgb(0%,35.699463%,66.699219%);fill-opacity:1;" d="M 135.070313 133.828125 L 135.070313 133.367188 C 135.464844 133.347656 135.703125 133.328125 135.78125 133.328125 C 135.847656 133.324219 135.910156 133.3125 135.953125 133.304688 C 136.0625 133.277344 136.160156 133.222656 136.191406 133.148438 C 136.234375 133.058594 136.257813 132.941406 136.257813 132.78125 L 136.257813 126.980469 C 136.257813 126.699219 136.183594 126.535156 136.0625 126.488281 C 135.949219 126.457031 135.617188 126.421875 135.070313 126.40625 L 135.070313 125.941406 L 138.679688 125.941406 L 138.679688 126.40625 C 138.101563 126.414063 137.757813 126.445313 137.628906 126.488281 C 137.519531 126.535156 137.457031 126.699219 137.457031 126.980469 L 137.457031 132.671875 C 137.457031 132.984375 137.519531 133.171875 137.644531 133.242188 C 137.777344 133.324219 138.074219 133.367188 138.566406 133.367188 C 139.289063 133.367188 139.816406 133.253906 140.175781 133.054688 C 140.789063 132.671875 141.164063 131.9375 141.308594 130.832031 L 141.757813 130.851563 L 141.539063 133.828125 L 135.070313 133.828125 "/>
<path style=" stroke:none;fill-rule:nonzero;fill:rgb(0%,35.699463%,66.699219%);fill-opacity:1;" d="M 142.160156 128.765625 L 142.28125 128.746094 C 142.804688 128.714844 143.183594 128.386719 143.417969 127.78125 C 143.554688 127.414063 143.628906 127.003906 143.640625 126.535156 L 144.105469 126.535156 L 144.105469 128.765625 L 145.722656 128.765625 L 145.722656 129.207031 L 144.105469 129.207031 L 144.105469 132.417969 C 144.105469 132.621094 144.121094 132.800781 144.179688 132.949219 C 144.28125 133.195313 144.484375 133.324219 144.761719 133.324219 C 145.109375 133.324219 145.347656 133.132813 145.492188 132.746094 C 145.566406 132.542969 145.617188 132.242188 145.648438 131.84375 L 146.078125 131.84375 C 146.066406 132.386719 145.988281 132.800781 145.847656 133.125 C 145.585938 133.699219 145.109375 133.964844 144.394531 133.964844 C 143.847656 133.964844 143.464844 133.78125 143.253906 133.371094 C 143.144531 133.171875 143.09375 132.875 143.09375 132.515625 L 143.09375 129.242188 L 142.160156 129.242188 L 142.160156 128.765625 "/>
<path style=" stroke:none;fill-rule:evenodd;fill:rgb(0%,35.699463%,66.699219%);fill-opacity:1;" d="M 147.316406 129.453125 C 147.710938 128.902344 148.25 128.644531 148.914063 128.644531 C 149.234375 128.644531 149.527344 128.730469 149.773438 128.863281 C 150.027344 129.015625 150.230469 129.21875 150.382813 129.480469 L 150.382813 126.808594 C 150.382813 126.5625 150.292969 126.40625 150.109375 126.363281 C 149.984375 126.34375 149.71875 126.328125 149.289063 126.335938 L 149.289063 125.878906 L 151.371094 125.777344 L 151.371094 132.949219 C 151.371094 133.054688 151.394531 133.148438 151.441406 133.242188 C 151.5 133.335938 151.617188 133.386719 151.804688 133.386719 L 152.246094 133.394531 L 152.246094 133.828125 L 150.417969 133.941406 L 150.417969 132.984375 C 150.292969 133.242188 150.136719 133.460938 149.957031 133.605469 C 149.636719 133.863281 149.257813 133.984375 148.820313 133.984375 C 148.257813 133.984375 147.75 133.78125 147.339844 133.328125 C 146.925781 132.894531 146.707031 132.203125 146.707031 131.273438 C 146.707031 130.585938 146.914063 129.980469 147.316406 129.453125 Z M 148.132813 132.847656 C 148.34375 133.222656 148.65625 133.410156 149.074219 133.410156 C 149.636719 133.410156 150.027344 133.101563 150.238281 132.484375 C 150.339844 132.152344 150.402344 131.757813 150.402344 131.285156 C 150.402344 130.785156 150.332031 130.363281 150.1875 130.019531 C 149.96875 129.484375 149.597656 129.234375 149.101563 129.234375 C 148.605469 129.234375 148.265625 129.503906 148.054688 130.054688 C 147.898438 130.410156 147.84375 130.851563 147.84375 131.363281 C 147.84375 131.984375 147.933594 132.484375 148.132813 132.847656 "/>
<path style=" stroke:none;fill-rule:nonzero;fill:rgb(0%,35.699463%,66.699219%);fill-opacity:1;" d="M 154.492188 132.820313 C 154.621094 132.953125 154.695313 133.113281 154.695313 133.296875 C 154.695313 133.484375 154.621094 133.644531 154.492188 133.792969 C 154.355469 133.917969 154.203125 133.964844 154.015625 133.964844 C 153.824219 133.964844 153.671875 133.917969 153.53125 133.792969 C 153.398438 133.648438 153.320313 133.484375 153.320313 133.296875 C 153.320313 133.113281 153.398438 132.953125 153.523438 132.820313 C 153.652344 132.671875 153.8125 132.617188 154.011719 132.617188 C 154.203125 132.617188 154.355469 132.671875 154.492188 132.820313 "/>
<path style=" stroke:none;fill-rule:nonzero;fill:rgb(0%,35.699463%,66.699219%);fill-opacity:1;" d="M 91.203125 99.359375 C 91.203125 99.359375 65.425781 114.925781 61.9375 105.28125 C 61.9375 105.28125 57.523438 94.371094 77.277344 80.890625 C 77.277344 80.890625 67.167969 81.359375 71.921875 75.667969 C 71.921875 75.667969 78.546875 68.234375 90.390625 63.9375 L 89 65.675781 C 89 65.675781 78.515625 70.175781 80.53125 75.199219 C 81.6875 78.101563 86.574219 74.628906 86.574219 74.628906 L 88.539063 75.320313 C 88.539063 75.320313 66.820313 89.253906 72.15625 99.824219 C 72.15625 99.824219 77.957031 107.03125 89.703125 98.550781 L 91.203125 99.359375 "/>
<path style=" stroke:none;fill-rule:nonzero;fill:rgb(97.999573%,65.098572%,10.198975%);fill-opacity:1;" d="M 92.710938 64.753906 C 92.523438 64.917969 92.710938 66.148438 92.710938 66.148438 C 92.710938 66.148438 100.492188 62.304688 102.816406 64.398438 C 102.816406 64.398438 105.027344 67.421875 92.597656 74.394531 L 92.597656 77.183594 C 92.597656 77.183594 111.78125 65.675781 113.15625 78.226563 C 113.15625 78.226563 114.5625 89.253906 100.621094 105.984375 C 100.621094 105.984375 125.132813 88.332031 124.539063 74.050781 C 124.539063 74.050781 123.375 63.242188 105.265625 69.273438 C 105.265625 69.273438 112.117188 63.710938 106.769531 60.460938 C 106.769531 60.460938 101.085938 57.304688 92.710938 64.753906 "/>
<path style=" stroke:none;fill-rule:nonzero;fill:rgb(0%,65.098572%,31.399536%);fill-opacity:1;" d="M 94.113281 55.582031 L 92.597656 107.644531 C 114.414063 102.886719 142.335938 97.269531 149.15625 98.082031 C 149.15625 98.082031 151.261719 99.359375 147.316406 100.171875 C 147.316406 100.171875 90.042969 114.230469 68.09375 124.445313 L 65.066406 113.875 C 65.066406 113.875 76.609375 111.144531 91.21875 107.9375 C 91.3125 103.042969 91.996094 64.984375 89.929688 61.613281 L 94.113281 55.582031 "/>
<path style=" stroke:none;fill-rule:nonzero;fill:rgb(13.725281%,12.156677%,12.548828%);fill-opacity:1;" d="M 144.292969 105.78125 L 144.292969 103.109375 L 145.167969 103.109375 L 145.167969 102.824219 L 143.089844 102.824219 L 143.089844 103.109375 L 143.949219 103.109375 L 143.949219 105.78125 L 144.292969 105.78125 "/>
<path style=" stroke:none;fill-rule:nonzero;fill:rgb(13.725281%,12.156677%,12.548828%);fill-opacity:1;" d="M 145.597656 105.78125 L 145.597656 102.824219 L 146.078125 102.824219 L 146.925781 105.0625 C 146.964844 105.191406 147.011719 105.335938 147.0625 105.484375 C 147.113281 105.347656 147.164063 105.191406 147.210938 105.0625 L 148.023438 102.824219 L 148.480469 102.824219 L 148.480469 105.78125 L 148.132813 105.78125 L 148.132813 103.320313 C 148.054688 103.628906 147.96875 103.878906 147.890625 104.074219 L 147.261719 105.78125 L 146.84375 105.78125 L 146.203125 104.101563 C 146.125 103.890625 146.039063 103.632813 145.933594 103.320313 L 145.933594 105.78125 L 145.597656 105.78125 "/>
<path style=" stroke:none;fill-rule:nonzero;fill:rgb(13.725281%,12.156677%,12.548828%);fill-opacity:1;" d="M 67.90625 154.996094 C 68.144531 154.722656 68.308594 154.507813 68.402344 154.328125 C 68.496094 154.152344 68.546875 153.980469 68.546875 153.835938 C 68.546875 153.617188 68.460938 153.40625 68.28125 153.25 C 68.023438 153.011719 67.652344 152.832031 67.183594 152.714844 C 66.828125 152.640625 66.445313 152.601563 66.007813 152.601563 C 65.449219 152.601563 64.851563 152.542969 64.210938 152.433594 C 64.144531 152.429688 63.789063 152.351563 63.121094 152.234375 C 62.472656 152.105469 62.03125 151.949219 61.8125 151.785156 C 61.589844 151.621094 61.433594 151.386719 61.332031 151.085938 C 61.324219 150.992188 61.304688 150.90625 61.304688 150.800781 C 61.304688 150.257813 61.75 149.707031 62.644531 149.132813 C 63.367188 148.675781 64.066406 148.359375 64.746094 148.191406 C 65.179688 148.0625 65.566406 147.976563 65.917969 147.914063 C 66.476563 147.796875 66.945313 147.75 67.34375 147.75 C 67.820313 147.75 68.203125 147.832031 68.523438 147.964844 C 68.832031 148.101563 69.042969 148.339844 69.175781 148.683594 C 68.867188 148.839844 68.601563 148.9375 68.367188 149.003906 C 68.128906 149.050781 67.855469 149.074219 67.527344 149.074219 L 67.90625 148.5625 C 67.5 148.453125 67.09375 148.394531 66.675781 148.394531 C 66.195313 148.394531 65.726563 148.460938 65.253906 148.597656 C 64.78125 148.738281 64.28125 148.9375 63.738281 149.207031 C 63.34375 149.394531 62.972656 149.628906 62.683594 149.875 C 62.296875 150.203125 62.101563 150.496094 62.101563 150.773438 C 62.101563 150.925781 62.160156 151.074219 62.28125 151.21875 C 62.40625 151.34375 62.605469 151.480469 62.847656 151.59375 C 63.40625 151.847656 64.109375 151.996094 64.96875 152.058594 C 65.832031 152.117188 66.632813 152.171875 67.40625 152.222656 C 67.90625 152.300781 68.28125 152.378906 68.523438 152.488281 C 68.90625 152.648438 69.175781 152.902344 69.296875 153.25 C 69.355469 153.378906 69.378906 153.550781 69.378906 153.726563 C 69.378906 154.292969 69.09375 154.894531 68.496094 155.523438 C 67.96875 156.074219 67.40625 156.488281 66.777344 156.777344 C 66.394531 156.945313 66.027344 157.105469 65.667969 157.277344 C 65.199219 157.472656 64.816406 157.59375 64.492188 157.644531 C 64.394531 157.652344 64.246094 157.671875 64.074219 157.703125 C 63.902344 157.734375 63.769531 157.738281 63.691406 157.738281 C 63.539063 157.738281 63.425781 157.734375 63.367188 157.703125 C 63.3125 157.703125 63.222656 157.683594 63.09375 157.644531 C 62.859375 157.554688 62.707031 157.472656 62.632813 157.375 C 62.5625 157.277344 62.511719 157.125 62.472656 156.898438 C 62.660156 157 62.859375 157.078125 63.089844 157.125 C 63.3125 157.175781 63.53125 157.203125 63.753906 157.203125 C 64.449219 157.203125 65.210938 156.976563 66.019531 156.515625 C 66.722656 156.121094 67.347656 155.617188 67.90625 154.996094 "/>
<path style=" stroke:none;fill-rule:evenodd;fill:rgb(13.725281%,12.156677%,12.548828%);fill-opacity:1;" d="M 72.070313 155.257813 C 72.085938 155.351563 72.179688 155.65625 72.359375 156.175781 C 72.488281 156.542969 72.5625 156.867188 72.5625 157.136719 C 72.097656 157.066406 71.71875 156.773438 71.46875 156.246094 C 71.230469 155.730469 71.101563 155.144531 71.101563 154.515625 C 71.101563 154.039063 71.164063 153.65625 71.296875 153.367188 C 71.542969 153.582031 71.738281 153.945313 71.871094 154.464844 C 71.957031 154.832031 72.03125 155.09375 72.070313 155.257813 Z M 72.179688 151.980469 C 71.945313 151.980469 71.648438 152.019531 71.285156 152.105469 C 70.921875 152.195313 70.65625 152.234375 70.476563 152.234375 C 70.394531 152.234375 70.328125 152.226563 70.289063 152.222656 C 70.480469 151.667969 70.808594 151.398438 71.242188 151.398438 C 71.605469 151.398438 71.910156 151.59375 72.179688 151.980469 "/>
<path style=" stroke:none;fill-rule:nonzero;fill:rgb(13.725281%,12.156677%,12.548828%);fill-opacity:1;" d="M 74.570313 157.253906 C 74.296875 157.136719 74.113281 156.878906 73.984375 156.476563 C 73.9375 156.324219 73.886719 155.992188 73.828125 155.511719 C 73.652344 154.753906 73.488281 153.992188 73.3125 153.25 C 73.292969 153.101563 73.277344 152.945313 73.265625 152.796875 C 73.242188 152.640625 73.234375 152.5625 73.234375 152.542969 C 73.234375 152.285156 73.3125 152.160156 73.464844 152.160156 C 73.511719 152.160156 73.601563 152.195313 73.703125 152.253906 C 73.828125 152.300781 73.933594 152.511719 74.035156 152.886719 C 74.121094 153.15625 74.167969 153.441406 74.199219 153.734375 C 74.246094 154.277344 74.296875 154.808594 74.367188 155.332031 C 74.492188 155.96875 74.742188 156.40625 75.085938 156.648438 C 75.316406 156.230469 75.535156 155.820313 75.777344 155.390625 C 76.015625 154.945313 76.203125 154.527344 76.34375 154.125 C 76.445313 153.84375 76.550781 153.640625 76.660156 153.523438 C 76.78125 153.394531 76.90625 153.320313 77.03125 153.320313 C 77.246094 153.320313 77.46875 153.488281 77.710938 153.804688 C 77.902344 154.039063 78.066406 154.367188 78.226563 154.746094 C 78.363281 155.050781 78.484375 155.285156 78.621094 155.433594 C 78.75 155.570313 78.882813 155.628906 79.03125 155.628906 C 79.265625 155.628906 79.652344 155.324219 80.179688 154.683594 C 80.71875 154.039063 81.167969 153.726563 81.503906 153.726563 C 81.769531 153.726563 82.023438 153.859375 82.28125 154.125 C 82.445313 154.3125 82.613281 154.546875 82.773438 154.851563 C 82.980469 155.277344 83.199219 155.707031 83.40625 156.144531 C 83.496094 156.28125 83.558594 156.355469 83.597656 156.40625 C 83.652344 156.4375 83.753906 156.476563 83.886719 156.515625 C 84.023438 156.558594 84.132813 156.5625 84.203125 156.5625 C 84.273438 156.5625 84.347656 156.6875 84.410156 156.898438 C 84.203125 156.984375 83.980469 157.039063 83.769531 157.039063 C 83.363281 157.039063 83.019531 156.816406 82.722656 156.367188 C 82.648438 156.28125 82.417969 155.804688 82.023438 154.996094 C 81.84375 154.640625 81.640625 154.445313 81.421875 154.445313 C 81.253906 154.445313 81.066406 154.578125 80.855469 154.808594 C 80.730469 154.945313 80.574219 155.183594 80.378906 155.511719 C 80.128906 155.917969 79.886719 156.199219 79.667969 156.339844 C 79.441406 156.488281 79.214844 156.542969 79.003906 156.515625 C 78.546875 156.464844 78.15625 156.144531 77.816406 155.523438 C 77.378906 154.710938 77.085938 154.230469 76.972656 154.125 C 76.675781 154.894531 76.410156 155.511719 76.1875 155.976563 C 75.765625 156.875 75.332031 157.324219 74.878906 157.324219 C 74.785156 157.324219 74.679688 157.304688 74.570313 157.253906 "/>
<path style=" stroke:none;fill-rule:nonzero;fill:rgb(13.725281%,12.156677%,12.548828%);fill-opacity:1;" d="M 90.21875 153.992188 C 90.492188 154.3125 90.609375 154.628906 90.609375 154.941406 C 90.609375 155.488281 90.21875 155.976563 89.453125 156.398438 C 88.753906 156.761719 88.035156 156.953125 87.300781 156.953125 C 87.101563 156.953125 86.945313 156.933594 86.8125 156.898438 C 87.515625 156.695313 88.035156 156.515625 88.359375 156.355469 C 88.988281 156.058594 89.394531 155.6875 89.589844 155.257813 C 89.652344 155.09375 89.6875 154.945313 89.6875 154.820313 C 89.6875 154.527344 89.523438 154.257813 89.222656 154.03125 C 88.933594 153.835938 88.59375 153.691406 88.210938 153.621094 C 87.953125 153.5625 87.691406 153.53125 87.398438 153.53125 C 86.921875 153.53125 86.550781 153.617188 86.289063 153.753906 C 85.964844 153.921875 85.789063 154.222656 85.789063 154.621094 C 85.789063 155.171875 85.980469 156.019531 86.347656 157.125 C 86.730469 158.234375 86.917969 159.066406 86.917969 159.605469 C 86.917969 159.832031 86.90625 159.96875 86.882813 160.0625 C 86.882813 160.148438 86.855469 160.273438 86.8125 160.421875 C 86.453125 160.273438 86.128906 159.828125 85.828125 159.039063 C 85.65625 158.597656 85.476563 157.996094 85.300781 157.253906 C 85.175781 156.796875 85.074219 156.121094 84.988281 155.242188 C 84.90625 154.351563 84.832031 153.765625 84.785156 153.476563 C 85.488281 153.28125 85.96875 153.15625 86.226563 153.101563 C 86.8125 152.964844 87.308594 152.894531 87.722656 152.894531 C 88.226563 152.894531 88.675781 152.984375 89.085938 153.15625 C 89.496094 153.308594 89.878906 153.59375 90.21875 153.992188 "/>
<path style=" stroke:none;fill-rule:nonzero;fill:rgb(13.725281%,12.156677%,12.548828%);fill-opacity:1;" d="M 92.105469 153.734375 C 92.078125 153.523438 92.039063 153.121094 91.992188 152.542969 C 91.894531 151.71875 91.859375 151.058594 91.859375 150.597656 C 91.859375 150.441406 91.824219 150.136719 91.75 149.652344 C 91.671875 149.179688 91.632813 148.828125 91.632813 148.597656 C 91.632813 148.359375 91.65625 148.191406 91.695313 148.0625 C 91.75 147.9375 91.84375 147.851563 91.980469 147.808594 C 92.308594 149.296875 92.480469 150.800781 92.480469 152.351563 C 92.53125 152.945313 92.625 153.523438 92.726563 154.09375 C 92.816406 154.535156 92.949219 155.117188 93.136719 155.820313 C 93.210938 156.113281 93.375 156.6875 93.621094 157.511719 C 93.167969 157.386719 92.785156 156.835938 92.5 155.902344 C 92.300781 155.257813 92.175781 154.535156 92.105469 153.734375 "/>
<path style=" stroke:none;fill-rule:evenodd;fill:rgb(13.725281%,12.156677%,12.548828%);fill-opacity:1;" d="M 96.890625 153.476563 C 97.128906 153.320313 97.34375 153.128906 97.539063 152.894531 C 97.789063 152.585938 97.902344 152.316406 97.902344 152.074219 C 97.902344 151.898438 97.820313 151.734375 97.644531 151.59375 C 97.535156 151.511719 97.382813 151.460938 97.226563 151.460938 C 97.050781 151.460938 96.835938 151.515625 96.578125 151.652344 C 96.46875 151.703125 96.285156 151.808594 96.015625 151.980469 C 95.6875 152.1875 95.421875 152.464844 95.234375 152.820313 C 95.054688 153.171875 94.960938 153.53125 94.960938 153.921875 C 94.960938 154.09375 94.980469 154.230469 95.015625 154.375 C 95.320313 154.3125 95.664063 154.191406 96.03125 154.003906 C 96.300781 153.875 96.585938 153.691406 96.890625 153.476563 Z M 97.644531 150.960938 C 97.894531 151.03125 98.101563 151.179688 98.273438 151.40625 C 98.453125 151.621094 98.542969 151.851563 98.542969 152.105469 L 98.542969 152.222656 C 98.4375 152.933594 97.839844 153.628906 96.734375 154.285156 C 96.242188 154.558594 95.753906 154.851563 95.25 155.125 C 95.570313 155.628906 96.03125 156.011719 96.621094 156.230469 C 97.101563 156.425781 97.683594 156.515625 98.378906 156.515625 C 98.640625 156.515625 98.890625 156.507813 99.128906 156.488281 C 99.371094 156.464844 99.644531 156.4375 99.960938 156.40625 C 100.277344 156.367188 100.601563 156.300781 100.941406 156.203125 C 101.285156 156.097656 101.625 155.976563 101.945313 155.882813 C 102.089844 155.839844 102.253906 155.761719 102.414063 155.679688 C 102.890625 155.414063 103.164063 155.269531 103.207031 155.257813 C 103.316406 155.257813 103.410156 155.242188 103.457031 155.230469 C 103.503906 155.214844 103.507813 155.171875 103.464844 155.125 C 103.605469 155.09375 103.691406 155.09375 103.726563 155.09375 C 103.71875 155.101563 103.710938 155.125 103.710938 155.125 C 103.132813 155.511719 102.53125 155.894531 101.945313 156.253906 C 101.085938 156.585938 100.546875 156.777344 100.339844 156.847656 C 99.703125 157.039063 99.148438 157.136719 98.679688 157.136719 C 97.617188 157.136719 96.65625 156.929688 95.789063 156.488281 C 94.730469 155.96875 94.199219 155.257813 94.199219 154.375 C 94.199219 154.203125 94.21875 154.019531 94.25 153.859375 C 94.433594 153.058594 94.785156 152.402344 95.3125 151.898438 C 95.804688 151.441406 96.457031 151.074219 97.273438 150.828125 C 97.273438 150.828125 97.3125 150.828125 97.34375 150.828125 C 97.4375 150.875 97.550781 150.917969 97.644531 150.960938 "/>
<path style=" stroke:none;fill-rule:nonzero;fill:rgb(13.725281%,12.156677%,12.548828%);fill-opacity:1;" d="M 119.742188 145.410156 C 119.96875 145.847656 120.15625 146.367188 120.300781 146.984375 C 120.359375 147.203125 120.496094 148.148438 120.742188 149.824219 C 120.792969 150.203125 120.875 150.640625 120.992188 151.148438 C 121.304688 152.488281 121.464844 153.257813 121.503906 153.46875 C 121.539063 153.640625 121.617188 153.921875 121.769531 154.3125 C 122.054688 155.148438 122.214844 155.679688 122.261719 155.882813 C 121.554688 155.71875 121.027344 154.886719 120.675781 153.378906 C 120.65625 153.320313 120.5625 152.722656 120.359375 151.59375 C 120.230469 150.75 120.085938 149.898438 119.953125 149.050781 C 119.800781 148.082031 119.597656 147.253906 119.347656 146.554688 C 118.910156 146.832031 118.53125 147.394531 118.199219 148.25 C 117.949219 148.9375 117.695313 149.628906 117.457031 150.328125 C 117.175781 150.949219 116.898438 151.484375 116.597656 151.933594 C 116.144531 152.640625 115.710938 153.070313 115.320313 153.25 C 115.222656 153.269531 115.132813 153.308594 115.003906 153.320313 C 114.890625 153.367188 114.78125 153.375 114.707031 153.375 C 114.058594 153.375 113.367188 152.855469 112.667969 151.8125 C 112.359375 151.371094 112.0625 150.917969 111.785156 150.449219 C 111.710938 150.621094 111.652344 150.800781 111.625 151.027344 C 111.589844 151.222656 111.582031 151.421875 111.582031 151.621094 C 111.582031 152.101563 111.710938 152.832031 111.960938 153.84375 C 112.214844 154.84375 112.359375 155.578125 112.359375 156.039063 C 112.359375 156.28125 112.332031 156.523438 112.269531 156.777344 C 111.910156 156.6875 111.652344 156.425781 111.523438 155.976563 C 111.4375 155.707031 111.394531 155.285156 111.394531 154.746094 C 111.382813 154.527344 111.335938 154.160156 111.261719 153.644531 C 111.199219 153.144531 111.152344 152.796875 111.144531 152.601563 C 111.144531 152.300781 111.085938 151.515625 110.976563 150.25 C 110.921875 149.652344 110.898438 149.179688 110.898438 148.8125 C 110.898438 148.597656 110.859375 148.332031 110.785156 148.03125 C 110.609375 147.382813 110.53125 146.992188 110.53125 146.875 C 110.53125 146.691406 110.574219 146.503906 110.636719 146.304688 C 110.921875 146.402344 111.105469 146.511719 111.195313 146.632813 C 111.28125 146.753906 111.351563 147.019531 111.414063 147.4375 C 111.46875 147.855469 111.542969 148.199219 111.609375 148.46875 C 111.710938 148.863281 111.851563 149.21875 112.035156 149.574219 C 112.425781 150.328125 112.816406 150.960938 113.199219 151.441406 C 113.773438 152.148438 114.300781 152.507813 114.804688 152.507813 C 115.007813 152.507813 115.222656 152.429688 115.441406 152.300781 C 115.652344 152.148438 115.859375 151.921875 116.0625 151.59375 C 116.585938 150.765625 116.910156 150.207031 117.066406 149.941406 C 117.421875 149.296875 117.679688 148.726563 117.816406 148.226563 C 117.96875 147.707031 118.199219 147.191406 118.515625 146.691406 C 118.8125 146.167969 119.152344 145.746094 119.480469 145.410156 L 119.742188 145.410156 "/>
<path style=" stroke:none;fill-rule:nonzero;fill:rgb(13.725281%,12.156677%,12.548828%);fill-opacity:1;" d="M 126.535156 150.960938 C 126.746094 151.097656 126.898438 151.261719 126.988281 151.441406 C 127.089844 151.625 127.128906 151.828125 127.128906 152.042969 C 127.128906 152.308594 127.0625 152.53125 126.917969 152.738281 C 126.917969 152.253906 126.84375 151.90625 126.664063 151.683594 C 126.515625 151.46875 126.289063 151.34375 126.007813 151.34375 C 125.566406 151.34375 125.070313 151.59375 124.539063 152.058594 C 124.003906 152.511719 123.664063 152.996094 123.515625 153.476563 C 123.429688 153.792969 123.332031 154.09375 123.261719 154.402344 C 123.140625 154.851563 123.078125 155.214844 123.078125 155.496094 C 123.078125 155.839844 123.144531 156.113281 123.28125 156.300781 C 123.429688 156.503906 123.667969 156.609375 124.019531 156.648438 C 124.066406 156.660156 124.144531 156.671875 124.246094 156.671875 C 124.828125 156.671875 125.390625 156.4375 125.929688 155.976563 C 126.367188 155.53125 126.796875 155.078125 127.226563 154.621094 C 127.742188 154.09375 128.234375 153.753906 128.679688 153.621094 C 128.730469 153.765625 128.8125 154.046875 128.890625 154.464844 C 129.019531 155.171875 129.214844 155.648438 129.441406 155.882813 C 129.597656 156.039063 129.765625 156.144531 129.949219 156.214844 C 130.148438 156.28125 130.355469 156.300781 130.585938 156.300781 C 130.746094 156.300781 130.9375 156.28125 131.199219 156.246094 C 131.746094 156.175781 132.082031 156.144531 132.183594 156.144531 L 132.355469 156.144531 C 131.984375 156.324219 131.628906 156.507813 131.257813 156.6875 C 130.867188 156.851563 130.507813 156.945313 130.175781 156.945313 C 130.023438 156.945313 129.875 156.929688 129.703125 156.898438 C 129.304688 156.816406 128.988281 156.636719 128.742188 156.355469 C 128.695313 156.292969 128.417969 155.757813 127.933594 154.746094 C 127.570313 155.117188 127.195313 155.472656 126.828125 155.839844 C 126.394531 156.253906 126.007813 156.5625 125.65625 156.777344 C 125.417969 156.929688 125.132813 157.039063 124.828125 157.136719 C 124.523438 157.242188 124.230469 157.285156 123.945313 157.285156 C 123.886719 157.285156 123.832031 157.285156 123.78125 157.285156 C 123.730469 157.269531 123.667969 157.253906 123.628906 157.253906 C 123.21875 157.203125 122.933594 157.03125 122.785156 156.734375 C 122.671875 156.507813 122.617188 156.144531 122.617188 155.628906 C 122.617188 154.578125 122.933594 153.59375 123.542969 152.679688 C 124.15625 151.765625 124.945313 151.105469 125.917969 150.714844 C 126.007813 150.746094 126.097656 150.765625 126.1875 150.773438 C 126.347656 150.851563 126.464844 150.910156 126.535156 150.960938 "/>
<path style=" stroke:none;fill-rule:nonzero;fill:rgb(13.725281%,12.156677%,12.548828%);fill-opacity:1;" d="M 135.5 148.433594 L 135.5 147.300781 C 135.5 147.148438 135.527344 147.042969 135.570313 146.992188 C 135.617188 146.925781 135.6875 146.902344 135.78125 146.902344 C 135.933594 146.925781 136.058594 146.925781 136.144531 146.925781 C 136.144531 147.753906 136.160156 148.449219 136.210938 149.003906 C 136.257813 149.558594 136.367188 150.160156 136.511719 150.828125 C 137.253906 150.75 137.902344 150.597656 138.449219 150.375 C 139.070313 150.125 139.589844 149.78125 140.035156 149.324219 C 140.035156 149.839844 139.851563 150.222656 139.472656 150.476563 C 139.222656 150.648438 138.78125 150.800781 138.160156 150.960938 C 137.65625 151.085938 137.316406 151.261719 137.148438 151.460938 C 136.984375 151.667969 136.894531 151.996094 136.894531 152.484375 C 136.945313 153.074219 137.066406 153.710938 137.253906 154.351563 C 137.417969 154.894531 137.644531 155.464844 137.902344 156.097656 C 138.128906 156.542969 138.417969 157.105469 138.773438 157.769531 C 137.964844 157.582031 137.363281 156.90625 136.960938 155.75 C 136.777344 155.226563 136.585938 154.257813 136.382813 152.855469 C 136.332031 152.40625 136.171875 152.09375 135.949219 151.898438 C 135.761719 151.730469 135.484375 151.652344 135.125 151.652344 C 134.917969 151.652344 134.617188 151.683594 134.242188 151.765625 C 133.414063 151.933594 132.910156 152.011719 132.714844 152.011719 C 132.484375 152.011719 132.261719 151.980469 132.082031 151.898438 C 131.890625 151.816406 131.734375 151.667969 131.605469 151.46875 C 131.820313 151.359375 132.03125 151.292969 132.257813 151.261719 C 132.484375 151.234375 132.753906 151.21875 133.089844 151.21875 L 133.488281 151.21875 C 133.886719 151.21875 134.269531 151.179688 134.648438 151.121094 C 135.046875 151.058594 135.464844 150.960938 135.886719 150.828125 C 135.78125 150.308594 135.6875 149.90625 135.640625 149.644531 C 135.554688 149.171875 135.5 148.761719 135.5 148.433594 "/>
<path style=" stroke:none;fill-rule:nonzero;fill:rgb(13.725281%,12.156677%,12.548828%);fill-opacity:1;" d="M 141.1875 151.71875 C 141.332031 153.039063 141.441406 153.835938 141.496094 154.105469 C 141.707031 155.050781 142.066406 155.738281 142.566406 156.144531 C 142.855469 155.378906 142.992188 154.957031 143.027344 154.886719 C 143.253906 154.445313 143.554688 154.152344 143.953125 153.992188 C 144.207031 153.898438 144.425781 153.851563 144.632813 153.851563 C 144.933594 153.851563 145.226563 153.992188 145.539063 154.285156 C 145.617188 154.367188 145.804688 154.550781 146.113281 154.871094 C 146.738281 155.539063 147.261719 156.011719 147.6875 156.246094 C 148.070313 156.464844 148.464844 156.585938 148.882813 156.648438 C 148.882813 156.671875 148.882813 156.6875 148.890625 156.707031 C 148.988281 156.777344 149.023438 156.835938 149.007813 156.898438 C 148.988281 156.984375 148.921875 157.0625 148.835938 157.105469 C 148.757813 157.136719 148.644531 157.160156 148.511719 157.160156 C 148.375 157.160156 148.214844 157.136719 148.054688 157.105469 C 147.882813 157.0625 147.78125 157.035156 147.746094 157.023438 C 147.425781 156.929688 147.097656 156.734375 146.773438 156.476563 C 146.546875 156.300781 146.113281 155.851563 145.476563 155.125 C 145.316406 154.945313 145.144531 154.800781 144.976563 154.710938 C 144.816406 154.605469 144.65625 154.550781 144.53125 154.550781 C 144.21875 154.550781 143.949219 154.753906 143.703125 155.167969 C 143.519531 155.464844 143.347656 155.882813 143.207031 156.398438 C 143.136719 156.617188 143.046875 156.789063 142.933594 156.929688 C 142.824219 157.015625 142.703125 157.078125 142.582031 157.078125 C 142.394531 157.078125 142.214844 156.984375 142.011719 156.816406 C 141.824219 156.617188 141.679688 156.40625 141.566406 156.144531 C 141.234375 155.414063 140.996094 154.640625 140.8125 153.808594 C 140.640625 152.984375 140.558594 152.160156 140.558594 151.339844 C 140.558594 151.105469 140.523438 150.828125 140.484375 150.507813 C 140.390625 149.773438 140.34375 149.300781 140.34375 149.132813 C 140.34375 148.699219 140.40625 148.351563 140.558594 148.0625 C 140.8125 148.460938 140.972656 149.054688 141.050781 149.824219 C 141.082031 150.449219 141.136719 151.097656 141.1875 151.71875 "/>
<path style=" stroke:none;fill-rule:nonzero;fill:rgb(13.725281%,12.156677%,12.548828%);fill-opacity:1;" d="M 149.179688 150.507813 L 149.179688 147.832031 L 148.324219 147.832031 L 148.324219 147.558594 L 150.402344 147.558594 L 150.402344 147.832031 L 149.535156 147.832031 L 149.535156 150.507813 L 149.179688 150.507813 "/>
<path style=" stroke:none;fill-rule:nonzero;fill:rgb(13.725281%,12.156677%,12.548828%);fill-opacity:1;" d="M 150.851563 150.507813 L 150.851563 147.558594 L 151.320313 147.558594 L 152.15625 149.789063 C 152.210938 149.917969 152.261719 150.0625 152.304688 150.207031 C 152.351563 150.074219 152.402344 149.941406 152.445313 149.789063 L 153.265625 147.558594 L 153.714844 147.558594 L 153.714844 150.507813 L 153.375 150.507813 L 153.375 148.046875 C 153.289063 148.351563 153.199219 148.613281 153.136719 148.804688 L 152.5 150.507813 L 152.089844 150.507813 L 151.441406 148.828125 C 151.371094 148.617188 151.261719 148.359375 151.175781 148.046875 L 151.175781 150.507813 L 150.851563 150.507813 "/>
<path style=" stroke:none;fill-rule:nonzero;fill:rgb(13.725281%,12.156677%,12.548828%);fill-opacity:1;" d="M 154.953125 140.179688 L 61.570313 140.179688 L 61.570313 139.957031 L 154.953125 139.957031 L 154.953125 140.179688 "/>
</g>
</svg>
