<svg id="svg" version="1.1" xmlns="http://www.w3.org/2000/svg" width="400" height="400" viewBox="0, 0, 400,400"><g id="svgg"><path id="path0" d="M259.000 165.139 C 253.782 166.482,249.199 169.355,249.201 171.282 C 249.202 172.172,251.006 175.966,252.395 178.000 C 252.771 178.550,253.615 179.990,254.272 181.200 C 255.944 184.282,256.569 185.369,256.800 185.600 C 256.910 185.710,257.242 186.230,257.538 186.755 C 259.221 189.744,260.724 192.376,262.043 194.644 C 262.570 195.549,264.350 198.627,265.999 201.484 L 268.998 206.679 277.599 206.938 C 282.330 207.081,291.816 207.198,298.680 207.199 L 311.159 207.200 312.144 205.900 C 312.686 205.185,313.718 203.520,314.438 202.200 C 315.158 200.880,316.909 197.820,318.328 195.400 C 321.018 190.813,321.833 189.405,323.247 186.900 C 323.713 186.075,324.433 184.922,324.847 184.338 C 326.041 182.655,325.855 181.997,324.300 182.407 C 313.563 185.232,300.975 182.370,291.207 174.881 C 285.386 170.418,279.476 166.565,276.913 165.562 C 273.670 164.292,263.246 164.047,259.000 165.139 M258.200 242.535 C 257.320 243.011,256.510 243.490,256.400 243.601 C 256.290 243.711,255.732 244.042,255.161 244.336 C 246.636 248.720,233.239 263.153,227.440 274.200 C 226.978 275.080,226.508 275.890,226.395 276.000 C 226.088 276.299,223.197 282.515,222.349 284.700 C 222.157 285.195,221.827 286.005,221.615 286.500 C 216.371 298.769,214.244 315.252,214.479 341.800 L 214.600 355.400 213.044 358.200 C 212.188 359.740,210.838 362.260,210.044 363.800 C 209.250 365.340,208.506 366.690,208.390 366.800 C 207.815 367.349,204.758 374.040,204.331 375.686 C 202.857 381.366,207.356 387.586,214.077 389.160 C 217.196 389.891,365.235 389.763,367.659 389.027 C 371.435 387.881,373.980 385.754,375.558 382.425 C 376.448 380.549,376.761 375.131,376.062 373.695 C 375.877 373.313,375.485 372.550,375.192 372.000 C 374.070 369.892,372.216 366.389,369.263 360.800 L 366.200 355.000 365.966 333.800 C 365.813 319.861,365.565 311.641,365.242 309.800 C 363.866 301.952,363.092 298.372,362.002 294.800 C 360.241 289.032,359.811 287.747,359.528 287.420 C 359.348 287.211,359.200 286.811,359.200 286.530 C 359.200 285.027,353.505 273.803,350.103 268.600 C 343.103 257.895,332.937 248.206,322.635 242.420 C 320.821 241.401,312.144 241.157,312.520 242.135 C 314.844 248.191,317.302 267.950,316.253 272.133 C 315.256 276.102,310.572 277.417,307.351 274.632 L 305.879 273.360 305.559 266.780 C 305.126 257.893,303.812 250.170,301.683 244.000 L 300.924 241.800 293.762 241.696 L 286.600 241.592 285.736 243.113 C 278.079 256.588,258.088 270.813,253.038 266.380 C 249.141 262.958,250.239 259.282,256.062 256.261 C 262.009 253.175,268.813 247.729,272.437 243.153 L 273.667 241.600 266.734 241.635 C 260.426 241.667,259.656 241.749,258.200 242.535 M292.278 283.765 C 293.327 284.667,293.409 284.963,293.538 288.313 L 293.676 291.896 295.184 292.348 C 296.014 292.597,297.156 292.800,297.723 292.800 C 298.289 292.800,298.864 292.980,299.000 293.200 C 299.136 293.420,299.563 293.600,299.948 293.600 C 300.334 293.600,301.395 293.960,302.306 294.400 C 303.216 294.840,304.150 295.200,304.381 295.200 C 304.611 295.200,304.800 295.336,304.800 295.502 C 304.800 295.669,305.382 296.063,306.094 296.378 C 312.096 299.034,312.773 305.307,307.300 307.562 C 305.798 308.180,304.522 307.812,301.798 305.976 C 299.172 304.206,294.322 302.211,293.834 302.699 C 293.491 303.042,293.560 318.921,293.906 319.440 C 294.068 319.682,295.460 320.282,297.000 320.774 C 304.276 323.097,309.879 327.025,311.873 331.200 C 315.913 339.660,312.582 352.016,305.266 355.714 C 304.680 356.010,303.840 356.445,303.400 356.680 C 302.960 356.915,302.150 357.285,301.600 357.504 C 301.050 357.722,300.097 358.103,299.481 358.350 C 298.866 358.598,297.966 358.801,297.481 358.802 C 296.997 358.803,295.925 358.992,295.100 359.221 L 293.600 359.638 293.594 362.519 C 293.587 365.985,293.066 367.169,291.128 368.118 C 287.895 369.702,285.600 367.457,285.600 362.711 C 285.600 359.874,285.530 359.600,284.806 359.600 C 283.997 359.600,281.484 359.067,278.600 358.285 C 271.590 356.383,264.799 351.355,264.801 348.069 C 264.806 342.860,269.292 341.020,273.800 344.377 C 277.444 347.091,283.506 349.629,284.986 349.061 C 285.811 348.744,285.919 330.333,285.100 329.729 C 284.825 329.526,283.340 328.951,281.800 328.452 C 280.260 327.953,278.237 327.197,277.304 326.772 C 276.372 326.347,275.507 326.000,275.382 326.000 C 274.009 326.000,268.584 321.090,267.376 318.754 C 261.494 307.380,271.514 292.000,284.806 292.000 C 285.538 292.000,285.600 291.725,285.600 288.455 C 285.600 283.135,288.872 280.837,292.278 283.765 M281.435 303.213 C 274.859 306.494,275.255 313.423,282.187 316.395 C 285.755 317.924,285.600 318.223,285.600 309.800 L 285.600 302.400 284.300 302.416 C 283.585 302.425,282.296 302.783,281.435 303.213 M293.600 340.613 C 293.600 349.866,293.553 349.735,296.530 348.763 C 299.957 347.644,303.451 342.572,302.626 339.914 C 302.539 339.631,302.362 338.919,302.234 338.331 C 301.857 336.606,300.010 334.771,297.417 333.544 C 293.357 331.623,293.600 331.173,293.600 340.613 " stroke="none" fill="#fbe59c" fill-rule="evenodd"></path><path id="path1" d="M39.600 10.781 C 35.782 10.948,34.625 11.124,34.708 11.523 C 34.809 12.018,38.831 17.598,39.900 18.729 C 40.175 19.019,40.400 19.416,40.400 19.610 C 40.400 19.805,40.850 20.414,41.400 20.964 C 41.950 21.514,42.400 22.125,42.400 22.322 C 42.400 22.520,42.940 23.246,43.600 23.937 C 44.260 24.628,44.800 25.329,44.800 25.496 C 44.801 25.663,45.206 26.280,45.700 26.866 C 47.428 28.914,47.818 29.410,48.800 30.800 C 49.344 31.570,50.008 32.470,50.277 32.800 C 50.545 33.130,52.131 35.290,53.800 37.600 C 55.469 39.910,57.055 42.070,57.323 42.400 C 57.592 42.730,58.256 43.630,58.800 44.400 C 59.796 45.810,60.650 46.904,61.413 47.745 C 61.640 47.995,62.262 48.830,62.794 49.600 C 63.326 50.370,63.869 51.090,64.000 51.200 C 64.131 51.310,64.677 52.030,65.214 52.800 C 65.750 53.570,66.406 54.470,66.673 54.800 C 66.939 55.130,68.465 57.200,70.063 59.400 C 71.662 61.600,73.075 63.490,73.204 63.600 C 73.333 63.710,73.871 64.430,74.400 65.200 C 74.929 65.970,75.469 66.690,75.600 66.800 C 75.731 66.910,76.271 67.630,76.800 68.400 C 77.329 69.170,77.869 69.890,78.000 70.000 C 78.131 70.110,78.671 70.830,79.200 71.600 C 79.729 72.370,80.269 73.090,80.400 73.200 C 80.531 73.310,81.074 74.030,81.606 74.800 C 82.138 75.570,82.760 76.403,82.987 76.651 C 83.214 76.899,84.660 78.854,86.200 80.995 C 87.740 83.136,89.405 85.363,89.900 85.944 C 90.394 86.525,90.799 87.185,90.800 87.412 C 90.800 87.638,91.160 88.083,91.600 88.400 C 92.040 88.717,92.400 89.162,92.401 89.388 C 92.401 89.615,92.941 90.430,93.600 91.200 C 94.259 91.970,94.799 92.825,94.799 93.100 C 94.800 93.375,94.950 93.600,95.132 93.600 C 95.315 93.600,95.720 94.095,96.032 94.700 C 96.344 95.305,96.689 95.890,96.799 96.000 C 97.131 96.331,98.047 97.998,100.095 102.000 C 103.639 108.926,106.373 117.240,107.068 123.200 C 107.183 124.190,107.440 125.171,107.639 125.380 C 107.837 125.589,108.000 126.973,108.000 128.456 C 108.000 129.939,108.180 131.264,108.400 131.400 C 108.620 131.536,108.800 132.357,108.800 133.224 L 108.800 134.800 188.800 134.800 C 252.535 134.800,268.799 134.698,268.797 134.300 C 268.719 122.479,262.581 106.104,253.990 94.800 C 253.405 94.030,251.938 92.050,250.730 90.400 C 249.521 88.750,246.340 84.430,243.661 80.800 C 240.981 77.170,238.534 73.840,238.222 73.400 C 237.910 72.960,235.916 70.260,233.789 67.400 C 231.663 64.540,229.595 61.750,229.193 61.200 C 226.856 58.001,224.436 54.714,220.354 49.200 C 217.831 45.790,215.326 42.370,214.789 41.600 C 214.251 40.830,213.591 39.930,213.322 39.600 C 213.053 39.270,211.914 37.740,210.791 36.200 C 209.668 34.660,208.414 32.950,208.003 32.400 C 206.751 30.723,198.167 19.064,195.174 14.976 C 194.199 13.643,193.042 12.068,192.605 11.476 L 191.810 10.400 118.205 10.481 C 77.722 10.526,42.350 10.661,39.600 10.781 M181.291 24.500 C 182.075 25.215,184.748 28.500,187.231 31.800 C 189.715 35.100,193.460 40.050,195.553 42.800 C 197.647 45.550,200.447 49.240,201.777 51.000 C 203.107 52.760,204.295 54.290,204.417 54.400 C 204.539 54.510,205.071 55.230,205.600 56.000 C 206.129 56.770,206.669 57.490,206.800 57.600 C 206.931 57.710,207.471 58.430,208.000 59.200 C 208.529 59.970,209.071 60.690,209.204 60.800 C 209.337 60.910,211.494 63.700,213.996 67.000 C 221.169 76.459,222.186 77.787,222.419 78.000 C 222.540 78.110,223.071 78.830,223.600 79.600 C 224.129 80.370,224.661 81.090,224.783 81.200 C 224.905 81.310,226.166 82.930,227.586 84.800 C 229.005 86.670,232.199 90.864,234.683 94.120 C 237.167 97.376,239.200 100.211,239.200 100.420 C 239.200 100.629,239.380 100.800,239.600 100.800 C 241.486 100.800,239.579 107.020,237.301 108.300 C 235.998 109.032,127.997 109.032,126.710 108.300 C 125.374 107.540,125.230 107.376,121.006 101.800 C 113.971 92.514,112.204 90.203,111.981 90.000 C 111.860 89.890,111.329 89.170,110.800 88.400 C 110.271 87.630,109.739 86.910,109.617 86.800 C 109.495 86.690,108.233 85.070,106.813 83.200 C 99.548 73.632,94.742 67.338,94.291 66.800 C 94.015 66.470,93.344 65.570,92.800 64.800 C 92.256 64.030,91.584 63.130,91.306 62.800 C 90.791 62.189,87.839 58.298,81.414 49.764 C 79.441 47.144,77.723 44.910,77.595 44.800 C 77.466 44.690,76.929 43.970,76.400 43.200 C 75.871 42.430,75.326 41.710,75.188 41.600 C 74.179 40.795,67.187 30.973,66.811 29.832 C 66.178 27.914,66.818 26.018,68.638 24.420 L 70.028 23.200 124.947 23.200 L 179.867 23.200 181.291 24.500 M88.114 33.981 L 83.227 34.200 87.619 40.000 C 90.034 43.190,92.233 46.072,92.505 46.403 C 92.777 46.735,94.619 49.165,96.599 51.803 C 98.578 54.442,100.297 56.690,100.418 56.800 C 100.539 56.910,101.071 57.630,101.600 58.400 C 102.129 59.170,102.665 59.890,102.792 60.000 C 102.919 60.110,104.039 61.550,105.281 63.200 C 106.524 64.850,110.029 69.464,113.070 73.454 C 116.112 77.444,119.947 82.484,121.593 84.654 C 123.239 86.824,124.687 88.690,124.812 88.800 C 124.937 88.910,125.471 89.630,126.000 90.400 C 126.529 91.170,127.064 91.890,127.189 92.000 C 127.313 92.110,128.400 93.505,129.604 95.100 L 131.792 98.000 177.696 98.000 C 202.943 98.000,223.595 97.865,223.589 97.700 C 223.581 97.461,213.492 84.025,211.497 81.595 C 210.982 80.969,204.913 72.954,198.627 64.600 C 196.641 61.960,194.922 59.710,194.808 59.600 C 194.459 59.265,188.318 51.216,180.617 41.003 C 176.641 35.730,176.052 34.975,175.271 34.155 C 174.731 33.587,100.225 33.438,88.114 33.981 M113.700 145.899 L 108.800 146.025 108.800 251.814 L 108.800 357.603 154.852 357.502 L 200.904 357.400 202.152 355.200 L 203.400 353.000 203.656 334.200 C 203.950 312.573,204.244 309.111,206.770 297.500 C 206.973 296.565,207.333 295.125,207.570 294.300 C 207.806 293.475,208.158 292.215,208.352 291.500 C 208.853 289.649,210.753 283.985,211.270 282.800 C 211.511 282.250,211.840 281.440,212.003 281.000 C 213.124 277.967,217.128 269.947,219.351 266.281 C 220.258 264.786,221.194 263.216,221.431 262.793 C 221.668 262.371,222.239 261.524,222.700 260.912 C 223.160 260.301,224.406 258.630,225.467 257.200 C 226.528 255.770,227.841 254.060,228.384 253.400 C 229.577 251.950,238.696 242.846,239.809 241.994 C 242.110 240.233,244.240 238.545,244.705 238.114 C 244.993 237.847,245.763 237.313,246.415 236.928 C 247.871 236.067,247.871 236.090,246.402 233.725 C 242.202 226.970,242.713 218.627,247.673 212.978 C 249.126 211.324,253.265 208.400,254.154 208.400 C 254.484 208.400,254.864 208.220,255.000 208.000 C 255.136 207.780,255.606 207.600,256.045 207.600 C 256.876 207.600,255.733 204.996,253.567 201.954 C 253.145 201.361,252.800 200.793,252.800 200.690 C 252.800 200.588,251.606 198.455,250.146 195.952 C 247.629 191.636,247.008 190.562,245.257 187.500 C 244.848 186.785,244.030 185.390,243.439 184.400 C 242.848 183.410,242.262 182.285,242.136 181.900 C 242.010 181.515,241.748 181.200,241.553 181.200 C 241.359 181.200,241.200 181.003,241.200 180.762 C 241.200 180.521,240.858 179.844,240.441 179.258 C 234.858 171.418,238.662 162.163,249.600 156.974 C 250.810 156.400,252.113 155.766,252.495 155.565 C 252.877 155.364,253.516 155.200,253.915 155.200 C 254.314 155.200,254.811 155.049,255.020 154.864 C 255.765 154.207,264.048 152.800,267.177 152.800 L 268.800 152.800 268.800 149.200 L 268.800 145.600 193.700 145.686 C 152.395 145.734,116.395 145.830,113.700 145.899 M230.200 171.938 C 232.600 173.553,233.486 177.179,232.041 179.478 C 230.599 181.774,229.521 182.184,224.518 182.343 L 220.000 182.486 219.999 206.143 C 219.999 232.570,220.087 231.708,217.200 233.386 C 215.838 234.178,215.108 234.203,190.400 234.314 C 162.682 234.438,162.919 234.455,160.760 232.158 L 159.800 231.136 159.688 206.768 L 159.576 182.400 155.888 182.398 C 151.101 182.395,149.536 181.937,148.018 180.095 C 145.532 177.079,147.016 172.517,150.800 171.543 C 152.965 170.985,229.349 171.366,230.200 171.938 " stroke="none" fill="#ace8ed" fill-rule="evenodd"></path><path id="path2" d="M14.407 0.296 C 13.585 0.619,13.073 1.213,12.495 2.519 C 11.854 3.967,11.759 366.000,12.400 366.000 C 12.620 366.000,12.800 366.270,12.800 366.600 C 12.800 366.930,12.980 367.200,13.200 367.200 C 13.420 367.200,13.600 367.481,13.600 367.824 C 13.600 368.167,13.765 368.345,13.968 368.220 C 14.170 368.095,14.607 368.264,14.939 368.596 C 15.384 369.041,16.448 369.200,18.971 369.200 L 22.400 369.200 22.400 382.767 C 22.400 391.376,22.545 396.382,22.797 396.467 C 23.015 396.540,23.233 397.086,23.282 397.681 C 23.331 398.276,23.438 398.696,23.519 398.614 C 23.600 398.533,24.013 398.813,24.436 399.236 C 25.409 400.209,373.176 400.273,373.500 399.300 C 373.592 399.025,374.012 398.800,374.433 398.800 C 374.855 398.800,375.200 398.620,375.200 398.400 C 375.200 398.180,375.520 398.000,375.912 398.000 C 376.303 398.000,376.883 397.640,377.200 397.200 C 377.517 396.760,378.011 396.400,378.297 396.400 C 378.795 396.400,383.200 392.260,383.200 391.792 C 383.200 391.668,383.560 391.180,384.000 390.708 C 384.440 390.236,384.800 389.613,384.800 389.325 C 384.800 389.036,384.980 388.800,385.200 388.800 C 385.420 388.800,385.600 388.440,385.600 388.000 C 385.600 387.560,385.780 387.200,386.000 387.200 C 386.220 387.200,386.400 386.851,386.400 386.424 C 386.400 385.997,386.580 385.536,386.800 385.400 C 387.020 385.264,387.200 384.443,387.200 383.576 C 387.200 382.709,387.380 382.000,387.600 382.000 C 387.842 382.000,388.000 380.267,388.000 377.600 C 388.000 375.180,387.857 373.200,387.682 373.200 C 387.507 373.200,387.319 372.525,387.264 371.700 C 387.210 370.875,386.993 370.140,386.782 370.067 C 386.572 369.993,386.400 369.509,386.400 368.990 C 386.400 368.472,386.220 367.936,386.000 367.800 C 385.780 367.664,385.600 367.203,385.600 366.776 C 385.600 366.349,385.454 366.000,385.275 366.000 C 385.096 366.000,384.705 365.378,384.407 364.618 C 384.109 363.858,383.715 363.329,383.532 363.442 C 383.350 363.555,383.200 363.277,383.200 362.824 C 383.200 362.371,383.020 362.000,382.800 362.000 C 382.580 362.000,382.400 361.640,382.400 361.200 C 382.400 360.760,382.254 360.400,382.075 360.400 C 381.896 360.400,381.502 359.770,381.200 359.000 C 380.898 358.230,380.504 357.600,380.325 357.600 C 380.146 357.600,380.000 357.240,380.000 356.800 C 380.000 356.360,379.820 356.000,379.600 356.000 C 379.380 356.000,379.200 355.640,379.200 355.200 C 379.200 354.760,379.020 354.400,378.800 354.400 C 378.580 354.400,378.400 354.040,378.400 353.600 C 378.400 353.160,378.220 352.800,378.000 352.800 C 377.740 352.800,377.600 347.493,377.600 337.680 C 377.600 328.577,377.448 322.408,377.217 322.177 C 377.006 321.966,376.810 318.960,376.780 315.496 C 376.749 311.839,376.574 309.292,376.363 309.423 C 376.159 309.549,376.000 308.423,376.000 306.847 C 376.000 305.307,375.847 303.952,375.659 303.837 C 375.472 303.721,375.214 302.405,375.088 300.913 C 374.844 298.050,374.144 294.669,373.553 293.505 C 373.359 293.123,373.200 292.268,373.200 291.605 C 373.200 290.942,373.020 290.400,372.800 290.400 C 372.580 290.400,372.400 289.860,372.400 289.200 C 372.400 288.540,372.220 288.000,372.000 288.000 C 371.780 288.000,371.600 287.460,371.600 286.800 C 371.600 286.140,371.420 285.600,371.200 285.600 C 370.980 285.600,370.800 285.060,370.800 284.400 C 370.800 283.740,370.620 283.200,370.400 283.200 C 370.180 283.200,370.000 282.851,370.000 282.424 C 370.000 281.997,369.820 281.536,369.600 281.400 C 369.380 281.264,369.200 280.713,369.200 280.176 C 369.200 279.639,369.020 279.200,368.800 279.200 C 368.580 279.200,368.400 278.840,368.400 278.400 C 368.400 277.960,368.265 277.599,368.100 277.597 C 367.694 277.593,366.800 275.614,366.800 274.720 C 366.800 274.324,366.665 273.999,366.500 273.997 C 366.141 273.993,365.200 272.056,365.200 271.320 C 365.200 271.034,365.020 270.800,364.800 270.800 C 364.580 270.800,364.400 270.522,364.400 270.183 C 364.400 269.844,364.040 269.180,363.600 268.708 C 363.160 268.236,362.800 267.613,362.800 267.325 C 362.800 267.036,362.620 266.800,362.400 266.800 C 362.180 266.800,362.000 266.522,362.000 266.183 C 362.000 265.844,361.640 265.180,361.200 264.708 C 360.760 264.236,360.400 263.613,360.400 263.325 C 360.400 263.036,360.220 262.800,360.000 262.800 C 359.780 262.800,359.600 262.564,359.600 262.275 C 359.600 261.987,359.240 261.364,358.800 260.892 C 358.360 260.420,358.000 259.889,358.000 259.713 C 358.000 259.536,357.550 258.907,357.000 258.313 C 356.450 257.720,356.000 257.047,356.000 256.817 C 356.000 256.588,355.820 256.400,355.600 256.400 C 355.380 256.400,355.200 256.202,355.200 255.960 C 355.200 255.719,354.660 255.017,354.000 254.400 C 353.340 253.783,352.800 253.085,352.800 252.847 C 352.800 252.328,342.481 242.000,341.963 242.000 C 341.764 242.000,340.859 241.280,339.952 240.400 C 339.045 239.520,338.095 238.800,337.840 238.800 C 337.585 238.800,337.117 238.440,336.800 238.000 C 336.483 237.560,335.987 237.200,335.699 237.200 C 334.637 237.200,334.767 236.027,335.968 234.770 C 336.646 234.061,337.200 233.253,337.200 232.974 C 337.200 232.695,337.378 232.407,337.597 232.333 C 337.815 232.260,338.034 231.705,338.084 231.100 C 338.134 230.495,338.296 230.000,338.443 230.000 C 338.794 230.000,339.208 227.681,339.463 224.300 C 339.598 222.505,339.521 221.600,339.233 221.600 C 338.987 221.600,338.800 220.831,338.800 219.824 C 338.800 218.847,338.620 217.936,338.400 217.800 C 338.180 217.664,338.000 217.203,338.000 216.776 C 338.000 216.349,337.820 216.000,337.600 216.000 C 337.380 216.000,337.200 215.730,337.200 215.400 C 337.200 215.070,337.020 214.800,336.800 214.800 C 336.580 214.800,336.400 214.622,336.400 214.405 C 336.400 214.187,336.085 213.632,335.700 213.171 C 333.866 210.974,333.600 210.700,333.600 211.000 C 333.600 211.177,333.285 210.962,332.900 210.520 C 332.084 209.586,329.914 208.400,329.020 208.400 C 328.679 208.400,328.400 208.220,328.400 208.000 C 328.400 207.780,327.882 207.600,327.249 207.600 C 325.647 207.600,325.042 206.784,325.652 205.445 C 325.914 204.870,326.280 204.400,326.464 204.400 C 326.649 204.400,326.800 204.040,326.800 203.600 C 326.800 203.160,326.980 202.800,327.200 202.800 C 327.420 202.800,327.600 202.530,327.600 202.200 C 327.600 201.870,327.780 201.600,328.000 201.600 C 328.220 201.600,328.400 201.330,328.400 201.000 C 328.400 200.670,328.580 200.400,328.800 200.400 C 329.020 200.400,329.200 200.040,329.200 199.600 C 329.200 199.160,329.380 198.800,329.600 198.800 C 329.820 198.800,330.000 198.480,330.000 198.088 C 330.000 197.697,330.360 197.117,330.800 196.800 C 331.240 196.483,331.600 195.903,331.600 195.512 C 331.600 195.120,331.780 194.800,332.000 194.800 C 332.220 194.800,332.400 194.440,332.400 194.000 C 332.400 193.560,332.580 193.200,332.800 193.200 C 333.020 193.200,333.200 192.964,333.200 192.675 C 333.200 192.387,333.515 191.802,333.900 191.375 C 334.285 190.949,334.870 190.060,335.199 189.400 C 335.529 188.740,335.889 188.110,335.999 188.000 C 336.395 187.606,337.654 185.387,337.871 184.700 C 337.993 184.315,338.252 184.000,338.447 184.000 C 338.641 184.000,338.800 183.655,338.800 183.233 C 338.800 182.812,338.957 182.407,339.149 182.333 C 339.746 182.105,341.600 178.080,341.600 177.013 C 341.600 176.456,341.780 176.000,342.000 176.000 C 342.521 176.000,342.521 173.722,342.000 173.400 C 341.780 173.264,341.600 172.632,341.600 171.995 C 341.600 171.300,341.209 170.446,340.624 169.861 C 340.088 169.324,339.758 168.776,339.891 168.642 C 340.024 168.509,339.833 168.400,339.467 168.400 C 339.100 168.400,338.800 168.220,338.800 168.000 C 338.800 167.780,338.440 167.600,338.000 167.600 C 337.560 167.600,337.200 167.420,337.200 167.200 C 337.200 166.969,335.925 166.800,334.176 166.800 C 332.263 166.800,331.244 166.947,331.400 167.200 C 331.536 167.420,331.402 167.600,331.103 167.600 C 330.349 167.600,328.407 168.535,328.403 168.900 C 328.401 169.065,328.040 169.200,327.600 169.200 C 327.160 169.200,326.800 169.380,326.800 169.600 C 326.800 169.820,326.451 170.000,326.024 170.000 C 325.597 170.000,325.136 170.180,325.000 170.400 C 324.864 170.620,324.223 170.800,323.576 170.800 C 322.929 170.800,322.400 170.980,322.400 171.200 C 322.400 171.420,321.500 171.600,320.400 171.600 C 319.300 171.600,318.400 171.780,318.400 172.000 C 318.400 172.233,317.067 172.400,315.200 172.400 C 313.333 172.400,312.000 172.233,312.000 172.000 C 312.000 171.780,311.100 171.600,310.000 171.600 C 308.900 171.600,308.000 171.420,308.000 171.200 C 308.000 170.980,307.550 170.800,307.000 170.800 C 306.450 170.800,306.000 170.620,306.000 170.400 C 306.000 170.180,305.766 170.000,305.480 170.000 C 304.744 170.000,302.807 169.059,302.803 168.700 C 302.801 168.535,302.440 168.400,302.000 168.400 C 301.560 168.400,301.200 168.220,301.200 168.000 C 301.200 167.780,300.964 167.600,300.675 167.600 C 300.387 167.600,299.764 167.240,299.292 166.800 C 298.820 166.360,298.281 166.000,298.095 166.000 C 297.909 166.000,297.069 165.370,296.228 164.600 C 295.387 163.830,294.550 163.200,294.368 163.200 C 294.186 163.200,293.614 162.778,293.098 162.261 C 292.581 161.745,291.178 160.666,289.980 159.863 C 288.781 159.060,287.583 158.222,287.317 158.001 C 287.051 157.781,286.556 157.600,286.217 157.600 C 285.878 157.600,285.600 157.420,285.600 157.200 C 285.600 156.980,285.240 156.800,284.800 156.800 C 284.360 156.800,284.000 156.620,284.000 156.400 C 284.000 156.180,283.640 156.000,283.200 156.000 C 282.760 156.000,282.400 155.820,282.400 155.600 C 282.400 155.380,282.117 155.200,281.771 155.200 C 280.060 155.200,280.000 154.712,280.000 140.829 C 280.000 132.276,279.859 127.600,279.600 127.600 C 279.378 127.600,279.200 126.541,279.200 125.224 C 279.200 123.917,279.020 122.736,278.800 122.600 C 278.580 122.464,278.400 121.643,278.400 120.776 C 278.400 119.909,278.220 119.200,278.000 119.200 C 277.780 119.200,277.600 118.480,277.600 117.600 C 277.600 116.720,277.420 116.000,277.200 116.000 C 276.980 116.000,276.800 115.471,276.800 114.824 C 276.800 114.177,276.620 113.536,276.400 113.400 C 276.180 113.264,276.000 112.724,276.000 112.200 C 276.000 111.676,275.840 111.149,275.645 111.028 C 275.450 110.907,275.164 110.135,275.010 109.312 C 274.855 108.488,274.385 107.102,273.964 106.232 C 273.544 105.362,273.200 104.414,273.200 104.125 C 273.200 103.836,273.020 103.600,272.800 103.600 C 272.580 103.600,272.400 103.240,272.400 102.800 C 272.400 102.360,272.220 102.000,272.000 102.000 C 271.780 102.000,271.600 101.640,271.600 101.200 C 271.600 100.760,271.420 100.400,271.200 100.400 C 270.980 100.400,270.800 100.040,270.800 99.600 C 270.800 99.160,270.620 98.800,270.400 98.800 C 270.180 98.800,270.000 98.440,270.000 98.000 C 270.000 97.560,269.820 97.200,269.600 97.200 C 269.380 97.200,269.200 96.964,269.200 96.675 C 269.200 96.387,268.885 95.802,268.500 95.375 C 268.115 94.949,267.545 94.105,267.232 93.500 C 266.920 92.895,266.515 92.400,266.332 92.400 C 266.150 92.400,266.000 92.170,266.000 91.888 C 266.000 91.607,265.640 91.117,265.200 90.800 C 264.760 90.483,264.400 89.975,264.400 89.672 C 264.400 89.369,263.860 88.617,263.200 88.000 C 262.540 87.383,262.000 86.680,262.000 86.436 C 262.000 86.192,261.460 85.428,260.800 84.737 C 260.140 84.046,259.600 83.278,259.600 83.029 C 259.600 82.780,259.240 82.317,258.800 82.000 C 258.360 81.683,258.000 81.202,258.000 80.932 C 258.000 80.662,257.553 79.937,257.006 79.321 C 255.359 77.463,255.200 77.248,255.200 76.879 C 255.200 76.684,254.840 76.198,254.400 75.800 C 253.960 75.402,253.600 74.906,253.600 74.698 C 253.600 74.491,253.060 73.817,252.400 73.200 C 251.740 72.583,251.200 71.880,251.200 71.636 C 251.200 71.392,250.660 70.628,250.000 69.937 C 249.340 69.246,248.800 68.478,248.800 68.229 C 248.800 67.980,248.440 67.517,248.000 67.200 C 247.560 66.883,247.200 66.420,247.200 66.171 C 247.200 65.922,246.660 65.154,246.000 64.463 C 245.340 63.772,244.800 63.052,244.800 62.863 C 244.800 62.674,244.260 61.954,243.600 61.263 C 242.940 60.572,242.400 59.903,242.400 59.775 C 242.400 59.647,242.175 59.292,241.900 58.985 C 240.763 57.717,240.400 57.217,240.399 56.917 C 240.399 56.743,239.859 55.970,239.200 55.200 C 238.541 54.430,238.001 53.615,238.001 53.388 C 238.000 53.162,237.640 52.717,237.200 52.400 C 236.760 52.083,236.400 51.620,236.400 51.371 C 236.400 51.122,235.860 50.354,235.200 49.663 C 234.540 48.972,234.000 48.261,234.000 48.082 C 234.000 47.903,233.370 47.069,232.600 46.228 C 231.830 45.387,231.200 44.550,231.200 44.368 C 231.200 44.186,230.750 43.586,230.200 43.036 C 229.650 42.486,229.200 41.888,229.200 41.706 C 229.200 41.525,228.840 41.117,228.400 40.800 C 227.960 40.483,227.600 40.020,227.600 39.771 C 227.600 39.522,227.060 38.754,226.400 38.063 C 225.740 37.372,225.200 36.618,225.200 36.387 C 225.200 36.155,225.017 35.749,224.793 35.483 C 223.247 33.651,222.800 33.039,222.800 32.757 C 222.800 32.581,222.350 31.986,221.800 31.436 C 221.250 30.886,220.800 30.275,220.800 30.078 C 220.800 29.880,220.286 29.181,219.658 28.524 C 219.031 27.867,218.070 26.671,217.523 25.867 C 216.976 25.062,216.381 24.538,216.200 24.702 C 216.020 24.866,215.994 24.787,216.144 24.526 C 216.293 24.265,215.962 23.598,215.408 23.044 C 214.853 22.490,214.400 21.830,214.400 21.579 C 214.400 21.327,213.860 20.617,213.200 20.000 C 212.540 19.383,212.000 18.581,212.000 18.216 C 212.000 17.851,211.820 17.664,211.600 17.800 C 211.380 17.936,211.200 17.806,211.200 17.512 C 211.200 17.217,210.840 16.717,210.400 16.400 C 209.960 16.083,209.600 15.587,209.600 15.297 C 209.600 15.008,209.235 14.373,208.790 13.886 C 208.344 13.399,207.324 12.010,206.523 10.800 C 205.721 9.590,204.736 8.309,204.333 7.953 C 203.930 7.597,203.600 7.102,203.600 6.853 C 203.600 6.604,203.420 6.400,203.200 6.400 C 202.980 6.400,202.800 6.212,202.800 5.982 C 202.800 5.752,202.347 5.110,201.792 4.556 C 201.238 4.002,200.906 3.352,201.054 3.112 C 201.215 2.851,201.138 2.791,200.862 2.962 C 200.608 3.119,200.400 3.039,200.400 2.784 C 200.400 2.529,199.841 1.799,199.158 1.160 L 197.915 0.000 106.458 0.032 C 56.156 0.049,14.733 0.168,14.407 0.296 M192.701 10.900 C 193.164 11.395,195.634 14.680,198.190 18.200 C 200.747 21.720,203.057 24.870,203.325 25.200 C 203.593 25.530,204.256 26.430,204.800 27.200 C 205.344 27.970,206.008 28.870,206.276 29.200 C 206.544 29.530,208.482 32.140,210.583 35.000 C 216.616 43.213,222.705 51.488,225.594 55.400 C 227.057 57.380,229.247 60.350,230.461 62.000 C 231.675 63.650,234.460 67.430,236.652 70.400 C 238.843 73.370,242.023 77.690,243.718 80.000 C 245.414 82.310,248.803 86.900,251.251 90.200 C 261.846 104.485,265.898 112.969,268.349 126.000 C 268.988 129.396,269.565 134.533,269.348 134.884 C 269.241 135.058,232.917 135.200,188.629 135.200 L 108.105 135.200 107.857 133.700 C 107.720 132.875,107.604 131.480,107.597 130.600 C 107.552 124.502,103.779 111.228,99.794 103.150 C 96.321 96.108,95.263 94.518,83.995 79.400 C 79.240 73.020,73.213 64.920,70.602 61.400 C 63.993 52.492,55.923 41.645,44.411 26.200 C 32.610 10.366,32.758 10.575,33.078 10.255 C 33.219 10.115,69.002 10.000,112.597 10.000 L 191.861 10.000 192.701 10.900 M28.900 22.300 C 31.664 25.985,35.089 30.530,36.511 32.400 C 38.756 35.353,52.217 53.404,64.398 69.800 C 66.523 72.660,71.705 79.630,75.914 85.289 C 83.713 95.775,86.858 100.225,88.358 102.900 C 88.821 103.725,89.528 104.985,89.929 105.700 C 92.525 110.330,95.339 118.471,96.877 125.800 L 97.800 130.200 97.800 244.200 L 97.800 358.200 82.027 358.305 C 69.673 358.387,66.184 358.300,65.933 357.905 C 65.756 357.627,65.609 318.916,65.606 271.880 C 65.599 177.875,65.785 184.737,63.213 183.407 C 60.777 182.147,57.617 183.025,56.299 185.328 C 55.906 186.014,55.757 204.505,55.600 272.200 L 55.400 358.200 40.200 358.311 C 31.840 358.373,24.595 358.324,24.100 358.204 L 23.200 357.985 23.200 186.792 C 23.200 92.637,23.352 15.600,23.538 15.600 C 23.724 15.600,26.137 18.615,28.900 22.300 M69.800 24.086 C 68.012 25.119,67.200 26.553,67.200 28.677 C 67.200 30.023,67.860 31.079,72.700 37.477 C 85.473 54.362,87.791 57.410,88.009 57.600 C 88.135 57.710,88.677 58.430,89.214 59.200 C 89.750 59.970,90.413 60.870,90.686 61.200 C 91.462 62.134,97.715 70.328,103.204 77.600 C 105.944 81.230,108.280 84.290,108.395 84.400 C 108.511 84.510,109.759 86.130,111.170 88.000 C 112.581 89.870,115.180 93.290,116.944 95.600 C 126.605 108.248,125.775 107.237,127.082 107.937 C 128.387 108.635,235.661 108.599,236.890 107.900 C 239.561 106.381,240.463 103.152,238.898 100.713 C 238.152 99.551,228.776 87.136,228.391 86.800 C 228.265 86.690,227.723 85.970,227.186 85.200 C 226.650 84.430,225.987 83.530,225.714 83.200 C 225.148 82.519,220.327 76.221,213.617 67.400 C 211.107 64.100,207.339 59.150,205.243 56.400 C 203.148 53.650,199.810 49.240,197.825 46.600 C 195.840 43.960,194.122 41.710,194.008 41.600 C 193.784 41.385,190.817 37.504,185.762 30.817 C 184.023 28.516,181.925 25.951,181.100 25.117 L 179.600 23.600 125.100 23.612 C 84.644 23.621,70.394 23.743,69.800 24.086 M179.246 38.500 C 184.073 44.884,185.355 46.557,185.607 46.800 C 185.721 46.910,187.158 48.800,188.800 51.000 C 190.442 53.200,191.887 55.090,192.012 55.200 C 192.137 55.310,192.671 56.030,193.200 56.800 C 193.729 57.570,194.270 58.290,194.403 58.400 C 194.536 58.510,196.894 61.570,199.642 65.200 C 202.391 68.830,206.418 74.140,208.592 77.000 C 210.765 79.860,214.177 84.357,216.172 86.993 C 218.167 89.628,220.024 92.058,220.298 92.393 C 221.761 94.175,224.392 97.840,224.396 98.100 C 224.398 98.265,203.475 98.390,177.900 98.378 L 131.400 98.356 130.561 97.278 C 130.099 96.685,127.478 93.230,124.737 89.600 C 115.894 77.891,114.609 76.203,114.383 76.000 C 114.261 75.890,113.729 75.170,113.200 74.400 C 112.671 73.630,112.130 72.910,111.998 72.800 C 111.757 72.600,107.482 67.002,100.390 57.600 C 98.316 54.850,96.521 52.510,96.402 52.400 C 96.282 52.290,94.556 50.040,92.567 47.400 C 90.577 44.760,87.475 40.679,85.674 38.332 C 83.873 35.985,82.400 33.960,82.400 33.832 C 82.400 33.704,103.357 33.600,128.971 33.600 L 175.541 33.600 179.246 38.500 M59.457 145.641 C 56.297 146.506,55.600 148.270,55.600 155.400 C 55.600 162.629,56.153 164.000,59.523 165.131 C 61.219 165.699,63.657 164.805,64.805 163.193 C 65.904 161.649,66.014 149.404,64.943 147.770 C 63.837 146.082,61.359 145.120,59.457 145.641 M269.400 149.400 L 269.400 153.400 264.800 153.688 C 260.185 153.978,259.214 154.163,254.400 155.670 C 249.573 157.181,244.395 160.033,242.429 162.264 C 239.686 165.376,238.998 167.253,239.015 171.573 C 239.032 176.050,238.592 175.021,245.786 187.400 C 251.916 197.948,252.078 198.229,254.741 202.900 C 255.148 203.615,255.868 204.830,256.339 205.600 C 257.554 207.583,257.501 207.674,254.391 208.933 C 243.731 213.249,241.000 224.723,248.106 235.337 C 248.528 235.967,248.457 236.171,247.614 236.737 C 242.745 240.010,239.942 242.407,233.921 248.447 C 229.530 252.851,221.947 262.187,221.288 264.000 C 221.168 264.330,220.760 265.050,220.382 265.600 C 216.286 271.556,210.781 284.348,208.331 293.600 C 204.975 306.275,204.314 312.984,204.211 335.421 L 204.131 352.642 202.775 355.221 C 202.029 356.639,201.235 357.932,201.010 358.094 C 200.070 358.768,108.503 358.446,108.243 357.767 C 107.925 356.939,107.925 146.660,108.243 145.832 C 108.464 145.256,115.835 145.207,188.943 145.299 L 269.400 145.400 269.400 149.400 M274.772 164.450 C 278.108 165.502,282.904 168.196,287.200 171.433 C 297.227 178.988,299.917 180.392,308.106 182.345 C 310.365 182.884,320.399 182.949,322.400 182.438 C 324.910 181.796,326.400 181.614,326.400 181.948 C 326.400 182.219,324.228 186.063,318.797 195.400 C 318.413 196.060,316.801 198.850,315.214 201.600 C 313.628 204.350,312.143 206.825,311.916 207.100 C 311.481 207.626,271.616 207.862,269.707 207.350 C 269.098 207.186,268.033 205.758,266.358 202.855 C 265.007 200.515,263.587 198.060,263.201 197.400 C 262.816 196.740,260.204 192.240,257.398 187.400 C 254.591 182.560,251.928 177.970,251.480 177.200 C 248.587 172.230,248.317 171.122,249.604 169.486 C 250.905 167.832,255.587 165.541,259.800 164.497 C 262.062 163.937,273.033 163.902,274.772 164.450 M148.867 173.256 C 144.996 177.215,147.622 181.333,154.131 181.512 C 156.369 181.574,158.605 181.712,159.100 181.820 L 160.000 182.015 160.002 205.308 C 160.005 230.583,160.036 230.976,162.154 232.592 L 163.476 233.600 189.776 233.600 C 216.042 233.600,216.078 233.599,217.284 232.741 C 219.629 231.070,219.600 231.411,219.600 205.620 L 219.600 182.015 220.500 181.820 C 220.995 181.712,223.231 181.574,225.469 181.512 C 231.922 181.334,234.558 177.168,230.709 173.231 L 229.505 172.000 189.800 172.000 L 150.095 172.000 148.867 173.256 M209.400 202.800 L 209.400 223.400 199.600 223.527 C 194.210 223.596,185.435 223.531,180.100 223.382 L 170.400 223.110 170.400 202.551 L 170.400 181.992 189.900 182.096 L 209.400 182.200 209.400 202.800 M323.618 217.998 C 329.530 219.641,329.530 228.759,323.618 230.402 C 322.025 230.844,267.216 230.900,261.529 230.465 C 251.840 229.724,251.486 218.700,261.127 217.966 C 266.615 217.549,322.102 217.577,323.618 217.998 M274.000 241.345 C 274.000 243.744,263.816 252.521,256.357 256.551 C 252.401 258.688,251.659 259.376,251.540 261.017 C 251.357 263.536,251.622 264.396,253.013 265.787 C 255.313 268.086,256.941 267.767,264.400 263.551 C 271.026 259.807,279.453 251.854,283.953 245.100 L 286.818 240.800 293.509 240.806 C 300.991 240.813,300.900 240.788,301.721 243.001 C 304.210 249.710,305.507 256.832,305.927 266.092 C 306.322 274.776,307.942 277.068,312.586 275.514 C 315.527 274.530,315.805 273.686,315.764 265.862 C 315.724 258.400,315.126 253.762,313.306 246.800 C 311.624 240.366,311.410 240.800,316.263 240.800 C 320.750 240.800,321.237 240.984,327.200 244.941 C 347.421 258.356,361.165 280.977,365.148 307.400 C 366.248 314.698,366.401 318.164,366.401 335.751 L 366.400 354.501 367.560 356.751 C 368.197 357.988,369.547 360.530,370.560 362.400 C 376.133 372.697,376.918 374.570,376.918 377.570 C 376.918 383.393,373.216 388.065,367.400 389.579 C 365.186 390.155,218.004 390.157,214.452 389.580 C 206.646 388.314,201.771 380.246,204.645 373.349 C 205.309 371.756,211.287 360.408,213.153 357.200 L 214.200 355.400 214.056 340.962 C 213.842 319.571,214.595 310.512,217.654 297.700 C 223.201 274.458,239.441 252.159,258.064 242.210 C 260.822 240.736,274.000 240.022,274.000 241.345 M288.172 283.385 C 286.313 284.166,286.042 284.793,285.917 288.591 L 285.800 292.140 282.502 292.848 C 272.091 295.085,266.182 301.743,266.215 311.200 C 266.244 319.770,270.636 324.507,281.800 328.013 C 283.340 328.496,284.870 329.026,285.200 329.189 C 285.709 329.442,285.800 330.992,285.800 339.444 L 285.800 349.400 283.875 349.300 C 281.531 349.179,276.710 347.032,273.730 344.782 C 270.066 342.016,267.254 342.383,265.577 345.848 C 263.296 350.560,270.931 356.432,282.286 358.699 L 285.800 359.400 285.918 362.793 C 286.062 366.968,286.758 368.000,289.425 368.000 C 292.276 368.000,292.963 367.100,293.137 363.139 C 293.311 359.198,293.451 358.969,295.913 358.616 C 313.806 356.049,320.002 334.194,305.436 325.027 C 303.225 323.635,299.855 322.000,299.199 322.000 C 298.974 322.000,298.477 321.838,298.095 321.639 C 297.713 321.440,296.590 321.043,295.600 320.756 C 293.126 320.038,293.213 320.394,293.206 310.900 L 293.200 302.400 294.500 302.403 C 295.677 302.406,297.631 303.277,303.881 306.583 L 305.963 307.684 307.476 306.942 C 314.756 303.373,308.336 295.200,296.600 293.094 C 293.284 292.499,293.201 292.395,293.194 288.851 C 293.185 284.198,291.249 282.091,288.172 283.385 M285.909 309.571 C 286.031 318.275,286.053 318.200,283.646 317.371 C 274.053 314.066,273.702 305.799,283.000 302.152 C 285.834 301.040,285.788 300.921,285.909 309.571 M297.391 333.048 C 305.910 337.219,304.708 346.502,295.254 349.556 C 293.211 350.216,293.200 350.167,293.200 340.776 L 293.200 332.000 294.225 332.000 C 294.789 332.000,296.214 332.472,297.391 333.048 M194.995 368.792 C 195.128 369.007,194.941 370.042,194.578 371.092 C 192.732 376.437,193.505 383.032,196.713 389.300 C 196.798 389.465,160.132 389.600,115.233 389.600 L 33.600 389.600 33.600 379.212 L 33.600 368.823 38.900 368.699 C 53.650 368.353,194.776 368.437,194.995 368.792 " stroke="none" fill="#343535" fill-rule="evenodd"></path><path id="path3" d="M34.087 11.320 C 35.048 13.045,37.799 16.770,38.123 16.785 C 38.301 16.793,37.634 15.744,36.641 14.454 C 33.926 10.926,33.840 11.033,39.600 10.781 L 44.600 10.562 39.087 10.481 L 33.574 10.400 34.087 11.320 M23.700 186.820 L 23.800 357.800 39.500 357.905 L 55.200 358.009 55.200 272.531 C 55.200 187.254,55.202 187.049,56.018 185.363 C 57.413 182.482,61.057 181.566,63.849 183.395 C 66.131 184.891,66.000 179.465,66.000 272.180 L 66.000 357.585 66.900 357.804 C 67.395 357.924,74.460 357.973,82.600 357.911 L 97.400 357.800 97.523 245.400 C 97.611 164.316,97.521 132.220,97.200 130.200 C 96.549 126.098,95.996 123.210,95.516 121.400 C 94.845 118.867,94.314 117.065,93.985 116.200 C 93.818 115.760,93.461 114.770,93.193 114.000 C 91.053 107.850,83.561 94.801,80.792 92.400 C 80.665 92.290,80.123 91.570,79.586 90.800 C 79.050 90.030,78.394 89.130,78.129 88.800 C 77.863 88.470,75.374 85.140,72.597 81.400 C 69.820 77.660,67.332 74.330,67.068 74.000 C 66.804 73.670,66.150 72.770,65.614 72.000 C 65.077 71.230,64.531 70.510,64.400 70.400 C 64.269 70.290,63.723 69.570,63.186 68.800 C 62.650 68.030,61.991 67.130,61.722 66.800 C 61.453 66.470,60.314 64.940,59.191 63.400 C 56.620 59.874,56.258 59.388,52.922 55.000 C 51.417 53.020,49.021 49.780,47.598 47.800 C 46.174 45.820,44.909 44.110,44.786 44.000 C 44.662 43.890,44.129 43.170,43.600 42.400 C 43.071 41.630,42.531 40.910,42.400 40.800 C 42.269 40.690,41.723 39.970,41.186 39.200 C 40.650 38.430,39.987 37.530,39.712 37.200 C 39.438 36.870,35.863 32.100,31.769 26.600 C 27.675 21.100,24.161 16.429,23.962 16.220 C 23.745 15.992,23.639 84.503,23.700 186.820 M50.627 33.800 C 52.000 35.600,52.268 35.603,51.104 33.805 C 50.607 33.038,50.056 32.408,49.880 32.405 C 49.703 32.402,50.040 33.030,50.627 33.800 M67.104 55.956 C 67.707 56.812,68.258 57.459,68.329 57.394 C 68.531 57.209,66.635 54.410,66.304 54.405 C 66.141 54.402,66.501 55.100,67.104 55.956 M80.493 74.000 C 80.768 74.440,81.131 74.800,81.300 74.800 C 81.469 74.800,81.382 74.440,81.107 74.000 C 80.832 73.560,80.469 73.200,80.300 73.200 C 80.131 73.200,80.218 73.560,80.493 74.000 M83.427 77.800 C 84.800 79.600,85.068 79.603,83.904 77.805 C 83.407 77.038,82.856 76.408,82.680 76.405 C 82.503 76.402,82.840 77.030,83.427 77.800 M86.208 81.558 C 87.014 82.680,87.851 83.708,88.066 83.841 C 88.282 83.974,87.799 83.165,86.992 82.042 C 86.186 80.920,85.349 79.892,85.134 79.759 C 84.918 79.626,85.401 80.435,86.208 81.558 M89.693 86.400 C 89.968 86.840,90.331 87.200,90.500 87.200 C 90.669 87.200,90.582 86.840,90.307 86.400 C 90.032 85.960,89.669 85.600,89.500 85.600 C 89.331 85.600,89.418 85.960,89.693 86.400 M102.016 106.800 C 102.497 108.010,103.070 109.504,103.291 110.120 C 103.512 110.737,103.770 111.164,103.864 111.069 C 104.076 110.857,102.020 105.551,101.512 105.000 C 101.309 104.780,101.536 105.590,102.016 106.800 M104.828 114.676 C 104.813 115.158,104.980 115.664,105.200 115.800 C 105.673 116.092,105.673 115.701,105.200 114.600 C 104.869 113.829,104.855 113.831,104.828 114.676 M108.228 132.661 C 108.597 134.703,108.800 134.855,108.800 133.090 C 108.800 132.297,108.609 131.529,108.374 131.384 C 108.085 131.205,108.038 131.612,108.228 132.661 M63.644 146.032 C 66.043 147.739,67.233 159.256,65.381 162.838 C 63.471 166.530,58.127 166.498,56.038 162.782 C 54.723 160.442,54.786 150.091,56.128 147.874 C 57.755 145.187,61.253 144.329,63.644 146.032 M111.100 145.896 C 112.475 145.974,114.725 145.974,116.100 145.896 C 117.475 145.818,116.350 145.754,113.600 145.754 C 110.850 145.754,109.725 145.818,111.100 145.896 " stroke="none" fill="#44cddd" fill-rule="evenodd"></path><path id="path4" d="M33.078 10.255 C 32.758 10.575,32.610 10.366,44.411 26.200 C 55.923 41.645,63.993 52.492,70.602 61.400 C 73.213 64.920,79.239 73.020,83.993 79.400 C 97.219 97.152,99.528 100.991,103.410 111.681 C 104.152 113.726,104.769 115.129,104.780 114.798 C 104.817 113.670,101.916 106.212,99.764 101.907 C 97.762 97.900,94.715 92.800,94.324 92.800 C 94.146 92.800,94.000 92.564,94.000 92.275 C 94.000 91.987,93.680 91.402,93.289 90.975 C 92.898 90.549,92.136 89.570,91.595 88.800 C 91.054 88.030,90.392 87.130,90.124 86.800 C 89.856 86.470,87.943 83.902,85.873 81.093 C 83.803 78.284,81.738 75.494,81.285 74.893 C 80.832 74.292,78.457 71.100,76.009 67.800 C 73.560 64.500,71.339 61.530,71.073 61.200 C 70.807 60.870,70.144 59.970,69.600 59.200 C 69.056 58.430,68.390 57.530,68.120 57.200 C 67.849 56.870,65.904 54.260,63.796 51.400 C 61.688 48.540,59.744 45.930,59.476 45.600 C 59.208 45.270,58.550 44.370,58.014 43.600 C 57.477 42.830,56.931 42.110,56.800 42.000 C 56.669 41.890,56.123 41.170,55.586 40.400 C 55.050 39.630,54.388 38.730,54.115 38.400 C 53.841 38.070,51.356 34.740,48.591 31.000 C 45.826 27.260,43.344 23.930,43.076 23.600 C 42.808 23.270,42.150 22.370,41.614 21.600 C 41.077 20.830,40.531 20.110,40.400 20.000 C 40.269 19.890,39.729 19.170,39.200 18.400 C 38.671 17.630,38.139 16.910,38.017 16.800 C 37.553 16.381,34.509 12.159,34.051 11.300 L 33.572 10.400 112.691 10.400 L 191.810 10.400 192.605 11.476 C 193.042 12.068,194.199 13.643,195.174 14.976 C 198.167 19.064,206.751 30.723,208.003 32.400 C 208.414 32.950,209.668 34.660,210.791 36.200 C 211.914 37.740,213.053 39.270,213.322 39.600 C 213.591 39.930,214.251 40.830,214.789 41.600 C 215.326 42.370,217.831 45.790,220.354 49.200 C 224.436 54.714,226.856 58.001,229.193 61.200 C 229.595 61.750,231.663 64.540,233.789 67.400 C 235.916 70.260,237.910 72.960,238.222 73.400 C 238.534 73.840,240.981 77.170,243.661 80.800 C 246.340 84.430,249.521 88.750,250.730 90.400 C 251.938 92.050,253.405 94.030,253.990 94.800 C 262.581 106.104,268.719 122.479,268.797 134.300 C 268.801 134.959,108.998 135.043,108.591 134.385 C 108.450 134.157,108.176 132.312,107.982 130.285 C 107.789 128.258,107.436 125.520,107.199 124.200 C 106.963 122.880,106.667 121.124,106.542 120.297 C 106.417 119.471,106.155 118.695,105.958 118.574 C 105.761 118.452,105.600 117.834,105.600 117.200 C 105.600 116.566,105.420 115.936,105.200 115.800 C 104.663 115.468,104.677 115.586,105.610 119.238 C 106.673 123.404,107.582 128.601,107.597 130.600 C 107.604 131.480,107.720 132.875,107.857 133.700 L 108.105 135.200 188.629 135.200 C 232.917 135.200,269.241 135.058,269.348 134.884 C 269.565 134.533,268.988 129.396,268.349 126.000 C 265.898 112.969,261.846 104.485,251.251 90.200 C 248.803 86.900,245.414 82.310,243.718 80.000 C 242.023 77.690,238.843 73.370,236.652 70.400 C 234.460 67.430,231.675 63.650,230.461 62.000 C 229.247 60.350,227.057 57.380,225.594 55.400 C 222.705 51.488,216.616 43.213,210.583 35.000 C 208.482 32.140,206.544 29.530,206.276 29.200 C 206.008 28.870,205.344 27.970,204.800 27.200 C 204.256 26.430,203.593 25.530,203.325 25.200 C 203.057 24.870,200.747 21.720,198.190 18.200 C 195.634 14.680,193.164 11.395,192.701 10.900 L 191.861 10.000 112.597 10.000 C 69.002 10.000,33.219 10.115,33.078 10.255 M23.200 186.792 L 23.200 357.985 24.100 358.204 C 24.595 358.324,31.840 358.373,40.200 358.311 L 55.400 358.200 55.401 272.500 L 55.403 186.800 55.300 272.405 L 55.198 358.009 39.499 357.905 L 23.800 357.800 23.700 186.851 C 23.604 24.048,23.632 15.927,24.300 16.451 C 24.934 16.949,24.949 16.935,24.451 16.300 C 24.149 15.915,23.744 15.600,23.551 15.600 C 23.350 15.600,23.200 88.855,23.200 186.792 M28.975 22.932 C 29.591 23.739,30.176 24.400,30.275 24.400 C 30.553 24.400,28.821 22.060,28.309 21.744 C 28.059 21.589,28.359 22.124,28.975 22.932 M68.638 24.420 C 66.818 26.018,66.178 27.914,66.811 29.832 C 67.187 30.973,74.179 40.795,75.188 41.600 C 75.326 41.710,75.871 42.430,76.400 43.200 C 76.929 43.970,77.466 44.690,77.595 44.800 C 77.723 44.910,79.441 47.144,81.414 49.764 C 87.839 58.298,90.791 62.189,91.306 62.800 C 91.584 63.130,92.256 64.030,92.800 64.800 C 93.344 65.570,94.015 66.470,94.291 66.800 C 94.742 67.338,99.548 73.632,106.813 83.200 C 108.233 85.070,109.495 86.690,109.617 86.800 C 109.739 86.910,110.271 87.630,110.800 88.400 C 111.329 89.170,111.860 89.890,111.981 90.000 C 112.204 90.203,113.971 92.514,121.006 101.800 C 123.173 104.660,125.145 107.180,125.388 107.400 C 126.952 108.813,126.432 108.800,182.000 108.800 C 240.208 108.800,237.192 108.906,239.095 106.800 C 240.056 105.737,240.471 100.800,239.600 100.800 C 239.380 100.800,239.200 100.629,239.200 100.420 C 239.200 100.211,237.167 97.376,234.683 94.120 C 232.199 90.864,229.005 86.670,227.586 84.800 C 226.166 82.930,224.905 81.310,224.783 81.200 C 224.661 81.090,224.129 80.370,223.600 79.600 C 223.071 78.830,222.540 78.110,222.419 78.000 C 222.186 77.787,221.169 76.459,213.996 67.000 C 211.494 63.700,209.337 60.910,209.204 60.800 C 209.071 60.690,208.529 59.970,208.000 59.200 C 207.471 58.430,206.931 57.710,206.800 57.600 C 206.669 57.490,206.129 56.770,205.600 56.000 C 205.071 55.230,204.539 54.510,204.417 54.400 C 204.295 54.290,203.107 52.760,201.777 51.000 C 200.447 49.240,197.647 45.550,195.553 42.800 C 193.460 40.050,189.715 35.100,187.231 31.800 C 184.748 28.500,182.075 25.215,181.291 24.500 L 179.867 23.200 124.947 23.200 L 70.028 23.200 68.638 24.420 M181.100 25.117 C 181.925 25.951,184.023 28.516,185.762 30.817 C 190.817 37.504,193.784 41.385,194.008 41.600 C 194.122 41.710,195.840 43.960,197.825 46.600 C 199.810 49.240,203.148 53.650,205.243 56.400 C 207.339 59.150,211.107 64.100,213.617 67.400 C 220.327 76.221,225.148 82.519,225.714 83.200 C 225.987 83.530,226.650 84.430,227.186 85.200 C 227.723 85.970,228.265 86.690,228.391 86.800 C 228.776 87.136,238.152 99.551,238.898 100.713 C 240.463 103.152,239.561 106.381,236.890 107.900 C 235.661 108.599,128.387 108.635,127.082 107.937 C 125.775 107.237,126.605 108.248,116.944 95.600 C 115.180 93.290,112.581 89.870,111.170 88.000 C 109.759 86.130,108.511 84.510,108.395 84.400 C 108.280 84.290,105.944 81.230,103.204 77.600 C 97.715 70.328,91.462 62.134,90.686 61.200 C 90.413 60.870,89.750 59.970,89.214 59.200 C 88.677 58.430,88.135 57.710,88.009 57.600 C 87.791 57.410,85.473 54.362,72.700 37.477 C 66.431 29.190,65.911 27.619,68.563 24.982 C 69.926 23.628,70.053 23.624,125.100 23.612 L 179.600 23.600 181.100 25.117 M31.375 26.132 C 31.991 26.939,32.576 27.600,32.675 27.600 C 32.953 27.600,31.221 25.260,30.709 24.944 C 30.459 24.789,30.759 25.324,31.375 26.132 M36.232 32.600 C 38.177 35.240,39.821 37.475,39.884 37.567 C 39.948 37.658,40.071 37.658,40.157 37.567 C 40.333 37.381,34.413 29.420,33.363 28.429 C 32.996 28.083,34.287 29.960,36.232 32.600 M82.400 33.832 C 82.400 33.960,83.873 35.985,85.674 38.332 C 87.475 40.679,90.577 44.760,92.567 47.400 C 94.556 50.040,96.282 52.290,96.402 52.400 C 96.521 52.510,98.316 54.850,100.390 57.600 C 107.482 67.002,111.757 72.600,111.998 72.800 C 112.130 72.910,112.671 73.630,113.200 74.400 C 113.729 75.170,114.261 75.890,114.383 76.000 C 114.609 76.203,115.894 77.891,124.737 89.600 C 127.478 93.230,130.099 96.685,130.561 97.278 L 131.400 98.356 177.900 98.378 C 203.475 98.390,224.398 98.265,224.396 98.100 C 224.392 97.840,221.761 94.175,220.298 92.393 C 220.024 92.058,218.167 89.628,216.172 86.993 C 214.177 84.357,210.765 79.860,208.592 77.000 C 206.418 74.140,202.391 68.830,199.642 65.200 C 196.894 61.570,194.536 58.510,194.403 58.400 C 194.270 58.290,193.729 57.570,193.200 56.800 C 192.671 56.030,192.137 55.310,192.012 55.200 C 191.887 55.090,190.442 53.200,188.800 51.000 C 187.158 48.800,185.721 46.910,185.607 46.800 C 185.355 46.557,184.073 44.884,179.246 38.500 C 177.208 35.805,175.362 33.600,175.142 33.600 C 174.922 33.600,174.981 33.850,175.271 34.155 C 176.052 34.975,176.641 35.730,180.617 41.003 C 188.318 51.216,194.459 59.265,194.808 59.600 C 194.922 59.710,196.641 61.960,198.627 64.600 C 204.913 72.954,210.982 80.969,211.497 81.595 C 213.492 84.025,223.581 97.461,223.589 97.700 C 223.595 97.865,202.943 98.000,177.696 98.000 L 131.792 98.000 129.604 95.100 C 128.400 93.505,127.313 92.110,127.189 92.000 C 127.064 91.890,126.529 91.170,126.000 90.400 C 125.471 89.630,124.937 88.910,124.812 88.800 C 124.687 88.690,123.239 86.824,121.593 84.654 C 119.947 82.484,116.112 77.444,113.070 73.454 C 110.029 69.464,106.524 64.850,105.281 63.200 C 104.039 61.550,102.919 60.110,102.792 60.000 C 102.665 59.890,102.129 59.170,101.600 58.400 C 101.071 57.630,100.539 56.910,100.418 56.800 C 100.297 56.690,98.578 54.442,96.599 51.803 C 94.619 49.165,92.777 46.735,92.505 46.403 C 92.233 46.072,90.034 43.190,87.619 40.000 L 83.227 34.200 88.114 33.981 L 93.000 33.762 87.700 33.681 C 84.785 33.636,82.400 33.704,82.400 33.832 M41.296 39.395 C 41.793 40.162,42.344 40.792,42.520 40.795 C 42.697 40.798,42.360 40.170,41.773 39.400 C 40.400 37.600,40.132 37.597,41.296 39.395 M43.696 42.595 C 44.193 43.362,44.744 43.992,44.920 43.995 C 45.097 43.998,44.760 43.370,44.173 42.600 C 42.800 40.800,42.532 40.797,43.696 42.595 M46.015 45.600 C 46.534 46.370,49.031 49.790,51.563 53.200 C 54.095 56.610,56.219 59.475,56.284 59.567 C 56.348 59.658,56.469 59.658,56.553 59.567 C 56.636 59.475,54.283 56.160,51.324 52.200 C 46.186 45.327,43.984 42.588,46.015 45.600 M57.988 61.700 C 58.666 62.635,59.801 64.252,60.510 65.293 C 61.220 66.334,61.956 67.189,62.147 67.193 C 62.339 67.197,62.056 66.615,61.520 65.900 C 60.983 65.185,59.770 63.565,58.824 62.300 C 57.878 61.035,57.026 60.000,56.930 60.000 C 56.834 60.000,57.311 60.765,57.988 61.700 M63.268 68.952 C 63.781 69.743,64.347 70.392,64.527 70.395 C 64.899 70.401,63.382 68.159,62.749 67.769 C 62.522 67.628,62.755 68.160,63.268 68.952 M65.668 72.152 C 66.181 72.943,66.747 73.592,66.927 73.595 C 67.299 73.601,65.782 71.359,65.149 70.969 C 64.922 70.828,65.155 71.360,65.668 72.152 M68.061 75.300 C 70.317 78.504,76.084 86.000,76.293 86.000 C 76.420 86.000,76.256 85.685,75.929 85.300 C 75.602 84.915,73.576 82.215,71.426 79.300 C 69.276 76.385,67.434 74.000,67.332 74.000 C 67.229 74.000,67.557 74.585,68.061 75.300 M77.296 87.795 C 77.793 88.562,78.344 89.192,78.520 89.195 C 78.697 89.198,78.360 88.570,77.773 87.800 C 76.400 86.000,76.132 85.997,77.296 87.795 M79.696 90.995 C 80.193 91.762,80.744 92.392,80.920 92.395 C 81.097 92.398,80.760 91.770,80.173 91.000 C 78.800 89.200,78.532 89.197,79.696 90.995 M82.799 95.152 C 83.760 96.522,84.727 97.755,84.947 97.891 C 85.168 98.027,84.562 97.018,83.601 95.648 C 82.640 94.278,81.673 93.045,81.453 92.909 C 81.232 92.773,81.838 93.782,82.799 95.152 M87.160 101.400 C 87.834 102.705,88.388 103.428,88.385 103.000 C 88.383 102.780,88.014 102.150,87.564 101.600 C 87.021 100.936,86.885 100.869,87.160 101.400 M89.618 105.900 C 90.319 107.275,90.956 108.400,91.033 108.400 C 91.399 108.400,89.484 104.568,88.734 103.800 C 88.519 103.580,88.917 104.525,89.618 105.900 M91.200 108.884 C 91.200 109.316,92.415 112.000,92.611 112.000 C 92.721 112.000,92.533 111.334,92.193 110.521 C 91.593 109.086,91.200 108.438,91.200 108.884 M92.822 112.681 C 92.810 112.946,92.965 113.576,93.167 114.081 C 93.370 114.587,93.644 115.341,93.777 115.757 C 93.910 116.174,94.111 116.422,94.223 116.310 C 94.336 116.197,94.072 115.227,93.636 114.153 C 93.200 113.079,92.834 112.417,92.822 112.681 M94.406 117.433 C 94.409 117.855,94.595 118.470,94.818 118.800 C 95.115 119.238,95.152 119.076,94.956 118.200 C 94.627 116.729,94.398 116.410,94.406 117.433 M95.234 120.200 C 95.222 120.640,95.387 121.270,95.600 121.600 C 96.114 122.395,96.114 121.396,95.600 120.200 L 95.256 119.400 95.234 120.200 M96.068 123.600 C 96.062 124.150,96.211 124.960,96.400 125.400 L 96.744 126.200 96.732 125.400 C 96.726 124.960,96.576 124.150,96.400 123.600 L 96.080 122.600 96.068 123.600 M96.887 128.000 C 96.883 128.770,97.024 129.850,97.200 130.400 C 97.648 131.799,97.648 129.561,97.200 127.800 L 96.895 126.600 96.887 128.000 M97.600 245.400 L 97.400 357.800 82.600 357.911 C 74.460 357.973,67.395 357.924,66.900 357.804 L 66.000 357.585 65.901 271.892 L 65.802 186.200 65.692 271.400 C 65.631 318.260,65.679 357.005,65.798 357.500 L 66.015 358.400 81.820 358.400 C 94.096 358.400,97.668 358.288,97.815 357.900 C 97.919 357.625,97.959 306.910,97.902 245.200 L 97.799 133.000 97.600 245.400 M62.200 145.802 C 63.080 146.114,64.221 146.871,64.736 147.484 C 65.422 148.303,65.555 148.368,65.236 147.728 C 64.640 146.531,62.674 145.196,61.538 145.218 C 60.844 145.231,61.016 145.383,62.200 145.802 M108.243 145.832 C 107.925 146.660,107.925 356.939,108.243 357.767 C 108.503 358.446,200.070 358.768,201.010 358.094 C 201.235 357.932,202.029 356.639,202.775 355.221 L 204.131 352.642 204.211 335.421 C 204.314 312.984,204.975 306.275,208.331 293.600 C 210.781 284.348,216.286 271.556,220.382 265.600 C 220.760 265.050,221.168 264.330,221.288 264.000 C 221.947 262.187,229.530 252.851,233.921 248.447 C 239.942 242.407,242.745 240.010,247.614 236.737 C 248.457 236.171,248.528 235.967,248.106 235.337 C 241.000 224.723,243.731 213.249,254.391 208.933 C 257.501 207.674,257.554 207.583,256.339 205.600 C 255.868 204.830,255.148 203.615,254.741 202.900 C 252.078 198.229,251.916 197.948,245.786 187.400 C 238.592 175.021,239.032 176.050,239.015 171.573 C 238.982 163.023,244.333 158.335,258.600 154.416 C 259.480 154.175,262.270 153.847,264.800 153.688 L 269.400 153.400 269.400 149.400 L 269.400 145.400 188.943 145.299 C 115.835 145.207,108.464 145.256,108.243 145.832 M268.800 149.200 L 268.800 152.800 267.177 152.800 C 264.048 152.800,255.765 154.207,255.020 154.864 C 254.811 155.049,254.314 155.200,253.915 155.200 C 253.516 155.200,252.877 155.364,252.495 155.565 C 252.113 155.766,250.810 156.400,249.600 156.974 C 238.662 162.163,234.858 171.418,240.441 179.258 C 240.858 179.844,241.200 180.521,241.200 180.762 C 241.200 181.003,241.359 181.200,241.553 181.200 C 241.748 181.200,242.010 181.515,242.136 181.900 C 242.262 182.285,242.848 183.410,243.439 184.400 C 244.030 185.390,244.848 186.785,245.257 187.500 C 247.008 190.562,247.629 191.636,250.146 195.952 C 251.606 198.455,252.800 200.588,252.800 200.690 C 252.800 200.793,253.145 201.361,253.567 201.954 C 255.733 204.996,256.876 207.600,256.045 207.600 C 255.606 207.600,255.136 207.780,255.000 208.000 C 254.864 208.220,254.484 208.400,254.154 208.400 C 253.265 208.400,249.126 211.324,247.673 212.978 C 242.713 218.627,242.202 226.970,246.402 233.725 C 247.871 236.090,247.871 236.067,246.415 236.928 C 245.763 237.313,244.993 237.847,244.705 238.114 C 244.240 238.545,242.110 240.233,239.809 241.994 C 238.696 242.846,229.577 251.950,228.384 253.400 C 227.841 254.060,226.528 255.770,225.467 257.200 C 224.406 258.630,223.160 260.301,222.700 260.912 C 222.239 261.524,221.668 262.371,221.431 262.793 C 221.194 263.216,220.258 264.786,219.351 266.281 C 217.132 269.941,213.313 277.586,211.949 281.100 C 211.757 281.595,211.428 282.405,211.217 282.900 C 210.752 283.992,208.831 289.737,208.374 291.400 C 208.193 292.060,207.841 293.320,207.592 294.200 C 207.343 295.080,206.973 296.565,206.770 297.500 C 204.244 309.111,203.950 312.573,203.656 334.200 L 203.400 353.000 202.152 355.200 L 200.904 357.400 154.852 357.502 L 108.800 357.603 108.800 251.602 L 108.800 145.600 188.800 145.600 L 268.800 145.600 268.800 149.200 M56.217 147.735 C 54.786 150.177,54.665 160.339,56.038 162.782 C 56.930 164.369,58.647 165.620,59.862 165.568 C 60.330 165.548,60.161 165.383,59.400 165.116 C 56.156 163.979,55.600 162.556,55.600 155.394 C 55.600 149.424,55.766 148.606,57.320 146.900 C 57.771 146.405,57.936 146.000,57.687 146.000 C 57.438 146.000,56.776 146.781,56.217 147.735 M65.764 155.400 C 65.763 159.140,65.823 160.724,65.897 158.920 C 65.971 157.115,65.972 154.055,65.898 152.120 C 65.825 150.184,65.764 151.660,65.764 155.400 M64.782 163.234 C 64.536 163.693,63.585 164.409,62.668 164.825 C 61.750 165.242,61.270 165.586,61.600 165.590 C 62.499 165.601,64.688 164.156,65.189 163.221 C 65.430 162.770,65.538 162.400,65.428 162.400 C 65.318 162.400,65.027 162.775,64.782 163.234 M260.715 164.328 C 260.338 164.478,263.336 164.600,267.377 164.600 C 271.418 164.600,274.516 164.468,274.262 164.306 C 273.684 163.939,261.647 163.958,260.715 164.328 M257.200 165.200 C 256.436 165.694,257.258 165.694,258.800 165.200 L 259.800 164.880 258.800 164.846 C 258.250 164.827,257.530 164.987,257.200 165.200 M275.800 165.200 C 276.901 165.673,277.292 165.673,277.000 165.200 C 276.864 164.980,276.358 164.813,275.876 164.828 C 275.031 164.855,275.029 164.869,275.800 165.200 M253.400 166.830 C 250.669 168.211,248.800 170.014,248.800 171.266 C 248.800 172.211,250.678 176.277,251.289 176.655 C 251.502 176.787,251.119 175.838,250.439 174.547 C 248.393 170.666,248.790 169.746,253.600 167.205 C 257.101 165.356,256.934 165.044,253.400 166.830 M279.400 166.722 C 281.948 168.134,286.357 171.184,291.207 174.890 C 294.773 177.616,299.720 180.397,302.000 180.958 L 303.000 181.204 302.000 180.726 C 301.450 180.464,300.190 179.889,299.200 179.450 C 296.960 178.455,293.146 175.911,287.250 171.479 C 283.108 168.365,278.614 165.589,277.744 165.607 C 277.555 165.611,278.300 166.113,279.400 166.722 M150.800 171.543 C 147.016 172.517,145.532 177.079,148.018 180.095 C 149.536 181.937,151.101 182.395,155.888 182.398 L 159.576 182.400 159.688 206.768 L 159.800 231.136 160.760 232.158 C 162.919 234.455,162.682 234.438,190.400 234.314 C 215.108 234.203,215.838 234.178,217.200 233.386 C 220.087 231.708,219.999 232.570,219.999 206.143 L 220.000 182.486 224.518 182.343 C 229.521 182.184,230.599 181.774,232.041 179.478 C 233.486 177.179,232.600 173.553,230.200 171.938 C 229.349 171.366,152.965 170.985,150.800 171.543 M230.709 173.231 C 234.558 177.168,231.922 181.334,225.469 181.512 C 223.231 181.574,220.995 181.712,220.500 181.820 L 219.600 182.015 219.600 205.620 C 219.600 231.411,219.629 231.070,217.284 232.741 C 216.078 233.599,216.042 233.600,189.776 233.600 L 163.476 233.600 162.154 232.592 C 160.036 230.976,160.005 230.583,160.002 205.308 L 160.000 182.015 159.100 181.820 C 158.605 181.712,156.369 181.574,154.131 181.512 C 147.622 181.333,144.996 177.215,148.867 173.256 L 150.095 172.000 189.800 172.000 L 229.505 172.000 230.709 173.231 M251.667 177.500 C 252.202 178.700,254.530 182.403,254.665 182.268 C 254.864 182.069,252.061 177.200,251.748 177.200 C 251.630 177.200,251.593 177.335,251.667 177.500 M303.800 181.600 C 304.240 181.789,304.870 181.944,305.200 181.944 C 305.578 181.944,305.504 181.817,305.000 181.600 C 304.560 181.411,303.930 181.256,303.600 181.256 C 303.222 181.256,303.296 181.383,303.800 181.600 M325.600 182.424 C 325.600 182.877,325.780 183.136,326.000 183.000 C 326.220 182.864,326.400 182.493,326.400 182.176 C 326.400 181.859,326.220 181.600,326.000 181.600 C 325.780 181.600,325.600 181.971,325.600 182.424 M170.400 202.551 L 170.400 223.110 180.100 223.382 C 185.435 223.531,194.210 223.596,199.600 223.527 L 209.400 223.400 209.400 202.800 L 209.400 182.200 189.900 182.096 L 170.400 181.992 170.400 202.551 M306.600 182.400 C 307.040 182.589,307.850 182.744,308.400 182.744 C 309.312 182.744,309.329 182.713,308.600 182.400 C 308.160 182.211,307.350 182.056,306.800 182.056 C 305.888 182.056,305.871 182.087,306.600 182.400 M322.400 182.400 L 321.400 182.720 322.400 182.720 C 322.950 182.720,323.850 182.576,324.400 182.400 L 325.400 182.080 324.400 182.080 C 323.850 182.080,322.950 182.224,322.400 182.400 M59.905 182.683 C 60.402 182.779,61.122 182.775,61.505 182.675 C 61.887 182.575,61.480 182.496,60.600 182.501 C 59.720 182.505,59.407 182.587,59.905 182.683 M57.570 183.313 C 56.655 184.020,55.449 185.982,55.746 186.279 C 55.886 186.419,56.000 186.300,56.000 186.014 C 56.000 185.728,56.643 184.888,57.428 184.147 C 58.794 182.859,58.891 182.291,57.570 183.313 M63.292 183.424 C 63.892 183.750,64.650 184.508,64.976 185.108 C 65.301 185.709,65.575 185.961,65.584 185.669 C 65.605 184.980,63.420 182.795,62.731 182.816 C 62.439 182.825,62.691 183.099,63.292 183.424 M255.386 183.900 C 255.735 184.615,256.106 185.200,256.210 185.200 C 256.608 185.200,256.352 184.563,255.567 183.600 L 254.752 182.600 255.386 183.900 M312.645 183.285 C 314.436 183.523,316.509 183.522,318.245 183.283 C 320.804 182.929,320.601 182.902,315.400 182.905 C 310.138 182.907,309.972 182.930,312.645 183.285 M324.654 184.574 C 324.302 185.110,323.652 186.190,323.208 186.974 C 322.023 189.066,321.269 190.369,317.435 196.951 C 315.528 200.224,314.042 202.975,314.133 203.066 C 314.223 203.157,315.151 201.739,316.194 199.915 C 317.237 198.092,318.407 196.060,318.794 195.400 C 319.181 194.740,320.533 192.400,321.799 190.200 C 323.064 188.000,324.452 185.615,324.883 184.900 C 325.789 183.394,325.602 183.127,324.654 184.574 M256.526 185.900 C 256.620 186.065,258.006 188.450,259.604 191.200 C 263.495 197.895,263.542 197.976,266.358 202.855 C 269.393 208.114,266.651 207.588,291.073 207.595 L 311.546 207.600 312.316 206.500 C 313.230 205.196,314.258 203.227,313.727 203.800 C 313.523 204.020,312.862 204.875,312.258 205.700 L 311.159 207.200 298.680 207.199 C 291.816 207.198,282.330 207.081,277.599 206.938 L 268.998 206.679 265.999 201.484 C 264.350 198.627,262.570 195.549,262.043 194.644 C 261.517 193.740,260.778 192.460,260.400 191.800 C 260.022 191.140,259.230 189.790,258.639 188.800 C 258.048 187.810,257.462 186.685,257.336 186.300 C 257.210 185.915,256.937 185.600,256.730 185.600 C 256.522 185.600,256.431 185.735,256.526 185.900 M261.127 217.966 C 251.486 218.700,251.840 229.724,261.529 230.465 C 267.216 230.900,322.025 230.844,323.618 230.402 C 329.530 228.759,329.530 219.641,323.618 217.998 C 322.102 217.577,266.615 217.549,261.127 217.966 M258.064 242.207 C 252.291 245.285,237.681 257.015,238.545 257.878 C 238.639 257.972,240.309 256.491,242.258 254.589 C 245.643 251.283,252.962 245.466,255.161 244.336 C 255.732 244.042,256.290 243.709,256.400 243.595 C 257.959 241.989,260.237 241.579,267.000 241.689 L 273.800 241.800 269.200 246.411 C 264.484 251.138,261.221 253.584,256.062 256.261 C 254.446 257.100,252.695 258.214,252.171 258.738 C 249.202 261.707,251.892 267.705,256.114 267.530 L 257.800 267.460 256.090 267.307 C 254.028 267.121,251.644 265.021,251.527 263.287 C 251.279 259.603,251.640 259.099,256.357 256.551 C 263.816 252.521,274.000 243.744,274.000 241.345 C 274.000 240.023,260.823 240.736,258.064 242.207 M283.953 245.100 C 278.428 253.393,269.684 261.047,260.483 265.643 C 259.099 266.334,258.055 266.988,258.164 267.097 C 258.401 267.334,264.675 263.985,267.200 262.274 C 274.392 257.399,282.210 249.318,285.736 243.113 L 286.600 241.592 293.766 241.696 L 300.932 241.800 301.635 243.800 C 302.022 244.900,302.352 245.507,302.369 245.149 C 302.411 244.274,301.223 241.473,300.655 241.106 C 300.405 240.944,297.189 240.809,293.509 240.806 L 286.818 240.800 283.953 245.100 M312.216 241.174 C 311.986 241.546,312.184 242.552,313.318 246.800 C 313.641 248.010,314.040 249.720,314.204 250.600 C 314.368 251.480,314.584 251.977,314.683 251.705 C 314.837 251.282,313.127 243.718,312.520 242.135 C 312.144 241.157,320.821 241.401,322.635 242.420 C 332.937 248.206,343.103 257.895,350.103 268.600 C 353.575 273.909,359.200 285.031,359.200 286.586 C 359.200 286.898,359.380 287.264,359.600 287.400 C 360.966 288.244,355.661 276.761,351.690 270.278 C 344.628 258.748,331.270 245.988,321.540 241.477 C 319.926 240.729,312.637 240.493,312.216 241.174 M302.561 246.700 C 304.072 251.631,305.182 259.055,305.556 266.728 C 305.870 273.166,305.889 273.271,306.989 274.328 L 308.105 275.400 307.168 274.087 C 306.312 272.888,306.205 272.195,305.927 266.087 C 305.638 259.723,305.287 256.697,304.313 252.200 C 303.630 249.044,302.762 246.000,302.545 246.000 C 302.435 246.000,302.443 246.315,302.561 246.700 M314.893 253.600 C 314.895 255.365,315.491 257.988,315.530 256.400 C 315.543 255.850,315.405 254.680,315.223 253.800 L 314.892 252.200 314.893 253.600 M315.774 265.264 C 315.807 274.649,314.461 276.938,309.686 275.620 C 308.631 275.328,308.384 275.344,308.721 275.681 C 310.150 277.110,314.190 275.820,315.618 273.478 C 316.453 272.108,316.693 264.300,316.039 259.800 C 315.861 258.575,315.758 260.692,315.774 265.264 M235.787 261.100 C 231.823 265.898,225.353 276.017,226.266 275.990 C 226.450 275.985,226.974 275.220,227.430 274.290 C 229.091 270.910,233.431 264.556,237.396 259.700 C 237.980 258.985,238.359 258.400,238.238 258.400 C 238.117 258.400,237.014 259.615,235.787 261.100 M223.455 281.055 C 223.076 281.849,222.848 282.581,222.949 282.682 C 223.049 282.783,223.441 282.214,223.818 281.418 C 224.196 280.622,224.423 279.890,224.324 279.791 C 224.225 279.691,223.833 280.260,223.455 281.055 M286.655 283.855 C 285.674 284.835,285.600 285.157,285.600 288.455 L 285.600 292.000 284.500 292.028 C 283.895 292.044,283.040 292.223,282.600 292.427 C 282.043 292.685,282.347 292.723,283.600 292.552 C 286.083 292.215,286.000 292.357,286.000 288.438 C 286.000 284.670,286.263 284.102,288.408 283.246 C 289.313 282.885,289.326 282.848,288.555 282.825 C 288.090 282.811,287.235 283.275,286.655 283.855 M290.800 283.364 C 292.670 284.036,293.187 285.215,293.194 288.820 C 293.201 292.109,293.561 292.824,295.180 292.759 C 296.138 292.721,296.123 292.694,294.938 292.312 L 293.676 291.906 293.538 288.318 C 293.388 284.420,292.400 282.757,290.278 282.830 C 289.618 282.853,289.747 282.986,290.800 283.364 M219.800 290.400 C 219.205 292.188,218.801 293.734,218.902 293.836 C 219.004 293.937,219.572 292.555,220.164 290.764 C 220.756 288.972,221.160 287.426,221.061 287.328 C 220.963 287.230,220.395 288.612,219.800 290.400 M360.022 288.125 C 359.977 288.788,361.351 292.547,361.488 292.137 C 361.566 291.902,361.273 290.830,360.837 289.755 C 360.401 288.680,360.034 287.946,360.022 288.125 M279.390 293.216 C 279.221 293.489,279.523 293.538,280.266 293.360 C 281.799 292.992,281.944 292.800,280.690 292.800 C 280.117 292.800,279.532 292.987,279.390 293.216 M296.433 292.943 C 296.876 293.322,299.217 293.551,298.996 293.194 C 298.862 292.977,298.193 292.800,297.510 292.800 C 296.826 292.800,296.342 292.864,296.433 292.943 M361.634 293.400 C 361.622 293.840,361.787 294.470,362.000 294.800 C 362.514 295.595,362.514 294.596,362.000 293.400 L 361.656 292.600 361.634 293.400 M300.200 294.000 C 301.301 294.473,301.692 294.473,301.400 294.000 C 301.264 293.780,300.758 293.613,300.276 293.628 C 299.431 293.655,299.429 293.669,300.200 294.000 M218.273 294.953 C 218.123 295.345,218.011 295.966,218.025 296.333 C 218.042 296.775,218.181 296.674,218.437 296.034 C 218.649 295.503,218.761 294.882,218.685 294.654 C 218.609 294.427,218.424 294.561,218.273 294.953 M302.000 294.485 C 302.502 295.020,304.800 295.981,304.800 295.657 C 304.800 295.457,304.485 295.203,304.100 295.092 C 303.715 294.981,303.040 294.752,302.600 294.582 C 302.160 294.412,301.890 294.368,302.000 294.485 M272.337 297.006 C 270.207 298.700,266.871 303.004,267.331 303.464 C 267.447 303.580,267.846 303.073,268.220 302.337 C 268.925 300.947,272.660 297.061,274.400 295.906 C 274.950 295.541,275.220 295.234,275.000 295.224 C 274.780 295.214,273.582 296.016,272.337 297.006 M362.434 296.200 C 362.422 296.640,362.587 297.270,362.800 297.600 C 363.314 298.395,363.314 297.396,362.800 296.200 L 362.456 295.400 362.434 296.200 M305.200 296.158 C 305.200 296.245,306.123 296.909,307.251 297.633 C 311.767 300.531,311.870 304.788,307.476 306.942 C 305.787 307.770,305.892 307.805,299.876 304.421 C 298.598 303.702,297.454 303.213,297.333 303.334 C 297.212 303.454,297.761 303.824,298.552 304.154 C 299.344 304.485,300.758 305.273,301.696 305.906 C 304.522 307.813,305.784 308.186,307.300 307.562 C 310.925 306.068,312.258 302.463,310.188 299.749 C 308.951 298.127,305.200 295.427,305.200 296.158 M217.378 298.578 C 217.227 299.381,217.194 300.127,217.304 300.237 C 217.414 300.347,217.627 299.781,217.778 298.978 C 217.928 298.175,217.962 297.428,217.852 297.318 C 217.742 297.208,217.528 297.775,217.378 298.578 M363.268 299.200 C 363.262 299.750,363.411 300.560,363.600 301.000 L 363.944 301.800 363.932 301.000 C 363.926 300.560,363.776 299.750,363.600 299.200 L 363.280 298.200 363.268 299.200 M216.800 300.950 C 216.800 301.106,216.546 302.531,216.235 304.117 C 214.495 312.989,213.880 323.391,214.056 340.962 C 214.196 354.996,214.177 355.439,213.369 356.800 C 211.259 360.356,207.971 366.800,208.269 366.796 C 208.451 366.794,209.096 365.759,209.702 364.496 C 210.307 363.233,211.657 360.670,212.702 358.800 L 214.600 355.400 214.482 341.600 C 214.331 324.007,214.976 312.934,216.658 304.267 C 216.993 302.543,217.161 301.028,217.033 300.900 C 216.905 300.772,216.800 300.794,216.800 300.950 M283.600 301.992 C 283.140 302.295,283.303 302.389,284.300 302.394 L 285.600 302.400 285.600 309.800 L 285.600 317.200 284.700 317.212 C 283.866 317.223,283.854 317.256,284.539 317.654 C 285.867 318.426,286.020 317.523,285.909 309.571 C 285.792 301.250,285.613 300.662,283.600 301.992 M364.068 303.000 C 364.062 303.660,364.211 304.560,364.400 305.000 C 364.870 306.094,364.870 304.267,364.400 302.800 C 364.088 301.825,364.079 301.830,364.068 303.000 M293.206 310.900 C 293.213 320.394,293.126 320.038,295.600 320.756 C 296.590 321.043,297.713 321.440,298.095 321.639 C 298.477 321.838,298.974 322.000,299.199 322.000 C 300.510 322.000,306.741 325.578,308.508 327.345 C 311.864 330.700,312.885 333.276,313.209 339.200 L 313.460 343.800 313.530 339.760 C 313.696 330.210,308.614 324.408,296.872 320.740 C 293.331 319.633,293.534 320.297,293.682 310.300 C 293.747 305.954,293.665 302.399,293.500 302.400 C 293.335 302.400,293.203 306.225,293.206 310.900 M295.000 302.800 C 296.196 303.314,297.195 303.314,296.400 302.800 C 296.070 302.587,295.440 302.422,295.000 302.434 L 294.200 302.456 295.000 302.800 M279.213 304.250 C 275.812 307.112,275.465 311.923,278.462 314.655 C 279.562 315.657,282.541 317.212,283.284 317.172 C 283.568 317.156,283.018 316.796,282.062 316.372 C 276.076 313.715,274.981 307.954,279.748 304.196 C 280.437 303.653,280.879 303.207,280.731 303.204 C 280.583 303.202,279.900 303.673,279.213 304.250 M266.600 304.800 C 266.450 305.273,266.417 305.750,266.527 305.860 C 266.637 305.970,266.850 305.673,267.000 305.200 C 267.150 304.727,267.183 304.250,267.073 304.140 C 266.963 304.030,266.750 304.327,266.600 304.800 M265.852 307.300 C 265.530 308.501,265.585 314.022,265.928 314.885 C 266.078 315.262,266.200 313.507,266.200 310.985 C 266.200 305.979,266.202 305.996,265.852 307.300 M364.887 307.800 C 364.891 308.460,365.032 309.540,365.200 310.200 L 365.505 311.400 365.513 310.000 C 365.517 309.230,365.376 308.150,365.200 307.600 C 364.889 306.630,364.880 306.635,364.887 307.800 M365.911 332.000 C 365.971 342.670,366.076 352.030,366.143 352.800 C 366.211 353.570,366.282 345.650,366.303 335.200 C 366.324 324.750,366.219 315.390,366.070 314.400 C 365.922 313.410,365.850 321.330,365.911 332.000 M266.410 316.316 C 266.365 318.611,273.211 326.000,275.382 326.000 C 275.507 326.000,276.372 326.347,277.304 326.772 C 278.237 327.197,280.260 327.953,281.800 328.452 C 285.947 329.797,285.629 328.843,285.507 339.537 L 285.400 348.964 284.400 349.261 C 283.469 349.537,283.483 349.552,284.600 349.478 L 285.800 349.400 285.800 339.444 C 285.800 330.992,285.709 329.442,285.200 329.189 C 284.870 329.026,283.340 328.496,281.800 328.013 C 274.350 325.674,269.641 322.440,267.621 318.276 C 266.961 316.914,266.416 316.032,266.410 316.316 M293.200 340.776 C 293.200 349.903,293.241 350.127,294.831 349.703 L 295.800 349.445 294.800 349.205 L 293.800 348.964 293.692 340.682 C 293.567 331.153,293.333 331.604,297.400 333.548 C 299.735 334.664,301.027 335.762,301.933 337.400 C 302.259 337.988,302.379 338.036,302.388 337.581 C 302.419 335.995,296.588 332.000,294.242 332.000 L 293.200 332.000 293.200 340.776 M302.545 339.400 C 302.947 341.896,302.033 344.405,299.972 346.466 C 298.908 347.530,298.192 348.400,298.379 348.400 C 300.601 348.400,304.094 340.967,302.822 338.947 C 302.412 338.297,302.376 338.356,302.545 339.400 M267.649 343.084 C 266.286 343.755,264.804 345.690,264.802 346.800 C 264.801 347.130,265.172 346.650,265.625 345.734 C 266.409 344.151,267.733 343.185,269.800 342.686 L 270.600 342.493 269.800 342.456 C 269.360 342.435,268.392 342.718,267.649 343.084 M271.200 343.097 C 271.530 343.225,272.700 344.001,273.800 344.821 C 275.926 346.406,279.963 348.570,280.253 348.280 C 280.348 348.185,279.386 347.607,278.113 346.997 C 276.841 346.386,274.883 345.192,273.763 344.343 C 272.643 343.495,271.473 342.814,271.163 342.832 C 270.714 342.857,270.721 342.910,271.200 343.097 M312.547 345.100 C 311.868 347.889,310.169 350.717,307.741 353.100 C 306.339 354.475,305.347 355.600,305.536 355.600 C 307.086 355.600,312.349 348.326,312.989 345.300 C 313.322 343.726,312.926 343.546,312.547 345.100 M281.200 348.800 C 281.530 349.013,282.160 349.178,282.600 349.166 L 283.400 349.144 282.600 348.800 C 281.404 348.286,280.405 348.286,281.200 348.800 M264.801 349.269 C 264.799 350.517,272.168 356.400,273.733 356.400 C 273.970 356.400,272.821 355.575,271.182 354.568 C 267.748 352.458,266.590 351.478,265.548 349.800 C 265.062 349.017,264.802 348.832,264.801 349.269 M303.200 356.400 C 302.430 356.822,302.070 357.170,302.400 357.174 C 302.730 357.179,303.450 356.830,304.000 356.400 C 305.257 355.417,304.996 355.417,303.200 356.400 M274.571 356.753 C 274.922 357.322,283.100 359.600,284.790 359.600 C 285.481 359.600,285.583 359.944,285.708 362.700 L 285.848 365.800 285.824 362.600 L 285.800 359.400 282.286 358.699 C 280.354 358.313,277.786 357.651,276.580 357.227 C 275.374 356.803,274.470 356.590,274.571 356.753 M369.497 361.200 C 374.413 370.575,374.868 371.408,375.279 371.800 C 375.948 372.437,368.184 357.685,367.490 357.000 C 367.267 356.780,368.170 358.670,369.497 361.200 M299.670 357.793 C 298.719 358.090,297.063 358.454,295.991 358.601 C 293.458 358.950,293.311 359.182,293.137 363.139 C 292.964 367.071,292.278 367.982,289.456 368.025 C 287.994 368.048,287.912 368.095,288.754 368.432 C 291.412 369.496,293.585 366.841,293.594 362.519 L 293.600 359.638 295.100 359.221 C 295.925 358.992,296.960 358.801,297.400 358.796 C 298.299 358.787,301.039 357.895,301.459 357.474 C 301.801 357.132,301.774 357.137,299.670 357.793 M38.900 368.699 L 33.600 368.823 33.600 379.212 L 33.600 389.600 115.233 389.600 C 160.132 389.600,196.798 389.465,196.713 389.300 C 193.505 383.032,192.732 376.437,194.578 371.092 C 194.941 370.042,195.128 369.007,194.995 368.792 C 194.776 368.437,53.650 368.353,38.900 368.699 M205.800 370.800 C 205.220 371.944,204.828 372.961,204.927 373.060 C 205.027 373.160,205.577 372.300,206.150 371.150 C 206.723 370.000,207.116 368.983,207.023 368.890 C 206.930 368.797,206.380 369.656,205.800 370.800 M204.273 374.153 C 204.123 374.545,204.011 375.166,204.025 375.533 C 204.042 375.975,204.181 375.874,204.437 375.234 C 204.649 374.703,204.761 374.082,204.685 373.854 C 204.609 373.627,204.424 373.761,204.273 374.153 M376.488 377.600 C 376.488 380.515,376.536 380.757,376.823 379.300 C 377.007 378.365,377.007 376.835,376.823 375.900 C 376.536 374.443,376.488 374.685,376.488 377.600 M204.034 379.800 C 204.022 380.240,204.187 380.870,204.400 381.200 C 204.914 381.995,204.914 380.996,204.400 379.800 L 204.056 379.000 204.034 379.800 M375.404 382.657 C 374.283 385.348,371.583 387.714,368.223 388.950 C 367.340 389.275,345.962 389.456,291.400 389.603 L 215.800 389.805 290.800 389.900 C 365.316 389.995,367.270 389.965,370.000 388.698 C 372.693 387.448,377.144 382.211,376.263 381.330 C 376.144 381.211,375.758 381.808,375.404 382.657 M204.814 382.222 C 204.908 384.727,210.169 388.980,213.663 389.375 L 215.400 389.571 213.600 389.062 C 209.770 387.979,207.811 386.591,205.933 383.630 C 205.310 382.647,204.806 382.014,204.814 382.222 " stroke="none" fill="#8fa2a9" fill-rule="evenodd"></path></g></svg>
