<?xml version="1.0" encoding="UTF-8" standalone="no"?>
<svg
   xmlns:dc="http://purl.org/dc/elements/1.1/"
   xmlns:cc="http://creativecommons.org/ns#"
   xmlns:rdf="http://www.w3.org/1999/02/22-rdf-syntax-ns#"
   xmlns:svg="http://www.w3.org/2000/svg"
   xmlns="http://www.w3.org/2000/svg"
   viewBox="0 0 512 514.66669"
   height="514.66669"
   width="512"
   xml:space="preserve"
   id="svg2"
   version="1.1"><metadata
     id="metadata8"><rdf:RDF><cc:Work
         rdf:about=""><dc:format>image/svg+xml</dc:format><dc:type
           rdf:resource="http://purl.org/dc/dcmitype/StillImage" /></cc:Work></rdf:RDF></metadata><defs
     id="defs6" /><g
     transform="matrix(1.3333333,0,0,-1.3333333,0,514.66667)"
     id="g10"><g
       transform="scale(0.1)"
       id="g12"><path
         id="path14"
         style="fill:#fbc707;fill-opacity:1;fill-rule:evenodd;stroke:none"
         d="M 470.055,3855.47 H 3369.94 c 254.8,0 463.64,-208.82 463.64,-463.63 l 0.01,-2923.684 C 3833.59,213.352 3624.73,4.53125 3369.94,4.53125 H 470.055 C 215.254,4.53125 6.41406,213.348 6.41406,468.152 V 3391.84 c 0,254.81 208.83594,463.62 463.64094,463.63" /><path
         id="path16"
         style="fill:#231f20;fill-opacity:1;fill-rule:evenodd;stroke:none"
         d="M 470.055,3714.83 H 3369.94 c 177.18,0 323.01,-145.8 323.01,-322.99 V 468.156 c 0,-177.183 -145.84,-322.992 -323.01,-322.992 H 470.055 c -177.18,0 -323.008,145.805 -323.008,322.988 V 3391.84 c 0,177.19 145.828,322.99 323.008,322.99 z m 0,-70.31 H 3369.94 c 138.38,0 252.69,-114.31 252.69,-252.68 V 468.156 c 0,-138.363 -114.32,-252.672 -252.69,-252.672 H 470.055 c -138.379,0 -252.692,114.301 -252.692,252.668 V 3391.84 c 0,138.37 114.313,252.67 252.692,252.68" /><path
         id="path18"
         style="fill:#231f20;fill-opacity:1;fill-rule:evenodd;stroke:none"
         d="m 1330.4,1683.36 c 84.22,-108.29 288.77,-324.87 288.77,-439.17 V 227.516 H 1017.55 C 969.418,365.875 849.09,414.008 849.09,534.324 v 938.466 c -36.102,-18.05 -294.805,-102.27 -348.957,-114.3 -18.047,-6.02 -102.274,-12.03 -102.274,60.16 V 2579.7 c 0,30.09 12.036,66.18 78.207,96.26 234.641,96.25 679.854,246.65 758.074,270.71 54.13,12.03 96.26,-6.02 96.26,-66.17 V 1683.36" /><path
         id="path20"
         style="fill:#231f20;fill-opacity:1;fill-rule:evenodd;stroke:none"
         d="m 825.012,1430.68 v -246.64 c -42.11,-12.04 -120.317,-42.11 -144.391,-42.11 -72.187,0 -114.293,66.17 -114.293,132.34 0,102.28 186.496,126.33 258.684,156.41" /><path
         id="path22"
         style="fill:#231f20;fill-opacity:1;fill-rule:evenodd;stroke:none"
         d="M 825.012,1147.94 V 943.398 c -42.11,-12.027 -120.317,-42.109 -144.391,-42.109 -78.203,0 -102.266,72.191 -102.266,108.281 0,114.31 174.469,120.32 246.657,138.37" /><path
         id="path24"
         style="fill:#231f20;fill-opacity:1;fill-rule:evenodd;stroke:none"
         d="M 825.012,907.309 V 702.77 c -42.11,-24.063 -90.227,-42.114 -120.317,-42.114 -84.222,0 -126.34,42.114 -126.34,120.309 0,96.258 186.5,108.297 246.657,126.344" /><path
         id="path26"
         style="fill:#ffffff;fill-opacity:1;fill-rule:evenodd;stroke:none"
         d="M 590.391,2675.96 V 1424.67 c -24.063,-12.03 -84.235,-36.11 -108.305,-36.11 -24.063,0 -48.121,6.03 -48.121,36.1 v 1143.01 c 0,60.17 90.238,84.22 156.426,108.29" /><path
         id="path28"
         style="fill:#ffffff;fill-opacity:1;fill-rule:evenodd;stroke:none"
         d="m 1288.27,1725.46 c 0,-36.1 -72.19,-66.17 -114.3,-78.21 v -523.37 h -24.07 v 547.44 114.29 c 0,90.24 -102.27,114.32 -150.4,114.32 -72.191,0 -150.41,-66.19 -150.41,-114.32 v -264.68 c -24.078,-12.04 -42.117,-18.05 -72.203,-30.08 v 1257.31 l 457.253,156.41 c 42.11,12.03 54.13,-24.07 54.13,-48.13 V 1725.46" /><path
         id="path30"
         style="fill:#231f20;fill-opacity:1;fill-rule:evenodd;stroke:none"
         d="M 590.391,2675.96 V 1424.67 l 186.496,66.19 6.015,1257.3 -192.511,-72.2" /><path
         id="path32"
         style="fill:#231f20;fill-opacity:1;fill-rule:nonzero;stroke:none"
         d="m 883.727,2449.89 136.713,41.38 v -87.41 c 20.43,41.94 41.1,73.59 62.02,95.3 20.92,21.7 46.39,37.19 76.42,46.28 40.61,12.29 72.35,4.79 95.37,-22.1 22.88,-26.93 34.33,-75.81 34.33,-146.64 V 2035 l -147.42,-44.62 v 295.58 c 0,33.68 -4.43,56.18 -13.29,67.49 -8.98,11.45 -21.41,14.6 -37.53,9.72 -17.72,-5.37 -32.25,-19.26 -43.2,-41.4 -11.07,-22.18 -16.61,-57.89 -16.61,-106.79 v -258.09 l -146.803,-44.43 z m 669.543,407.19 v -204.54 l 80.72,24.44 v -150.3 l -80.72,-24.43 v -190.72 c 0,-22.98 1.6,-37.69 4.68,-44.19 4.79,-9.95 13.16,-13.29 25.22,-9.64 10.83,3.28 25.97,12.35 45.41,27.05 l 10.83,-139.07 c -36.3,-22.04 -70.14,-37.82 -101.64,-47.35 -36.55,-11.06 -63.5,-12.65 -80.73,-4.74 -17.35,7.88 -30.15,24.04 -38.39,48.32 -8.37,24.25 -12.43,66.55 -12.43,126.67 v 189.16 l -54.15,-16.38 v 150.29 l 54.15,16.39 v 98.81 z m 575.65,-350.06 -294.1,-89.02 c 2.59,-32.39 8.98,-54.98 19.07,-68.17 14.15,-19.03 32.74,-24.98 55.5,-18.09 14.4,4.35 28.18,13.53 41.1,27.64 8,8.81 16.49,22.61 25.6,41.6 l 144.59,25.11 c -22.15,-60.77 -48.73,-107.51 -79.99,-140.47 -31.26,-32.78 -76.05,-58.08 -134.5,-75.78 -50.7,-15.34 -90.57,-17.39 -119.73,-6.18 -29.04,11.25 -53.16,35.91 -72.23,73.84 -19.08,37.93 -28.68,86.34 -28.68,145.42 0,83.96 19.2,157.83 57.47,221.24 38.39,63.62 91.31,105.72 158.86,126.16 54.76,16.58 98.08,17.94 129.71,4.19 31.74,-13.54 55.98,-40.06 72.48,-79.12 16.61,-39.19 24.85,-94.23 24.85,-165.05 z m -149.14,53.49 c -2.96,39.02 -10.58,65.21 -22.89,78.59 -12.43,13.51 -28.67,17.23 -48.85,11.12 -23.38,-7.07 -41.96,-25.83 -55.99,-55.98 -8.86,-18.92 -14.52,-44.65 -16.86,-77.49 z m 218.05,287.12 137.33,41.57 v -87.93 c 13.29,42.03 26.95,72.42 40.98,91 14.02,18.59 31.38,31.1 52.05,37.36 21.66,6.55 45.29,4.2 71,-6.84 l -45.4,-160.59 c -17.23,4.98 -31.01,5.82 -41.1,2.76 -19.2,-5.81 -34.09,-21.54 -44.67,-46.86 -15.14,-36.02 -22.77,-97.06 -22.77,-183.1 v -180.18 l -147.42,-44.61 z m 472.65,-30.9 -140.16,-21.69 c 5.3,35.98 12.93,65.41 22.89,88.12 9.97,22.71 24.24,44.13 43.08,64.35 13.41,14.59 31.99,28.33 55.49,41.15 23.51,12.82 48.98,23.47 76.42,31.77 43.93,13.3 79.37,20.57 105.95,21.7 26.7,1.17 48.98,-6.6 66.69,-23.18 12.55,-11.4 22.4,-29.84 29.66,-55.45 7.14,-25.83 10.71,-51.18 10.71,-76.57 v -237.36 c 0,-25.23 1.23,-44.72 3.44,-58.39 2.34,-13.63 7.26,-30.45 15.01,-50.39 l -137.7,-41.68 c -5.53,12.15 -9.1,21.61 -10.82,28.34 -1.73,6.73 -3.33,17.65 -5.05,32.68 -19.19,-31.9 -38.39,-56.19 -57.34,-72.98 -25.97,-22.72 -56.11,-39.27 -90.45,-49.66 -45.65,-13.82 -80.35,-9.47 -104.1,13.06 -23.63,22.38 -35.44,55.43 -35.44,98.97 0,40.94 8.49,77.02 25.59,108.46 17.11,31.61 48.49,60.63 94.39,87.3 55.13,32.24 90.81,53.92 107.18,65.09 16.24,11.13 33.59,24.68 51.81,40.21 0,25.4 -3.7,41.9 -11.08,49.85 -7.51,7.75 -20.55,8.99 -39.38,3.29 -23.99,-7.26 -41.96,-18.23 -54.02,-32.59 -9.35,-11.29 -16.98,-29.5 -22.77,-54.4 z m 127.25,-69.8 c -20.19,-16.3 -41.23,-31.65 -63.01,-46.02 -29.78,-20.07 -48.73,-36.86 -56.61,-49.95 -8.24,-13.73 -12.3,-27.57 -12.3,-41.73 0,-16.24 4.06,-28.14 12.06,-36.09 8.12,-7.73 19.93,-9.34 35.56,-4.61 16.37,4.96 31.5,15.07 45.66,30.41 14.02,15.47 23.99,32.13 29.9,49.81 5.9,17.86 8.74,39.62 8.74,65.19 z m 517.07,111.42 139.42,19.91 c -7.63,-43.08 -20.3,-82.33 -37.77,-117.5 -17.6,-35.21 -40,-65.14 -67.31,-89.99 -27.2,-24.65 -61.9,-43.44 -103.98,-56.18 -40.61,-12.29 -74.46,-17.18 -101.4,-14.79 -27.07,2.51 -50.33,12.58 -69.78,30.53 -19.56,17.92 -34.82,41.11 -45.77,69.93 -11.08,28.6 -16.61,69.42 -16.61,122.46 0,55.28 6.64,103.41 20.18,144.31 9.84,29.93 23.25,58.17 40.36,84.77 17.1,26.6 34.57,47.95 52.67,63.79 28.55,25.23 65.21,44.62 109.89,58.14 62.5,18.92 110.13,17.61 142.98,-3.88 32.74,-21.36 55.87,-60.31 69.04,-116.79 l -138.07,-67.53 c -4.31,21.67 -12.18,36.56 -23.63,44.67 -11.44,8.29 -26.7,9.37 -46.02,3.52 -24.24,-7.34 -43.93,-25.56 -58.94,-54.46 -15.02,-29.07 -22.52,-68.31 -22.52,-117.9 0,-44.22 7.5,-75.46 22.39,-93.93 14.89,-18.47 33.84,-24.14 56.98,-17.13 19.2,5.81 35.32,17.59 48.48,35.4 13.04,17.77 22.89,42 29.41,72.65" /></g></g></svg>