<?xml version="1.0" encoding="UTF-8"?>
<!DOCTYPE svg PUBLIC "-//W3C//DTD SVG 1.1//EN" "http://www.w3.org/Graphics/SVG/1.1/DTD/svg11.dtd">
<svg xmlns="http://www.w3.org/2000/svg" version="1.1" width="200px" height="200px" style="shape-rendering:geometricPrecision; text-rendering:geometricPrecision; image-rendering:optimizeQuality; fill-rule:evenodd; clip-rule:evenodd" xmlns:xlink="http://www.w3.org/1999/xlink">
<g><path style="opacity:0.687" fill="#114845" d="M -0.5,78.5 C -0.5,78.1667 -0.5,77.8333 -0.5,77.5C 3.51383,77.3345 7.51383,77.5012 11.5,78C 13.7821,82.6385 12.4488,86.1385 7.5,88.5C 5.89533,87.4125 5.22866,88.0792 5.5,90.5C 5.78961,92.0441 6.45627,93.3774 7.5,94.5C 4.91355,95.48 2.24688,95.8134 -0.5,95.5C -0.5,94.8333 -0.5,94.1667 -0.5,93.5C 0.117425,93.3893 0.617425,93.056 1,92.5C 1.66667,88.1667 1.66667,83.8333 1,79.5C 0.617425,78.944 0.117425,78.6107 -0.5,78.5 Z M 5.5,79.5 C 6.4959,79.4142 7.32924,79.7476 8,80.5C 8.49351,82.1341 8.66018,83.8008 8.5,85.5C 7.5,85.5 6.5,85.5 5.5,85.5C 5.5,83.5 5.5,81.5 5.5,79.5 Z"/></g>
<g><path style="opacity:0.73" fill="#114845" d="M 50.5,78.5 C 54.6829,77.1889 59.0162,77.1889 63.5,78.5C 65.487,83.543 63.8203,86.8763 58.5,88.5C 57.188,90.7363 57.5213,92.7363 59.5,94.5C 56.8333,95.8333 54.1667,95.8333 51.5,94.5C 52.1196,91.7222 52.453,88.8889 52.5,86C 52.4752,83.0706 51.8086,80.5706 50.5,78.5 Z M 57.5,79.5 C 59.4841,79.484 60.4841,80.484 60.5,82.5C 60.5472,84.0004 59.8805,85.0004 58.5,85.5C 57.5344,83.604 57.2011,81.604 57.5,79.5 Z"/></g>
<g><path style="opacity:0.662" fill="#124947" d="M 80.5,78.5 C 84.2984,77.5166 88.2984,77.1832 92.5,77.5C 92.762,78.9778 92.4287,80.3112 91.5,81.5C 90.4763,80.1468 89.143,79.4802 87.5,79.5C 87.5,81.1667 87.5,82.8333 87.5,84.5C 89.4458,84.1928 91.1125,84.1928 92.5,84.5C 92.1667,85.8333 91.8333,87.1667 91.5,88.5C 90.2519,87.9598 89.0852,87.2931 88,86.5C 87.5045,88.4727 87.3379,90.4727 87.5,92.5C 89.7224,92.822 91.5557,92.1554 93,90.5C 93.7203,92.1124 93.5536,93.6124 92.5,95C 88.4589,95.8265 84.4589,95.6599 80.5,94.5C 81.7243,91.8687 82.391,89.0354 82.5,86C 82.4752,83.0706 81.8086,80.5706 80.5,78.5 Z"/></g>
<g><path style="opacity:0.498" fill="#124b49" d="M 133.5,77.5 C 133.5,77.8333 133.5,78.1667 133.5,78.5C 132.596,79.209 132.263,80.209 132.5,81.5C 130.167,80.8333 127.833,80.1667 125.5,79.5C 125.5,84.1667 125.5,88.8333 125.5,93.5C 126.675,93.281 127.675,93.6143 128.5,94.5C 125.5,95.8333 122.5,95.8333 119.5,94.5C 121.37,89.7388 122.037,84.7388 121.5,79.5C 119.323,79.5861 117.323,80.2528 115.5,81.5C 114.571,80.3112 114.238,78.9778 114.5,77.5C 120.833,77.5 127.167,77.5 133.5,77.5 Z"/></g>
<g><path style="opacity:0.696" fill="#114744" d="M 133.5,78.5 C 133.5,78.1667 133.5,77.8333 133.5,77.5C 137.555,77.1758 141.555,77.5091 145.5,78.5C 147.794,81.3299 147.461,83.9966 144.5,86.5C 143.167,86.8333 143.167,87.1667 144.5,87.5C 146.313,90.6472 148.98,92.6472 152.5,93.5C 151.848,94.7251 150.681,95.3917 149,95.5C 147.833,95.3333 146.667,95.1667 145.5,95C 144.042,92.54 142.209,90.3734 140,88.5C 139.221,90.8071 139.721,92.8071 141.5,94.5C 138.894,95.6517 136.227,95.8184 133.5,95C 134.65,89.6899 134.65,84.1899 133.5,78.5 Z M 139.5,79.5 C 140.496,79.4142 141.329,79.7476 142,80.5C 142.494,82.1341 142.66,83.8008 142.5,85.5C 141.5,85.5 140.5,85.5 139.5,85.5C 139.5,83.5 139.5,81.5 139.5,79.5 Z"/></g>
<g><path style="opacity:0.62" fill="#104946" d="M 66.5,78.5 C 68.9664,77.3659 71.633,77.1993 74.5,78C 73.2565,79.8697 72.5899,82.0363 72.5,84.5C 72.6667,86.5 72.8333,88.5 73,90.5C 73.5194,91.5156 74.3527,92.1822 75.5,92.5C 77.0499,91.2677 78.7166,90.7677 80.5,91C 79.6198,92.3561 79.2865,93.8561 79.5,95.5C 75.1161,95.8256 70.7828,95.4922 66.5,94.5C 67.7243,91.8687 68.391,89.0354 68.5,86C 68.4752,83.0706 67.8086,80.5706 66.5,78.5 Z"/></g>
<g><path style="opacity:0.614" fill="#114946" d="M 14.5,78.5 C 18.2984,77.5166 22.2984,77.1832 26.5,77.5C 26.6567,78.8734 26.49,80.2068 26,81.5C 24.8904,79.9632 23.3904,79.2965 21.5,79.5C 21.5,81.1667 21.5,82.8333 21.5,84.5C 23.1439,84.7135 24.6439,84.3802 26,83.5C 26.7737,85.403 26.4404,87.0696 25,88.5C 23.6626,87.2351 22.1626,86.7351 20.5,87C 21.4061,88.6995 21.7394,90.5328 21.5,92.5C 23.4918,92.6715 25.1585,92.0049 26.5,90.5C 27.7472,92.0064 27.7472,93.5064 26.5,95C 22.4589,95.8265 18.4589,95.6599 14.5,94.5C 15.7243,91.8687 16.391,89.0354 16.5,86C 16.4752,83.0706 15.8086,80.5706 14.5,78.5 Z"/></g>
<g><path style="opacity:0.42" fill="#114946" d="M 199.5,77.5 C 199.5,78.8333 199.5,80.1667 199.5,81.5C 197.703,80.2702 195.703,79.6036 193.5,79.5C 192.963,84.7388 193.63,89.7388 195.5,94.5C 192.833,95.8333 190.167,95.8333 187.5,94.5C 189.319,89.6989 189.986,84.6989 189.5,79.5C 187.323,79.5861 185.323,80.2528 183.5,81.5C 182.269,80.3493 182.269,79.1827 183.5,78C 188.823,77.5006 194.156,77.334 199.5,77.5 Z"/></g>
<g><path style="opacity:0.863" fill="#124644" d="M 33.5,77.5 C 37.5138,77.3345 41.5138,77.5012 45.5,78C 50.8333,83.3333 50.8333,88.6667 45.5,94C 39.7129,96.5821 34.5463,95.7488 30,91.5C 28.4963,86.0101 29.663,81.3434 33.5,77.5 Z M 43.5,90.5 C 42.1667,90.8333 42.1667,91.1667 43.5,91.5C 37.4689,94.1468 34.1355,92.1468 33.5,85.5C 33.5129,80.001 36.1795,78.1677 41.5,80C 42.8333,80.6667 43.8333,81.6667 44.5,83C 43.565,85.3806 43.2317,87.8806 43.5,90.5 Z"/></g>
<g><path style="opacity:0.694" fill="#114945" d="M 97.5,77.5 C 100.5,77.5 103.5,77.5 106.5,77.5C 106.762,78.9778 106.429,80.3112 105.5,81.5C 103.593,79.2397 101.593,79.073 99.5,81C 101.388,83.1896 103.555,85.0229 106,86.5C 107.477,94.8438 103.977,97.8438 95.5,95.5C 95.2011,93.396 95.5344,91.396 96.5,89.5C 98.1592,92.4333 100.493,93.1 103.5,91.5C 101.211,88.7088 98.7112,86.0421 96,83.5C 95.5906,81.3049 96.0906,79.3049 97.5,77.5 Z"/></g>
<g><path style="opacity:0.004" fill="#000000" d="M 144.5,86.5 C 145.833,87.1667 145.833,87.1667 144.5,86.5 Z"/></g>
<g><path style="opacity:0.616" fill="#114946" d="M 152.5,93.5 C 151.608,88.5624 151.274,83.5624 151.5,78.5C 152.833,77.1667 154.167,77.1667 155.5,78.5C 155.334,82.5138 155.501,86.5138 156,90.5C 162.189,94.284 164.689,92.4507 163.5,85C 163.419,82.3746 162.752,80.0413 161.5,78C 164.167,77.3333 166.833,77.3333 169.5,78C 167.683,82.5421 166.516,87.3755 166,92.5C 161.83,96.164 157.33,96.4973 152.5,93.5 Z"/></g>
<g><path style="opacity:0.51" fill="#104946" d="M 172.5,77.5 C 175.5,77.5 178.5,77.5 181.5,77.5C 181.721,81.7954 180.388,82.4621 177.5,79.5C 176.263,79.5565 175.263,80.0565 174.5,81C 176.849,83.0698 179.016,85.2365 181,87.5C 181.706,89.9712 181.373,92.3046 180,94.5C 176.943,95.4505 173.777,95.7839 170.5,95.5C 170.5,93.5 170.5,91.5 170.5,89.5C 171.5,89.5 172.5,89.5 173.5,89.5C 173.5,90.5 173.5,91.5 173.5,92.5C 174.833,92.5 176.167,92.5 177.5,92.5C 176.839,89.1869 175.006,86.5203 172,84.5C 171.444,82.1152 171.61,79.7819 172.5,77.5 Z"/></g>
<g><path style="opacity:0.87" fill="#78a03e" d="M 114.5,108.5 C 115.167,108.5 115.5,108.833 115.5,109.5C 112.482,115.138 108.648,115.804 104,111.5C 102.664,104.834 104.831,99.6678 110.5,96C 116.094,94.0868 118.261,95.9202 117,101.5C 116,102.833 115,102.833 114,101.5C 114,100.167 114,98.8333 114,97.5C 108.915,101.094 107.248,105.761 109,111.5C 111.018,110.777 112.852,109.777 114.5,108.5 Z"/></g>
<g><path style="opacity:0.004" fill="#000000" d="M 128.5,101.5 C 127.833,100.167 127.833,100.167 128.5,101.5 Z"/></g>
<g><path style="opacity:0.897" fill="#77a03e" d="M 128.5,101.5 C 130.39,101.297 131.89,101.963 133,103.5C 134.714,102.075 136.047,102.408 137,104.5C 138.444,102.845 140.278,102.178 142.5,102.5C 141.833,104.833 141.167,107.167 140.5,109.5C 138.778,107.55 136.612,106.217 134,105.5C 132.883,106.949 132.216,108.616 132,110.5C 130.599,108.808 128.766,108.141 126.5,108.5C 126.5,110.167 126.5,111.833 126.5,113.5C 125.71,112.391 125.21,111.058 125,109.5C 123.289,112.58 120.789,113.746 117.5,113C 116.177,112.184 115.511,111.017 115.5,109.5C 115.5,108.833 115.167,108.5 114.5,108.5C 116.179,107 117.512,105.167 118.5,103C 122.308,100.907 124.808,102.073 126,106.5C 126.847,104.807 127.68,103.14 128.5,101.5 Z M 121.5,105.5 C 122.043,105.56 122.376,105.893 122.5,106.5C 122.047,108.565 121.047,110.232 119.5,111.5C 119.167,111.167 118.833,110.833 118.5,110.5C 119.26,108.64 120.26,106.973 121.5,105.5 Z"/></g>
<g><path style="opacity:0.553" fill="#779f3e" d="M 175.5,105.5 C 176.493,103.677 177.993,102.344 180,101.5C 181.098,102.384 181.598,103.384 181.5,104.5C 182.935,102.599 184.602,102.266 186.5,103.5C 184.88,109.408 182.213,114.741 178.5,119.5C 175.653,121.795 172.986,121.461 170.5,118.5C 173.99,118.914 176.657,117.414 178.5,114C 175.858,112.541 173.191,112.208 170.5,113C 169.773,111.601 169.273,110.101 169,108.5C 167.257,110.321 165.757,112.321 164.5,114.5C 162.717,112.977 162.051,110.977 162.5,108.5C 163.375,106.432 164.541,104.432 166,102.5C 167.011,101.663 168.178,101.33 169.5,101.5C 169.351,102.552 169.517,103.552 170,104.5C 172.558,101.638 174.391,101.971 175.5,105.5 Z M 175.5,105.5 C 174.24,112.411 173.74,112.745 174,106.5C 174.383,105.944 174.883,105.611 175.5,105.5 Z M 180.5,106.5 C 180.539,107.756 180.039,108.756 179,109.5C 178.415,108.002 178.915,107.002 180.5,106.5 Z"/></g>
<g><path style="opacity:0.902" fill="#78a33e" d="M 145.5,101.5 C 146.848,102.186 148.015,103.186 149,104.5C 149.333,104.167 149.667,103.833 150,103.5C 150.692,104.437 150.525,105.103 149.5,105.5C 148.833,105.5 148.5,105.833 148.5,106.5C 147.163,107.315 146.163,108.482 145.5,110C 145.728,110.399 146.062,110.565 146.5,110.5C 146.5,111.167 146.167,111.5 145.5,111.5C 144.153,114.663 142.986,117.996 142,121.5C 140.625,119.063 140.125,116.397 140.5,113.5C 139.167,113.5 137.833,113.5 136.5,113.5C 136.66,111.801 136.494,110.134 136,108.5C 135.047,110.455 133.713,112.122 132,113.5C 130.956,112.377 130.29,111.044 130,109.5C 129.26,111.319 128.093,112.652 126.5,113.5C 126.5,111.833 126.5,110.167 126.5,108.5C 128.766,108.141 130.599,108.808 132,110.5C 132.216,108.616 132.883,106.949 134,105.5C 136.612,106.217 138.778,107.55 140.5,109.5C 140.351,110.552 140.517,111.552 141,112.5C 142.578,109.343 143.578,106.009 144,102.5C 144.383,101.944 144.883,101.611 145.5,101.5 Z"/></g>
<g><path style="opacity:0.696" fill="#779f3e" d="M 162.5,108.5 C 161.549,109.919 161.216,111.585 161.5,113.5C 160.5,113.5 159.5,113.5 158.5,113.5C 158.541,109.757 157.874,109.59 156.5,113C 153.21,113.589 151.71,112.089 152,108.5C 150.967,111.033 149.133,112.699 146.5,113.5C 145.702,113.043 145.369,112.376 145.5,111.5C 146.167,111.5 146.5,111.167 146.5,110.5C 147.674,109.486 148.34,108.153 148.5,106.5C 149.167,106.5 149.5,106.167 149.5,105.5C 150.525,105.103 150.692,104.437 150,103.5C 149.667,103.833 149.333,104.167 149,104.5C 148.015,103.186 146.848,102.186 145.5,101.5C 146.183,99.8235 147.517,99.1568 149.5,99.5C 149.351,100.552 149.517,101.552 150,102.5C 151.943,102.041 153.276,103.041 154,105.5C 155.828,101.646 158.328,100.98 161.5,103.5C 162.452,105.045 162.785,106.712 162.5,108.5 Z"/></g>
<g><path style="opacity:0.004" fill="#000000" d="M 178.5,119.5 C 179.833,120.167 179.833,120.167 178.5,119.5 Z"/></g>
</svg>
