<?xml version="1.0" encoding="UTF-8"?>
<svg version="1.1" xmlns="http://www.w3.org/2000/svg" width="512" height="512">
<path d="M0 0 C1.15881935 -0.01226624 1.15881935 -0.01226624 2.34104919 -0.02478027 C4.9033836 -0.0496382 7.4656626 -0.06615113 10.02807617 -0.08056641 C10.90260626 -0.08589008 11.77713634 -0.09121376 12.67816734 -0.09669876 C17.30692036 -0.12343193 21.93564638 -0.14280638 26.56445312 -0.15722656 C31.34641795 -0.17387608 36.1276938 -0.21865551 40.90939808 -0.26959801 C44.58543188 -0.30324743 48.26130167 -0.31480142 51.9374752 -0.32045364 C53.70015415 -0.32717241 55.46282207 -0.34241078 57.22535133 -0.36634445 C59.69377474 -0.3979513 62.16033376 -0.39804029 64.62890625 -0.390625 C65.35584686 -0.40703033 66.08278748 -0.42343567 66.83175659 -0.44033813 C70.58308364 -0.39425242 72.41144609 0.12291368 75.48149109 2.33480835 C77.89198089 5.73350008 78.04698502 7.39326131 77.82104492 11.50537109 C77.77592773 12.57400391 77.73081055 13.64263672 77.68432617 14.74365234 C77.62631836 15.55189453 77.56831055 16.36013672 77.50854492 17.19287109 C79.01832664 17.18620926 79.01832664 17.18620926 80.55860901 17.17941284 C90.10469971 17.13863944 99.65077244 17.10877856 109.19693089 17.08924675 C114.103167 17.07886729 119.00933209 17.06481648 123.91552734 17.04199219 C128.6617851 17.0200534 133.4079751 17.00825874 138.15427971 17.00311661 C139.95330813 16.99945821 141.75233339 16.99231595 143.55133247 16.98141098 C174.29165542 16.8027048 201.59602681 24.18120143 225.50854492 44.19287109 C226.25521927 45.05641708 227.00189362 45.91996307 227.77119446 46.80967712 C231.18014034 49.77757596 232.78611811 49.8091864 237.25146484 49.78881836 C237.90912842 49.79287689 238.56679199 49.79693542 239.24438477 49.80111694 C240.66627714 49.806618 242.08825071 49.80067094 243.51006126 49.78445625 C245.76951523 49.75893279 248.02715351 49.76386782 250.28669739 49.77635193 C255.09001397 49.79707236 259.89276575 49.77746728 264.69604492 49.75537109 C270.24886628 49.73418457 275.80109673 49.72989258 281.35390663 49.75587273 C283.56426628 49.7592024 285.77346504 49.73811493 287.98368835 49.71546936 C299.67451665 49.69022036 308.81097975 52.11656057 317.50854492 60.19287109 C322.95294033 66.09096611 325.20304376 72.98574812 326.04467773 80.85546875 C326.17607147 82.07322495 326.17607147 82.07322495 326.31011963 83.31558228 C326.40834015 84.24484024 326.40834015 84.24484024 326.50854492 85.19287109 C327.16205933 84.95341263 327.81557373 84.71395416 328.4888916 84.46723938 C334.72218099 82.18402714 340.95681059 79.90451591 347.19287872 77.62890339 C350.39696533 76.4595554 353.60056122 75.28890294 356.80297852 74.11499023 C415.79700205 52.50229111 415.79700205 52.50229111 447.82495117 66.38818359 C456.70702141 70.53299359 469.73905113 77.91273637 473.50854492 87.19287109 C473.44604492 90.19287109 473.44604492 90.19287109 472.50854492 93.19287109 C468.70048748 96.74675972 464.44677114 98.91430946 459.81323242 101.16943359 C458.70250366 101.71956367 458.70250366 101.71956367 457.56933594 102.2808075 C455.99189417 103.06149725 454.41314172 103.83954339 452.83319092 104.61514282 C448.71885294 106.6352023 444.6141342 108.67463672 440.50854492 110.71240234 C439.70899384 111.10866318 438.90944275 111.50492401 438.08566284 111.91319275 C432.4753196 114.69823305 426.90669099 117.55065892 421.38354492 120.50537109 C413.04194794 124.96178802 404.58326006 129.17011702 396.11499023 133.37988281 C389.7450904 136.55363455 383.41478543 139.78480737 377.13354492 143.13037109 C368.7215434 147.60987278 360.20177182 151.86491039 351.66882324 156.10760498 C344.36275657 159.74213085 337.08722914 163.42121591 329.88354492 167.25537109 C286.22266906 190.40601351 242.20825821 206.73612393 192.61401367 191.68896484 C191.76668671 191.43278885 190.91935974 191.17661285 190.0463562 190.91267395 C177.9261459 187.1709783 166.04227116 182.7379149 154.13354492 178.38037109 C152.23406551 177.68825936 150.33426505 176.99703458 148.43441963 176.30592823 C124.75892875 167.69300593 101.12376296 158.9695753 77.50854492 150.19287109 C77.53174805 150.86833984 77.55495117 151.54380859 77.57885742 152.23974609 C77.5969043 153.13177734 77.61495117 154.02380859 77.63354492 154.94287109 C77.65674805 155.82458984 77.67995117 156.70630859 77.70385742 157.61474609 C77.49725217 160.34193536 76.98160333 161.90602517 75.50854492 164.19287109 C72.42726073 165.73351319 69.18369359 165.34899564 65.80175781 165.35400391 C65.00649185 165.35896881 64.21122589 165.36393372 63.39186096 165.36904907 C60.75496565 165.38368227 58.11813046 165.39047407 55.48120117 165.39599609 C53.65278623 165.40174592 51.82437131 165.40750367 49.99595642 165.41326904 C46.16006183 165.42378186 42.32418822 165.42962291 38.48828125 165.43310547 C33.56731057 165.43859547 28.64661586 165.46263303 23.72573185 165.49107742 C19.94855431 165.50967704 16.17144365 165.51490794 12.39422417 165.51644135 C10.57969082 165.5194737 8.7651588 165.52752175 6.95067024 165.54062653 C4.41514027 165.55763385 1.88029003 165.55582019 -0.65527344 165.54931641 C-1.40810608 165.55853119 -2.16093872 165.56774597 -2.93658447 165.57723999 C-8.01776533 165.53629944 -8.01776533 165.53629944 -10.41871643 163.79559326 C-12.660541 160.44620155 -12.62128809 158.16003369 -12.63189697 154.13957214 C-12.63760712 152.84826889 -12.64331726 151.55696564 -12.64920044 150.22653198 C-12.65044586 148.78717051 -12.65157095 147.34780892 -12.65258789 145.90844727 C-12.65721504 144.39904153 -12.66223956 142.88963696 -12.66763306 141.38023376 C-12.68076966 137.27270991 -12.68720455 133.16520241 -12.69164371 129.05766082 C-12.69457263 126.49236502 -12.6986771 123.92707371 -12.70314789 121.36178017 C-12.71682661 113.338321 -12.72649123 105.31487207 -12.73034978 97.29140204 C-12.73483054 88.02451479 -12.75237763 78.75777504 -12.78135037 69.49093264 C-12.80295802 62.33163467 -12.81305358 55.17237823 -12.8143909 48.01304799 C-12.81543966 43.73549536 -12.82136238 39.45808132 -12.83921051 35.18056297 C-12.85567522 31.15618322 -12.85785457 27.13204644 -12.8490715 23.10764503 C-12.84830024 21.63102188 -12.85265557 20.15438575 -12.86252975 18.67779541 C-12.87522506 16.66094353 -12.86758954 14.64399429 -12.85894775 12.62712097 C-12.86041431 11.49867862 -12.86188087 10.37023626 -12.86339188 9.20759869 C-12.44426136 5.81034318 -11.51868155 3.92661082 -9.49145508 1.19287109 C-6.4649565 -0.32037819 -3.32154156 0.01930333 0 0 Z M2.50854492 15.19287109 C2.50854492 60.07287109 2.50854492 104.95287109 2.50854492 151.19287109 C22.30854492 151.19287109 42.10854492 151.19287109 62.50854492 151.19287109 C62.50854492 106.31287109 62.50854492 61.43287109 62.50854492 15.19287109 C42.70854492 15.19287109 22.90854492 15.19287109 2.50854492 15.19287109 Z M77.50854492 32.19287109 C77.50854492 65.85287109 77.50854492 99.51287109 77.50854492 134.19287109 C100.08084729 142.50898249 122.65047524 150.81012384 145.28759766 158.94451904 C150.44768215 160.79893472 155.60701873 162.65542801 160.76606369 164.51273346 C162.61755762 165.1789948 164.46937518 165.84435656 166.32119751 166.50970459 C171.63108797 168.42050401 176.93530131 170.34248781 182.21899414 172.32470703 C183.07717239 172.64593033 183.93535065 172.96715363 184.8195343 173.29811096 C186.34473302 173.87139098 187.86823924 174.44921228 189.389328 175.03330994 C197.19643327 177.96944352 205.31254245 179.71708718 213.50854492 181.19287109 C214.56299805 181.38494141 215.61745117 181.57701172 216.70385742 181.77490234 C243.4273336 184.71064357 269.75750024 180.89968385 293.71948242 168.63818359 C295.12437022 167.9276173 296.52940714 167.21734579 297.93457031 166.50732422 C298.67474396 166.13212646 299.4149176 165.75692871 300.17752075 165.37036133 C304.30598632 163.2849141 308.44945788 161.22960509 312.59057617 159.16943359 C315.26600159 157.83555202 317.94110763 156.50103134 320.61621094 155.16650391 C322.41370217 154.27027306 324.21155173 153.37476047 326.00976562 152.47998047 C336.34711905 147.33531346 346.63187603 142.11183902 356.83564758 136.70669556 C363.67266577 133.08964814 370.57476693 129.62125599 377.50854492 126.19287109 C386.17791025 121.88819743 394.79680363 117.50631981 403.33959961 112.95507812 C411.19347712 108.79004001 419.15972388 104.85392072 427.11987305 100.89697266 C435.33081317 96.80620875 443.4576085 92.59032977 451.50854492 88.19287109 C451.50854492 87.53287109 451.50854492 86.87287109 451.50854492 86.19287109 C439.33672264 78.46592074 427.68864286 73.96404645 413.13354492 73.63037109 C412.07550659 73.58976562 412.07550659 73.58976562 410.99609375 73.54833984 C395.48747889 73.65856209 379.26860893 81.66035132 364.94604492 86.94287109 C362.99120159 87.66108476 361.03628566 88.37910085 359.08129883 89.09692383 C356.190774 90.15888499 353.30060426 91.22176482 350.41149902 92.2875824 C345.17164611 94.22009182 339.92357636 96.12424526 334.66088867 97.99365234 C332.56840907 98.74747063 330.47595761 99.50136708 328.38354492 100.25537109 C327.4933667 100.5637793 326.60318848 100.8721875 325.68603516 101.18994141 C320.15548721 103.21166453 315.78394662 105.89386293 311.13012695 109.50708008 C303.55417501 114.37874595 296.68109517 114.63090868 287.89794922 114.59692383 C286.65314285 114.60378708 285.40833649 114.61065033 284.12580872 114.61772156 C280.73344056 114.63282348 277.34162475 114.63450264 273.94926429 114.62877917 C271.11336733 114.62567821 268.27751963 114.63178901 265.44162971 114.63781792 C258.75515238 114.65182962 252.06880295 114.65032669 245.38232422 114.63891602 C238.48496275 114.62740566 231.58798879 114.64156657 224.6906783 114.66831249 C218.76097969 114.69044486 212.83140298 114.69711344 206.90166599 114.69123608 C203.36311307 114.68786325 199.82480926 114.69030431 196.28629112 114.70748711 C192.34809404 114.72578023 188.41037792 114.71179474 184.47216797 114.69458008 C182.71185745 114.70908203 182.71185745 114.70908203 180.91598511 114.72387695 C179.31162346 114.70912575 179.31162346 114.70912575 177.67485046 114.69407654 C176.27871033 114.69376261 176.27871033 114.69376261 174.85436535 114.69344234 C172.50854492 114.19287109 172.50854492 114.19287109 170.68174458 112.38810825 C168.89090084 109.03716394 169.5155774 106.76755418 170.50854492 103.19287109 C173.51587103 101.12335677 176.06703446 100.94264843 179.65670776 100.9413147 C180.69689056 100.93593185 181.73707336 100.93054901 182.80877686 100.92500305 C183.94446106 100.92912704 185.08014526 100.93325104 186.25024414 100.9375 C187.45063324 100.93387955 188.65102234 100.93025909 189.88778687 100.92652893 C193.17714012 100.91783089 196.46637926 100.91761981 199.75573874 100.91988039 C203.20162583 100.9191321 206.64744042 100.90406536 210.09329224 100.88949585 C221.82787514 100.84249957 233.56244629 100.81853092 245.29711914 100.81201172 C251.78037448 100.80825794 258.26343641 100.79020357 264.74660885 100.75691736 C268.17522102 100.74003329 271.60348142 100.73087264 275.0321312 100.73985672 C278.85773692 100.74691326 282.68252792 100.72967215 286.50805664 100.70703125 C287.63969238 100.7152037 288.77132812 100.72337616 289.93725586 100.73179626 C297.26428743 100.65457269 300.85530785 99.74197789 306.15307617 94.59521484 C310.48346372 89.16412679 311.12364231 84.94733671 310.50854492 78.19287109 C308.69457892 72.7509731 305.12591854 69.4145386 300.50854492 66.19287109 C297.03285002 65.03430613 294.35301213 65.08227057 290.68554688 65.09863281 C289.25580364 65.10141927 287.82606017 65.10408917 286.39631653 65.10665894 C285.63911631 65.10970913 284.88191608 65.11275932 284.1017704 65.11590195 C280.08171589 65.12726531 276.06177317 65.10673528 272.04174805 65.09130859 C266.93061704 65.07304135 261.82008869 65.06427348 256.70898438 65.09326172 C252.57480619 65.11587052 248.44193655 65.10428045 244.30785179 65.07025528 C242.73750371 65.06350905 241.16704953 65.06910284 239.59679604 65.08761215 C225.7815521 65.23991962 225.7815521 65.23991962 220.64331055 60.77539062 C219.57188366 59.60493954 218.52271511 58.41326863 217.50854492 57.19287109 C198.75471624 41.30460474 177.72928197 31.96145917 152.8894043 32.0793457 C152.05581642 32.07922517 151.22222855 32.07910463 150.36338043 32.07898045 C147.69299045 32.07972061 145.02267225 32.08730756 142.35229492 32.09521484 C140.69246453 32.09668704 139.03263368 32.09770604 137.37280273 32.0982666 C131.25137634 32.10348725 125.12995991 32.11744851 119.00854492 32.13037109 C105.31354492 32.15099609 91.61854492 32.17162109 77.50854492 32.19287109 Z " fill="#2D9931" transform="translate(25.491455078125,270.80712890625)"/>
<path d="M0 0 C22.77872171 19.12871882 37.39982835 41.33780566 44.6328125 70.2109375 C44.86742187 71.12617188 45.10203125 72.04140625 45.34375 72.984375 C52.31133348 104.99486721 44.54385491 138.64085333 27.6328125 166.2109375 C9.1124319 194.00570026 -19.35643232 212.71648435 -51.8046875 219.98046875 C-54.65838063 220.49695748 -57.48463827 220.8969965 -60.3671875 221.2109375 C-61.37136719 221.32050781 -62.37554687 221.43007813 -63.41015625 221.54296875 C-94.97605674 224.54352963 -128.21933726 216.34715037 -153.171875 196.21484375 C-156.65763816 193.30776284 -160.02829363 190.28460287 -163.3671875 187.2109375 C-164.05296875 186.59605469 -164.73875 185.98117188 -165.4453125 185.34765625 C-183.8013141 168.063851 -195.48747364 142.9000257 -199.3671875 118.2109375 C-199.54894531 117.18484375 -199.73070312 116.15875 -199.91796875 115.1015625 C-203.83127673 81.20891248 -195.35509011 47.24998136 -174.14208984 20.35791016 C-153.36247949 -4.77770105 -124.45352412 -21.63607773 -91.8828125 -25.56201172 C-58.77504101 -28.55019373 -26.31610696 -20.89161695 0 0 Z M-157.16015625 23.671875 C-169.91128242 38.34131219 -179.21432834 55.10348187 -183.3671875 74.2109375 C-183.62773926 75.40384399 -183.62773926 75.40384399 -183.89355469 76.62084961 C-187.38487327 93.89852025 -186.64655394 112.39249921 -181.3671875 129.2109375 C-181.15288086 129.89833008 -180.93857422 130.58572266 -180.71777344 131.29394531 C-176.12789811 145.53124418 -169.11115478 157.81831632 -159.3671875 169.2109375 C-158.92761719 169.77167969 -158.48804688 170.33242187 -158.03515625 170.91015625 C-141.47166771 192.01613998 -114.04459351 203.33736601 -88.1796875 206.8203125 C-60.46373966 209.66006125 -31.99524134 201.82180175 -10.1015625 184.484375 C-9.19921875 183.73414063 -8.296875 182.98390625 -7.3671875 182.2109375 C-6.50609375 181.50195312 -5.645 180.79296875 -4.7578125 180.0625 C16.30583018 161.94253409 30.35063228 135.34699592 32.54296875 107.48828125 C33.77110647 76.35765984 25.20513204 47.74542527 4.08398438 24.50683594 C-2.45967282 17.4867753 -9.16894382 11.27380272 -17.3671875 6.2109375 C-18.66269531 5.35628906 -18.66269531 5.35628906 -19.984375 4.484375 C-63.89938498 -23.12977255 -122.01981991 -13.22873793 -157.16015625 23.671875 Z " fill="#2D9931" transform="translate(398.3671875,69.7890625)"/>
<path d="M0 0 C2.4375 1.5 2.4375 1.5 4 4 C4.32111824 6.75845833 4.18630402 9.20543968 4 12 C4.94875 12.061875 5.8975 12.12375 6.875 12.1875 C15.9030166 13.53714289 23.53858583 18.84285766 29 26 C32.95043682 32.78201354 36.1264527 39.01580183 36.3125 46.9375 C36.36857422 48.49791016 36.36857422 48.49791016 36.42578125 50.08984375 C35.89804895 53.69682142 34.86696392 54.82007428 32 57 C28.75633459 57.47303454 26.8351288 57.42691286 23.90625 55.9296875 C21.13680651 53.12619348 21.07934926 50.5409349 20.5 46.6875 C19.64673354 41.04583689 18.35449686 37.61243318 15 33 C14.67 32.01 14.34 31.02 14 30 C12.25132517 28.91568906 12.25132517 28.91568906 10 28 C8.02 27.01 6.04 26.02 4 25 C4 41.17 4 57.34 4 74 C6.31 74.33 8.62 74.66 11 75 C22.07048448 78.89053225 28.54206804 86.32002078 33.87109375 96.484375 C37.70279057 105.02282743 37.36569795 117.17786514 34.4375 126 C30.36968221 135.35456356 23.94562108 142.12417404 15 147 C11.71170619 148.2605874 8.43540431 149.23251606 5 150 C4.938125 151.2375 4.87625 152.475 4.8125 153.75 C4.38881286 157.01761454 4.06978326 157.9158496 1.875 160.5625 C-1.95754537 162.47877268 -3.94101756 162.2778278 -8 161 C-10.73414771 158.00125735 -10.98736111 156.25699071 -11.1875 152.1875 C-11.0946875 150.6096875 -11.0946875 150.6096875 -11 149 C-11.99 148.9175 -12.98 148.835 -14 148.75 C-22.44963533 147.47746456 -29.52216561 142.39897291 -35 136 C-40.44631206 127.51376939 -43.64288351 119.12541523 -43 109 C-41.875 106.5625 -41.875 106.5625 -40 105 C-36.34121638 103.80691838 -34.70002308 103.67332256 -31.1875 105.3125 C-27.68417165 108.01506758 -27.7260369 110.51110817 -27.125 114.75 C-25.89833371 122.24430425 -23.83116159 126.96399681 -18 132 C-14.535 133.98 -14.535 133.98 -11 136 C-11 119.83 -11 103.66 -11 87 C-12.65 86.67 -14.3 86.34 -16 86 C-24.91981956 82.79104052 -31.93873045 76.59855486 -36.4375 68.3125 C-41.51606798 57.066089 -42.17242482 45.98853699 -38.0625 34.34375 C-33.42683897 23.91351267 -25.44704792 17.22407714 -15 13 C-14.01 12.67 -13.02 12.34 -12 12 C-11.30400689 9.99007796 -11.30400689 9.99007796 -11 7.625 C-9.91375573 0.6775627 -6.98646347 -0.85798674 0 0 Z M-21.53515625 31.421875 C-26.76172856 37.36770038 -28.65601851 43.37417489 -28.41015625 51.15625 C-27.34077429 58.57063162 -23.58317163 64.18723811 -17.84375 68.84375 C-15.57639876 70.34213626 -15.57639876 70.34213626 -11 72 C-11 56.49 -11 40.98 -11 25 C-14.52897642 25 -19.0657137 29.13465595 -21.53515625 31.421875 Z M4 90 C4 105.18 4 120.36 4 136 C10.67005005 134.66598999 14.19507227 131.50029979 18.40234375 126.25 C22.13950362 120.07903139 21.78205054 112.96513763 21 106 C19.31710968 99.44724581 14.61302815 94.6061354 9 91 C7.35 90.67 5.7 90.34 4 90 Z " fill="#2D9931" transform="translate(325,87)"/>
</svg>
