<?xml version="1.0" encoding="UTF-8"?>
<!DOCTYPE svg PUBLIC "-//W3C//DTD SVG 1.1//EN" "http://www.w3.org/Graphics/SVG/1.1/DTD/svg11.dtd">
<svg xmlns="http://www.w3.org/2000/svg" version="1.1" width="512px" height="512px" style="shape-rendering:geometricPrecision; text-rendering:geometricPrecision; image-rendering:optimizeQuality; fill-rule:evenodd; clip-rule:evenodd" xmlns:xlink="http://www.w3.org/1999/xlink">
<g><path style="opacity:0.975" fill="#030303" d="M 41.5,5.5 C 116.211,5.01224 190.878,5.51224 265.5,7C 277.851,12.0155 286.017,20.8488 290,33.5C 291.457,61.4575 291.957,89.4575 291.5,117.5C 359.834,117.333 428.167,117.5 496.5,118C 497.667,118.5 498.5,119.333 499,120.5C 499.667,178.5 499.667,236.5 499,294.5C 498.5,295.667 497.667,296.5 496.5,297C 428.167,297.5 359.834,297.667 291.5,297.5C 291.2,302.099 291.533,306.599 292.5,311C 295.639,311.488 298.472,312.655 301,314.5C 312.047,304.871 322.713,305.204 333,315.5C 345.92,337.671 358.586,360.004 371,382.5C 375.077,392.807 377.577,403.474 378.5,414.5C 383.247,414.136 387.081,415.802 390,419.5C 392.667,424.167 395.333,428.833 398,433.5C 402.147,439.324 402.48,445.324 399,451.5C 368.248,469.46 337.415,487.293 306.5,505C 301.816,506.102 297.483,505.436 293.5,503C 288.351,495.203 283.851,487.037 280,478.5C 274.59,483.956 268.09,487.456 260.5,489C 187.833,489.667 115.167,489.667 42.5,489C 26.3333,484.833 16.1667,474.667 12,458.5C 11.3333,317.833 11.3333,177.167 12,36.5C 15.6067,20.0636 25.4401,9.73024 41.5,5.5 Z"/></g>
<g><path style="opacity:1" fill="#298ef3" d="M 55.5,15.5 C 52.5271,17.8062 49.8605,20.4728 47.5,23.5C 41.9738,23.8214 36.6405,23.4881 31.5,22.5C 38.3697,16.546 46.3697,14.2126 55.5,15.5 Z"/></g>
<g><path style="opacity:1" fill="#5aaafa" d="M 55.5,15.5 C 123.167,15.3333 190.834,15.5 258.5,16C 264.08,17.1218 268.747,19.7884 272.5,24C 245.167,24.3333 217.833,24.6667 190.5,25C 185.325,26.3871 180.658,28.7204 176.5,32C 172.263,36.4804 168.263,41.1471 164.5,46C 155.748,51.8527 147.082,51.8527 138.5,46C 133.811,40.3126 128.811,34.9793 123.5,30C 117.652,26.455 111.319,24.6217 104.5,24.5C 85.674,23.503 66.674,23.1697 47.5,23.5C 49.8605,20.4728 52.5271,17.8062 55.5,15.5 Z"/></g>
<g><path style="opacity:1" fill="#040506" d="M 146.5,16.5 C 158.685,15.1916 164.518,20.525 164,32.5C 161.053,40.7215 155.22,43.8882 146.5,42C 139.547,38.1579 137.047,32.3246 139,24.5C 140.69,20.9791 143.19,18.3124 146.5,16.5 Z"/></g>
<g><path style="opacity:1" fill="#4385c9" d="M 31.5,22.5 C 36.6405,23.4881 41.9738,23.8214 47.5,23.5C 66.674,23.1697 85.674,23.503 104.5,24.5C 79.4978,24.6666 54.4978,24.5 29.5,24C 30.0442,23.2828 30.7109,22.7828 31.5,22.5 Z"/></g>
<g><path style="opacity:1" fill="#dedef3" d="M 149.5,26.5 C 154.159,26.0146 155.492,27.848 153.5,32C 148.728,32.8104 147.395,30.9771 149.5,26.5 Z"/></g>
<g><path style="opacity:1" fill="#d1d1f0" d="M 41.5,34.5 C 40.5035,167.126 40.1701,299.793 40.5,432.5C 34.5,432.5 28.5,432.5 22.5,432.5C 22.5,301.167 22.5,169.833 22.5,38.5C 22.33,37.1779 22.6634,36.0113 23.5,35C 29.4908,34.5005 35.4908,34.3338 41.5,34.5 Z"/></g>
<g><path style="opacity:1" fill="#e8e8fe" d="M 41.5,34.5 C 64.5024,34.3334 87.5024,34.5 110.5,35C 117.19,37.3645 122.357,41.5311 126,47.5C 141.716,64.051 158.049,64.7177 175,49.5C 178.619,42.5491 184.119,37.7158 191.5,35C 220.839,34.1668 250.172,34.3335 279.5,35.5C 280.491,62.789 280.825,90.1223 280.5,117.5C 237.499,117.333 194.499,117.5 151.5,118C 150.667,118.833 149.833,119.667 149,120.5C 148.333,178.5 148.333,236.5 149,294.5C 149.5,295 150,295.5 150.5,296C 161.828,296.5 173.162,296.667 184.5,296.5C 184.818,301.817 186.318,306.817 189,311.5C 198.707,328.415 208.541,345.249 218.5,362C 199.043,365.411 192.209,376.578 198,395.5C 205.178,407.861 212.345,420.194 219.5,432.5C 159.833,432.5 100.167,432.5 40.5,432.5C 40.1701,299.793 40.5035,167.126 41.5,34.5 Z"/></g>
<g><path style="opacity:0.9" fill="#000000" d="M 338.5,63.5 C 345.74,62.8896 348.24,65.8896 346,72.5C 345.097,73.7014 343.931,74.5348 342.5,75C 371.167,75.3333 399.833,75.6667 428.5,76C 431.778,78.288 432.278,81.1213 430,84.5C 428.933,85.1905 427.766,85.6905 426.5,86C 398.833,86.3333 371.167,86.6667 343.5,87C 348.249,89.9699 348.582,93.3032 344.5,97C 342.5,97.6667 340.5,97.6667 338.5,97C 333.5,93.3333 328.5,89.6667 323.5,86C 320.064,82.9401 319.731,79.6068 322.5,76C 328.084,72.055 333.417,67.8883 338.5,63.5 Z"/></g>
<g><path style="opacity:1" fill="#1a791b" d="M 158.5,128.5 C 268.665,127.501 378.999,127.167 489.5,127.5C 489.5,180.833 489.5,234.167 489.5,287.5C 399.998,287.833 310.665,287.499 221.5,286.5C 310.5,286.5 399.5,286.5 488.5,286.5C 488.5,233.833 488.5,181.167 488.5,128.5C 378.5,128.5 268.5,128.5 158.5,128.5 Z"/></g>
<g><path style="opacity:1" fill="#2cd32c" d="M 158.5,128.5 C 268.5,128.5 378.5,128.5 488.5,128.5C 488.5,181.167 488.5,233.833 488.5,286.5C 399.5,286.5 310.5,286.5 221.5,286.5C 217.3,280.902 211.633,278.235 204.5,278.5C 197.591,278.453 192.258,281.287 188.5,287C 178.506,287.5 168.506,287.666 158.5,287.5C 158.5,234.5 158.5,181.5 158.5,128.5 Z"/></g>
<g><path style="opacity:1" fill="#010401" d="M 195.5,141.5 C 280.834,141.333 366.167,141.5 451.5,142C 452.667,142.5 453.5,143.333 454,144.5C 454.857,156.023 461.023,162.19 472.5,163C 473.667,163.5 474.5,164.333 475,165.5C 475.667,193.5 475.667,221.5 475,249.5C 474.5,250.667 473.667,251.5 472.5,252C 461,252.833 454.833,259 454,270.5C 453.5,271.667 452.667,272.5 451.5,273C 366.167,273.667 280.833,273.667 195.5,273C 194.667,272.167 193.833,271.333 193,270.5C 192.564,258.731 186.397,252.564 174.5,252C 173.667,251.167 172.833,250.333 172,249.5C 171.333,221.5 171.333,193.5 172,165.5C 172.833,164.667 173.667,163.833 174.5,163C 186.017,162.15 192.184,155.983 193,144.5C 194.045,143.627 194.878,142.627 195.5,141.5 Z"/></g>
<g><path style="opacity:1" fill="#112211" d="M 444.5,151.5 C 415.995,151.169 387.662,151.502 359.5,152.5C 358.957,152.44 358.624,152.107 358.5,151.5C 387.331,150.17 415.997,150.17 444.5,151.5 Z"/></g>
<g><path style="opacity:1" fill="#7cfd7c" d="M 183.5,243.5 C 182.167,219.5 182.167,195.5 183.5,171.5C 192.785,168.215 199.119,161.881 202.5,152.5C 231.161,151.333 259.828,151.167 288.5,152C 263.313,169.559 253.813,193.392 260,223.5C 264.466,240.299 273.966,253.466 288.5,263C 259.828,263.833 231.161,263.667 202.5,262.5C 199.481,252.815 193.148,246.481 183.5,243.5 Z"/></g>
<g><path style="opacity:1" fill="#7cfe7c" d="M 359.5,152.5 C 387.662,151.502 415.995,151.169 444.5,151.5C 447.591,162.257 454.591,168.924 465.5,171.5C 465.5,195.5 465.5,219.5 465.5,243.5C 454.5,245.833 447.833,252.5 445.5,263.5C 416.498,263.667 387.498,263.5 358.5,263C 383.268,245.943 393.101,222.443 388,192.5C 383.631,175.4 374.131,162.067 359.5,152.5 Z"/></g>
<g><path style="opacity:1" fill="#2cd32c" d="M 301.5,258.5 C 296.221,253.049 291.055,247.382 286,241.5C 276.957,227.083 273.957,211.416 277,194.5C 281.745,177.277 291.578,163.943 306.5,154.5C 334.767,147.315 356.934,155.982 373,180.5C 385.443,208.859 379.943,233.026 356.5,253C 339.006,264.574 320.673,266.407 301.5,258.5 Z"/></g>
<g><path style="opacity:1" fill="#27b331" d="M 306.5,154.5 C 291.578,163.943 281.745,177.277 277,194.5C 273.957,211.416 276.957,227.083 286,241.5C 291.055,247.382 296.221,253.049 301.5,258.5C 279.97,248.475 268.637,231.475 267.5,207.5C 269.069,181.342 282.069,163.675 306.5,154.5 Z"/></g>
<g><path style="opacity:1" fill="#010501" d="M 320.5,158.5 C 323.365,158.055 325.865,158.722 328,160.5C 328.333,163.833 328.667,167.167 329,170.5C 337.334,172.168 343.334,176.835 347,184.5C 348.578,189.182 347.078,192.182 342.5,193.5C 339.259,192.384 337.425,190.051 337,186.5C 334.971,183.404 332.138,181.738 328.5,181.5C 328.169,189.196 328.503,196.862 329.5,204.5C 343.091,208.03 348.925,216.697 347,230.5C 343.832,238.757 337.832,243.423 329,244.5C 328.667,247.833 328.333,251.167 328,254.5C 325.205,257.113 322.371,257.113 319.5,254.5C 318.574,250.906 318.241,247.24 318.5,243.5C 308.096,241.597 301.762,235.43 299.5,225C 300.786,221.024 303.453,219.69 307.5,221C 309.235,223.192 310.402,225.692 311,228.5C 312.739,230.741 314.906,232.408 317.5,233.5C 318.833,226.167 318.833,218.833 317.5,211.5C 301.968,205.388 297.468,194.722 304,179.5C 307.415,174.875 311.915,171.875 317.5,170.5C 318.066,166.33 319.066,162.33 320.5,158.5 Z"/></g>
<g><path style="opacity:1" fill="#5ebf5e" d="M 183.5,171.5 C 182.167,195.5 182.167,219.5 183.5,243.5C 182.168,231.852 181.501,219.852 181.5,207.5C 181.501,195.148 182.168,183.148 183.5,171.5 Z"/></g>
<g><path style="opacity:1" fill="#2bd02b" d="M 317.5,181.5 C 318.49,187.645 318.823,193.978 318.5,200.5C 313.481,199.161 310.814,195.827 310.5,190.5C 310.99,186.016 313.323,183.016 317.5,181.5 Z"/></g>
<g><path style="opacity:1" fill="#0a2c0a" d="M 317.5,181.5 C 317.56,180.957 317.893,180.624 318.5,180.5C 319.818,187.322 319.818,193.989 318.5,200.5C 318.823,193.978 318.49,187.645 317.5,181.5 Z"/></g>
<g><path style="opacity:1" fill="#020502" d="M 211.5,202.5 C 217.176,202.334 222.843,202.501 228.5,203C 231.167,206 231.167,209 228.5,212C 222.833,212.667 217.167,212.667 211.5,212C 207.581,208.84 207.581,205.673 211.5,202.5 Z"/></g>
<g><path style="opacity:1" fill="#030602" d="M 418.5,202.5 C 424.509,202.334 430.509,202.501 436.5,203C 439.418,206.472 439.085,209.472 435.5,212C 430.167,212.667 424.833,212.667 419.5,212C 415.968,209.172 415.634,206.005 418.5,202.5 Z"/></g>
<g><path style="opacity:1" fill="#2ac92a" d="M 328.5,214.5 C 336.686,217.203 339.186,222.537 336,230.5C 334.084,232.209 331.918,233.543 329.5,234.5C 328.503,227.866 328.17,221.2 328.5,214.5 Z"/></g>
<g><path style="opacity:1" fill="#f6c593" d="M 295.5,461.5 C 292.48,457.149 288.48,453.983 283.5,452C 273.167,449.426 262.834,446.759 252.5,444C 248.385,441.552 244.552,438.719 241,435.5C 230.828,419.161 221.162,402.494 212,385.5C 209.871,381.325 210.038,377.325 212.5,373.5C 218.924,371.122 224.09,372.789 228,378.5C 233,387.167 238,395.833 243,404.5C 246.162,407.17 248.995,406.837 251.5,403.5C 256.989,403.496 258.822,400.829 257,395.5C 236.89,360.941 217.057,326.275 197.5,291.5C 199.332,289.106 201.832,288.106 205,288.5C 208.2,288.147 210.867,289.147 213,291.5C 227.455,316.914 242.289,342.08 257.5,367C 261.459,367.718 263.792,366.051 264.5,362C 261.466,355.286 257.966,348.786 254,342.5C 253.867,331.787 258.701,328.454 268.5,332.5C 272.836,338.501 276.669,344.834 280,351.5C 284.501,355.916 287.668,355.083 289.5,349C 286.731,343.538 283.898,338.038 281,332.5C 280.421,322.431 284.921,319.264 294.5,323C 299.167,330.667 303.833,338.333 308.5,346C 313.068,347.65 315.734,346.15 316.5,341.5C 313.742,336.487 311.408,331.32 309.5,326C 310.497,318.502 314.497,316.169 321.5,319C 333.377,337.918 344.877,357.085 356,376.5C 364.233,390.1 368.066,404.767 367.5,420.5C 343.466,434.222 319.466,447.889 295.5,461.5 Z"/></g>
<g><path style="opacity:1" fill="#e0ad79" d="M 197.5,291.5 C 217.057,326.275 236.89,360.941 257,395.5C 258.822,400.829 256.989,403.496 251.5,403.5C 251.702,401.011 251.202,398.677 250,396.5C 231.414,364.997 213.081,333.33 195,301.5C 194.028,297.632 194.861,294.299 197.5,291.5 Z"/></g>
<g><path style="opacity:1" fill="#e6e6fc" d="M 228.5,297.5 C 245.833,297.5 263.167,297.5 280.5,297.5C 280.828,302.875 280.495,308.208 279.5,313.5C 276.146,316.021 273.312,319.021 271,322.5C 261.315,318.351 253.148,320.351 246.5,328.5C 239.719,318.603 233.719,308.27 228.5,297.5 Z"/></g>
<g><path style="opacity:0.903" fill="#000000" d="M 475.5,317.5 C 477.857,317.337 480.19,317.503 482.5,318C 488.092,322.38 493.592,326.88 499,331.5C 499.667,333.5 499.667,335.5 499,337.5C 493.167,342 487.333,346.5 481.5,351C 474.495,352.324 471.995,349.49 474,342.5C 474.903,341.299 476.069,340.465 477.5,340C 448.833,339.667 420.167,339.333 391.5,339C 388.667,335.337 389,332.004 392.5,329C 420.5,328.667 448.5,328.333 476.5,328C 472.935,324.784 472.602,321.284 475.5,317.5 Z"/></g>
<g><path style="opacity:1" fill="#e0ac79" d="M 212.5,373.5 C 210.038,377.325 209.871,381.325 212,385.5C 221.162,402.494 230.828,419.161 241,435.5C 244.552,438.719 248.385,441.552 252.5,444C 262.834,446.759 273.167,449.426 283.5,452C 288.48,453.983 292.48,457.149 295.5,461.5C 293.813,463.166 291.813,464.5 289.5,465.5C 285.147,461.315 280.147,458.148 274.5,456C 263.448,454.238 252.781,451.238 242.5,447C 240,444.5 237.5,442 235,439.5C 225.08,422.663 215.414,405.663 206,388.5C 204.387,381.737 206.553,376.737 212.5,373.5 Z"/></g>
<g><path style="opacity:1" fill="#5aabfb" d="M 316.5,486.5 C 312.346,480.87 308.679,474.87 305.5,468.5C 330.188,453.734 355.021,439.067 380,424.5C 383.833,430.833 387.667,437.167 391.5,443.5C 366.723,458.289 341.723,472.622 316.5,486.5 Z"/></g>
<g><path style="opacity:1" fill="#63636e" d="M 22.5,38.5 C 22.5,169.833 22.5,301.167 22.5,432.5C 28.5,432.5 34.5,432.5 40.5,432.5C 100.167,432.5 159.833,432.5 219.5,432.5C 153.669,433.499 87.6688,433.832 21.5,433.5C 21.1671,301.666 21.5004,169.999 22.5,38.5 Z"/></g>
<g><path style="opacity:1" fill="#3971a8" d="M 225.5,443.5 C 163.833,443.5 102.167,443.5 40.5,443.5C 34.5,443.5 28.5,443.5 22.5,443.5C 22.5,447.5 22.5,451.5 22.5,455.5C 21.5151,451.366 21.1818,447.032 21.5,442.5C 89.6687,442.167 157.669,442.501 225.5,443.5 Z"/></g>
<g><path style="opacity:1" fill="#2a91f8" d="M 40.5,443.5 C 38.8254,457.326 43.1587,468.826 53.5,478C 50.5184,478.498 47.5184,478.665 44.5,478.5C 32.3965,475.397 25.0632,467.73 22.5,455.5C 22.5,451.5 22.5,447.5 22.5,443.5C 28.5,443.5 34.5,443.5 40.5,443.5 Z"/></g>
<g><path style="opacity:1" fill="#5aabfb" d="M 40.5,443.5 C 102.167,443.5 163.833,443.5 225.5,443.5C 230.458,450.286 236.791,455.452 244.5,459C 255.034,461.197 265.367,464.031 275.5,467.5C 270.758,473.875 264.425,477.708 256.5,479C 185.665,479.832 114.999,479.665 44.5,478.5C 47.5184,478.665 50.5184,478.498 53.5,478C 43.1587,468.826 38.8254,457.326 40.5,443.5 Z"/></g>
<g><path style="opacity:1" fill="#000102" d="M 130.5,456.5 C 144.171,456.333 157.837,456.5 171.5,457C 174.167,459.667 174.167,462.333 171.5,465C 157.833,465.667 144.167,465.667 130.5,465C 127.939,462.177 127.939,459.343 130.5,456.5 Z"/></g>
<g><path style="opacity:1" fill="#2990f6" d="M 305.5,468.5 C 308.679,474.87 312.346,480.87 316.5,486.5C 312.574,489.807 308.24,492.64 303.5,495C 302.365,495.749 301.365,495.583 300.5,494.5C 297.293,488.585 293.96,482.752 290.5,477C 295.23,473.636 300.23,470.803 305.5,468.5 Z"/></g>
</svg>
