<?xml version="1.0" encoding="UTF-8"?>
<!DOCTYPE svg PUBLIC "-//W3C//DTD SVG 1.1//EN" "http://www.w3.org/Graphics/SVG/1.1/DTD/svg11.dtd">
<svg xmlns="http://www.w3.org/2000/svg" version="1.1" width="512px" height="512px" style="shape-rendering:geometricPrecision; text-rendering:geometricPrecision; image-rendering:optimizeQuality; fill-rule:evenodd; clip-rule:evenodd" xmlns:xlink="http://www.w3.org/1999/xlink">
<g><path style="opacity:0.981" fill="#2d9930" d="M 16.5,-0.5 C 175.833,-0.5 335.167,-0.5 494.5,-0.5C 502.5,2.83333 508.167,8.5 511.5,16.5C 511.5,58.5 511.5,100.5 511.5,142.5C 508.351,150.481 502.684,155.981 494.5,159C 457.502,159.5 420.502,159.667 383.5,159.5C 383.666,163.514 383.499,167.514 383,171.5C 382.626,172.416 382.126,173.25 381.5,174C 378.298,175.483 374.964,175.817 371.5,175C 369.667,174.5 368.5,173.333 368,171.5C 367.5,143.502 367.333,115.502 367.5,87.5C 362.167,87.5 356.833,87.5 351.5,87.5C 351.667,144.834 351.5,202.168 351,259.5C 349.471,262.516 346.971,263.849 343.5,263.5C 340.029,263.849 337.529,262.516 336,259.5C 335.5,202.168 335.333,144.834 335.5,87.5C 282.167,87.5 228.833,87.5 175.5,87.5C 175.333,156.834 175.5,226.167 176,295.5C 192.5,300 203,310.5 207.5,327C 228.256,327.023 248.922,327.689 269.5,329C 271.429,332.256 271.929,335.756 271,339.5C 270.5,341.333 269.333,342.5 267.5,343C 255.5,343.167 243.5,343.333 231.5,343.5C 218.742,343.649 206.075,343.149 193.5,342C 191.597,335.437 189.43,328.937 187,322.5C 180.975,315.071 173.141,311.238 163.5,311C 161.667,310.5 160.5,309.333 160,307.5C 159.5,234.167 159.333,160.834 159.5,87.5C 154.167,87.5 148.833,87.5 143.5,87.5C 143.5,178.167 143.5,268.833 143.5,359.5C 184.835,359.333 226.168,359.5 267.5,360C 270.516,361.529 271.849,364.029 271.5,367.5C 271.849,370.971 270.516,373.471 267.5,375C 222.167,375.667 176.833,375.667 131.5,375C 130.584,374.626 129.75,374.126 129,373.5C 127.505,278.248 127.005,182.915 127.5,87.5C 115.495,87.6665 103.495,87.4999 91.5,87C 88.484,85.4714 87.1506,82.9714 87.5,79.5C 87.1506,76.0286 88.484,73.5286 91.5,72C 200.833,71.3333 310.167,71.3333 419.5,72C 422.516,73.5286 423.849,76.0286 423.5,79.5C 423.849,82.9714 422.516,85.4714 419.5,87C 407.505,87.4999 395.505,87.6665 383.5,87.5C 383.5,106.167 383.5,124.833 383.5,143.5C 418.168,143.667 452.835,143.5 487.5,143C 492,142.5 494.5,140 495,135.5C 495.667,98.1667 495.667,60.8333 495,23.5C 494.5,19 492,16.5 487.5,16C 332.833,15.3333 178.167,15.3333 23.5,16C 19,16.5 16.5,19 16,23.5C 15.3333,60.8333 15.3333,98.1667 16,135.5C 16.5,140 19,142.5 23.5,143C 51.5,143.333 79.5,143.667 107.5,144C 109.333,144.5 110.5,145.667 111,147.5C 111.667,150.167 111.667,152.833 111,155.5C 110.5,157.333 109.333,158.5 107.5,159C 77.1667,159.667 46.8333,159.667 16.5,159C 8.31563,155.981 2.64896,150.481 -0.5,142.5C -0.5,100.5 -0.5,58.5 -0.5,16.5C 2.83333,8.5 8.5,2.83333 16.5,-0.5 Z M 246.5,120.5 C 275.213,118.396 293.713,131.063 302,158.5C 304.577,187.246 292.077,205.746 264.5,214C 235.754,216.577 217.254,204.077 209,176.5C 206.628,147.73 219.128,129.063 246.5,120.5 Z"/></g>
<g><path style="opacity:0.917" fill="#2d9930" d="M 243.5,103.5 C 277.466,100.224 301.632,113.891 316,144.5C 325.302,174.811 317.802,199.977 293.5,220C 274.476,232.158 254.142,234.824 232.5,228C 201.736,213.652 188.236,189.486 192,155.5C 198.681,127.653 215.848,110.319 243.5,103.5 Z M 246.5,120.5 C 219.128,129.063 206.628,147.73 209,176.5C 217.254,204.077 235.754,216.577 264.5,214C 292.077,205.746 304.577,187.246 302,158.5C 293.713,131.063 275.213,118.396 246.5,120.5 Z"/></g>
<g><path style="opacity:0.956" fill="#2d9930" d="M 451.5,511.5 C 406.167,511.5 360.833,511.5 315.5,511.5C 313.856,510.684 312.69,509.35 312,507.5C 311.333,494.167 311.333,480.833 312,467.5C 313.158,465.509 314.658,463.842 316.5,462.5C 300.679,441.843 291.179,418.51 288,392.5C 287.333,365.5 287.333,338.5 288,311.5C 294.355,292.562 307.522,284.728 327.5,288C 340,291.167 347.833,299 351,311.5C 351.5,327.497 351.667,343.497 351.5,359.5C 356.833,359.5 362.167,359.5 367.5,359.5C 367.333,304.832 367.5,250.166 368,195.5C 368.5,193.667 369.667,192.5 371.5,192C 390.514,190.089 406.014,196.589 418,211.5C 448.002,251.151 465.668,295.817 471,345.5C 471.667,354.5 471.667,363.5 471,372.5C 461.674,402.807 452.508,433.14 443.5,463.5C 446.187,463.336 448.854,463.503 451.5,464C 453.333,464.5 454.5,465.667 455,467.5C 455.667,480.833 455.667,494.167 455,507.5C 454.31,509.35 453.144,510.684 451.5,511.5 Z M 383.5,209.5 C 391.231,210.95 397.731,214.616 403,220.5C 432.114,257.814 449.114,300.148 454,347.5C 454.667,354.833 454.667,362.167 454,369.5C 444.392,400.822 434.892,432.155 425.5,463.5C 396.831,463.667 368.165,463.5 339.5,463C 316.328,438.169 304.494,408.669 304,374.5C 303.061,354.457 303.395,334.457 305,314.5C 308.909,306.129 315.409,302.963 324.5,305C 331.053,307.601 334.553,312.434 335,319.5C 335.333,342.167 335.667,364.833 336,387.5C 336.5,389.333 337.667,390.5 339.5,391C 342.964,391.817 346.298,391.483 349.5,390C 350.126,389.25 350.626,388.416 351,387.5C 351.499,383.514 351.666,379.514 351.5,375.5C 360.839,375.666 370.173,375.5 379.5,375C 381.333,374.5 382.5,373.333 383,371.5C 383.5,317.501 383.667,263.501 383.5,209.5 Z M 327.5,479.5 C 364.833,479.5 402.167,479.5 439.5,479.5C 439.5,484.833 439.5,490.167 439.5,495.5C 402.167,495.5 364.833,495.5 327.5,495.5C 327.5,490.167 327.5,484.833 327.5,479.5 Z"/></g>
<g><path style="opacity:0.934" fill="#2d9930" d="M 211.5,399.5 C 214.187,399.336 216.854,399.503 219.5,400C 221.333,400.5 222.5,401.667 223,403.5C 223.333,424.5 223.667,445.5 224,466.5C 230.198,459.968 236.698,453.801 243.5,448C 254.497,446.464 257.997,450.964 254,461.5C 243.167,472.333 232.333,483.167 221.5,494C 217.5,496 213.5,496 209.5,494C 198.667,483.167 187.833,472.333 177,461.5C 173.003,450.964 176.503,446.464 187.5,448C 194.302,453.801 200.802,459.968 207,466.5C 207.333,445.5 207.667,424.5 208,403.5C 208.69,401.65 209.856,400.316 211.5,399.5 Z"/></g>
</svg>
