<svg id="svg" version="1.1" xmlns="http://www.w3.org/2000/svg" xmlns:xlink="http://www.w3.org/1999/xlink" width="400" height="124.375" viewBox="0, 0, 400,124.375"><g id="svgg"><path id="path0" d="M53.306 41.416 C 53.261 41.461,52.142 41.613,50.820 41.752 C 49.498 41.892,47.854 42.078,47.167 42.166 C 46.479 42.254,45.129 42.406,44.167 42.503 C 40.815 42.844,40.909 42.759,42.357 44.121 C 43.844 45.520,44.403 46.147,44.525 46.555 C 44.665 47.021,44.701 78.455,44.562 79.147 C 44.466 79.630,43.847 80.318,41.875 82.135 C 40.913 83.021,40.729 83.000,49.417 83.000 C 53.862 83.000,57.500 82.951,57.500 82.891 C 57.500 82.832,56.750 82.059,55.833 81.175 L 54.167 79.566 54.167 60.450 L 54.167 41.333 53.778 41.333 C 53.564 41.333,53.352 41.371,53.306 41.416 M146.973 41.416 C 146.927 41.461,145.809 41.613,144.487 41.752 C 143.165 41.892,141.521 42.078,140.833 42.166 C 140.146 42.254,138.796 42.404,137.833 42.499 C 134.397 42.840,134.466 42.722,136.542 44.698 L 138.083 46.165 138.083 62.933 L 138.083 79.702 136.542 81.162 C 135.694 81.965,135.000 82.707,135.000 82.811 C 135.000 82.949,137.176 83.000,143.083 83.000 C 147.529 83.000,151.167 82.954,151.167 82.897 C 151.167 82.841,150.886 82.538,150.543 82.224 C 148.604 80.448,147.950 79.740,147.816 79.272 C 147.608 78.546,147.622 61.895,147.831 61.504 C 148.906 59.496,152.152 58.549,153.839 59.750 C 155.781 61.133,156.287 64.161,156.008 72.750 C 155.913 75.683,155.835 78.399,155.835 78.784 C 155.833 79.444,155.742 79.577,154.250 81.096 C 153.379 81.983,152.667 82.774,152.667 82.854 C 152.667 82.936,156.239 83.000,160.750 83.000 C 165.196 83.000,168.833 82.941,168.833 82.869 C 168.833 82.797,168.088 82.039,167.176 81.184 L 165.519 79.630 165.453 70.940 C 165.383 61.827,165.384 61.835,164.601 59.690 C 163.774 57.427,161.915 55.473,159.881 54.732 C 157.956 54.029,153.763 54.105,152.925 54.858 C 152.838 54.936,152.650 55.000,152.508 55.001 C 151.470 55.004,149.185 57.312,148.067 59.487 L 147.675 60.250 147.671 50.792 C 147.666 40.840,147.658 40.731,146.973 41.416 M233.315 41.407 C 233.274 41.448,232.080 41.607,230.662 41.761 C 229.244 41.915,227.633 42.096,227.083 42.165 C 226.533 42.233,225.296 42.374,224.333 42.477 C 220.522 42.886,220.648 42.732,222.608 44.567 C 224.704 46.530,224.500 44.304,224.500 65.245 C 224.500 75.285,224.519 83.500,224.542 83.500 C 224.565 83.500,226.121 82.971,228.000 82.326 C 229.879 81.680,231.883 80.996,232.453 80.804 L 233.490 80.456 234.059 81.025 C 236.885 83.851,242.249 84.288,246.622 82.047 C 248.135 81.271,250.033 79.443,251.098 77.734 C 254.978 71.513,253.910 60.401,249.053 56.449 C 245.551 53.599,240.614 53.436,237.060 56.053 C 236.504 56.462,235.873 57.049,235.657 57.357 C 235.442 57.665,235.215 57.954,235.152 58.000 C 235.089 58.046,234.767 58.533,234.436 59.083 L 233.834 60.083 233.834 50.708 C 233.833 41.350,233.809 40.913,233.315 41.407 M322.973 41.416 C 322.927 41.462,321.808 41.616,320.486 41.758 C 319.165 41.900,317.558 42.081,316.917 42.161 C 316.275 42.240,314.925 42.390,313.917 42.493 C 310.769 42.816,310.470 42.943,311.371 43.575 C 311.576 43.718,312.283 44.361,312.943 45.004 C 314.484 46.505,314.361 44.815,314.301 63.715 L 314.250 79.512 312.625 81.106 C 311.731 81.982,311.000 82.767,311.000 82.850 C 311.000 82.937,314.396 83.000,319.083 83.000 C 323.529 83.000,327.167 82.950,327.167 82.888 C 327.167 82.827,326.398 82.041,325.458 81.143 L 323.750 79.510 323.698 74.350 C 323.646 69.298,323.652 69.186,323.985 69.008 C 324.690 68.631,324.857 68.868,326.748 72.917 C 327.607 74.756,328.561 76.778,329.499 78.750 C 331.074 82.060,331.333 82.634,331.333 82.815 C 331.333 82.947,333.103 83.000,337.500 83.000 C 341.718 83.000,343.667 82.944,343.667 82.824 C 343.667 82.727,342.961 81.958,342.098 81.116 C 340.295 79.355,340.661 79.982,335.729 70.190 C 332.148 63.078,332.188 63.190,333.035 62.626 C 333.245 62.486,333.597 62.213,333.817 62.019 C 334.037 61.825,334.267 61.667,334.327 61.667 C 334.388 61.667,334.583 61.535,334.761 61.375 C 334.939 61.215,335.534 60.746,336.083 60.333 C 336.633 59.921,337.157 59.525,337.249 59.453 C 337.341 59.382,338.204 58.728,339.167 58.000 C 340.129 57.272,340.992 56.618,341.083 56.547 C 341.175 56.475,341.644 56.120,342.125 55.757 C 343.617 54.633,343.805 54.667,336.000 54.667 C 328.471 54.667,328.597 54.651,329.333 55.500 C 329.517 55.711,329.667 55.934,329.667 55.994 C 329.667 56.054,329.798 56.249,329.958 56.427 C 330.119 56.605,330.475 57.087,330.749 57.500 C 331.024 57.913,331.642 58.790,332.124 59.449 C 333.109 60.799,333.188 61.172,332.572 61.575 C 332.337 61.729,332.018 61.960,331.864 62.089 C 331.710 62.217,330.946 62.791,330.167 63.364 C 329.387 63.938,328.650 64.503,328.529 64.621 C 328.407 64.739,328.157 64.916,327.974 65.014 C 327.790 65.112,327.515 65.297,327.362 65.424 C 327.209 65.551,326.446 66.124,325.667 66.698 C 324.887 67.271,324.137 67.850,324.000 67.983 C 323.778 68.199,323.745 66.729,323.707 54.780 C 323.662 40.532,323.672 40.717,322.973 41.416 M349.606 41.673 C 342.588 44.339,344.426 54.700,351.917 54.700 C 358.667 54.700,361.253 46.189,355.657 42.391 C 354.079 41.320,351.379 41.000,349.606 41.673 M353.727 44.141 C 357.903 46.219,356.491 52.275,351.838 52.242 C 348.191 52.217,346.288 47.789,348.812 45.205 C 350.276 43.707,352.073 43.318,353.727 44.141 M126.895 46.121 C 126.449 46.646,125.776 47.415,125.401 47.830 C 125.026 48.244,124.276 49.074,123.734 49.673 C 123.193 50.272,122.150 51.426,121.417 52.236 C 120.683 53.047,120.023 53.813,119.949 53.940 C 119.676 54.409,118.652 54.667,117.063 54.667 L 115.500 54.667 115.500 55.333 L 115.500 56.000 117.076 56.000 L 118.651 56.000 118.709 67.208 C 118.759 76.839,118.803 78.499,119.023 79.000 C 119.164 79.321,119.402 79.856,119.551 80.190 C 120.490 82.287,122.799 83.408,126.167 83.401 C 130.235 83.393,132.628 81.917,134.042 78.543 C 134.652 77.086,134.603 75.859,133.981 77.042 C 132.908 79.083,129.857 79.377,128.786 77.542 C 128.035 76.257,128.004 75.785,128.002 65.625 L 128.000 56.000 131.500 56.000 L 135.000 56.000 135.000 55.333 L 135.000 54.667 131.500 54.667 L 128.000 54.667 128.000 49.917 C 128.000 47.299,127.934 45.167,127.854 45.167 C 127.773 45.167,127.342 45.596,126.895 46.121 M71.083 54.267 C 66.894 54.680,63.290 56.513,61.228 59.278 C 60.966 59.629,60.714 59.954,60.668 60.000 C 60.322 60.344,59.651 61.915,59.029 63.838 C 57.790 67.667,58.810 75.774,60.786 77.804 C 60.904 77.925,61.001 78.075,61.001 78.137 C 61.012 79.005,65.440 82.159,67.262 82.596 C 67.530 82.660,67.825 82.766,67.917 82.831 C 68.688 83.381,73.989 83.618,75.833 83.186 C 76.888 82.939,79.043 82.169,79.167 81.995 C 79.212 81.931,79.424 81.824,79.637 81.757 C 81.138 81.289,84.053 77.286,84.660 74.861 C 84.755 74.479,84.911 73.857,85.006 73.478 C 85.279 72.386,84.978 72.369,84.417 73.443 C 82.311 77.471,76.450 79.207,72.526 76.966 C 69.982 75.513,68.333 72.260,68.333 68.692 L 68.333 67.667 76.833 67.667 L 85.333 67.667 85.333 65.958 C 85.333 60.902,83.276 57.420,79.162 55.514 C 78.387 55.155,77.881 54.985,76.398 54.581 C 75.521 54.343,72.265 54.150,71.083 54.267 M98.583 54.264 C 96.038 54.450,89.941 55.849,89.206 56.415 C 89.152 56.457,89.572 57.517,89.998 58.417 C 90.172 58.783,90.475 59.458,90.671 59.917 C 90.868 60.375,91.162 61.050,91.325 61.417 C 91.488 61.783,91.821 62.533,92.064 63.083 C 92.657 64.428,92.753 64.583,92.988 64.583 C 93.169 64.583,94.617 62.075,95.537 60.167 C 95.735 59.754,95.940 59.379,95.991 59.333 C 96.042 59.288,96.346 58.725,96.667 58.083 C 96.987 57.442,97.306 56.892,97.375 56.861 C 97.444 56.831,97.500 56.730,97.500 56.637 C 97.500 54.568,101.237 55.367,102.424 57.689 C 103.149 59.106,103.467 68.399,102.772 67.862 C 100.621 66.199,94.542 66.342,91.601 68.125 C 85.878 71.593,86.118 80.394,92.000 82.796 C 93.373 83.357,93.686 83.414,95.333 83.407 C 97.237 83.398,98.105 83.178,99.589 82.330 C 100.415 81.857,102.000 80.432,102.000 80.162 C 102.000 80.086,102.096 79.925,102.213 79.804 C 102.331 79.682,102.554 79.321,102.709 79.000 C 102.954 78.495,102.993 78.469,102.996 78.810 C 102.998 79.026,103.225 79.674,103.500 80.251 C 105.572 84.592,112.933 84.571,114.924 80.218 C 115.507 78.944,115.466 77.382,114.875 78.328 C 114.279 79.283,113.256 79.313,112.557 78.397 L 112.114 77.817 112.258 73.783 C 112.681 61.951,112.327 59.513,109.824 57.010 C 107.716 54.902,103.603 53.898,98.583 54.264 M182.417 54.265 C 174.060 55.071,169.405 60.994,169.919 70.167 C 170.318 77.282,173.606 81.297,180.583 83.188 C 181.784 83.513,186.291 83.467,187.500 83.117 C 188.004 82.971,188.705 82.767,189.058 82.663 C 192.545 81.641,195.706 77.648,196.412 73.375 C 196.565 72.450,196.350 72.476,195.836 73.445 C 192.850 79.074,184.295 79.513,181.130 74.200 C 180.331 72.860,179.900 71.253,179.723 68.958 L 179.624 67.667 188.123 67.667 L 196.623 67.667 196.716 67.093 C 197.512 62.186,194.458 56.880,189.902 55.257 C 189.452 55.096,188.933 54.904,188.750 54.830 C 187.710 54.408,184.188 54.094,182.417 54.265 M217.250 54.309 C 215.073 54.700,213.002 56.706,211.823 59.569 L 211.417 60.555 211.371 57.611 L 211.326 54.667 204.913 54.667 C 200.173 54.667,198.500 54.717,198.500 54.859 C 198.500 54.965,199.213 55.786,200.083 56.684 L 201.667 58.315 201.667 68.953 L 201.667 79.591 200.083 81.132 C 199.213 81.980,198.500 82.747,198.500 82.837 C 198.500 82.941,201.933 83.000,208.083 83.000 C 213.762 83.000,217.667 82.938,217.667 82.848 C 217.667 82.713,216.116 81.667,215.916 81.667 C 215.872 81.667,215.328 81.348,214.707 80.958 C 214.086 80.569,213.298 80.107,212.957 79.933 C 212.616 79.759,212.111 79.414,211.835 79.168 L 211.333 78.720 211.333 70.697 L 211.333 62.673 211.919 61.758 C 212.549 60.773,213.687 59.498,213.933 59.503 C 214.212 59.507,214.433 59.743,216.665 62.417 C 219.143 65.384,219.353 65.530,219.620 64.466 C 219.719 64.072,220.075 63.000,220.412 62.083 C 220.749 61.167,221.125 60.117,221.247 59.750 C 221.369 59.383,221.710 58.410,222.004 57.587 L 222.540 56.090 221.817 55.449 C 220.643 54.407,218.997 53.996,217.250 54.309 M266.250 54.332 C 263.882 54.575,260.909 55.168,259.583 55.662 C 259.400 55.731,258.818 55.922,258.289 56.088 C 257.206 56.428,257.218 56.358,257.962 58.000 C 258.385 58.933,258.736 59.722,259.259 60.917 C 259.419 61.283,259.754 62.033,260.003 62.583 C 260.252 63.133,260.559 63.827,260.685 64.125 C 261.008 64.888,261.223 64.805,261.771 63.708 C 262.035 63.181,262.287 62.712,262.333 62.667 C 262.440 62.560,262.482 62.483,265.129 57.500 C 266.149 55.580,266.231 55.500,267.172 55.500 C 269.029 55.500,270.260 56.525,270.943 58.642 C 271.502 60.377,271.432 68.145,270.860 67.833 C 269.316 66.993,268.090 66.750,265.417 66.753 C 262.776 66.757,262.471 66.818,260.459 67.738 C 256.430 69.580,254.555 74.510,256.238 78.833 C 258.512 84.676,267.776 85.007,270.683 79.350 L 271.060 78.616 271.339 79.471 C 273.192 85.157,282.760 84.690,283.443 78.879 C 283.565 77.838,283.556 77.834,282.761 78.583 C 282.024 79.279,281.531 79.319,280.943 78.731 C 280.293 78.081,280.266 77.620,280.486 71.007 C 280.633 66.564,280.639 64.442,280.509 63.160 C 279.898 57.183,276.665 54.498,269.804 54.269 C 268.583 54.228,266.983 54.257,266.250 54.332 M297.750 54.338 C 297.108 54.416,296.283 54.555,295.917 54.646 C 295.550 54.737,294.919 54.894,294.514 54.996 C 293.682 55.205,291.365 56.281,291.030 56.614 C 290.909 56.735,290.741 56.833,290.657 56.833 C 290.130 56.833,287.000 60.074,287.000 60.620 C 287.000 60.737,286.944 60.834,286.875 60.835 C 286.762 60.837,286.365 61.631,285.979 62.625 C 285.899 62.831,285.764 63.169,285.678 63.375 C 284.462 66.318,284.677 72.694,286.103 75.942 C 286.230 76.231,286.333 76.549,286.333 76.650 C 286.333 76.751,286.390 76.833,286.459 76.833 C 286.529 76.833,286.684 77.056,286.805 77.329 C 287.617 79.165,291.081 81.988,293.386 82.692 C 299.881 84.675,305.943 82.708,308.369 77.829 C 309.730 75.092,310.222 71.876,308.948 74.042 C 308.719 74.431,308.379 74.926,308.191 75.140 C 308.004 75.355,307.828 75.583,307.800 75.647 C 307.773 75.710,307.450 75.997,307.083 76.284 C 303.758 78.885,299.494 78.304,297.080 74.920 C 296.669 74.345,296.333 73.820,296.333 73.754 C 296.333 73.688,296.230 73.397,296.103 73.109 C 295.380 71.461,295.153 70.123,295.047 66.876 C 294.811 59.689,296.794 55.500,300.432 55.500 L 301.139 55.500 301.668 56.625 C 302.494 58.383,302.786 59.020,303.179 59.917 C 303.986 61.758,305.295 64.644,305.617 65.292 C 305.894 65.850,306.333 66.027,306.333 65.581 C 306.333 65.442,306.403 65.199,306.489 65.039 C 306.575 64.880,306.958 63.887,307.340 62.833 C 307.723 61.779,308.103 60.748,308.185 60.542 C 308.266 60.335,308.400 59.998,308.482 59.792 C 308.760 59.087,309.649 56.584,309.741 56.245 C 309.819 55.958,309.712 55.872,309.041 55.682 C 308.606 55.559,307.912 55.363,307.500 55.245 C 307.087 55.128,306.300 54.944,305.750 54.836 C 305.200 54.728,304.450 54.576,304.083 54.498 C 303.053 54.280,299.051 54.179,297.750 54.338 M73.755 55.763 C 75.588 56.529,77.041 61.969,76.410 65.704 L 76.304 66.333 72.319 66.333 L 68.333 66.333 68.332 64.958 C 68.327 58.439,70.666 54.472,73.755 55.763 M185.087 55.762 C 185.781 56.052,185.898 56.152,186.531 57.000 C 187.355 58.102,187.833 60.657,187.833 63.958 L 187.833 66.333 183.750 66.333 L 179.667 66.333 179.675 65.125 C 179.691 62.685,180.308 59.285,180.987 57.895 C 181.968 55.887,183.490 55.095,185.087 55.762 M239.315 59.178 C 242.552 59.873,244.281 66.555,243.073 73.708 C 242.131 79.288,238.737 82.151,235.167 80.377 C 233.695 79.646,233.833 80.674,233.837 70.482 L 233.841 61.417 234.758 60.515 C 236.123 59.171,237.458 58.780,239.315 59.178 M102.375 68.774 L 103.000 68.877 103.000 73.055 L 103.000 77.233 102.173 78.010 C 99.511 80.509,96.667 78.632,96.667 74.377 C 96.667 70.261,98.786 68.180,102.375 68.774 M270.542 68.774 L 271.167 68.877 271.167 73.015 L 271.167 77.153 270.375 77.952 C 266.840 81.516,262.940 76.018,265.476 71.046 C 266.460 69.118,268.120 68.373,270.542 68.774 " stroke="none" fill="#043cfc" fill-rule="evenodd"></path><path id="path1" d="" stroke="none" fill="#083cfc" fill-rule="evenodd"></path><path id="path2" d="" stroke="none" fill="#083cfc" fill-rule="evenodd"></path><path id="path3" d="" stroke="none" fill="#083cfc" fill-rule="evenodd"></path><path id="path4" d="" stroke="none" fill="#083cfc" fill-rule="evenodd"></path></g></svg>