<?xml version="1.0" encoding="UTF-8"?>
<svg xmlns="http://www.w3.org/2000/svg" xmlns:xlink="http://www.w3.org/1999/xlink" width="563.29pt" height="59.56pt" viewBox="0 0 563.29 59.56" version="1.1">
<defs>
<clipPath id="clip1">
  <path d="M 0 0 L 65 0 L 65 59.558594 L 0 59.558594 Z M 0 0 "/>
</clipPath>
<clipPath id="clip2">
  <path d="M 384 12 L 563 12 L 563 47 L 384 47 Z M 384 12 "/>
</clipPath>
</defs>
<g id="surface1">
<g clip-path="url(#clip1)" clip-rule="nonzero">
<path style=" stroke:none;fill-rule:nonzero;fill:rgb(100%,100%,100%);fill-opacity:1;" d="M 51.003906 0.00390625 L 13.910156 0.00390625 C 5.507813 5.914063 0 15.730469 0 26.84375 C 0 44.914063 14.53125 59.558594 32.457031 59.558594 C 50.378906 59.558594 64.910156 44.914063 64.910156 26.84375 C 64.910156 15.730469 59.40625 5.914063 51.003906 0.00390625 "/>
</g>
<path style=" stroke:none;fill-rule:nonzero;fill:rgb(0%,65.098572%,31.399536%);fill-opacity:1;" d="M 28.878906 5.632813 L 28.878906 47.964844 C 30.035156 48.148438 31.21875 48.242188 32.425781 48.242188 L 32.425781 5.609375 L 28.878906 5.632813 "/>
<path style=" stroke:none;fill-rule:nonzero;fill:rgb(0%,65.098572%,31.399536%);fill-opacity:1;" d="M 35.902344 5.59375 L 35.902344 47.988281 C 36.089844 47.953125 36.269531 47.925781 36.457031 47.890625 L 36.457031 5.59375 L 35.902344 5.59375 "/>
<path style=" stroke:none;fill-rule:nonzero;fill:rgb(0%,65.098572%,31.399536%);fill-opacity:1;" d="M 28.328125 5.632813 L 28.328125 47.871094 C 28.507813 47.902344 28.691406 47.933594 28.878906 47.964844 L 28.878906 5.632813 L 28.328125 5.632813 "/>
<path style=" stroke:none;fill-rule:nonzero;fill:rgb(0%,65.098572%,31.399536%);fill-opacity:1;" d="M 32.425781 5.609375 L 32.425781 48.242188 L 32.457031 48.242188 C 32.597656 48.242188 32.730469 48.242188 32.871094 48.242188 L 32.871094 5.609375 L 32.425781 5.609375 "/>
<path style=" stroke:none;fill-rule:nonzero;fill:rgb(0%,65.098572%,31.399536%);fill-opacity:1;" d="M 33.253906 5.609375 L 33.253906 48.230469 C 33.398438 48.226563 33.542969 48.21875 33.695313 48.210938 L 33.695313 5.605469 L 33.253906 5.609375 "/>
<path style=" stroke:none;fill-rule:nonzero;fill:rgb(0%,65.098572%,31.399536%);fill-opacity:1;" d="M 34.074219 5.605469 L 34.074219 48.1875 C 34.21875 48.171875 34.367188 48.164063 34.515625 48.15625 L 34.515625 5.601563 L 34.074219 5.605469 "/>
<path style=" stroke:none;fill-rule:nonzero;fill:rgb(0%,65.098572%,31.399536%);fill-opacity:1;" d="M 34.976563 5.597656 L 34.976563 48.105469 C 35.121094 48.085938 35.273438 48.070313 35.421875 48.050781 L 35.421875 5.59375 L 34.976563 5.597656 "/>
<path style=" stroke:none;fill-rule:nonzero;fill:rgb(0%,65.098572%,31.399536%);fill-opacity:1;" d="M 27.339844 5.640625 L 27.339844 47.667969 C 27.523438 47.710938 27.707031 47.742188 27.894531 47.785156 L 27.894531 5.632813 L 27.339844 5.640625 "/>
<path style=" stroke:none;fill-rule:nonzero;fill:rgb(0%,65.098572%,31.399536%);fill-opacity:1;" d="M 26.351563 5.640625 L 26.351563 47.410156 C 26.535156 47.460938 26.71875 47.511719 26.90625 47.5625 L 26.90625 5.640625 L 26.351563 5.640625 "/>
<path style=" stroke:none;fill-rule:nonzero;fill:rgb(0%,65.098572%,31.399536%);fill-opacity:1;" d="M 25.367188 5.648438 L 25.367188 47.117188 C 25.554688 47.175781 25.734375 47.230469 25.921875 47.285156 L 25.921875 5.648438 L 25.367188 5.648438 "/>
<path style=" stroke:none;fill-rule:nonzero;fill:rgb(0%,65.098572%,31.399536%);fill-opacity:1;" d="M 24.382813 5.652344 L 24.382813 46.761719 C 24.566406 46.828125 24.753906 46.902344 24.9375 46.96875 L 24.9375 5.648438 L 24.382813 5.652344 "/>
<path style=" stroke:none;fill-rule:nonzero;fill:rgb(0%,65.098572%,31.399536%);fill-opacity:1;" d="M 23.394531 5.660156 L 23.394531 46.359375 C 23.578125 46.441406 23.765625 46.519531 23.953125 46.59375 L 23.953125 5.652344 L 23.394531 5.660156 "/>
<path style=" stroke:none;fill-rule:nonzero;fill:rgb(0%,65.098572%,31.399536%);fill-opacity:1;" d="M 22.410156 5.664063 L 22.410156 45.902344 C 22.597656 45.992188 22.78125 46.082031 22.96875 46.167969 L 22.96875 5.660156 L 22.410156 5.664063 "/>
<path style=" stroke:none;fill-rule:nonzero;fill:rgb(0%,65.098572%,31.399536%);fill-opacity:1;" d="M 21.441406 5.664063 L 21.425781 5.675781 L 21.425781 45.378906 C 21.609375 45.484375 21.796875 45.585938 21.980469 45.683594 L 21.980469 5.664063 L 21.441406 5.664063 "/>
<path style=" stroke:none;fill-rule:nonzero;fill:rgb(0%,65.098572%,31.399536%);fill-opacity:1;" d="M 20.441406 6.261719 L 20.441406 44.800781 C 20.625 44.910156 20.8125 45.027344 21 45.136719 L 21 5.925781 C 20.8125 6.035156 20.625 6.148438 20.441406 6.261719 "/>
<path style=" stroke:none;fill-rule:nonzero;fill:rgb(0%,65.098572%,31.399536%);fill-opacity:1;" d="M 19.457031 6.914063 L 19.457031 44.148438 C 19.640625 44.273438 19.828125 44.398438 20.011719 44.523438 L 20.011719 6.539063 C 19.828125 6.660156 19.640625 6.789063 19.457031 6.914063 "/>
<path style=" stroke:none;fill-rule:nonzero;fill:rgb(0%,65.098572%,31.399536%);fill-opacity:1;" d="M 18.46875 7.648438 L 18.46875 43.414063 C 18.652344 43.5625 18.839844 43.699219 19.027344 43.839844 L 19.027344 7.222656 C 18.839844 7.363281 18.652344 7.5 18.46875 7.648438 "/>
<path style=" stroke:none;fill-rule:nonzero;fill:rgb(0%,65.098572%,31.399536%);fill-opacity:1;" d="M 17.484375 8.472656 L 17.484375 42.589844 C 17.667969 42.757813 17.851563 42.917969 18.042969 43.066406 L 18.042969 7.996094 C 17.851563 8.148438 17.667969 8.304688 17.484375 8.472656 "/>
<path style=" stroke:none;fill-rule:nonzero;fill:rgb(0%,65.098572%,31.399536%);fill-opacity:1;" d="M 16.5 9.386719 L 16.5 41.675781 C 16.683594 41.855469 16.871094 42.03125 17.058594 42.207031 L 17.058594 8.855469 C 16.871094 9.03125 16.683594 9.210938 16.5 9.386719 "/>
<path style=" stroke:none;fill-rule:nonzero;fill:rgb(0%,65.098572%,31.399536%);fill-opacity:1;" d="M 15.511719 10.429688 L 15.511719 40.632813 C 15.699219 40.835938 15.882813 41.039063 16.070313 41.238281 L 16.070313 9.824219 C 15.882813 10.023438 15.699219 10.226563 15.511719 10.429688 "/>
<path style=" stroke:none;fill-rule:nonzero;fill:rgb(0%,65.098572%,31.399536%);fill-opacity:1;" d="M 14.53125 11.617188 L 14.53125 39.445313 C 14.710938 39.683594 14.894531 39.914063 15.089844 40.136719 L 15.089844 10.925781 C 14.894531 11.152344 14.710938 11.382813 14.53125 11.617188 "/>
<path style=" stroke:none;fill-rule:nonzero;fill:rgb(0%,65.098572%,31.399536%);fill-opacity:1;" d="M 13.542969 12.992188 L 13.542969 38.074219 C 13.726563 38.347656 13.910156 38.613281 14.101563 38.878906 L 14.101563 12.1875 C 13.910156 12.449219 13.726563 12.71875 13.542969 12.992188 "/>
<path style=" stroke:none;fill-rule:nonzero;fill:rgb(0%,65.098572%,31.399536%);fill-opacity:1;" d="M 12.5625 14.617188 L 12.5625 36.441406 C 12.738281 36.769531 12.921875 37.085938 13.113281 37.398438 L 13.113281 13.660156 C 12.921875 13.976563 12.738281 14.296875 12.5625 14.617188 "/>
<path style=" stroke:none;fill-rule:nonzero;fill:rgb(0%,65.098572%,31.399536%);fill-opacity:1;" d="M 11.574219 16.648438 L 11.574219 34.414063 C 11.746094 34.824219 11.929688 35.222656 12.132813 35.617188 L 12.132813 15.441406 C 11.929688 15.839844 11.746094 16.242188 11.574219 16.648438 "/>
<path style=" stroke:none;fill-rule:nonzero;fill:rgb(0%,65.098572%,31.399536%);fill-opacity:1;" d="M 10.59375 19.476563 L 10.59375 31.582031 C 10.75 32.175781 10.9375 32.757813 11.148438 33.328125 L 11.148438 17.738281 C 10.9375 18.3125 10.75 18.890625 10.59375 19.476563 "/>
<path style=" stroke:none;fill-rule:nonzero;fill:rgb(0%,65.098572%,31.399536%);fill-opacity:1;" d="M 9.773438 25.53125 C 9.773438 26.964844 9.90625 28.359375 10.160156 29.71875 L 10.160156 21.351563 C 9.90625 22.707031 9.773438 24.097656 9.773438 25.53125 "/>
<path style=" stroke:none;fill-rule:nonzero;fill:rgb(0%,65.098572%,31.399536%);fill-opacity:1;" d="M 36.847656 5.589844 L 36.847656 47.816406 C 37.035156 47.78125 37.222656 47.742188 37.40625 47.703125 L 37.40625 5.582031 L 36.847656 5.589844 "/>
<path style=" stroke:none;fill-rule:nonzero;fill:rgb(0%,65.098572%,31.399536%);fill-opacity:1;" d="M 37.796875 5.582031 L 37.796875 47.613281 C 37.980469 47.5625 38.167969 47.523438 38.351563 47.46875 L 38.351563 5.582031 L 37.796875 5.582031 "/>
<path style=" stroke:none;fill-rule:nonzero;fill:rgb(0%,65.098572%,31.399536%);fill-opacity:1;" d="M 38.742188 5.578125 L 38.742188 47.359375 C 38.929688 47.308594 39.117188 47.25 39.300781 47.191406 L 39.300781 5.574219 L 38.742188 5.578125 "/>
<path style=" stroke:none;fill-rule:nonzero;fill:rgb(0%,65.098572%,31.399536%);fill-opacity:1;" d="M 39.691406 5.574219 L 39.691406 47.066406 C 39.878906 47 40.0625 46.933594 40.246094 46.871094 L 40.246094 5.570313 L 39.691406 5.574219 "/>
<path style=" stroke:none;fill-rule:nonzero;fill:rgb(0%,65.098572%,31.399536%);fill-opacity:1;" d="M 40.636719 5.570313 L 40.636719 46.71875 C 40.824219 46.652344 41.011719 46.578125 41.199219 46.5 L 41.199219 5.566406 L 40.636719 5.570313 "/>
<path style=" stroke:none;fill-rule:nonzero;fill:rgb(0%,65.098572%,31.399536%);fill-opacity:1;" d="M 41.582031 5.566406 L 41.582031 46.328125 C 41.773438 46.25 41.960938 46.164063 42.140625 46.078125 L 42.140625 5.566406 L 41.582031 5.566406 "/>
<path style=" stroke:none;fill-rule:nonzero;fill:rgb(0%,65.098572%,31.399536%);fill-opacity:1;" d="M 42.535156 5.5625 L 42.535156 45.886719 C 42.71875 45.792969 42.90625 45.695313 43.09375 45.597656 L 43.09375 5.554688 L 42.535156 5.5625 "/>
<path style=" stroke:none;fill-rule:nonzero;fill:rgb(0%,65.098572%,31.399536%);fill-opacity:1;" d="M 43.480469 5.675781 L 43.480469 45.378906 C 43.671875 45.28125 43.855469 45.175781 44.039063 45.0625 L 44.039063 5.996094 C 43.855469 5.886719 43.671875 5.785156 43.480469 5.675781 "/>
<path style=" stroke:none;fill-rule:nonzero;fill:rgb(0%,65.098572%,31.399536%);fill-opacity:1;" d="M 44.429688 6.234375 L 44.429688 44.824219 C 44.617188 44.710938 44.800781 44.589844 44.980469 44.464844 L 44.980469 6.597656 C 44.800781 6.472656 44.617188 6.351563 44.429688 6.234375 "/>
<path style=" stroke:none;fill-rule:nonzero;fill:rgb(0%,65.098572%,31.399536%);fill-opacity:1;" d="M 45.375 6.863281 L 45.375 44.203125 C 45.5625 44.070313 45.753906 43.9375 45.933594 43.804688 L 45.933594 7.257813 C 45.753906 7.125 45.5625 6.992188 45.375 6.863281 "/>
<path style=" stroke:none;fill-rule:nonzero;fill:rgb(0%,65.098572%,31.399536%);fill-opacity:1;" d="M 46.324219 7.554688 L 46.324219 43.503906 C 46.511719 43.359375 46.695313 43.21875 46.878906 43.0625 L 46.878906 8 C 46.695313 7.851563 46.511719 7.699219 46.324219 7.554688 "/>
<path style=" stroke:none;fill-rule:nonzero;fill:rgb(0%,65.098572%,31.399536%);fill-opacity:1;" d="M 47.269531 8.332031 L 47.269531 42.730469 C 47.460938 42.570313 47.644531 42.402344 47.824219 42.234375 L 47.824219 8.828125 C 47.644531 8.664063 47.460938 8.5 47.269531 8.332031 "/>
<path style=" stroke:none;fill-rule:nonzero;fill:rgb(0%,65.098572%,31.399536%);fill-opacity:1;" d="M 48.21875 9.199219 L 48.21875 41.863281 C 48.40625 41.679688 48.59375 41.496094 48.773438 41.304688 L 48.773438 9.753906 C 48.59375 9.566406 48.40625 9.382813 48.21875 9.199219 "/>
<path style=" stroke:none;fill-rule:nonzero;fill:rgb(0%,65.098572%,31.399536%);fill-opacity:1;" d="M 49.164063 10.175781 L 49.164063 40.886719 C 49.355469 40.679688 49.542969 40.472656 49.722656 40.257813 L 49.722656 10.800781 C 49.535156 10.589844 49.355469 10.375 49.164063 10.175781 "/>
<path style=" stroke:none;fill-rule:nonzero;fill:rgb(0%,65.098572%,31.399536%);fill-opacity:1;" d="M 50.117188 11.273438 L 50.117188 39.789063 C 50.304688 39.554688 50.488281 39.316406 50.671875 39.074219 L 50.671875 11.992188 C 50.488281 11.75 50.304688 11.511719 50.117188 11.273438 "/>
<path style=" stroke:none;fill-rule:nonzero;fill:rgb(0%,65.098572%,31.399536%);fill-opacity:1;" d="M 51.058594 12.535156 L 51.058594 38.523438 C 51.253906 38.25 51.433594 37.972656 51.617188 37.6875 L 51.617188 13.375 C 51.433594 13.085938 51.253906 12.808594 51.058594 12.535156 "/>
<path style=" stroke:none;fill-rule:nonzero;fill:rgb(0%,65.098572%,31.399536%);fill-opacity:1;" d="M 52.007813 14.015625 L 52.007813 37.050781 C 52.203125 36.71875 52.386719 36.386719 52.5625 36.046875 L 52.5625 15.011719 C 52.386719 14.675781 52.203125 14.339844 52.007813 14.015625 "/>
<path style=" stroke:none;fill-rule:nonzero;fill:rgb(0%,65.098572%,31.399536%);fill-opacity:1;" d="M 52.957031 15.800781 L 52.957031 35.261719 C 53.152344 34.839844 53.339844 34.417969 53.511719 33.988281 L 53.511719 17.070313 C 53.339844 16.644531 53.152344 16.214844 52.957031 15.800781 "/>
<path style=" stroke:none;fill-rule:nonzero;fill:rgb(0%,65.098572%,31.399536%);fill-opacity:1;" d="M 53.902344 18.128906 L 53.902344 32.941406 C 54.117188 32.324219 54.300781 31.699219 54.457031 31.0625 L 54.457031 20 C 54.300781 19.363281 54.113281 18.742188 53.902344 18.128906 "/>
<path style=" stroke:none;fill-rule:nonzero;fill:rgb(0%,65.098572%,31.399536%);fill-opacity:1;" d="M 54.851563 21.925781 L 54.851563 29.144531 C 55.039063 27.96875 55.136719 26.761719 55.136719 25.53125 C 55.136719 24.304688 55.039063 23.101563 54.851563 21.925781 "/>
<path style=" stroke:none;fill-rule:nonzero;fill:rgb(0%,65.098572%,31.399536%);fill-opacity:1;" d="M 36.648438 5.609375 L 26.519531 5.609375 L 22.425781 8.234375 L 22.425781 12.285156 C 16.699219 12.605469 12.148438 17.390625 12.148438 23.25 C 12.148438 27.941406 15.058594 31.9375 19.15625 33.515625 L 19.152344 33.558594 L 19.152344 35.359375 C 17.425781 35.359375 17.09375 35.976563 17.09375 35.976563 C 20.652344 45.386719 29.984375 47.027344 29.984375 47.027344 L 29.984375 48.039063 C 32.707031 48.515625 36.070313 48.003906 36.070313 48.003906 L 36.070313 45.863281 C 45.542969 44.222656 52.765625 35.808594 52.765625 25.679688 C 52.765625 15.753906 45.839844 7.488281 36.648438 5.609375 "/>
<path style=" stroke:none;fill-rule:nonzero;fill:rgb(100%,100%,100%);fill-opacity:1;" d="M 32.421875 11.433594 C 32.421875 11.433594 35.839844 11.535156 37.445313 14.371094 C 37.445313 14.371094 38.144531 18.523438 35.53125 20.042969 C 35.53125 20.042969 32.117188 13.359375 32.421875 11.433594 "/>
<path style=" stroke:none;fill-rule:nonzero;fill:rgb(100%,100%,100%);fill-opacity:1;" d="M 23.636719 34.636719 C 23.648438 34.710938 24.011719 36.421875 26.238281 37.542969 C 28.34375 38.605469 28.628906 38.847656 29.28125 39.753906 L 29.589844 39.527344 C 28.886719 38.5625 28.589844 38.300781 26.402344 37.203125 C 24.351563 36.167969 24.007813 34.578125 24.007813 34.5625 L 23.636719 34.636719 "/>
<path style=" stroke:none;fill-rule:nonzero;fill:rgb(100%,100%,100%);fill-opacity:1;" d="M 22.941406 34.921875 C 22.957031 34.996094 23.34375 36.808594 25.566406 37.933594 C 27.738281 39.027344 28.066406 39.386719 28.695313 40.253906 L 29.003906 40.035156 C 28.285156 39.039063 27.871094 38.667969 25.738281 37.59375 C 23.6875 36.5625 23.3125 34.855469 23.308594 34.839844 L 22.941406 34.921875 "/>
<path style=" stroke:none;fill-rule:nonzero;fill:rgb(100%,100%,100%);fill-opacity:1;" d="M 27.445313 34.324219 L 27.917969 35.753906 L 28.277344 35.628906 L 27.804688 34.203125 L 27.445313 34.324219 "/>
<path style=" stroke:none;fill-rule:nonzero;fill:rgb(100%,100%,100%);fill-opacity:1;" d="M 22.109375 35.449219 C 22.121094 35.523438 22.488281 37.234375 24.710938 38.351563 C 26.960938 39.496094 27.722656 40.164063 28.335938 41.007813 L 28.4375 41.160156 L 31.710938 39.011719 L 31.703125 38.898438 C 31.554688 36.5625 29.179688 36.125 29.15625 36.121094 L 29.09375 36.496094 C 29.179688 36.511719 31.117188 36.882813 31.3125 38.820313 C 31.136719 38.933594 28.78125 40.480469 28.53125 40.644531 C 27.804688 39.703125 26.820313 38.996094 24.875 38.011719 C 22.832031 36.980469 22.480469 35.390625 22.480469 35.375 L 22.109375 35.449219 "/>
<path style=" stroke:none;fill-rule:nonzero;fill:rgb(100%,100%,100%);fill-opacity:1;" d="M 25.300781 42.902344 L 25.507813 43.21875 L 27.757813 41.703125 L 27.546875 41.386719 L 25.300781 42.902344 "/>
<path style=" stroke:none;fill-rule:nonzero;fill:rgb(100%,100%,100%);fill-opacity:1;" d="M 27.101563 44.101563 L 27.316406 44.414063 L 29.507813 42.90625 L 29.296875 42.589844 L 27.101563 44.101563 "/>
<path style=" stroke:none;fill-rule:nonzero;fill:rgb(100%,100%,100%);fill-opacity:1;" d="M 29.191406 42.050781 L 29.75 42.550781 L 30.003906 42.273438 L 29.445313 41.769531 L 29.191406 42.050781 "/>
<path style=" stroke:none;fill-rule:nonzero;fill:rgb(100%,100%,100%);fill-opacity:1;" d="M 29.847656 41.371094 L 30.351563 41.902344 L 30.625 41.636719 L 30.121094 41.105469 L 29.847656 41.371094 "/>
<path style=" stroke:none;fill-rule:nonzero;fill:rgb(100%,100%,100%);fill-opacity:1;" d="M 30.703125 40.9375 L 31.3125 41.441406 L 31.550781 41.144531 L 30.9375 40.644531 L 30.703125 40.9375 "/>
<path style=" stroke:none;fill-rule:nonzero;fill:rgb(100%,100%,100%);fill-opacity:1;" d="M 31.8125 39.945313 C 31.898438 39.992188 32.144531 40.175781 32.191406 40.375 C 32.214844 40.46875 32.199219 40.5625 32.136719 40.65625 L 32.453125 40.863281 C 32.570313 40.679688 32.605469 40.480469 32.554688 40.285156 C 32.460938 39.882813 32.042969 39.636719 31.992188 39.613281 L 31.8125 39.945313 "/>
<path style=" stroke:none;fill-rule:nonzero;fill:rgb(100%,100%,100%);fill-opacity:1;" d="M 28.769531 44.578125 L 28.984375 44.894531 L 34.203125 41.335938 L 33.992188 41.023438 L 28.769531 44.578125 "/>
<path style=" stroke:none;fill-rule:nonzero;fill:rgb(100%,100%,100%);fill-opacity:1;" d="M 29.355469 45.167969 L 29.566406 45.484375 L 34.785156 41.925781 L 34.578125 41.613281 L 29.355469 45.167969 "/>
<path style=" stroke:none;fill-rule:nonzero;fill:rgb(100%,100%,100%);fill-opacity:1;" d="M 30.046875 45.613281 L 30.261719 45.929688 L 35.484375 42.378906 L 35.269531 42.058594 L 30.046875 45.613281 "/>
<path style=" stroke:none;fill-rule:nonzero;fill:rgb(100%,100%,100%);fill-opacity:1;" d="M 30.714844 46.152344 L 30.925781 46.464844 L 36.148438 42.90625 L 35.9375 42.589844 L 30.714844 46.152344 "/>
<path style=" stroke:none;fill-rule:nonzero;fill:rgb(100%,100%,100%);fill-opacity:1;" d="M 30.988281 42.195313 C 30.863281 42.214844 30.65625 42.253906 30.648438 42.414063 C 30.640625 42.574219 30.851563 42.679688 30.980469 42.675781 C 31.117188 42.667969 31.292969 42.550781 31.261719 42.390625 C 31.230469 42.222656 31.015625 42.195313 30.878906 42.175781 "/>
<path style=" stroke:none;fill-rule:nonzero;fill:rgb(100%,100%,100%);fill-opacity:1;" d="M 31.566406 41.800781 C 31.449219 41.84375 31.445313 41.996094 31.457031 42.101563 C 31.601563 42.253906 31.933594 42.308594 31.992188 42.070313 C 32.050781 41.820313 31.726563 41.800781 31.566406 41.800781 "/>
<path style=" stroke:none;fill-rule:nonzero;fill:rgb(100%,100%,100%);fill-opacity:1;" d="M 32.285156 41.167969 C 32.066406 41.363281 31.941406 41.71875 32.332031 41.824219 C 32.625 41.90625 33.003906 41.542969 32.761719 41.265625 C 32.640625 41.125 32.414063 41.160156 32.253906 41.183594 "/>
<path style=" stroke:none;fill-rule:nonzero;fill:rgb(100%,100%,100%);fill-opacity:1;" d="M 33.140625 40.738281 C 32.972656 40.773438 32.949219 40.964844 32.996094 41.105469 C 33.214844 41.292969 33.351563 41.175781 33.503906 41.125 C 33.574219 40.792969 33.445313 40.695313 33.121094 40.71875 "/>
<path style=" stroke:none;fill-rule:nonzero;fill:rgb(100%,100%,100%);fill-opacity:1;" d="M 29.320313 31.855469 L 27.75 25.585938 L 27.738281 25.585938 C 27.066406 26.417969 26.039063 26.949219 24.894531 26.949219 C 22.871094 26.949219 21.226563 25.296875 21.226563 23.25 C 21.226563 21.207031 22.871094 19.550781 24.894531 19.550781 C 25.398438 19.550781 25.878906 19.65625 26.316406 19.84375 L 26.308594 19.828125 L 24.742188 13.554688 L 24.738281 13.558594 C 23.511719 13.574219 22.335938 13.832031 21.261719 14.269531 L 22.386719 17.320313 C 22.386719 17.320313 20.867188 18.171875 20.28125 18.792969 L 20.265625 18.800781 L 17.9375 16.558594 L 17.929688 16.566406 C 17.03125 17.519531 16.316406 18.652344 15.859375 19.914063 L 15.859375 19.925781 L 18.878906 21.039063 L 18.882813 21.054688 C 18.632813 21.742188 18.503906 22.476563 18.503906 23.25 C 18.503906 23.359375 18.503906 23.464844 18.507813 23.570313 L 18.492188 23.570313 L 15.289063 23.734375 C 15.355469 25.105469 15.703125 26.402344 16.277344 27.566406 L 16.273438 27.574219 L 19.160156 26.125 L 19.164063 26.113281 C 19.550781 26.894531 20.089844 27.589844 20.738281 28.152344 L 20.722656 28.148438 L 18.632813 30.601563 L 18.632813 30.605469 C 19.617188 31.46875 20.785156 32.121094 22.0625 32.519531 L 22.070313 32.53125 L 23.019531 29.414063 C 23.613281 29.597656 24.242188 29.695313 24.894531 29.695313 C 25.0625 29.695313 25.230469 29.691406 25.398438 29.675781 L 25.421875 29.675781 L 25.808594 32.902344 C 27.0625 32.78125 28.25 32.421875 29.316406 31.867188 L 29.320313 31.855469 "/>
<path style=" stroke:none;fill-rule:nonzero;fill:rgb(100%,100%,100%);fill-opacity:1;" d="M 15.273438 23.734375 L 15.289063 23.734375 L 15.285156 23.71875 L 15.273438 23.734375 "/>
<path style=" stroke:none;fill-rule:nonzero;fill:rgb(100%,100%,100%);fill-opacity:1;" d="M 25.808594 32.910156 L 25.808594 32.902344 L 25.792969 32.902344 L 25.808594 32.910156 "/>
<path style=" stroke:none;fill-rule:nonzero;fill:rgb(100%,100%,100%);fill-opacity:1;" d="M 32.414063 23.074219 L 32.414063 23.050781 C 32.382813 22.914063 32.179688 22.226563 31.148438 21.765625 C 31.148438 21.765625 30.632813 21.773438 29.855469 21.242188 C 29.078125 20.71875 28.824219 19.738281 28.824219 19.738281 C 28.824219 19.738281 30.15625 19.5625 31.550781 21.386719 C 31.550781 21.386719 31.765625 21.464844 31.78125 21.320313 L 31.046875 18.835938 C 31.046875 18.835938 29.785156 18.71875 29.535156 18.617188 C 29.28125 18.523438 28.824219 17.898438 28.640625 17.292969 L 28.390625 16.859375 C 28.390625 16.859375 28.835938 16.566406 29.339844 17.027344 C 29.84375 17.488281 30.550781 18.300781 30.707031 18.570313 C 30.707031 18.570313 30.953125 18.609375 30.988281 18.492188 C 30.988281 18.492188 30.921875 16.742188 30.109375 16.171875 C 30.109375 16.171875 29.523438 16.265625 29.199219 16.105469 C 28.867188 15.949219 28.332031 15.34375 28.058594 14.539063 C 28.058594 14.539063 28.816406 14.277344 29.84375 15.5 C 29.84375 15.5 30.144531 15.617188 30.117188 15.433594 C 30.117188 15.433594 29.671875 13.625 29.566406 13.503906 C 29.453125 13.382813 29.292969 13.191406 28.988281 13.152344 C 28.691406 13.113281 27.363281 13.160156 27.234375 11.882813 C 27.234375 11.882813 28.242188 11.730469 29.175781 12.59375 C 29.175781 12.59375 29.011719 11.421875 28.882813 11.128906 C 28.761719 10.832031 28.640625 10.824219 28.421875 10.808594 C 28.195313 10.785156 26.972656 11.011719 26.980469 9.5625 C 26.980469 9.5625 27.875 9.800781 28.292969 10.097656 C 28.710938 10.402344 28.703125 10.320313 28.703125 10.320313 C 28.703125 10.320313 28.738281 10.03125 28.566406 9.746094 C 28.390625 9.464844 28.175781 8.964844 28.332031 8.578125 C 28.332031 8.578125 28.738281 8.75 28.761719 9.183594 C 28.78125 9.609375 28.875 9.914063 28.964844 9.902344 C 29.042969 9.894531 29.46875 9.335938 29.84375 9.171875 C 30.226563 9.007813 30.808594 9.105469 30.808594 9.105469 C 30.808594 9.105469 30.847656 9.699219 30.019531 9.933594 C 29.199219 10.167969 29.28125 10.011719 29.121094 10.117188 C 28.953125 10.226563 29.078125 10.738281 29.128906 10.8125 C 29.175781 10.890625 29.203125 11.46875 29.582031 11.539063 L 29.691406 11.511719 C 29.726563 11.429688 29.914063 10.96875 30.28125 10.601563 C 30.648438 10.226563 31.039063 10.089844 31.28125 10.140625 C 31.28125 10.140625 31.019531 11.011719 30.550781 11.429688 C 30.089844 11.851563 29.554688 11.839844 29.554688 11.839844 C 29.554688 11.839844 29.621094 12.953125 29.792969 13.046875 C 29.972656 13.132813 30.007813 13.046875 30.09375 12.925781 C 30.1875 12.808594 30.332031 12.398438 30.765625 12.148438 C 31.203125 11.890625 31.660156 11.828125 31.660156 11.828125 C 31.660156 11.828125 31.738281 12.558594 31.117188 13.078125 C 30.492188 13.589844 30.058594 13.53125 30.03125 13.609375 C 30 13.695313 30.164063 15.027344 30.582031 15.117188 C 30.582031 15.117188 30.757813 15.0625 30.921875 14.601563 C 31.089844 14.140625 31.5625 13.308594 32.484375 13.503906 C 32.484375 13.503906 32.523438 14.402344 31.796875 14.972656 C 31.066406 15.539063 30.59375 15.566406 30.59375 15.566406 C 30.59375 15.566406 30.535156 15.855469 30.726563 16.195313 C 30.921875 16.539063 31.007813 16.789063 31.089844 16.933594 C 31.164063 17.085938 31.425781 16.710938 31.457031 16.617188 C 31.484375 16.519531 31.832031 15.695313 33.191406 15.597656 C 33.191406 15.597656 33.074219 16.265625 33 16.539063 C 32.921875 16.808594 32.507813 17.652344 31.164063 17.449219 C 31.164063 17.449219 31.414063 19.246094 31.730469 19.410156 C 31.730469 19.410156 31.867188 19.375 31.964844 19.167969 C 32.058594 18.964844 32.320313 17.984375 33.765625 17.914063 C 33.765625 17.914063 33.871094 18.769531 33.5625 19.167969 C 33.253906 19.570313 32.308594 19.753906 31.890625 19.792969 C 31.890625 19.792969 31.796875 20.15625 31.964844 20.625 C 32.125 21.09375 32.214844 21.441406 32.308594 21.414063 C 32.40625 21.398438 32.347656 21.257813 32.515625 21.039063 C 32.679688 20.8125 33.726563 19.832031 34.417969 19.976563 C 34.417969 19.976563 34.503906 20.617188 34.289063 20.976563 C 34.074219 21.335938 33.550781 21.800781 33.058594 21.742188 C 32.558594 21.679688 32.484375 21.660156 32.464844 21.710938 C 32.449219 21.757813 32.382813 21.902344 32.550781 22.414063 C 32.726563 22.921875 32.660156 23.082031 32.660156 23.082031 L 32.414063 23.074219 "/>
<path style=" stroke:none;fill-rule:nonzero;fill:rgb(100%,100%,100%);fill-opacity:1;" d="M 30.175781 24.765625 L 33.175781 29.074219 C 33.175781 29.074219 36.125 27.902344 39.238281 28.742188 L 43.40625 28.742188 L 48.246094 26.5 L 48.800781 24.539063 L 44.351563 24.929688 L 44.296875 23.867188 L 41.40625 23.867188 L 41.460938 23.027344 L 39.183594 22.300781 L 38.515625 24.371094 L 35.515625 24.316406 L 35.121094 24.992188 L 30.175781 24.765625 "/>
<path style=" stroke:none;fill-rule:nonzero;fill:rgb(100%,100%,100%);fill-opacity:1;" d="M 42.386719 19.851563 C 42.386719 19.851563 42.648438 20.261719 43.574219 20.222656 C 44.5 20.1875 44.722656 18.917969 45.019531 18.320313 C 45.3125 17.71875 46.019531 17.269531 46.019531 17.269531 C 44.207031 16.449219 43.347656 17.859375 43.238281 18.65625 C 43.128906 19.476563 42.386719 19.851563 42.386719 19.851563 "/>
<path style=" stroke:none;fill-rule:nonzero;fill:rgb(100%,100%,100%);fill-opacity:1;" d="M 39.847656 21.652344 C 39.847656 21.652344 41.234375 22.015625 41.292969 21.902344 C 41.351563 21.792969 41.488281 21.597656 40.515625 21.285156 C 40.515625 21.285156 40.238281 21.066406 40.34375 20.761719 L 41.324219 20.675781 L 42.488281 21.320313 L 41.851563 22.523438 C 41.851563 22.523438 40.652344 22.605469 40.125 22.269531 C 39.601563 21.9375 39.847656 21.652344 39.847656 21.652344 "/>
<path style=" stroke:none;fill-rule:nonzero;fill:rgb(100%,100%,100%);fill-opacity:1;" d="M 33.929688 30.339844 C 33.929688 30.339844 29.707031 29.917969 29.925781 31.855469 C 29.925781 31.855469 31.480469 30.621094 33.898438 31.207031 L 33.929688 30.339844 "/>
<path style=" stroke:none;fill-rule:nonzero;fill:rgb(100%,100%,100%);fill-opacity:1;" d="M 35.039063 30.203125 L 35.238281 30.703125 C 35.238281 30.703125 37.875 29.972656 39.378906 30.589844 C 40.875 31.207031 41.292969 31.40625 41.960938 31.265625 L 42.046875 30.175781 C 42.046875 30.175781 40.402344 29.949219 39.765625 29.808594 C 39.128906 29.667969 36.816406 28.964844 35.039063 30.203125 "/>
<path style=" stroke:none;fill-rule:nonzero;fill:rgb(100%,100%,100%);fill-opacity:1;" d="M 41.097656 32.332031 C 41.097656 32.332031 35.484375 31.289063 32.789063 32.78125 L 32.789063 33.285156 C 32.789063 33.285156 37.875 32.101563 40.597656 33.589844 L 41.097656 32.332031 "/>
<path style=" stroke:none;fill-rule:nonzero;fill:rgb(100%,100%,100%);fill-opacity:1;" d="M 43.285156 30.851563 L 43.308594 29.570313 C 43.308594 29.570313 44.203125 28.941406 45.207031 28.941406 C 46.203125 28.941406 46.878906 29.214844 47.09375 29.214844 C 47.3125 29.214844 48.5 29.238281 49.421875 28.53125 L 49.640625 29.972656 C 49.640625 29.972656 48.558594 30.820313 47.253906 30.550781 C 45.960938 30.273438 45.226563 30.25 43.285156 30.851563 "/>
<path style=" stroke:none;fill-rule:nonzero;fill:rgb(100%,100%,100%);fill-opacity:1;" d="M 48.144531 31.578125 L 48.164063 31.554688 C 48.007813 31.675781 47.289063 31.6875 46.679688 31.578125 C 44.832031 31.179688 43.722656 31.46875 43.675781 31.480469 C 42.488281 31.746094 42.109375 32.519531 42.074219 32.609375 C 41.949219 32.882813 42.066406 33.199219 42.335938 33.335938 C 42.605469 33.46875 42.9375 33.355469 43.078125 33.085938 C 43.085938 33.074219 43.28125 32.714844 43.945313 32.570313 C 43.96875 32.558594 44.882813 32.335938 46.464844 32.679688 C 47.097656 32.792969 48.582031 32.960938 49.082031 32.1875 C 49.238281 31.949219 49.15625 31.640625 48.921875 31.464844 C 48.6875 31.285156 48.332031 31.355469 48.144531 31.578125 "/>
<path style=" stroke:none;fill-rule:nonzero;fill:rgb(0%,65.098572%,31.399536%);fill-opacity:1;" d="M 3.957031 26.722656 C 3.957031 42.570313 16.742188 55.457031 32.457031 55.457031 C 48.171875 55.457031 60.957031 42.570313 60.957031 26.722656 C 60.957031 17.703125 56.871094 9.375 49.75 3.886719 L 48.804688 5.132813 C 55.539063 10.320313 59.398438 18.191406 59.398438 26.722656 C 59.398438 41.703125 47.3125 53.890625 32.457031 53.890625 C 17.597656 53.890625 5.507813 41.703125 5.507813 26.722656 C 5.507813 18.117188 9.628906 9.933594 16.515625 4.824219 L 15.59375 3.5625 C 8.304688 8.964844 3.957031 17.617188 3.957031 26.722656 "/>
<path style=" stroke:none;fill-rule:nonzero;fill:rgb(0%,65.098572%,31.399536%);fill-opacity:1;" d="M 30.695313 50.605469 L 30.789063 50.769531 L 31.460938 50.828125 L 31.570313 50.683594 L 31.59375 50.328125 L 31.496094 50.167969 L 30.84375 50.105469 L 30.726563 50.253906 Z M 30.011719 50.667969 L 30.078125 50.074219 C 30.097656 49.90625 30.238281 49.777344 30.386719 49.789063 L 31.988281 49.929688 C 32.140625 49.941406 32.261719 50.09375 32.257813 50.261719 L 32.242188 50.863281 C 32.238281 51.03125 32.109375 51.160156 31.949219 51.148438 L 30.261719 51.003906 C 30.105469 50.988281 29.992188 50.839844 30.011719 50.667969 "/>
<path style=" stroke:none;fill-rule:nonzero;fill:rgb(0%,65.098572%,31.399536%);fill-opacity:1;" d="M 17.617188 44.402344 L 17.4375 44.621094 C 17.46875 44.34375 17.292969 44.105469 17.285156 44.09375 L 15.65625 42.570313 C 15.222656 42.175781 14.769531 42.539063 14.761719 42.546875 L 14.476563 42.804688 L 14.488281 42.824219 C 14.488281 42.921875 15.730469 44.09375 15.855469 44.191406 L 15.789063 44.285156 L 15.679688 44.351563 C 15.5625 44.375 15.453125 44.257813 15.453125 44.257813 C 15.042969 43.855469 14.585938 43.496094 14.242188 43.023438 L 14 43.246094 C 14.46875 43.875 15.109375 44.339844 15.65625 44.894531 C 16 45.140625 16.242188 44.84375 16.242188 44.84375 L 16.5625 44.484375 L 16.546875 44.472656 C 16.535156 44.460938 15.347656 43.355469 15.183594 43.199219 L 15.234375 43.148438 L 15.417969 43.042969 C 15.574219 43.011719 15.707031 43.105469 15.710938 43.105469 L 16.992188 44.304688 C 17.34375 44.648438 17.117188 45.007813 17.105469 45.023438 C 17.089844 45.039063 16.8125 45.375 16.585938 45.648438 C 16.480469 45.773438 16.390625 45.882813 16.339844 45.941406 C 16.269531 45.769531 16.175781 45.691406 16.167969 45.6875 C 15.390625 44.914063 14.507813 44.238281 13.8125 43.382813 L 13.609375 43.566406 C 14.300781 44.414063 15.175781 45.089844 15.953125 45.859375 C 16.183594 46.066406 16.09375 46.222656 16.089844 46.234375 L 16.074219 46.25 L 16.636719 46.707031 L 17.910156 45.097656 L 18.109375 45.238281 L 18.324219 44.957031 L 18.308594 44.949219 C 18.070313 44.773438 17.820313 44.617188 17.617188 44.402344 "/>
<path style=" stroke:none;fill-rule:nonzero;fill:rgb(0%,65.098572%,31.399536%);fill-opacity:1;" d="M 11.980469 37.5 L 11.667969 37.667969 C 11.628906 37.695313 14.191406 41.636719 14.355469 41.566406 L 13.605469 42.195313 C 13.597656 42.019531 13.558594 41.878906 13.523438 41.808594 C 13.921875 41.246094 13.574219 40.824219 13.570313 40.824219 C 13.226563 40.449219 12.980469 40.011719 12.714844 39.582031 C 12.429688 39.171875 12.019531 39.433594 12.015625 39.433594 L 11.539063 39.738281 C 11.855469 40.222656 12.132813 40.730469 12.476563 41.191406 L 12.917969 40.863281 L 12.609375 40.417969 L 12.457031 40.527344 L 12.226563 40.15625 L 12.28125 40.113281 L 12.480469 40.042969 C 12.652344 40.054688 12.78125 40.265625 12.882813 40.4375 C 13.019531 40.675781 13.117188 40.816406 13.113281 40.976563 C 13.121094 41.1875 12.96875 41.316406 12.832031 41.40625 C 12.277344 41.742188 11.742188 40.953125 11.761719 40.929688 C 10.871094 39.664063 11.429688 37.902344 11.445313 37.90625 L 11.464844 37.855469 L 11.0625 38.074219 L 11.058594 38.085938 C 10.542969 40.957031 11.972656 41.980469 12.445313 42.058594 C 12.761719 42.164063 13.011719 42.152344 13.113281 42.089844 C 13.34375 42.449219 12.871094 42.945313 12.863281 42.945313 L 12.851563 42.960938 L 13.210938 43.398438 L 14.753906 42.050781 L 14.882813 42.207031 L 15.148438 41.96875 L 15.136719 41.953125 C 13.902344 40.605469 12.917969 39.066406 11.980469 37.5 "/>
<path style=" stroke:none;fill-rule:nonzero;fill:rgb(0%,65.098572%,31.399536%);fill-opacity:1;" d="M 35.5625 50.640625 L 35.535156 50.652344 L 33.324219 51.378906 L 33.328125 51.554688 L 35.277344 51.457031 C 35.28125 51.457031 35.476563 51.429688 35.628906 51.589844 L 35.671875 51.632813 Z M 38.121094 50.664063 L 38.128906 50.695313 L 38.214844 51.082031 C 38.214844 51.085938 38.273438 51.425781 37.882813 51.484375 C 37.515625 51.542969 36.804688 51.6875 36.792969 51.6875 L 36.773438 51.695313 L 36.707031 51.253906 L 37.328125 51.140625 L 37.464844 51.089844 L 37.480469 50.960938 L 37.472656 50.910156 L 37.464844 50.863281 C 37.429688 50.683594 37.382813 50.550781 37.066406 50.554688 L 36.144531 50.574219 L 36.355469 52.121094 L 35.859375 52.203125 L 35.851563 52.183594 C 35.847656 52.171875 35.742188 51.871094 35.382813 51.890625 L 32.683594 52.027344 L 32.6875 51.25 L 35.507813 50.328125 L 35.492188 50.167969 L 32.65625 50.3125 L 32.660156 49.957031 C 34.371094 49.890625 36.078125 49.820313 37.75 49.410156 L 37.765625 49.402344 L 37.839844 49.753906 L 36.078125 50.085938 L 36.101563 50.273438 L 37.53125 50.308594 C 37.542969 50.304688 38.035156 50.265625 38.121094 50.664063 "/>
<path style=" stroke:none;fill-rule:nonzero;fill:rgb(0%,65.098572%,31.399536%);fill-opacity:1;" d="M 29.921875 51.339844 L 29.863281 51.886719 L 32.242188 52.089844 L 32.257813 51.539063 L 32.234375 51.539063 L 29.921875 51.339844 "/>
<path style=" stroke:none;fill-rule:nonzero;fill:rgb(0%,65.098572%,31.399536%);fill-opacity:1;" d="M 22.519531 46.765625 C 21.234375 46.15625 20.046875 45.386719 18.925781 44.515625 L 18.722656 44.78125 C 19.785156 45.574219 20.863281 46.335938 22.0625 46.90625 C 22.199219 46.976563 22.273438 47.066406 22.277344 47.164063 L 22.210938 47.367188 L 22.191406 47.394531 L 21.253906 46.890625 L 21.238281 46.917969 L 21.15625 47.082031 L 21.09375 47.183594 C 21.039063 46.8125 20.71875 46.609375 20.707031 46.601563 C 20.046875 46.257813 19.488281 45.761719 18.875 45.351563 C 18.539063 45.125 18.261719 45.464844 18.257813 45.46875 L 17.84375 46.019531 C 17.574219 46.398438 17.851563 46.625 17.851563 46.628906 L 19.488281 47.796875 C 19.839844 47.933594 20.035156 47.621094 20.039063 47.621094 L 20.28125 47.214844 L 19.628906 46.804688 L 19.429688 47.109375 L 19.304688 47.207031 C 19.1875 47.234375 19.058594 47.140625 19.058594 47.132813 L 18.605469 46.8125 C 18.484375 46.710938 18.425781 46.609375 18.433594 46.507813 C 18.4375 46.394531 18.511719 46.316406 18.511719 46.316406 L 18.722656 46.027344 L 18.894531 45.902344 C 19.011719 45.886719 19.140625 45.976563 19.140625 45.980469 C 19.597656 46.277344 20.007813 46.664063 20.503906 46.898438 C 20.949219 47.203125 20.792969 47.636719 20.785156 47.65625 L 20.042969 48.976563 L 20.597656 49.277344 L 21.5625 47.460938 L 22.019531 47.703125 L 21.097656 49.539063 L 21.65625 49.835938 L 22.53125 47.976563 L 22.789063 48.117188 L 22.933594 47.792969 L 22.671875 47.648438 C 22.921875 47.101563 22.523438 46.773438 22.519531 46.765625 "/>
<path style=" stroke:none;fill-rule:nonzero;fill:rgb(0%,65.098572%,31.399536%);fill-opacity:1;" d="M 26.644531 49.953125 L 26.621094 49.953125 C 25.804688 50.027344 25.035156 49.914063 24.222656 49.835938 L 24.167969 49.992188 C 24.804688 50.191406 25.40625 50.511719 26.066406 50.617188 C 26.324219 50.679688 26.363281 50.867188 26.367188 50.875 L 26.40625 50.875 Z M 29.867188 49.746094 L 29.886719 49.746094 L 29.84375 50.101563 L 29.59375 50.078125 L 29.324219 52.117188 L 28.695313 52.046875 L 29.015625 50.019531 L 28.703125 49.945313 L 28.609375 49.976563 L 28.535156 50.144531 L 28.523438 50.203125 L 28.21875 51.914063 L 28.21875 51.941406 C 28.207031 52 28.171875 52.140625 28.074219 52.226563 C 28 52.289063 27.910156 52.304688 27.804688 52.28125 L 26.851563 52.070313 L 26.917969 51.78125 L 27.347656 51.882813 L 27.488281 51.863281 C 27.554688 51.828125 27.601563 51.75 27.628906 51.632813 C 27.65625 51.511719 27.703125 51.261719 27.761719 50.984375 C 27.863281 50.472656 27.976563 49.894531 28 49.785156 L 27.324219 49.632813 L 26.855469 51.632813 L 26.390625 51.527344 L 26.394531 51.507813 C 26.398438 51.492188 26.429688 51.195313 25.996094 51.09375 C 25.085938 50.90625 24.242188 50.480469 23.363281 50.183594 L 23.648438 49.460938 C 23.671875 49.484375 26.691406 49.746094 26.730469 49.628906 L 26.761719 49.507813 C 26.6875 49.609375 23.972656 48.597656 23.976563 48.585938 L 24.105469 48.253906 C 25.945313 49.023438 27.902344 49.480469 29.867188 49.746094 "/>
<path style=" stroke:none;fill-rule:nonzero;fill:rgb(0%,65.098572%,31.399536%);fill-opacity:1;" d="M 47.121094 45.585938 L 46.261719 46.152344 C 46.261719 46.152344 46.878906 46.140625 47.144531 46.523438 C 47.332031 46.417969 47.566406 46.28125 47.644531 46.289063 L 47.632813 46.273438 Z M 52.53125 39.917969 L 53.210938 40.390625 L 53.5 39.351563 L 53.832031 38.863281 L 54.964844 39.542969 C 55.089844 39.617188 55.128906 39.753906 55.054688 39.863281 C 54.320313 40.882813 53.691406 41.988281 52.851563 42.921875 C 52.851563 42.921875 52.738281 43.027344 52.585938 42.894531 C 52.429688 42.765625 51.324219 41.828125 51.324219 41.828125 L 51.714844 41.386719 L 52.738281 42.207031 L 52.757813 42.222656 L 52.824219 42.277344 L 52.828125 42.277344 L 53 42.269531 L 53.125 42.101563 L 53.144531 42.070313 L 54.359375 40.308594 L 54.5 40.097656 L 54.460938 39.9375 L 54.386719 39.886719 L 54.34375 39.867188 L 53.835938 39.542969 L 53.558594 40.691406 L 53.039063 40.996094 L 52.210938 40.390625 C 51.371094 41.648438 50.28125 42.726563 49.230469 43.796875 L 50.40625 45.058594 C 50.902344 44.679688 51.269531 44.175781 51.695313 43.730469 L 51.726563 43.699219 L 51.730469 43.570313 L 51.257813 43.140625 L 51.140625 43.132813 L 51.113281 43.164063 L 51.085938 43.191406 L 50.328125 44.039063 L 50.074219 43.785156 L 51.257813 42.460938 C 51.257813 42.460938 51.335938 42.347656 51.488281 42.476563 C 51.636719 42.609375 52.359375 43.234375 52.359375 43.234375 C 52.359375 43.234375 52.484375 43.339844 52.359375 43.476563 C 52.261719 43.667969 50.222656 45.78125 50.15625 45.710938 L 48.792969 44.175781 L 48.394531 44.519531 C 48.394531 44.519531 48.285156 44.59375 48.417969 44.75 L 49.332031 45.835938 L 49.34375 45.847656 L 49.5 45.867188 L 49.511719 45.863281 L 49.671875 45.71875 L 49.875 45.953125 L 49.285156 46.460938 C 49.285156 46.460938 49.125 46.570313 49 46.410156 C 48.886719 46.273438 48.144531 45.34375 47.976563 45.132813 L 47.96875 45.132813 C 47.878906 45.015625 47.910156 44.941406 47.933594 44.914063 L 47.929688 44.921875 L 47.574219 45.226563 L 48.839844 46.84375 L 48.347656 47.238281 L 47.929688 46.679688 L 47.925781 46.667969 C 47.867188 46.589844 47.617188 46.660156 47.367188 46.828125 L 47.320313 46.859375 C 46.964844 47.09375 46.273438 47.550781 45.964844 47.753906 L 45.917969 47.78125 L 45.847656 47.828125 L 45.835938 47.898438 L 46.066406 48.289063 L 46.136719 48.304688 L 46.199219 48.265625 L 46.246094 48.230469 L 46.746094 47.902344 L 46.921875 48.179688 L 45.84375 48.886719 C 45.84375 48.886719 45.746094 48.96875 45.667969 48.835938 C 45.59375 48.707031 45.179688 47.980469 45.179688 47.980469 C 45.179688 47.980469 45.109375 47.871094 45.214844 47.804688 C 45.335938 47.722656 46.699219 46.824219 46.699219 46.824219 C 46.699219 46.824219 46.371094 46.363281 45.179688 47.207031 L 45.230469 47.292969 C 45.117188 47.367188 44.933594 47.488281 44.933594 47.488281 L 44.742188 47.15625 L 44.394531 47.335938 L 45.382813 49.136719 L 44.816406 49.414063 L 43.871094 47.589844 L 43.605469 47.714844 L 43.472656 47.78125 L 44.386719 49.621094 L 43.816406 49.902344 L 43.703125 49.652344 L 43.507813 49.242188 L 43.503906 49.222656 L 43.484375 49.1875 C 43.484375 49.1875 43.457031 49.097656 43.363281 49.144531 L 43.285156 49.179688 L 43.265625 49.191406 L 42.964844 49.335938 L 42.898438 49.371094 L 42.878906 49.378906 L 42.800781 49.417969 L 42.753906 49.539063 L 42.769531 49.578125 L 42.78125 49.597656 L 42.933594 49.964844 C 42.746094 50.046875 42.566406 50.164063 42.367188 50.21875 L 42.222656 49.855469 L 42.214844 49.824219 L 42.199219 49.785156 C 42.199219 49.785156 42.171875 49.703125 42.078125 49.734375 L 41.851563 49.808594 L 41.8125 49.820313 L 41.410156 49.957031 L 41.382813 49.964844 L 41.296875 49.992188 C 41.203125 50.023438 41.242188 50.105469 41.242188 50.105469 L 41.371094 50.476563 L 41.453125 50.527344 L 41.550781 50.496094 L 41.59375 50.480469 L 41.765625 50.421875 L 41.882813 50.722656 L 41.035156 51.003906 C 41.035156 51.003906 40.902344 51.019531 40.851563 50.867188 C 40.804688 50.71875 40.550781 49.945313 40.550781 49.945313 C 40.550781 49.945313 40.472656 49.761719 40.671875 49.695313 C 40.820313 49.648438 41.570313 49.398438 41.929688 49.277344 L 41.949219 49.273438 L 42.085938 49.226563 C 42.238281 49.164063 42.304688 49.265625 42.328125 49.3125 C 42.308594 49.265625 42.285156 49.128906 42.433594 49.058594 L 42.4375 49.058594 L 42.441406 49.054688 L 42.535156 49.007813 L 43.09375 48.742188 L 43.109375 48.738281 L 43.273438 48.726563 L 42.953125 48.035156 C 42.050781 48.535156 41.066406 48.835938 40.089844 49.152344 L 40.050781 49.167969 L 39.96875 49.191406 L 40.585938 51.15625 L 39.980469 51.351563 L 39.421875 49.375 L 39.144531 49.46875 L 39.046875 49.125 L 39.339844 49.027344 C 39.175781 48.445313 39.625 48.1875 39.632813 48.183594 C 40.792969 47.84375 41.921875 47.417969 42.988281 46.835938 L 43.136719 47.132813 C 42.15625 47.660156 41.132813 48.09375 40.058594 48.398438 C 39.910156 48.445313 39.824219 48.523438 39.800781 48.613281 L 39.808594 48.738281 L 39.847656 48.859375 L 39.957031 48.824219 L 39.992188 48.8125 C 41.195313 48.472656 42.34375 47.992188 43.449219 47.398438 L 43.722656 47.265625 C 43.441406 46.730469 43.851563 46.417969 43.855469 46.414063 L 43.859375 46.414063 C 44.90625 45.792969 45.949219 45.125 46.921875 44.386719 L 47.121094 44.648438 C 46.242188 45.351563 45.257813 45.914063 44.332031 46.558594 C 44.195313 46.632813 44.117188 46.710938 44.113281 46.804688 L 44.144531 46.925781 L 44.207031 47.03125 L 44.226563 47.023438 L 44.304688 46.984375 L 44.34375 46.96875 L 44.433594 46.925781 C 46.457031 45.679688 48.402344 44.269531 50 42.5 L 50.117188 42.367188 L 50.308594 42.15625 L 50.21875 42.070313 L 50.109375 42.011719 C 50.015625 41.992188 49.917969 42.039063 49.8125 42.15625 C 49.117188 43.027344 48.214844 43.679688 47.386719 44.414063 L 47.183594 44.15625 C 48.097656 43.375 49.035156 42.617188 49.792969 41.675781 L 49.792969 41.667969 C 49.796875 41.667969 50.214844 41.359375 50.667969 41.753906 L 50.699219 41.722656 L 50.84375 41.5625 C 51.742188 40.628906 52.351563 39.464844 53.121094 38.433594 L 53.425781 38.613281 L 52.53125 39.917969 "/>
<path style=" stroke:none;fill-rule:nonzero;fill:rgb(0%,65.098572%,31.399536%);fill-opacity:1;" d="M 301.335938 24.765625 C 301.335938 23.835938 301.792969 23.078125 302.351563 23.078125 L 308.746094 23.078125 C 309.304688 23.078125 309.757813 23.835938 309.757813 24.765625 L 309.757813 28.644531 C 309.757813 29.570313 309.304688 30.328125 308.746094 30.328125 L 302.351563 30.328125 C 301.792969 30.328125 301.335938 29.570313 301.335938 28.644531 Z M 297.585938 33.367188 L 313.511719 33.367188 C 315.007813 33.367188 316.226563 31.847656 316.226563 29.976563 L 316.226563 23.433594 C 316.226563 21.558594 315.007813 20.035156 313.511719 20.035156 L 297.585938 20.035156 C 296.085938 20.035156 294.867188 21.558594 294.867188 23.433594 L 294.867188 29.976563 C 294.867188 31.847656 296.085938 33.367188 297.585938 33.367188 "/>
<path style=" stroke:none;fill-rule:nonzero;fill:rgb(0%,65.098572%,31.399536%);fill-opacity:1;" d="M 158.304688 20.03125 C 158.304688 20.03125 158.304688 22.171875 158.304688 23.089844 C 156.828125 20.65625 153.957031 20.054688 153.824219 20.042969 L 131.800781 20.042969 C 125.984375 20.664063 125.691406 27.253906 125.691406 27.308594 L 125.691406 31.5625 L 125.882813 31.5625 C 126.59375 31.5625 142.707031 31.628906 144.203125 31.5625 C 144.292969 32.007813 144.363281 32.429688 144.363281 32.789063 C 144.363281 33.328125 144.261719 33.777344 144.054688 34.121094 C 143.40625 35.230469 141.917969 35.066406 141.902344 35.066406 L 125.746094 35.066406 L 125.746094 38.652344 L 147.328125 38.652344 C 151.175781 38.074219 151.050781 33.890625 151.046875 33.847656 L 151.046875 28.601563 L 150.851563 28.601563 C 150.691406 28.601563 135.210938 28.667969 133.042969 28.605469 C 133.019531 28.339844 132.996094 28.078125 132.996094 27.832031 C 132.996094 26.929688 133.175781 26.175781 133.53125 25.585938 C 134.367188 24.199219 135.90625 23.921875 135.921875 23.921875 L 152.992188 23.921875 C 157.820313 24.054688 158.34375 28.632813 158.363281 28.820313 L 158.363281 28.824219 C 158.363281 29.0625 158.382813 33.855469 158.382813 37.753906 C 158.382813 39.535156 158.378906 41.074219 158.367188 41.96875 C 156.835938 41.09375 155.722656 41.179688 155.675781 41.183594 L 125.527344 41.183594 L 125.527344 44.210938 L 155.195313 44.136719 C 158.007813 44.136719 158.296875 46.078125 158.304688 46.191406 L 158.324219 46.417969 L 164.847656 46.417969 C 164.847656 46.417969 164.847656 24.433594 164.847656 23.921875 C 165.175781 23.921875 167.210938 23.921875 167.210938 23.921875 L 167.210938 20.03125 L 158.304688 20.03125 "/>
<path style=" stroke:none;fill-rule:nonzero;fill:rgb(0%,65.098572%,31.399536%);fill-opacity:1;" d="M 69.804688 20.03125 L 69.804688 23.921875 C 69.804688 23.921875 115.589844 23.921875 115.96875 23.921875 C 115.96875 24.398438 115.96875 33.828125 115.96875 34.667969 C 114.683594 33.523438 113.429688 32.871094 112.664063 32.644531 C 110.914063 25.355469 105.605469 25.378906 105.554688 25.382813 L 90.957031 25.382813 C 86.09375 25.621094 86.140625 30.933594 86.140625 30.988281 L 86.140625 37.210938 L 102.132813 37.210938 L 102.132813 31.179688 L 97.007813 31.179688 C 97.007813 31.179688 97.007813 32.847656 97.007813 33.246094 C 96.671875 33.246094 93.1875 33.246094 92.882813 33.246094 C 92.855469 32.976563 92.835938 32.703125 92.835938 32.453125 C 92.835938 31.519531 93.011719 30.789063 93.367188 30.230469 C 94.371094 28.667969 96.742188 28.703125 98.648438 28.730469 C 101.242188 28.773438 102.917969 29.261719 104.074219 30.316406 C 105.710938 31.710938 105.828125 33.929688 105.742188 35.710938 C 105.074219 42.488281 96.4375 42.066406 96.351563 42.070313 C 82.585938 42.972656 70.894531 27.535156 70.773438 27.375 L 70.441406 26.941406 L 70.441406 31.941406 L 70.523438 32.011719 C 91.339844 53.359375 104.695313 46.199219 108.300781 43.496094 C 110.835938 41.59375 112.179688 39.386719 112.316406 38.074219 C 116.257813 38.640625 116.921875 46.121094 116.929688 46.1875 L 116.949219 46.417969 L 122.023438 46.417969 C 122.023438 46.417969 122.023438 24.433594 122.023438 23.921875 C 122.34375 23.921875 124.027344 23.921875 124.027344 23.921875 L 124.027344 20.03125 L 69.804688 20.03125 "/>
<path style=" stroke:none;fill-rule:nonzero;fill:rgb(0%,65.098572%,31.399536%);fill-opacity:1;" d="M 347.984375 40.0625 L 347.65625 39.5625 C 346.4375 37.722656 344.566406 37.890625 344.535156 37.890625 L 326.4375 37.890625 L 326.4375 35.988281 L 347.746094 29.25 L 347.984375 29.179688 Z M 367.117188 29.246094 C 367.105469 29.246094 353.9375 26.070313 353.617188 25.996094 C 353.617188 25.667969 353.617188 24.3125 353.617188 23.925781 C 353.996094 23.925781 371.105469 23.925781 371.105469 23.925781 L 371.105469 20.035156 L 320.164063 20.035156 L 320.164063 23.925781 C 320.164063 23.925781 347.464844 23.925781 347.847656 23.925781 C 347.847656 24.292969 347.847656 25.394531 347.847656 25.699219 C 347.546875 25.785156 320.496094 34.230469 320.496094 34.230469 L 320.496094 42.730469 L 345.105469 42.730469 C 348.40625 42.730469 349.046875 46.074219 349.066406 46.214844 L 349.105469 46.417969 L 353.617188 46.417969 C 353.617188 46.417969 353.617188 29.882813 353.617188 29.296875 C 354.035156 29.378906 362.335938 31.003906 362.335938 31.003906 C 365.285156 31.582031 365.515625 33.113281 365.515625 35.09375 C 365.515625 35.269531 365.515625 35.449219 365.515625 35.628906 L 365.507813 36.191406 C 365.507813 36.796875 365.375 37.238281 365.125 37.507813 C 364.636719 38.046875 363.796875 37.792969 363.785156 37.792969 L 357.9375 37.777344 L 357.9375 42.628906 L 358.136719 42.628906 C 358.195313 42.628906 364.835938 42.527344 368.214844 42.628906 C 371.785156 42.734375 371.914063 39.019531 371.914063 38.976563 L 371.914063 34.652344 C 371.925781 34.53125 371.925781 34.414063 371.925781 34.300781 C 371.925781 29.839844 367.234375 29.261719 367.117188 29.246094 "/>
<path style=" stroke:none;fill-rule:nonzero;fill:rgb(0%,65.098572%,31.399536%);fill-opacity:1;" d="M 294.769531 37.371094 L 294.769531 43.394531 L 316.484375 43.394531 L 316.484375 37.371094 L 294.769531 37.371094 "/>
<path style=" stroke:none;fill-rule:nonzero;fill:rgb(0%,65.098572%,31.399536%);fill-opacity:1;" d="M 212.617188 12.277344 L 169.292969 12.277344 L 169.292969 15.878906 L 209.128906 15.96875 C 210.679688 15.96875 211.753906 16.441406 212.238281 17.335938 C 212.488281 17.792969 212.550781 19.285156 212.550781 19.652344 C 212.550781 19.824219 212.53125 19.925781 212.519531 20.03125 C 212.214844 20.03125 201.953125 20.03125 201.953125 20.03125 L 201.976563 20.351563 C 201.976563 20.363281 202.035156 21.25 202.035156 22.40625 C 202.035156 22.796875 202.011719 23.230469 201.996094 23.664063 C 199.746094 20.328125 195.992188 20.027344 195.828125 20.03125 L 173.90625 20.03125 C 169.867188 20.121094 169.746094 24.9375 169.746094 24.984375 L 169.746094 32.558594 C 169.890625 37.675781 173.171875 37.917969 173.199219 37.917969 L 191.796875 37.917969 C 195.21875 37.367188 195.328125 33.390625 195.328125 33.347656 L 195.328125 28.15625 L 187.910156 28.15625 L 187.910156 32.113281 C 187.910156 32.796875 187.746094 33.367188 187.421875 33.792969 C 186.628906 34.820313 185.136719 34.753906 185.125 34.753906 L 179.886719 34.753906 C 178.460938 34.636719 177.453125 34.082031 176.917969 33.125 C 176.351563 32.105469 176.527344 30.953125 176.527344 30.9375 L 176.535156 26.996094 C 176.535156 26.054688 176.746094 25.296875 177.175781 24.816406 C 178.019531 23.886719 179.570313 23.917969 179.585938 23.921875 L 195.625 23.921875 C 200.886719 24.597656 201.601563 29.578125 201.628906 29.785156 L 201.625 46.417969 L 207.28125 46.417969 C 207.28125 46.417969 207.28125 24.433594 207.28125 23.921875 C 207.625 23.921875 212.003906 23.921875 212.34375 23.921875 C 212.34375 24.433594 212.34375 46.417969 212.34375 46.417969 L 218.019531 46.417969 C 218.019531 46.417969 218.019531 24.433594 218.019531 23.921875 C 218.359375 23.921875 220.875 23.921875 220.875 23.921875 L 220.875 20.03125 C 220.875 20.03125 218.136719 20.03125 217.847656 20.03125 C 217.847656 13.429688 212.671875 12.277344 212.617188 12.277344 "/>
<path style=" stroke:none;fill-rule:nonzero;fill:rgb(0%,65.098572%,31.399536%);fill-opacity:1;" d="M 261.945313 39.382813 L 261.578125 39.507813 C 261.550781 39.425781 260.773438 37.484375 258.335938 37.484375 L 239.746094 37.589844 L 239.746094 35.777344 L 261.710938 29.046875 L 261.945313 28.96875 Z M 233.316406 20.035156 L 233.316406 23.921875 C 233.316406 23.921875 261.582031 23.921875 261.964844 23.921875 C 261.964844 24.277344 261.964844 24.992188 261.964844 25.289063 C 261.671875 25.382813 233.480469 34.136719 233.480469 34.136719 L 233.480469 42.628906 L 258.824219 42.730469 C 262.898438 42.730469 263.253906 46.050781 263.269531 46.191406 L 263.292969 46.417969 L 267.59375 46.417969 C 267.59375 46.417969 267.59375 24.445313 267.59375 23.929688 C 267.941406 23.929688 274 23.929688 274.355469 23.929688 C 274.359375 25.160156 274.355469 31.585938 274.355469 37.269531 C 274.355469 40.40625 274.378906 43.191406 274.355469 44.519531 C 274.324219 45.84375 274.058594 46.800781 273.574219 47.351563 C 273.035156 47.984375 272.367188 47.867188 272.367188 47.867188 L 268.398438 47.863281 L 268.398438 51.0625 L 277.054688 51.0625 C 277.984375 51.03125 278.71875 50.617188 279.246094 49.835938 C 280.019531 48.671875 280.09375 47.050781 280.09375 46.414063 C 280.09375 46.269531 280.09375 46.167969 280.09375 46.15625 L 280.09375 27.128906 C 280.074219 26.898438 280.09375 26.679688 280.09375 26.476563 C 280.09375 25.585938 280.222656 24.914063 280.519531 24.472656 C 280.886719 23.925781 281.347656 23.921875 281.371094 23.921875 C 281.371094 23.921875 284.171875 23.921875 284.515625 23.921875 C 284.515625 24.433594 284.515625 46.417969 284.515625 46.417969 L 290.171875 46.417969 C 290.171875 46.417969 290.171875 24.445313 290.171875 23.929688 C 290.484375 23.929688 292.632813 23.929688 292.632813 23.929688 L 292.632813 20.035156 L 233.316406 20.035156 "/>
<g clip-path="url(#clip2)" clip-rule="nonzero">
<path style=" stroke:none;fill-rule:nonzero;fill:rgb(0%,65.098572%,31.399536%);fill-opacity:1;" d="M 471.175781 33.277344 L 471.175781 33.53125 C 470.664063 32.953125 468.097656 32.757813 466.085938 32.625 C 466.15625 27.492188 461.15625 23.921875 461.15625 23.921875 L 471.175781 23.921875 Z M 563.285156 23.921875 L 563.285156 20.03125 L 522.835938 20.03125 C 522.625 20.03125 522.464844 20.03125 522.414063 20.03125 C 522.414063 13.417969 517.226563 12.277344 517.175781 12.277344 L 480.367188 12.277344 L 480.367188 15.878906 L 513.6875 15.96875 C 515.234375 15.96875 516.316406 16.441406 516.796875 17.335938 C 517.046875 17.792969 517.105469 18.273438 517.105469 18.648438 C 517.105469 18.808594 517.097656 19.925781 517.074219 20.03125 C 516.777344 20.03125 514.246094 20.03125 514.246094 20.03125 L 439.375 20.03125 C 439.367188 19.925781 439.355469 18.808594 439.355469 18.648438 C 439.355469 18.273438 439.40625 17.792969 439.65625 17.335938 C 440.136719 16.441406 441.226563 15.96875 442.777344 15.96875 L 476.804688 15.878906 L 476.804688 12.277344 L 439.277344 12.277344 C 439.234375 12.277344 434.046875 13.417969 434.046875 20.03125 C 433.765625 20.03125 431.027344 20.03125 431.027344 20.03125 L 393.585938 20.03125 C 393.585938 20.03125 392.785156 20.03125 392.484375 20.03125 C 392.476563 19.925781 392.464844 18.808594 392.464844 18.648438 C 392.464844 18.273438 392.527344 17.792969 392.765625 17.335938 C 393.257813 16.441406 394.324219 15.96875 395.875 15.96875 L 429.445313 15.878906 L 429.445313 12.277344 L 392.386719 12.277344 C 392.335938 12.277344 387.15625 13.417969 387.15625 20.03125 C 386.867188 20.03125 384.136719 20.03125 384.136719 20.03125 L 384.136719 23.921875 C 384.136719 23.921875 386.65625 23.921875 386.984375 23.921875 C 386.984375 24.433594 386.984375 46.417969 386.984375 46.417969 L 392.664063 46.417969 C 392.664063 46.417969 392.664063 24.433594 392.664063 23.921875 C 393.007813 23.921875 393.125 23.921875 393.476563 23.921875 L 423.9375 23.921875 L 423.9375 32.25 C 423.675781 31.820313 423.296875 31.5625 422.476563 31.5625 L 422.335938 31.53125 L 415.375 31.53125 C 413.785156 31.53125 413.554688 32.925781 413.535156 33.515625 C 413.507813 32.933594 413.277344 31.5625 411.6875 31.5625 C 411.457031 31.5625 410.785156 31.5625 410.347656 31.5625 L 410.15625 31.5625 C 406.566406 31.5625 399.054688 31.5625 397.617188 31.5625 C 395.585938 31.5625 395.765625 33.777344 395.765625 33.777344 C 395.765625 33.777344 395.765625 42.660156 395.765625 44.382813 C 395.765625 46.121094 396.945313 46.417969 396.945313 46.417969 L 404.945313 46.417969 L 404.945313 42.890625 L 401.925781 42.890625 C 401.925781 42.890625 401.386719 42.773438 401.386719 42.074219 C 401.386719 41.382813 401.386719 37.832031 401.386719 37.832031 C 401.386719 37.832031 401.304688 36.796875 402.234375 36.796875 C 402.394531 36.796875 402.6875 36.796875 403.054688 36.796875 L 407.695313 36.796875 C 408.066406 36.796875 409.707031 36.796875 409.867188 36.796875 C 410.785156 36.796875 410.714844 37.777344 410.714844 37.777344 C 410.714844 37.777344 410.714844 37.957031 410.714844 38.246094 L 410.714844 42.84375 L 416.375 42.84375 L 416.375 38.246094 C 416.375 37.957031 416.375 37.777344 416.375 37.777344 C 416.375 37.777344 416.285156 36.792969 417.214844 36.792969 C 417.375 36.792969 417.65625 36.792969 418.027344 36.792969 L 422.234375 36.792969 C 422.605469 36.792969 422.894531 36.792969 423.054688 36.792969 C 423.984375 36.792969 423.894531 37.777344 423.894531 37.777344 C 423.894531 37.777344 423.894531 37.957031 423.894531 38.246094 L 423.894531 46.417969 L 429.597656 46.417969 L 429.597656 23.921875 L 431.027344 23.921875 C 431.027344 23.921875 433.546875 23.921875 433.875 23.921875 C 433.875 24.433594 433.875 46.417969 433.875 46.417969 L 439.554688 46.417969 C 439.554688 46.417969 439.554688 24.433594 439.554688 23.921875 L 443.386719 23.921875 L 443.386719 28.175781 C 443.386719 28.175781 445.527344 28.175781 446.804688 28.175781 L 446.804688 27.042969 C 460.90625 26.503906 461.007813 32.703125 461.007813 32.703125 C 461.007813 32.703125 445.585938 32.703125 444.214844 32.703125 C 443.035156 32.703125 443.125 34.136719 443.125 34.136719 C 443.125 34.136719 443.125 43.265625 443.125 44.941406 C 443.125 46.609375 444.265625 46.433594 444.265625 46.433594 L 455.855469 46.433594 L 455.855469 42.84375 L 450.414063 42.84375 L 449.867188 42.847656 L 449.234375 42.847656 C 449.234375 42.847656 448.777344 42.914063 448.777344 42.285156 C 448.777344 41.660156 448.777344 37.292969 448.777344 37.292969 C 448.777344 37.292969 448.746094 36.757813 449.214844 36.757813 C 449.316406 36.757813 449.605469 36.757813 450.007813 36.757813 L 450.496094 36.757813 C 453.925781 36.757813 461.644531 36.757813 465.597656 36.757813 L 466.136719 36.753906 C 468.925781 36.753906 471.1875 37.59375 471.1875 38.632813 L 471.195313 38.785156 L 471.195313 46.417969 L 476.847656 46.417969 L 476.847656 23.921875 L 481.464844 23.921875 C 481.097656 23.988281 480.414063 24.355469 480.414063 25.96875 L 480.425781 26.011719 C 480.425781 28.992188 480.425781 42.023438 480.425781 43.96875 C 480.425781 46.179688 482.136719 46.417969 482.136719 46.417969 L 489.136719 46.417969 L 489.136719 43.042969 L 487.175781 43.042969 L 487.066406 43.015625 C 486.515625 43.015625 486.085938 42.433594 486.085938 41.710938 L 486.097656 41.558594 L 486.097656 25.96875 C 486.097656 23.769531 487.367188 23.921875 487.367188 23.921875 L 492.476563 23.921875 L 492.476563 46.417969 C 492.476563 46.417969 518.867188 46.417969 520.707031 46.417969 C 522.386719 46.417969 522.335938 44.644531 522.335938 44.644531 C 522.335938 44.644531 522.335938 34.183594 522.335938 31.976563 C 522.335938 29.773438 521.015625 30.007813 521.015625 30.007813 L 504.105469 30.007813 L 504.105469 33.949219 L 515.546875 33.949219 C 515.546875 33.949219 516.234375 33.828125 516.234375 34.957031 C 516.234375 36.082031 516.234375 41.960938 516.234375 41.960938 C 516.234375 41.960938 516.347656 42.855469 515.394531 42.855469 L 514.976563 42.84375 L 498.125 42.84375 L 498.125 23.921875 L 542.324219 23.921875 L 542.324219 35.210938 L 547.425781 38.007813 L 557.785156 33.355469 L 557.785156 41.480469 C 557.785156 42.238281 557.324219 42.855469 556.757813 42.855469 L 554.835938 42.855469 L 554.445313 42.847656 L 535.035156 42.847656 L 534.695313 42.855469 L 532.765625 42.855469 C 532.195313 42.855469 531.734375 42.238281 531.734375 41.480469 L 531.734375 25.871094 L 525.976563 25.871094 C 525.976563 25.871094 525.976563 41.804688 525.976563 44.015625 C 525.976563 46.21875 527.347656 46.40625 527.347656 46.40625 L 561.207031 46.417969 C 562.347656 46.417969 563.265625 45.171875 563.265625 43.640625 L 563.285156 43.597656 L 563.285156 29.125 L 557.617188 29.125 L 547.90625 33.003906 L 547.90625 23.921875 L 563.285156 23.921875 "/>
</g>
</g>
</svg>
