<?xml version="1.0" encoding="UTF-8"?>
<svg xmlns="http://www.w3.org/2000/svg" xmlns:xlink="http://www.w3.org/1999/xlink" width="213.12pt" height="54.63pt" viewBox="0 0 213.12 54.63" version="1.1">
<defs>
<clipPath id="clip1">
  <path d="M 190 0 L 213.121094 0 L 213.121094 22 L 190 22 Z M 190 0 "/>
</clipPath>
<clipPath id="clip2">
  <path d="M 121 31 L 213 31 L 213 54.628906 L 121 54.628906 Z M 121 31 "/>
</clipPath>
</defs>
<g id="surface1">
<path style=" stroke:none;fill-rule:nonzero;fill:rgb(100%,100%,100%);fill-opacity:1;" d="M 0 22.855469 L 22.859375 22.855469 L 22.859375 0.00390625 L 0 0.00390625 L 0 22.855469 "/>
<path style=" stroke:none;fill-rule:nonzero;fill:rgb(5.099487%,44.699097%,72.898865%);fill-opacity:1;" d="M 18.457031 5.910156 C 15.039063 11.078125 10.023438 17.921875 0.710938 17.355469 L 0.710938 0.71875 L 21.609375 0.71875 C 21.609375 0.71875 20.386719 3 18.457031 5.910156 "/>
<path style=" stroke:none;fill-rule:nonzero;fill:rgb(88.198853%,64.299011%,20.799255%);fill-opacity:1;" d="M 0.710938 18.609375 L 0.710938 22.144531 L 22.148438 22.144531 L 22.148438 0.988281 C 22.148438 0.988281 15.289063 19.960938 0.710938 18.609375 "/>
<path style=" stroke:none;fill-rule:nonzero;fill:rgb(6.698608%,50.999451%,74.099731%);fill-opacity:1;" d="M 7.984375 6.402344 C 5.089844 6.402344 2.746094 8.734375 2.746094 11.625 C 2.746094 14.007813 4.34375 16.011719 6.535156 16.640625 C 9.144531 15.796875 11.308594 14.304688 13.148438 12.5625 C 13.203125 12.261719 13.230469 11.945313 13.230469 11.625 C 13.230469 8.734375 10.886719 6.402344 7.984375 6.402344 "/>
<path style=" stroke:none;fill-rule:nonzero;fill:rgb(34.098816%,58.399963%,76.899719%);fill-opacity:1;" d="M 11.925781 11.625 C 11.925781 13.789063 10.164063 15.546875 7.984375 15.546875 C 5.8125 15.546875 4.050781 13.789063 4.050781 11.625 C 4.050781 9.464844 5.8125 7.71875 7.984375 7.71875 C 10.164063 7.71875 11.925781 9.464844 11.925781 11.625 "/>
<path style=" stroke:none;fill-rule:nonzero;fill:rgb(52.49939%,67.799377%,82.699585%);fill-opacity:1;" d="M 10.613281 11.625 C 10.613281 13.070313 9.429688 14.226563 7.984375 14.226563 C 6.542969 14.226563 5.375 13.070313 5.375 11.625 C 5.375 10.1875 6.542969 9.015625 7.984375 9.015625 C 9.429688 9.015625 10.613281 10.1875 10.613281 11.625 "/>
<path style=" stroke:none;fill-rule:nonzero;fill:rgb(72.499084%,79.998779%,86.299133%);fill-opacity:1;" d="M 9.300781 11.625 C 9.300781 12.351563 8.707031 12.929688 7.984375 12.929688 C 7.261719 12.929688 6.675781 12.351563 6.675781 11.625 C 6.675781 10.902344 7.261719 10.324219 7.984375 10.324219 C 8.707031 10.324219 9.300781 10.902344 9.300781 11.625 "/>
<path style=" stroke:none;fill-rule:nonzero;fill:rgb(5.099487%,44.699097%,72.898865%);fill-opacity:1;" d="M 35.96875 5.085938 L 38.933594 5.085938 C 39.933594 5.085938 40.652344 5.261719 41.074219 5.609375 C 41.46875 5.957031 41.675781 6.4375 41.675781 7.050781 C 41.675781 7.71875 41.46875 8.222656 41.074219 8.570313 C 40.652344 8.925781 39.917969 9.089844 38.875 9.089844 L 35.96875 9.089844 Z M 29.195313 21.992188 L 40.785156 21.992188 C 41.269531 21.992188 42.285156 21.898438 43.78125 21.707031 C 44.925781 21.566406 45.773438 21.339844 46.339844 21.011719 C 47.25 20.503906 47.964844 19.800781 48.480469 18.925781 C 49.011719 18.0625 49.269531 17.058594 49.269531 15.964844 C 49.269531 14.605469 48.902344 13.484375 48.164063 12.589844 C 47.433594 11.699219 46.277344 11.066406 44.71875 10.699219 C 45.742188 10.367188 46.519531 9.878906 47.058594 9.292969 C 47.859375 8.390625 48.269531 7.316406 48.269531 6.054688 C 48.269531 4.5625 47.710938 3.300781 46.582031 2.292969 C 45.464844 1.28125 43.851563 0.761719 41.761719 0.761719 L 29.195313 0.761719 Z M 35.96875 13.140625 L 39.363281 13.140625 C 40.554688 13.140625 41.367188 13.335938 41.84375 13.714844 C 42.3125 14.085938 42.550781 14.585938 42.550781 15.210938 C 42.550781 15.882813 42.308594 16.417969 41.839844 16.816406 C 41.367188 17.21875 40.546875 17.410156 39.386719 17.410156 L 35.96875 17.410156 "/>
<path style=" stroke:none;fill-rule:nonzero;fill:rgb(5.099487%,44.699097%,72.898865%);fill-opacity:1;" d="M 57.90625 5.046875 L 60.832031 5.046875 C 62.050781 5.046875 62.878906 5.230469 63.324219 5.601563 C 63.765625 5.957031 63.980469 6.488281 63.980469 7.164063 C 63.980469 7.636719 63.84375 8.039063 63.566406 8.402344 C 63.289063 8.761719 62.921875 8.984375 62.488281 9.070313 C 61.605469 9.269531 61.015625 9.359375 60.71875 9.359375 L 57.90625 9.359375 Z M 57.90625 21.992188 L 57.90625 13.375 L 58.488281 13.375 C 59.105469 13.375 59.652344 13.527344 60.132813 13.859375 C 60.472656 14.113281 60.878906 14.65625 61.34375 15.5 L 64.910156 21.992188 L 72.503906 21.992188 L 69.234375 15.84375 C 69.066406 15.535156 68.757813 15.097656 68.296875 14.523438 C 67.832031 13.945313 67.476563 13.570313 67.222656 13.398438 C 66.855469 13.136719 66.28125 12.875 65.480469 12.617188 C 66.484375 12.398438 67.277344 12.101563 67.847656 11.78125 C 68.753906 11.253906 69.46875 10.554688 69.980469 9.707031 C 70.5 8.84375 70.757813 7.835938 70.757813 6.65625 C 70.757813 5.300781 70.421875 4.171875 69.742188 3.222656 C 69.074219 2.28125 68.1875 1.632813 67.089844 1.296875 C 65.992188 0.964844 64.398438 0.761719 62.332031 0.761719 L 51.140625 0.761719 L 51.140625 21.992188 "/>
<path style=" stroke:none;fill-rule:nonzero;fill:rgb(5.099487%,44.699097%,72.898865%);fill-opacity:1;" d="M 81.347656 13.910156 L 83.734375 6.28125 L 86.09375 13.910156 Z M 88.597656 21.992188 L 95.632813 21.992188 L 87.519531 0.761719 L 80.117188 0.761719 L 71.957031 21.992188 L 78.816406 21.992188 L 79.921875 18.492188 L 87.507813 18.492188 "/>
<path style=" stroke:none;fill-rule:nonzero;fill:rgb(5.099487%,44.699097%,72.898865%);fill-opacity:1;" d="M 110.273438 13.25 L 116.183594 14.925781 C 115.789063 16.480469 115.15625 17.792969 114.300781 18.839844 C 113.453125 19.882813 112.394531 20.664063 111.132813 21.199219 C 109.871094 21.726563 108.28125 21.992188 106.324219 21.992188 C 103.960938 21.992188 102.027344 21.675781 100.53125 21.027344 C 99.039063 20.375 97.734375 19.238281 96.660156 17.609375 C 95.570313 15.976563 95.035156 13.886719 95.035156 11.339844 C 95.035156 7.941406 95.976563 5.332031 97.898438 3.507813 C 99.808594 1.679688 102.503906 0.761719 106 0.761719 C 108.75 0.761719 110.886719 1.296875 112.449219 2.339844 C 114.019531 3.394531 115.179688 5 115.949219 7.160156 L 110 8.433594 C 109.785156 7.800781 109.578125 7.332031 109.34375 7.046875 C 108.976563 6.546875 108.511719 6.183594 107.972656 5.914063 C 107.425781 5.652344 106.820313 5.515625 106.160156 5.515625 C 104.644531 5.515625 103.480469 6.09375 102.671875 7.246094 C 102.054688 8.105469 101.75 9.449219 101.75 11.28125 C 101.75 13.550781 102.121094 15.113281 102.847656 15.957031 C 103.574219 16.796875 104.609375 17.21875 105.933594 17.21875 C 107.21875 17.21875 108.183594 16.875 108.84375 16.207031 C 109.507813 15.53125 109.976563 14.542969 110.273438 13.25 "/>
<path style=" stroke:none;fill-rule:nonzero;fill:rgb(5.099487%,44.699097%,72.898865%);fill-opacity:1;" d="M 130.1875 5.085938 L 133.148438 5.085938 C 134.160156 5.085938 134.875 5.261719 135.289063 5.609375 C 135.695313 5.957031 135.894531 6.4375 135.894531 7.050781 C 135.894531 7.71875 135.695313 8.222656 135.289063 8.570313 C 134.875 8.925781 134.152344 9.089844 133.105469 9.089844 L 130.1875 9.089844 Z M 123.417969 21.992188 L 135.007813 21.992188 C 135.507813 21.992188 136.511719 21.898438 138.015625 21.707031 C 139.148438 21.566406 140 21.339844 140.570313 21.011719 C 141.464844 20.503906 142.183594 19.800781 142.71875 18.925781 C 143.234375 18.0625 143.496094 17.058594 143.496094 15.964844 C 143.496094 14.605469 143.125 13.484375 142.398438 12.589844 C 141.652344 11.699219 140.511719 11.066406 138.945313 10.699219 C 139.960938 10.367188 140.746094 9.878906 141.285156 9.292969 C 142.082031 8.390625 142.484375 7.316406 142.484375 6.054688 C 142.484375 4.5625 141.929688 3.300781 140.800781 2.292969 C 139.671875 1.28125 138.078125 0.761719 135.984375 0.761719 L 123.417969 0.761719 Z M 130.1875 13.140625 L 133.585938 13.140625 C 134.777344 13.140625 135.597656 13.335938 136.078125 13.714844 C 136.546875 14.085938 136.765625 14.585938 136.765625 15.210938 C 136.765625 15.882813 136.53125 16.417969 136.0625 16.816406 C 135.589844 17.21875 134.773438 17.410156 133.617188 17.410156 L 130.1875 17.410156 "/>
<path style=" stroke:none;fill-rule:nonzero;fill:rgb(5.099487%,44.699097%,72.898865%);fill-opacity:1;" d="M 151.894531 13.910156 L 154.285156 6.28125 L 156.636719 13.910156 Z M 159.140625 21.992188 L 166.183594 21.992188 L 158.078125 0.761719 L 150.667969 0.761719 L 142.519531 21.992188 L 149.375 21.992188 L 150.472656 18.492188 L 158.058594 18.492188 "/>
<path style=" stroke:none;fill-rule:nonzero;fill:rgb(5.099487%,44.699097%,72.898865%);fill-opacity:1;" d="M 166.542969 0.761719 L 172.796875 0.761719 L 181.007813 12.511719 L 181.007813 0.761719 L 187.355469 0.761719 L 187.355469 21.992188 L 181.007813 21.992188 L 172.851563 10.324219 L 172.851563 21.992188 L 166.542969 21.992188 "/>
<g clip-path="url(#clip1)" clip-rule="nonzero">
<path style=" stroke:none;fill-rule:nonzero;fill:rgb(5.099487%,44.699097%,72.898865%);fill-opacity:1;" d="M 190.050781 0.761719 L 196.773438 0.761719 L 196.773438 8.789063 L 203.808594 0.761719 L 212.75 0.761719 L 204.808594 8.761719 L 213.117188 21.992188 L 204.839844 21.992188 L 200.261719 13.328125 L 196.773438 16.855469 L 196.773438 21.992188 L 190.050781 21.992188 "/>
</g>
<g clip-path="url(#clip2)" clip-rule="nonzero">
<path style=" stroke:none;fill-rule:nonzero;fill:rgb(6.698608%,8.599854%,8.999634%);fill-opacity:1;" d="M 190.136719 37.445313 L 190.15625 37.421875 L 190.171875 37.398438 Z M 198.289063 43.960938 C 198.367188 44.128906 198.414063 44.28125 198.414063 44.414063 C 198.414063 44.546875 198.382813 44.667969 198.324219 44.777344 C 197.871094 45.65625 195.910156 46.277344 194.757813 46.480469 C 194.203125 46.460938 194.074219 46.140625 194.042969 45.933594 L 194.320313 41.117188 C 196.027344 41.773438 198.027344 43.703125 198.289063 43.960938 M 189.257813 45.882813 C 187.785156 45.1875 186.105469 43.976563 186.027344 43.921875 C 185.824219 43.78125 185.714844 43.640625 185.679688 43.46875 L 185.664063 43.324219 C 185.664063 43.066406 185.785156 42.730469 185.988281 42.417969 L 185.988281 42.414063 L 185.996094 42.390625 C 186.933594 40.824219 188.878906 39.515625 189.726563 38.992188 C 189.359375 41.238281 189.277344 44.429688 189.257813 45.882813 M 212.636719 36.609375 C 210.804688 35.386719 209.296875 36.203125 208.746094 36.796875 L 208.636719 36.972656 L 208.613281 37.03125 C 206.414063 35.832031 202.738281 36.351563 202.699219 36.359375 C 200.796875 36.578125 199.875 36.863281 199.59375 36.964844 C 196.902344 35.949219 195.007813 36.925781 194.160156 37.550781 C 193.378906 36.753906 192.582031 36.359375 191.785156 36.40625 C 190.753906 36.476563 190.207031 37.238281 190.15625 37.3125 L 190.066406 37.457031 L 190.054688 37.492188 C 188.148438 35.835938 185.097656 36.410156 183.597656 36.851563 L 183.652344 36.71875 L 183.59375 36.796875 L 183.691406 36.640625 C 183.867188 36.113281 184.835938 33.550781 187.027344 32.851563 C 188.6875 32.316406 190.722656 32.964844 193.066406 34.769531 C 193.195313 34.878906 193.367188 34.929688 193.546875 34.90625 C 193.726563 34.882813 193.890625 34.789063 194 34.648438 C 194.222656 34.355469 194.164063 33.9375 193.878906 33.714844 C 191.15625 31.625 188.710938 30.910156 186.601563 31.585938 C 183.523438 32.574219 182.441406 36.144531 182.425781 36.210938 C 182.121094 36.84375 181.835938 37.9375 181.574219 39.441406 C 180.65625 37.550781 179.808594 36.550781 178.925781 36.425781 C 178.421875 36.359375 178.105469 36.554688 177.929688 36.722656 L 177.835938 36.742188 L 177.777344 36.757813 L 177.734375 36.792969 C 177.046875 37.34375 176.492188 40.234375 176.066406 45.339844 C 175.683594 45.113281 175.210938 44.832031 174.597656 44.503906 C 175.023438 43.773438 175.359375 42.902344 175.582031 41.820313 C 175.695313 41.105469 176.09375 37.617188 173.40625 36.742188 L 173.386719 36.734375 L 173.367188 36.730469 C 173.054688 36.675781 171.441406 36.4375 170.132813 37.351563 C 169.261719 37.964844 168.726563 38.9375 168.546875 40.242188 L 168.546875 40.277344 C 168.542969 40.507813 168.578125 41.675781 169.382813 42.386719 C 169.90625 42.839844 170.589844 42.996094 171.40625 42.859375 C 171.765625 42.8125 172.019531 42.464844 171.964844 42.105469 C 171.941406 41.929688 171.847656 41.769531 171.707031 41.667969 C 171.5625 41.5625 171.375 41.515625 171.199219 41.550781 C 170.910156 41.59375 170.507813 41.605469 170.269531 41.390625 C 169.898438 41.0625 169.882813 40.433594 169.878906 40.371094 C 170 39.484375 170.339844 38.839844 170.890625 38.449219 C 171.660156 37.910156 172.640625 37.976563 173.046875 38.03125 C 174.171875 38.398438 174.339844 39.832031 174.339844 40.65625 C 174.339844 40.960938 174.316406 41.28125 174.277344 41.5625 L 174.277344 41.570313 C 174.066406 42.570313 173.742188 43.421875 173.316406 44.101563 L 173.335938 44.082031 L 172.839844 44.710938 L 172.734375 44.839844 C 171.605469 46.011719 170.335938 45.933594 170.324219 45.933594 C 165.363281 45.332031 165.0625 36.730469 165.054688 36.648438 C 165.042969 36.273438 164.738281 35.980469 164.371094 35.984375 C 164.007813 35.996094 163.710938 36.296875 163.71875 36.660156 C 163.730469 37.070313 164.0625 46.515625 170.171875 47.265625 L 170.207031 47.265625 C 170.414063 47.277344 172.296875 47.296875 173.832031 45.59375 C 175.097656 46.28125 175.972656 46.824219 176.082031 46.960938 C 176.261719 47.183594 176.5625 47.28125 176.816406 47.207031 C 177.097656 47.113281 177.289063 46.894531 177.300781 46.632813 C 177.644531 41.875 178.257813 38.167969 178.59375 37.820313 L 178.46875 37.886719 C 178.570313 37.871094 178.648438 37.808594 178.726563 37.753906 L 178.730469 37.753906 C 178.777344 37.765625 179.570313 37.929688 180.910156 41.175781 C 180.972656 41.324219 181.101563 41.429688 181.257813 41.5 C 181.046875 43.03125 180.871094 44.761719 180.722656 46.679688 L 180.710938 46.828125 L 180.710938 46.878906 C 180.710938 47.230469 180.980469 47.523438 181.328125 47.550781 C 181.699219 47.5625 182.011719 47.292969 182.042969 46.925781 C 182.042969 46.867188 182.441406 41.488281 183.121094 38.421875 L 183.164063 38.414063 C 183.316406 38.351563 186.554688 37.140625 188.582031 38.140625 C 187.570313 38.796875 185.828125 40.066406 184.863281 41.691406 C 184.871094 41.675781 184.328125 42.425781 184.328125 43.328125 C 184.328125 43.4375 184.339844 43.554688 184.363281 43.703125 C 184.46875 44.253906 184.785156 44.703125 185.265625 45.015625 C 185.710938 45.339844 188.019531 46.980469 189.714844 47.519531 C 189.953125 47.570313 190.171875 47.53125 190.324219 47.40625 C 190.484375 47.292969 190.585938 47.09375 190.585938 46.878906 L 190.585938 46.710938 C 190.585938 46.046875 190.605469 40.179688 191.292969 38.027344 C 191.367188 37.949219 191.5625 37.753906 191.882813 37.734375 C 192.226563 37.722656 192.664063 37.976563 193.140625 38.441406 C 193.078125 39.496094 192.730469 45.644531 192.714844 45.925781 C 192.734375 46.597656 193.195313 47.820313 194.785156 47.820313 L 194.800781 47.820313 L 194.84375 47.816406 L 194.851563 47.816406 L 194.863281 47.8125 L 194.890625 47.8125 C 195.519531 47.703125 198.632813 47.085938 199.511719 45.398438 C 199.675781 45.070313 199.75 44.757813 199.75 44.417969 C 199.75 44.054688 199.65625 43.6875 199.472656 43.3125 L 199.351563 43.132813 C 199.332031 43.113281 196.683594 40.414063 194.40625 39.734375 L 194.449219 39.003906 L 194.597656 38.921875 C 194.628906 38.886719 196.277344 36.980469 199.347656 38.277344 C 199.511719 38.339844 199.691406 38.34375 199.84375 38.292969 L 199.894531 38.277344 L 199.902344 38.265625 C 199.976563 38.242188 200.871094 37.910156 202.878906 37.679688 C 203.039063 37.65625 206.601563 37.214844 208.195313 38.332031 C 208.03125 39.101563 207.945313 39.9375 207.886719 40.699219 C 207.496094 40.378906 207.082031 40.171875 206.640625 40.183594 C 206.023438 40.214844 205.445313 40.578125 204.90625 41.238281 C 204.65625 40.824219 204.371094 40.492188 204.019531 40.300781 C 203.363281 39.933594 202.738281 40.015625 202.441406 40.089844 L 202.378906 40.101563 L 202.375 40.101563 L 202.375 40.117188 C 200.769531 40.429688 200.234375 43.121094 200.078125 44.296875 C 199.832031 46.738281 201.476563 46.988281 201.542969 46.996094 C 203.074219 47.097656 203.855469 46.039063 204.054688 45.460938 C 204.167969 45.113281 203.988281 44.734375 203.652344 44.613281 C 203.289063 44.496094 202.917969 44.675781 202.796875 45.015625 C 202.78125 45.054688 202.542969 45.703125 201.703125 45.671875 C 201.652344 45.644531 201.300781 45.476563 201.40625 44.449219 C 201.570313 43.066406 202.136719 41.464844 202.648438 41.402344 L 202.761719 41.378906 C 202.761719 41.378906 203.070313 41.292969 203.386719 41.472656 C 203.734375 41.675781 203.996094 42.128906 204.148438 42.800781 C 204.207031 43.074219 204.4375 43.28125 204.71875 43.3125 C 205.019531 43.34375 205.28125 43.195313 205.40625 42.9375 C 205.613281 42.460938 206.21875 41.542969 206.699219 41.519531 C 206.980469 41.507813 207.347656 41.871094 207.710938 42.523438 L 207.808594 42.628906 C 207.792969 44.425781 207.894531 45.90625 207.898438 45.972656 C 207.925781 46.339844 208.242188 46.617188 208.605469 46.589844 C 208.972656 46.558594 209.230469 46.277344 209.230469 45.921875 L 209.195313 45.773438 L 209.226563 45.890625 L 209.222656 45.828125 C 209.171875 44.910156 209.144531 43.945313 209.144531 43.03125 C 209.144531 40.429688 209.375 38.570313 209.8125 37.632813 C 210.039063 37.421875 210.746094 36.949219 211.875 37.707031 C 212.003906 37.808594 212.191406 37.84375 212.371094 37.808594 C 212.554688 37.773438 212.710938 37.671875 212.800781 37.523438 C 212.996094 37.234375 212.929688 36.832031 212.636719 36.609375 M 148.382813 42.164063 C 147.320313 40.917969 145.902344 40.753906 145.226563 40.871094 C 144.789063 40.945313 144.457031 41.203125 144.1875 41.542969 L 144.125 41.449219 L 144.140625 41.476563 L 144.050781 41.367188 L 144.066406 41.378906 L 144.050781 41.359375 L 144.03125 41.339844 C 143.136719 40.527344 143.535156 39.0625 143.601563 38.832031 L 143.605469 38.828125 L 143.628906 38.75 L 143.636719 38.710938 C 144.085938 38.292969 145.871094 36.859375 147.945313 38.269531 C 148.105469 38.882813 148.425781 40.246094 148.425781 41.65625 C 148.425781 41.835938 148.398438 41.992188 148.382813 42.164063 M 155.578125 36.441406 L 155.554688 36.4375 L 155.535156 36.4375 C 155.15625 36.4375 154.824219 36.578125 154.578125 36.832031 C 154.175781 37.246094 154.140625 37.859375 154.140625 38.105469 L 154.140625 38.433594 C 153.777344 37.976563 153.371094 37.578125 152.886719 37.316406 C 151.199219 36.441406 149.375 37.027344 149.027344 37.160156 L 148.902344 37.304688 C 146.019531 35.144531 143.425781 37.128906 142.777344 37.691406 C 142.191406 37.398438 141.011719 36.839844 140.910156 36.820313 L 141.007813 36.859375 C 140.230469 36.355469 139.691406 36.464844 139.375 36.640625 C 138.796875 36.980469 138.699219 37.691406 138.679688 38.039063 C 138.039063 37.0625 137.414063 36.519531 136.785156 36.425781 C 136.25 36.351563 135.929688 36.578125 135.785156 36.722656 L 135.695313 36.742188 L 135.640625 36.757813 L 135.597656 36.792969 C 134.699219 37.519531 134.171875 42.273438 133.921875 45.339844 C 133.472656 45.0625 132.96875 44.773438 132.460938 44.503906 C 132.894531 43.742188 133.234375 42.855469 133.4375 41.820313 C 133.472656 41.644531 134.132813 37.679688 131.261719 36.742188 L 131.242188 36.730469 L 131.21875 36.730469 C 130.773438 36.652344 129.253906 36.46875 127.992188 37.351563 C 127.125 37.964844 126.59375 38.929688 126.40625 40.242188 C 126.40625 40.265625 126.347656 41.59375 127.242188 42.386719 C 127.761719 42.839844 128.441406 42.996094 129.273438 42.859375 C 129.445313 42.835938 129.601563 42.738281 129.703125 42.597656 C 129.808594 42.449219 129.847656 42.265625 129.8125 42.085938 C 129.789063 41.925781 129.699219 41.769531 129.554688 41.667969 C 129.40625 41.5625 129.226563 41.515625 129.046875 41.550781 C 128.765625 41.59375 128.371094 41.605469 128.132813 41.386719 C 127.863281 41.152344 127.753906 40.714844 127.742188 40.363281 C 127.871094 39.480469 128.207031 38.832031 128.757813 38.449219 C 129.515625 37.910156 130.492188 37.976563 130.894531 38.03125 C 131.96875 38.382813 132.195313 39.652344 132.195313 40.65625 C 132.195313 40.960938 132.167969 41.28125 132.125 41.5625 L 132.125 41.566406 C 131.929688 42.550781 131.609375 43.402344 131.183594 44.101563 L 130.703125 44.710938 L 130.632813 44.796875 C 129.488281 46.019531 128.195313 45.933594 128.183594 45.933594 C 123.222656 45.332031 122.921875 36.730469 122.917969 36.648438 C 122.902344 36.265625 122.601563 35.980469 122.234375 35.984375 C 122.046875 35.988281 121.882813 36.0625 121.757813 36.195313 C 121.636719 36.320313 121.574219 36.492188 121.578125 36.671875 C 121.589844 37.070313 121.867188 46.511719 128.03125 47.265625 L 128.0625 47.265625 C 128.40625 47.28125 130.199219 47.257813 131.691406 45.59375 C 132.9375 46.261719 133.828125 46.820313 133.949219 46.960938 C 134.113281 47.183594 134.425781 47.292969 134.679688 47.207031 C 134.953125 47.117188 135.140625 46.90625 135.164063 46.636719 C 135.503906 41.875 136.113281 38.171875 136.453125 37.820313 L 136.585938 37.753906 C 136.632813 37.761719 137.367188 37.933594 138.601563 40.777344 L 138.421875 47.148438 C 138.417969 47.519531 138.710938 47.820313 139.078125 47.832031 C 139.246094 47.835938 139.421875 47.769531 139.550781 47.648438 C 139.679688 47.523438 139.753906 47.359375 139.757813 47.183594 L 139.914063 41.210938 L 139.9375 40.585938 L 140.007813 38.195313 C 140 38.054688 140.023438 37.9375 140.050781 37.855469 C 140.113281 37.878906 140.203125 37.921875 140.339844 38.007813 L 140.367188 38.027344 C 140.746094 38.195313 141.660156 38.621094 142.234375 38.910156 C 142.175781 39.230469 142.121094 39.546875 142.121094 39.847656 C 142.121094 40.832031 142.449219 41.675781 143.074219 42.273438 L 143.042969 42.234375 C 143.207031 42.460938 143.457031 42.839844 143.671875 43.230469 L 143.882813 43.667969 C 143.96875 43.855469 143.980469 43.964844 143.988281 44.003906 C 143.992188 44.324219 143.886719 44.890625 143.621094 45.050781 C 143.355469 45.207031 142.777344 45.050781 142.0625 44.613281 C 141.742188 44.425781 141.34375 44.519531 141.148438 44.828125 C 140.949219 45.152344 141.046875 45.5625 141.371094 45.757813 C 142.578125 46.480469 143.566406 46.628906 144.304688 46.199219 C 145.269531 45.636719 145.332031 44.335938 145.320313 43.945313 L 145.320313 43.914063 C 145.296875 43.640625 145.183594 43.3125 144.992188 42.902344 C 145.03125 42.589844 145.140625 42.234375 145.433594 42.1875 C 145.457031 42.1875 146.878906 41.957031 147.753906 43.582031 C 147.828125 43.714844 147.945313 43.8125 148.078125 43.867188 C 148.050781 43.984375 148.027344 44.105469 148.015625 44.226563 C 147.34375 44.542969 146.863281 44.960938 146.632813 45.492188 C 146.117188 46.679688 146.871094 47.867188 146.878906 47.878906 L 147.007813 48.019531 L 146.96875 47.976563 C 147.554688 48.582031 148.140625 48.652344 148.527344 48.613281 C 149.613281 48.492188 150.261719 47.394531 150.269531 47.378906 C 150.355469 47.246094 150.386719 47.070313 150.34375 46.894531 C 150.308594 46.71875 150.207031 46.570313 150.054688 46.480469 C 149.746094 46.277344 149.339844 46.367188 149.140625 46.679688 C 148.996094 46.898438 148.667969 47.253906 148.378906 47.28125 C 148.257813 47.304688 148.117188 47.222656 147.96875 47.085938 C 147.914063 46.984375 147.78125 46.710938 147.78125 46.390625 C 147.78125 46.261719 147.8125 46.140625 147.859375 46.027344 C 148.046875 45.601563 148.691406 45.257813 149.628906 45.085938 C 149.84375 45.082031 151.179688 45.082031 151.84375 45.902344 C 152.300781 46.460938 152.367188 47.328125 152.046875 48.480469 C 152.035156 48.503906 151.054688 50.902344 144.636719 49.328125 C 144.410156 49.269531 144.167969 49.328125 144 49.5 C 143.832031 49.660156 143.765625 49.902344 143.824219 50.136719 C 143.898438 50.394531 145.652344 56.207031 157.085938 54.214844 C 157.445313 54.152344 157.695313 53.804688 157.632813 53.441406 C 157.5625 53.082031 157.214844 52.839844 156.855469 52.894531 C 149.855469 54.121094 146.953125 52.238281 145.8125 50.917969 C 152.007813 52.011719 153.207031 49.214844 153.324219 48.886719 C 153.773438 47.261719 153.621094 45.976563 152.875 45.0625 C 151.773438 43.710938 149.867188 43.742188 149.496094 43.761719 L 149.484375 43.761719 L 149.472656 43.773438 C 150.003906 41.890625 149.644531 39.648438 149.351563 38.421875 L 149.503906 38.402344 L 149.460938 38.421875 L 149.472656 38.421875 L 149.503906 38.414063 C 149.761719 38.316406 151.117188 37.886719 152.253906 38.5 C 153.089844 38.9375 153.667969 39.839844 153.972656 41.175781 L 154.125 41.390625 L 154.089844 47.375 C 154.089844 47.734375 154.378906 48.035156 154.742188 48.050781 C 155.132813 48.050781 155.429688 47.753906 155.429688 47.375 L 155.476563 38.09375 C 155.46875 37.992188 155.5 37.84375 155.535156 37.777344 C 156.480469 37.945313 157.585938 38.179688 157.949219 38.378906 C 158.09375 38.457031 158.273438 38.480469 158.4375 38.433594 C 158.609375 38.382813 158.761719 38.265625 158.851563 38.109375 C 159.019531 37.765625 158.894531 37.367188 158.574219 37.199219 C 157.773438 36.777344 155.664063 36.457031 155.578125 36.441406 "/>
</g>
</g>
</svg>
