<?xml version="1.0" encoding="UTF-8"?>
<!DOCTYPE svg PUBLIC "-//W3C//DTD SVG 1.1//EN" "http://www.w3.org/Graphics/SVG/1.1/DTD/svg11.dtd">
<svg xmlns="http://www.w3.org/2000/svg" version="1.1" width="512px" height="512px" style="shape-rendering:geometricPrecision; text-rendering:geometricPrecision; image-rendering:optimizeQuality; fill-rule:evenodd; clip-rule:evenodd" xmlns:xlink="http://www.w3.org/1999/xlink">
<g><path style="opacity:0.998" fill="#e54c3c" d="M 26.5,-0.5 C 114.5,-0.5 202.5,-0.5 290.5,-0.5C 304.92,3.42262 313.753,12.756 317,27.5C 317.5,62.1651 317.667,96.8317 317.5,131.5C 211.5,131.5 105.5,131.5 -0.5,131.5C -0.5,96.5 -0.5,61.5 -0.5,26.5C 3.5,12.5 12.5,3.5 26.5,-0.5 Z"/></g>
<g><path style="opacity:1" fill="#37a6c9" d="M 237.5,48.5 C 237.5,50.8333 237.5,53.1667 237.5,55.5C 233.784,67.5262 225.784,72.0262 213.5,69C 202.262,62.2782 199.762,53.1115 206,41.5C 215.962,31.9676 225.629,32.301 235,42.5C 236.122,44.4068 236.955,46.4068 237.5,48.5 Z"/></g>
<g><path style="opacity:1" fill="#efc21a" d="M 237.5,55.5 C 237.5,53.1667 237.5,50.8333 237.5,48.5C 246.361,31.9718 257.528,30.3052 271,43.5C 275.557,54.8268 272.39,63.3268 261.5,69C 249.442,71.4757 241.442,66.9757 237.5,55.5 Z"/></g>
<g><path style="opacity:1" fill="#323e4f" d="M 31.5,43.5 C 37.2617,43.1493 42.9284,43.6493 48.5,45C 53.8333,50 53.8333,55 48.5,60C 41.6649,62.2682 34.9982,61.9348 28.5,59C 26.5715,55.7441 26.0715,52.2441 27,48.5C 28.1932,46.5029 29.6932,44.8362 31.5,43.5 Z"/></g>
<g><path style="opacity:1" fill="#313e4f" d="M 75.5,43.5 C 86.1719,43.3335 96.8385,43.5002 107.5,44C 114.764,46.961 116.264,51.7943 112,58.5C 110.581,59.4601 109.081,60.2935 107.5,61C 97.1667,61.6667 86.8333,61.6667 76.5,61C 70.9109,58.5493 69.0776,54.3826 71,48.5C 72.3657,46.6383 73.8657,44.9717 75.5,43.5 Z"/></g>
<g><path style="opacity:1" fill="#323e4f" d="M 32.5,78.5 C 66.5016,78.3333 100.502,78.5 134.5,79C 140.467,82.3924 141.967,87.2258 139,93.5C 137.581,94.4601 136.081,95.2935 134.5,96C 100.167,96.6667 65.8333,96.6667 31.5,96C 26.8451,93.1034 25.3451,88.9367 27,83.5C 28.7297,81.5981 30.563,79.9314 32.5,78.5 Z"/></g>
<g><path style="opacity:0.98" fill="#945aa5" d="M 384.5,78.5 C 395.783,78.7343 399.283,84.0676 395,94.5C 388.833,100.667 382.667,106.833 376.5,113C 397.876,113.057 419.209,113.724 440.5,115C 449.401,118.235 455.234,124.402 458,133.5C 459.638,183.135 459.972,232.801 459,282.5C 457.023,290.406 452.19,292.906 444.5,290C 442.951,288.786 441.785,287.286 441,285.5C 440.991,235.75 440.324,186.084 439,136.5C 437.786,134.951 436.286,133.785 434.5,133C 414.833,132.333 395.167,132.333 375.5,133C 382.333,139.833 389.167,146.667 396,153.5C 398.245,164.921 393.745,169.088 382.5,166C 369.304,153.138 356.47,139.971 344,126.5C 343.21,123.366 343.543,120.366 345,117.5C 358.062,104.271 371.228,91.2708 384.5,78.5 Z"/></g>
<g><path style="opacity:1" fill="#36495d" d="M -0.5,131.5 C 105.5,131.5 211.5,131.5 317.5,131.5C 317.5,149.167 317.5,166.833 317.5,184.5C 211.5,184.5 105.5,184.5 -0.5,184.5C -0.5,166.833 -0.5,149.167 -0.5,131.5 Z"/></g>
<g><path style="opacity:0.981" fill="#894b9c" d="M 483.5,157.5 C 488.651,157.484 492.151,159.817 494,164.5C 494.667,172.167 494.667,179.833 494,187.5C 490.232,194.922 484.899,196.255 478,191.5C 477.333,190.167 476.667,188.833 476,187.5C 475.333,179.833 475.333,172.167 476,164.5C 477.211,160.666 479.711,158.333 483.5,157.5 Z"/></g>
<g><path style="opacity:0.988" fill="#e44c3c" d="M -0.5,184.5 C 105.5,184.5 211.5,184.5 317.5,184.5C 320.224,207.58 310.557,222.413 288.5,229C 201.833,229.667 115.167,229.667 28.5,229C 13.8332,225.495 4.16657,216.661 -0.5,202.5C -0.5,196.5 -0.5,190.5 -0.5,184.5 Z"/></g>
<g><path style="opacity:0.993" fill="#894a9d" d="M 483.5,210.5 C 488.651,210.484 492.151,212.817 494,217.5C 494.667,239.833 494.667,262.167 494,284.5C 490.558,291.627 485.391,293.127 478.5,289C 477.54,287.581 476.707,286.081 476,284.5C 475.333,262.167 475.333,239.833 476,217.5C 477.211,213.666 479.711,211.333 483.5,210.5 Z"/></g>
<g><path style="opacity:0.995" fill="#4fba6f" d="M 123.5,316.5 C 203.5,316.5 283.5,316.5 363.5,316.5C 363.5,316.833 363.5,317.167 363.5,317.5C 348.167,317.5 332.833,317.5 317.5,317.5C 319.246,349.418 335.579,369.585 366.5,378C 370.486,378.499 374.486,378.666 378.5,378.5C 378.5,362.833 378.5,347.167 378.5,331.5C 379.833,386.833 379.833,442.167 378.5,497.5C 378.5,481.833 378.5,466.167 378.5,450.5C 346.207,452.279 326.04,468.945 318,500.5C 317.501,504.152 317.335,507.818 317.5,511.5C 252.5,511.5 187.5,511.5 122.5,511.5C 121.993,485.314 109.993,466.48 86.5,455C 78.1034,451.821 69.4368,449.988 60.5,449.5C 60.5,426.167 60.5,402.833 60.5,379.5C 88.3013,378.183 107.801,364.85 119,339.5C 121.566,332.036 123.066,324.369 123.5,316.5 Z"/></g>
<g><path style="opacity:0.997" fill="#4eb96e" d="M 407.5,316.5 C 421.833,316.5 436.167,316.5 450.5,316.5C 458.519,318.007 464.019,322.674 467,330.5C 467.667,386.167 467.667,441.833 467,497.5C 464.983,504.682 460.483,509.348 453.5,511.5C 439.167,511.5 424.833,511.5 410.5,511.5C 416.907,508.922 421.074,504.255 423,497.5C 423.667,441.833 423.667,386.167 423,330.5C 420.148,323.142 414.981,318.475 407.5,316.5 Z"/></g>
<g><path style="opacity:0.998" fill="#24ae5f" d="M 450.5,316.5 C 465.837,316.333 481.17,316.5 496.5,317C 503.418,318.427 508.418,322.261 511.5,328.5C 511.5,385.833 511.5,443.167 511.5,500.5C 508.833,505.167 505.167,508.833 500.5,511.5C 484.833,511.5 469.167,511.5 453.5,511.5C 460.483,509.348 464.983,504.682 467,497.5C 467.667,441.833 467.667,386.167 467,330.5C 464.019,322.674 458.519,318.007 450.5,316.5 Z"/></g>
<g><path style="opacity:1" fill="#7dcf9d" d="M 123.5,316.5 C 123.066,324.369 121.566,332.036 119,339.5C 107.801,364.85 88.3013,378.183 60.5,379.5C 60.3334,363.83 60.5001,348.163 61,332.5C 62.5,323.667 67.6667,318.5 76.5,317C 92.1631,316.5 107.83,316.333 123.5,316.5 Z"/></g>
<g><path style="opacity:1" fill="#7dcf9d" d="M 363.5,317.5 C 371.761,318.763 376.761,323.43 378.5,331.5C 378.5,347.167 378.5,362.833 378.5,378.5C 374.486,378.666 370.486,378.499 366.5,378C 335.579,369.585 319.246,349.418 317.5,317.5C 332.833,317.5 348.167,317.5 363.5,317.5 Z"/></g>
<g><path style="opacity:1" fill="#24ae5f" d="M 363.5,317.5 C 363.5,317.167 363.5,316.833 363.5,316.5C 378.167,316.5 392.833,316.5 407.5,316.5C 414.981,318.475 420.148,323.142 423,330.5C 423.667,386.167 423.667,441.833 423,497.5C 421.074,504.255 416.907,508.922 410.5,511.5C 395.5,511.5 380.5,511.5 365.5,511.5C 372.567,509.431 376.9,504.764 378.5,497.5C 379.833,442.167 379.833,386.833 378.5,331.5C 376.761,323.43 371.761,318.763 363.5,317.5 Z"/></g>
<g><path style="opacity:1" fill="#7dcf9d" d="M 211.5,343.5 C 243.105,341.882 266.938,354.548 283,381.5C 296.868,414.11 291.368,442.944 266.5,468C 244.453,485.383 220.119,489.383 193.5,480C 162.422,465.031 147.922,440.197 150,405.5C 156.682,370.985 177.182,350.319 211.5,343.5 Z"/></g>
<g><path style="opacity:1" fill="#4c8157" d="M 216.5,361.5 C 224.355,360.363 228.688,363.696 229.5,371.5C 240.638,373.217 248.638,379.051 253.5,389C 252.404,395.881 248.404,398.881 241.5,398C 231.053,386.556 219.053,384.556 205.5,392C 201.402,395.649 201.735,398.982 206.5,402C 207.833,402.667 209.167,403.333 210.5,404C 217.789,405.263 225.122,406.263 232.5,407C 241.86,409.75 249.027,415.25 254,423.5C 257.396,435.541 253.896,445.041 243.5,452C 238.793,454.735 233.793,456.568 228.5,457.5C 229.112,463.724 226.279,467.057 220,467.5C 214.458,466.459 211.624,463.125 211.5,457.5C 199.492,456.305 191.492,450.138 187.5,439C 188.506,432.665 192.172,429.998 198.5,431C 202.833,434 207.167,437 211.5,440C 216.833,440.667 222.167,440.667 227.5,440C 231.207,439.064 234.374,437.231 237,434.5C 237.667,432.833 237.667,431.167 237,429.5C 234.374,426.769 231.207,424.936 227.5,424C 212.256,425.256 199.423,420.423 189,409.5C 181.333,393.641 185.5,381.808 201.5,374C 204.768,372.85 208.101,372.016 211.5,371.5C 211.34,369.801 211.506,368.134 212,366.5C 213.707,364.963 215.207,363.296 216.5,361.5 Z"/></g>
<g><path style="opacity:1" fill="#7ccf9c" d="M 111.5,396.5 C 117.031,396.177 120.864,398.51 123,403.5C 123.667,410.833 123.667,418.167 123,425.5C 118.825,432.275 113.492,433.275 107,428.5C 105.424,419.911 105.09,411.244 106,402.5C 107.36,399.977 109.193,397.977 111.5,396.5 Z"/></g>
<g><path style="opacity:1" fill="#7dcf9d" d="M 323.5,396.5 C 327.95,396.142 331.45,397.808 334,401.5C 334.667,410.167 334.667,418.833 334,427.5C 330.692,431.327 326.526,432.494 321.5,431C 319.951,429.786 318.785,428.286 318,426.5C 317.333,418.167 317.333,409.833 318,401.5C 319.73,399.598 321.563,397.931 323.5,396.5 Z"/></g>
<g><path style="opacity:1" fill="#7dcf9d" d="M 60.5,449.5 C 69.4368,449.988 78.1034,451.821 86.5,455C 109.993,466.48 121.993,485.314 122.5,511.5C 105.833,511.5 89.1667,511.5 72.5,511.5C 66.2605,508.418 62.4272,503.418 61,496.5C 60.5001,480.837 60.3334,465.17 60.5,449.5 Z"/></g>
<g><path style="opacity:1" fill="#7dcf9d" d="M 378.5,497.5 C 376.9,504.764 372.567,509.431 365.5,511.5C 349.5,511.5 333.5,511.5 317.5,511.5C 317.335,507.818 317.501,504.152 318,500.5C 326.04,468.945 346.207,452.279 378.5,450.5C 378.5,466.167 378.5,481.833 378.5,497.5 Z"/></g>
</svg>
