<?xml version="1.0" encoding="UTF-8"?>
<svg xmlns="http://www.w3.org/2000/svg" xmlns:xlink="http://www.w3.org/1999/xlink" width="422.62pt" height="83.95pt" viewBox="0 0 422.62 83.95" version="1.1">
<defs>
<clipPath id="clip1">
  <path d="M 104 11 L 422.621094 11 L 422.621094 48 L 104 48 Z M 104 11 "/>
</clipPath>
<clipPath id="clip2">
  <path d="M 403 53 L 422.621094 53 L 422.621094 74 L 403 74 Z M 403 53 "/>
</clipPath>
<clipPath id="clip3">
  <path d="M 31 64 L 75 64 L 75 83.949219 L 31 83.949219 Z M 31 64 "/>
</clipPath>
</defs>
<g id="surface1">
<g clip-path="url(#clip1)" clip-rule="nonzero">
<path style=" stroke:none;fill-rule:evenodd;fill:rgb(0%,47.499084%,24.699402%);fill-opacity:1;" d="M 422.617188 17.742188 L 422.617188 15.679688 L 401.15625 15.679688 C 401.15625 13.644531 399.4375 11.210938 396.78125 11.210938 C 395.25 11.210938 384.316406 11.210938 384.316406 11.210938 L 384.316406 12.964844 C 384.316406 12.964844 393.039063 12.964844 393.851563 12.964844 C 394.664063 12.964844 395.726563 13.839844 395.726563 14.246094 C 395.726563 14.652344 395.726563 15.679688 395.726563 15.679688 L 346.769531 15.679688 C 346.769531 15.679688 346.769531 15.308594 346.769531 14.652344 C 346.769531 13.996094 347.332031 12.867188 348.429688 12.867188 C 349.523438 12.867188 358.121094 12.867188 358.121094 12.867188 L 358.121094 11.148438 C 358.121094 11.148438 348.117188 11.148438 344.550781 11.148438 C 340.988281 11.148438 340.332031 15.679688 340.332031 15.679688 L 311.820313 15.679688 C 311.820313 15.679688 311.820313 15.152344 311.820313 14.371094 C 311.820313 13.589844 312.945313 12.710938 313.664063 12.710938 C 314.382813 12.710938 324.199219 12.710938 324.199219 12.710938 L 324.199219 11.085938 C 324.199219 11.085938 314.945313 11.085938 310.914063 11.085938 C 306.882813 11.085938 306.226563 14.902344 306.226563 15.679688 C 306.226563 16.460938 306.226563 40.765625 306.226563 40.765625 L 311.976563 40.765625 L 311.976563 17.742188 L 331.234375 17.742188 L 331.234375 20.839844 L 314.882813 20.839844 C 314.882813 20.839844 314.882813 34.183594 314.882813 36.683594 C 314.882813 39.183594 319.074219 40.765625 320.074219 40.765625 C 321.074219 40.765625 323.136719 40.765625 323.136719 40.765625 C 323.136719 40.765625 323.136719 39.777344 323.136719 38.683594 C 320.105469 38.714844 320.230469 37.339844 320.230469 36.277344 C 320.230469 35.214844 320.230469 23.402344 320.230469 23.402344 L 323.167969 23.402344 L 323.167969 31.699219 L 328.359375 31.699219 L 328.359375 23.589844 L 331.296875 23.589844 L 331.296875 40.765625 L 337.550781 40.765625 L 337.550781 17.742188 L 340.332031 17.742188 L 340.332031 40.765625 L 346.988281 40.765625 L 346.988281 17.742188 L 350.398438 17.742188 C 350.398438 17.742188 350.398438 18.777344 350.398438 20.746094 C 351.304688 22.839844 356.523438 23.839844 356.523438 23.839844 L 356.523438 27.464844 L 350.460938 27.464844 C 350.460938 27.464844 350.460938 31.699219 350.460938 35.433594 C 350.460938 39.167969 354.492188 40.765625 355.304688 40.765625 C 356.117188 40.765625 359.308594 40.765625 359.308594 40.765625 C 359.308594 40.765625 359.308594 39.683594 359.308594 38.683594 C 355.742188 39.152344 355.867188 36.933594 355.867188 36.246094 C 355.867188 35.558594 355.867188 29.609375 355.867188 29.609375 L 360.902344 29.609375 L 364.246094 32.121094 L 364.246094 40.765625 L 370.03125 40.765625 L 370.03125 17.742188 L 376.09375 17.742188 C 376.09375 17.742188 376.09375 18.589844 376.09375 19.464844 C 373.65625 19.246094 373.21875 22.027344 373.21875 23.339844 L 373.21875 36.308594 C 373.84375 40.214844 377.75 40.765625 378.78125 40.765625 C 379.816406 40.765625 382.414063 40.765625 382.414063 40.765625 C 382.414063 40.765625 382.414063 40.382813 382.414063 39.121094 C 378.679688 39.03125 378.996094 36.824219 378.996094 35.476563 L 378.996094 20.804688 C 378.996094 19.636719 380.480469 17.742188 381.199219 17.742188 C 381.921875 17.742188 385.882813 17.742188 385.882813 17.742188 L 385.882813 40.765625 C 385.882813 40.765625 396.320313 40.765625 398.257813 40.765625 C 400.191406 40.132813 400.867188 37.589844 400.867188 35.972656 L 400.867188 25.394531 C 400.867188 23.507813 398.660156 22.289063 398.300781 22.289063 C 397.039063 22.289063 394.027344 22.289063 394.027344 22.289063 C 394.027344 22.289063 394.027344 22.785156 394.027344 23.324219 C 394.972656 23.324219 395.824219 24.539063 395.824219 24.539063 C 395.824219 24.539063 395.824219 36.691406 395.824219 37.457031 C 395.824219 37.457031 395.195313 38.445313 394.699219 38.941406 C 393.351563 39.570313 391.957031 38.984375 391.957031 38.3125 C 391.957031 37.636719 391.957031 17.742188 391.957031 17.742188 L 409.507813 17.742188 C 409.507813 17.742188 409.507813 28.859375 409.507813 29.941406 C 409.460938 31.5625 410.941406 31.699219 410.941406 31.699219 L 417.613281 31.699219 C 417.613281 31.699219 417.613281 35.679688 417.613281 36.964844 C 417.09375 38.25 415.523438 38.652344 414.679688 38.773438 C 414.679688 38.773438 412.148438 39.214844 409.535156 38.25 C 406.921875 37.285156 406.402344 35.316406 406.402344 34.632813 C 406.402344 33.949219 406.402344 22.417969 406.402344 22.417969 L 403.386719 22.417969 C 403.386719 22.417969 403.386719 29.609375 403.386719 34.554688 C 403.386719 39.496094 407.929688 40.765625 408.730469 40.765625 L 419.019531 40.765625 C 421.957031 40.765625 422.617188 37.246094 422.617188 35.800781 C 422.617188 34.351563 422.617188 21.894531 422.617188 21.894531 L 417.535156 21.894531 C 417.535156 21.894531 417.578125 27.933594 417.578125 28.339844 C 417.578125 28.746094 417.171875 29.609375 416.015625 29.609375 C 414.859375 29.609375 414.390625 28.933594 414.390625 27.964844 C 414.390625 26.996094 414.390625 17.742188 414.390625 17.742188 L 422.617188 17.742188 M 364.214844 29.152344 L 363.027344 29.152344 L 360.996094 27.246094 C 360.996094 26.839844 360.996094 23.902344 360.996094 23.902344 L 355.804688 21.121094 L 355.867188 17.742188 L 364.214844 17.742188 L 364.214844 29.152344 M 186.359375 11.054688 C 184.300781 11.054688 171.164063 11.054688 171.164063 11.054688 L 171.164063 12.707031 C 171.164063 12.707031 181.089844 12.707031 182.429688 12.707031 C 183.394531 12.988281 183.988281 13.988281 183.988281 13.988281 L 183.988281 15.679688 L 116.066406 15.679688 L 116.066406 17.71875 L 111.171875 15.679688 L 104.367188 15.679688 L 104.304688 29.609375 L 110.890625 29.609375 L 116.097656 26.558594 L 116.097656 38.601563 L 105.554688 38.601563 C 105.554688 38.601563 105.554688 41.878906 105.554688 43.71875 C 105.554688 45.558594 108.796875 47.152344 109.953125 47.152344 C 111.105469 47.152344 122.058594 47.152344 122.058594 47.152344 L 122.058594 44.59375 L 127.675781 44.59375 L 127.675781 42.753906 C 127.675781 42.753906 119.125 42.753906 116.378906 42.753906 C 115.726563 47.992188 111.542969 45.808594 111.230469 45.21875 C 109.734375 42.691406 111.292969 41.3125 112.386719 40.765625 L 122.402344 40.765625 L 122.402344 17.742188 L 136.941406 17.742188 L 136.941406 20.976563 L 125.304688 20.976563 C 125.304688 20.976563 125.304688 25.59375 125.304688 33.238281 C 126.207031 40.878906 131.761719 40.765625 131.761719 40.765625 L 143.585938 40.765625 L 143.585938 17.742188 L 146.769531 17.742188 L 146.769531 40.765625 L 153.320313 40.765625 L 153.320313 17.742188 L 173.660156 17.742188 L 173.660156 20.726563 L 156.035156 20.726563 C 156.035156 20.726563 156.035156 33.394531 156.035156 36.480469 C 156.035156 39.570313 161.058594 40.765625 162.304688 40.765625 C 163.554688 40.765625 165.457031 40.765625 165.457031 40.765625 C 165.457031 40.765625 165.457031 39.882813 165.457031 39.007813 C 161.992188 38.976563 162.273438 37.574219 162.273438 36.355469 C 162.273438 35.140625 162.273438 23.441406 162.273438 23.441406 L 165.488281 23.441406 L 165.488281 31.082031 L 170.914063 31.082031 L 170.914063 23.660156 L 173.601563 23.660156 L 173.601563 40.765625 L 180.898438 40.765625 L 180.898438 17.742188 L 183.335938 17.742188 L 183.335938 40.765625 L 190.632813 40.765625 C 190.632813 40.765625 190.632813 18.105469 190.632813 15.679688 C 190.632813 13.257813 188.417969 11.054688 186.359375 11.054688 M 116.128906 23.222656 L 110.390625 26.496094 L 110.390625 18.324219 C 113.976563 17.136719 116.128906 20.070313 116.128906 20.070313 L 116.128906 23.222656 M 136.910156 38.914063 C 136.910156 38.914063 135.066406 38.914063 134.414063 38.914063 C 133.757813 38.914063 132.164063 37.792969 132.164063 36.636719 L 132.164063 25.1875 C 132.164063 24.46875 132.511719 23.566406 133.320313 23.566406 C 134.132813 23.566406 136.910156 23.597656 136.910156 23.597656 L 136.910156 38.914063 M 255.144531 15.679688 C 251.539063 15.679688 246.46875 15.679688 246.46875 15.679688 C 246.46875 15.679688 246.46875 22.820313 246.46875 23.183594 C 246.46875 23.550781 248.238281 26.527344 250.621094 26.527344 C 253.003906 26.527344 259.367188 26.527344 259.367188 26.527344 L 259.367188 19.136719 C 259.367188 19.136719 258.75 17.097656 255.144531 15.679688 M 255.386719 24.988281 C 255.386719 24.988281 254.105469 24.988281 252.699219 24.988281 C 251.292969 24.988281 250.746094 23.859375 250.746094 22.757813 C 250.746094 21.65625 250.746094 17.71875 250.746094 17.71875 C 250.746094 17.71875 253.3125 17.71875 253.921875 17.71875 C 254.53125 17.71875 255.386719 19.03125 255.386719 19.886719 C 255.386719 20.742188 255.386719 24.988281 255.386719 24.988281 M 285.863281 20.9375 C 285.183594 20.9375 278.804688 20.9375 278.804688 20.9375 L 278.804688 17.742188 L 287.152344 17.742188 L 287.152344 15.679688 L 261.933594 15.679688 L 261.933594 17.742188 L 272.628906 17.742188 L 272.628906 21.046875 L 262.039063 21.046875 C 262.039063 21.046875 262.039063 30.105469 262.039063 34.800781 C 262.039063 39.492188 265.945313 40.765625 267.164063 40.765625 C 268.378906 40.765625 278.734375 40.765625 278.734375 40.765625 L 278.734375 23.480469 C 278.734375 23.480469 280.917969 23.480469 281.742188 23.480469 C 282.566406 23.480469 282.496094 24.054688 282.496094 24.054688 C 282.496094 24.054688 282.496094 31.179688 282.496094 32.433594 C 282.386719 33.6875 280.632813 34.046875 280.632813 34.046875 L 280.632813 35.191406 C 280.632813 35.191406 284.25 35.191406 285.253906 35.191406 C 286.578125 34.511719 287.296875 32.792969 287.296875 31.699219 L 287.296875 22.15625 C 287.296875 21.582031 286.542969 20.9375 285.863281 20.9375 M 272.628906 38.066406 C 269.796875 38.839844 268.125 37 268.125 35.957031 L 268.125 24.316406 C 268.125 23.597656 269.085938 23.4375 269.085938 23.4375 L 272.628906 23.4375 C 272.628906 23.4375 272.628906 36.277344 272.628906 38.066406 M 253.996094 29.609375 C 249.519531 29.609375 246.34375 29.609375 246.34375 29.609375 L 246.34375 31.324219 C 246.34375 31.324219 249.972656 31.324219 251.183594 31.324219 C 252.394531 31.324219 254.332031 31.324219 254.332031 34.136719 C 254.332031 36.953125 254.332031 40.765625 254.332031 40.765625 L 259.355469 40.765625 C 259.355469 40.765625 259.355469 34.863281 259.355469 33.835938 C 259.355469 32.808594 258.476563 29.609375 253.996094 29.609375 M 207.996094 17.742188 L 219.496094 17.742188 L 219.496094 21.039063 L 207.96875 21.039063 C 207.96875 21.039063 207.96875 32.746094 207.96875 33.683594 C 207.96875 34.621094 208.785156 40.765625 214.5625 40.765625 C 220.34375 40.765625 226.578125 40.765625 226.578125 40.765625 L 226.578125 17.742188 L 230.421875 17.742188 C 230.421875 17.742188 228.03125 20.371094 229.636719 23.609375 L 229.636719 35.652344 C 229.636719 37.285156 229.210938 38.285156 228.363281 38.496094 C 228.363281 39.160156 228.363281 40.765625 228.363281 40.765625 C 228.363281 40.765625 229.515625 40.765625 230.726563 40.765625 C 231.9375 40.765625 234.75 39.613281 234.75 37.042969 L 234.75 24.335938 C 234.265625 23.699219 229.847656 20.503906 234.175781 17.742188 C 237.050781 17.742188 237.351563 17.742188 237.351563 17.742188 L 237.351563 40.765625 L 244.164063 40.765625 L 244.164063 15.679688 L 207.996094 15.679688 L 207.996094 17.742188 M 219.4375 38.191406 C 219.4375 38.191406 217.652344 38.191406 217.167969 38.191406 C 216.683594 38.191406 214.929688 37.375 214.929688 35.921875 L 214.929688 24.699219 C 214.929688 24.003906 215.320313 23.351563 216.230469 23.351563 C 217.136719 23.351563 219.4375 23.351563 219.4375 23.351563 L 219.4375 38.191406 "/>
</g>
<path style=" stroke:none;fill-rule:nonzero;fill:rgb(0%,47.499084%,24.699402%);fill-opacity:1;" d="M 103.59375 72.445313 C 104.949219 72.214844 105.007813 72.1875 105.199219 72.042969 C 105.53125 71.789063 105.921875 71.414063 105.921875 69.816406 L 105.921875 57.1875 C 105.921875 54.785156 105.0625 54.699219 103.59375 54.558594 L 103.59375 53.84375 L 112.515625 53.84375 C 114.734375 53.84375 119.777344 54.273438 119.777344 59.101563 C 119.777344 60.101563 119.472656 62.128906 117.257813 63.414063 C 115.484375 64.445313 114.070313 64.472656 110.410156 64.5 L 110.410156 69.816406 C 110.410156 72.128906 110.9375 72.1875 112.851563 72.445313 L 112.851563 73.160156 L 103.59375 73.160156 L 103.59375 72.445313 M 110.410156 63.5 C 113.765625 63.558594 115.011719 62.730469 115.011719 59.1875 C 115.011719 55.929688 114.015625 54.84375 111.742188 54.84375 C 110.800781 54.84375 110.4375 55.214844 110.410156 55.84375 L 110.410156 63.5 "/>
<path style=" stroke:none;fill-rule:nonzero;fill:rgb(0%,47.499084%,24.699402%);fill-opacity:1;" d="M 139.511719 54.558594 C 137.988281 54.785156 137.351563 55.101563 137.351563 56.984375 L 137.351563 66.101563 C 137.351563 67.785156 136.964844 70.328125 135.796875 71.617188 C 134.410156 73.160156 132 73.703125 130.339844 73.703125 C 129.117188 73.703125 126.511719 73.53125 124.710938 71.902344 C 123.519531 70.816406 122.800781 69.816406 122.800781 66.730469 L 122.800781 57.1875 C 122.800781 54.785156 122.078125 54.730469 120.527344 54.558594 L 120.527344 53.84375 L 129.894531 53.84375 L 129.894531 54.558594 C 128.066406 54.644531 127.207031 54.671875 127.207031 57.1875 L 127.207031 66.730469 C 127.207031 68.359375 127.207031 72.300781 131.195313 72.300781 C 136.074219 72.300781 136.132813 67.929688 136.132813 66.101563 L 136.132813 57.386719 C 136.132813 55.644531 135.796875 54.671875 133.414063 54.558594 L 133.414063 53.84375 L 139.511719 53.84375 L 139.511719 54.558594 "/>
<path style=" stroke:none;fill-rule:nonzero;fill:rgb(0%,47.499084%,24.699402%);fill-opacity:1;" d="M 140.535156 72.445313 C 142.089844 72.273438 142.976563 72.160156 142.976563 70.414063 L 142.976563 56.585938 C 142.976563 54.699219 141.8125 54.644531 140.535156 54.558594 L 140.535156 53.84375 L 149.101563 53.84375 C 150.652344 53.84375 156.308594 53.957031 156.308594 58.414063 C 156.308594 61.585938 153.175781 62.328125 152.011719 62.699219 L 152.011719 62.757813 C 154.339844 63.15625 157.25 64.585938 157.25 67.84375 C 157.25 70.246094 155.308594 73.042969 149.460938 73.160156 L 140.535156 73.160156 L 140.535156 72.445313 M 147.410156 62.5 C 151.125 62.5 151.734375 61.300781 151.734375 58.386719 C 151.734375 56.386719 151.125 54.699219 148.878906 54.699219 C 147.464844 54.699219 147.4375 55.441406 147.410156 56.101563 L 147.410156 62.5 M 147.410156 70.5 C 147.410156 71.789063 147.910156 72.246094 149.074219 72.246094 C 152.121094 72.246094 152.480469 69.703125 152.480469 67.957031 C 152.480469 63.871094 150.042969 63.445313 148.242188 63.359375 L 147.410156 63.359375 L 147.410156 70.5 "/>
<path style=" stroke:none;fill-rule:nonzero;fill:rgb(0%,47.499084%,24.699402%);fill-opacity:1;" d="M 176.84375 73.160156 L 167.863281 73.160156 L 167.863281 72.445313 C 169.582031 72.300781 170.082031 72.273438 170.082031 71.328125 C 170.082031 70.558594 169.195313 68.445313 168.808594 67.53125 L 162.570313 67.53125 C 161.796875 69.585938 161.351563 70.757813 161.351563 71.214844 C 161.351563 72.300781 162.683594 72.386719 163.625 72.445313 L 163.625 73.160156 L 157.996094 73.160156 L 157.996094 72.445313 C 159.492188 72.214844 159.882813 71.246094 160.714844 69.101563 L 166.867188 53.441406 L 167.644531 53.441406 L 173.824219 68.472656 C 175.070313 71.53125 175.515625 72.5 176.84375 72.445313 L 176.84375 73.160156 M 168.390625 66.414063 L 165.59375 59.472656 L 162.984375 66.414063 L 168.390625 66.414063 "/>
<path style=" stroke:none;fill-rule:nonzero;fill:rgb(0%,47.499084%,24.699402%);fill-opacity:1;" d="M 194.304688 73.160156 L 178.285156 73.160156 L 178.285156 72.445313 C 179.835938 72.246094 180.667969 72.160156 180.667969 70.414063 L 180.667969 56.585938 C 180.667969 54.699219 179.53125 54.644531 178.285156 54.558594 L 178.285156 53.84375 L 187.957031 53.84375 L 187.957031 54.558594 C 186.019531 54.644531 185.15625 54.671875 185.15625 57.1875 L 185.15625 70.671875 C 185.15625 72.042969 185.769531 72.273438 187.625 72.273438 C 191.808594 72.273438 193.363281 69.902344 194.636719 66.671875 L 195.441406 66.671875 L 194.304688 73.160156 "/>
<path style=" stroke:none;fill-rule:nonzero;fill:rgb(0%,47.499084%,24.699402%);fill-opacity:1;" d="M 206.5 73.160156 L 196.796875 73.160156 L 196.796875 72.445313 C 198.296875 72.300781 199.375 72.1875 199.375 70.414063 L 199.375 56.585938 C 199.375 54.699219 198.074219 54.644531 196.796875 54.558594 L 196.796875 53.84375 L 206.5 53.84375 L 206.5 54.558594 C 205.195313 54.613281 203.867188 54.644531 203.867188 56.585938 L 203.867188 70.414063 C 203.867188 72.246094 204.976563 72.328125 206.5 72.445313 L 206.5 73.160156 "/>
<path style=" stroke:none;fill-rule:nonzero;fill:rgb(0%,47.499084%,24.699402%);fill-opacity:1;" d="M 214.398438 72.445313 C 215.949219 72.273438 216.835938 72.160156 216.835938 70.414063 L 216.835938 56.585938 C 216.835938 54.699219 215.671875 54.644531 214.398438 54.558594 L 214.398438 53.84375 L 222.960938 53.84375 C 224.515625 53.84375 230.167969 53.957031 230.167969 58.414063 C 230.167969 61.585938 227.035156 62.328125 225.871094 62.699219 L 225.871094 62.757813 C 228.199219 63.15625 231.109375 64.585938 231.109375 67.84375 C 231.109375 70.246094 229.171875 73.042969 223.320313 73.160156 L 214.398438 73.160156 L 214.398438 72.445313 M 221.269531 62.5 C 224.984375 62.5 225.59375 61.300781 225.59375 58.386719 C 225.59375 56.386719 224.984375 54.699219 222.738281 54.699219 C 221.328125 54.699219 221.300781 55.441406 221.269531 56.101563 L 221.269531 62.5 M 221.269531 70.5 C 221.269531 71.789063 221.769531 72.246094 222.933594 72.246094 C 225.980469 72.246094 226.34375 69.703125 226.34375 67.957031 C 226.34375 63.871094 223.902344 63.445313 222.101563 63.359375 L 221.269531 63.359375 L 221.269531 70.5 "/>
<path style=" stroke:none;fill-rule:nonzero;fill:rgb(0%,47.499084%,24.699402%);fill-opacity:1;" d="M 250.703125 73.160156 L 241.726563 73.160156 L 241.726563 72.445313 C 243.441406 72.300781 243.941406 72.273438 243.941406 71.328125 C 243.941406 70.558594 243.054688 68.445313 242.667969 67.53125 L 236.433594 67.53125 C 235.65625 69.585938 235.210938 70.757813 235.210938 71.214844 C 235.210938 72.300781 236.542969 72.386719 237.484375 72.445313 L 237.484375 73.160156 L 231.859375 73.160156 L 231.859375 72.445313 C 233.355469 72.214844 233.742188 71.246094 234.574219 69.101563 L 240.726563 53.441406 L 241.503906 53.441406 L 247.683594 68.472656 C 248.929688 71.53125 249.375 72.5 250.703125 72.445313 L 250.703125 73.160156 M 242.253906 66.414063 L 239.453125 59.472656 L 236.847656 66.414063 L 242.253906 66.414063 "/>
<path style=" stroke:none;fill-rule:nonzero;fill:rgb(0%,47.499084%,24.699402%);fill-opacity:1;" d="M 252.0625 72.445313 C 253.726563 72.246094 254.5 72.042969 254.5 70.160156 L 254.5 56.613281 C 252.949219 54.644531 252.507813 54.558594 252.144531 54.558594 L 252.144531 53.84375 L 257.992188 53.84375 L 267.609375 66.042969 L 267.664063 66.042969 L 267.664063 57.386719 C 267.664063 55.671875 267.335938 54.730469 265.089844 54.558594 L 265.089844 53.84375 L 271.046875 53.84375 L 271.046875 54.558594 C 269.050781 54.816406 268.886719 55.472656 268.886719 56.84375 L 268.886719 73.671875 L 268.109375 73.671875 L 255.777344 58.1875 L 255.722656 58.1875 L 255.722656 69.617188 C 255.722656 71.671875 256.304688 72.214844 258.355469 72.445313 L 258.355469 73.160156 L 252.0625 73.160156 L 252.0625 72.445313 "/>
<path style=" stroke:none;fill-rule:nonzero;fill:rgb(0%,47.499084%,24.699402%);fill-opacity:1;" d="M 292.941406 73.160156 L 283.628906 73.160156 L 283.628906 72.445313 C 285.320313 72.386719 285.820313 72.300781 285.820313 71.84375 C 285.820313 71.472656 285.597656 71.128906 285.152344 70.585938 L 280.109375 64.101563 L 279.359375 64.816406 L 279.359375 70.414063 C 279.359375 72.128906 280.332031 72.246094 281.800781 72.445313 L 281.800781 73.160156 L 272.460938 73.160156 L 272.460938 72.445313 C 273.984375 72.273438 274.871094 72.160156 274.871094 70.414063 L 274.871094 56.585938 C 274.871094 54.699219 273.734375 54.644531 272.460938 54.558594 L 272.460938 53.84375 L 281.828125 53.84375 L 281.828125 54.558594 C 280.304688 54.671875 279.359375 54.730469 279.359375 57.1875 L 279.359375 63.300781 L 285.375 57.070313 C 286.125 56.300781 286.375 56.042969 286.375 55.5 C 286.375 54.84375 286.015625 54.671875 284.019531 54.558594 L 284.019531 53.84375 L 292.027344 53.84375 L 292.027344 54.558594 C 289.117188 54.730469 287.785156 56.128906 283.132813 61.042969 L 291.585938 71.84375 C 292 72.359375 292.386719 72.414063 292.941406 72.445313 L 292.941406 73.160156 "/>
<path style=" stroke:none;fill-rule:nonzero;fill:rgb(0%,47.499084%,24.699402%);fill-opacity:1;" d="M 316.667969 73.160156 L 300.648438 73.160156 L 300.648438 72.445313 C 302.199219 72.246094 303.03125 72.160156 303.03125 70.414063 L 303.03125 56.585938 C 303.03125 54.699219 301.894531 54.644531 300.648438 54.558594 L 300.648438 53.84375 L 310.320313 53.84375 L 310.320313 54.558594 C 308.378906 54.644531 307.519531 54.671875 307.519531 57.1875 L 307.519531 70.671875 C 307.519531 72.042969 308.128906 72.273438 309.988281 72.273438 C 314.171875 72.273438 315.726563 69.902344 317 66.671875 L 317.804688 66.671875 L 316.667969 73.160156 "/>
<path style=" stroke:none;fill-rule:nonzero;fill:rgb(0%,47.499084%,24.699402%);fill-opacity:1;" d="M 328.859375 73.160156 L 319.160156 73.160156 L 319.160156 72.445313 C 320.65625 72.300781 321.738281 72.1875 321.738281 70.414063 L 321.738281 56.585938 C 321.738281 54.699219 320.4375 54.644531 319.160156 54.558594 L 319.160156 53.84375 L 328.859375 53.84375 L 328.859375 54.558594 C 327.558594 54.613281 326.230469 54.644531 326.230469 56.585938 L 326.230469 70.414063 C 326.230469 72.246094 327.335938 72.328125 328.859375 72.445313 L 328.859375 73.160156 "/>
<path style=" stroke:none;fill-rule:nonzero;fill:rgb(0%,47.499084%,24.699402%);fill-opacity:1;" d="M 354.914063 73.160156 L 345.710938 73.160156 L 345.710938 72.445313 C 347.375 72.273438 348.179688 72.1875 348.179688 70.300781 L 348.179688 55.898438 L 348.121094 55.898438 L 341.195313 73.160156 L 340.445313 73.160156 L 333.519531 56.328125 L 333.460938 56.328125 L 333.460938 69.617188 C 333.460938 71.617188 333.960938 72.300781 336.261719 72.445313 L 336.261719 73.160156 L 329.773438 73.160156 L 329.773438 72.445313 C 331.9375 72.246094 332.296875 71.816406 332.296875 70.160156 L 332.296875 56.585938 C 332.296875 55.101563 331.800781 54.699219 329.832031 54.558594 L 329.832031 53.84375 L 336.84375 53.84375 L 342.386719 67.328125 L 347.929688 53.84375 L 354.914063 53.84375 L 354.914063 54.558594 C 353.359375 54.671875 352.476563 54.730469 352.476563 57.1875 L 352.476563 69.816406 C 352.476563 72.101563 353.085938 72.1875 354.914063 72.445313 L 354.914063 73.160156 "/>
<path style=" stroke:none;fill-rule:nonzero;fill:rgb(0%,47.499084%,24.699402%);fill-opacity:1;" d="M 365.804688 73.160156 L 356.105469 73.160156 L 356.105469 72.445313 C 357.601563 72.300781 358.683594 72.1875 358.683594 70.414063 L 358.683594 56.585938 C 358.683594 54.699219 357.378906 54.644531 356.105469 54.558594 L 356.105469 53.84375 L 365.804688 53.84375 L 365.804688 54.558594 C 364.503906 54.613281 363.171875 54.644531 363.171875 56.585938 L 363.171875 70.414063 C 363.171875 72.246094 364.28125 72.328125 365.804688 72.445313 L 365.804688 73.160156 "/>
<path style=" stroke:none;fill-rule:nonzero;fill:rgb(0%,47.499084%,24.699402%);fill-opacity:1;" d="M 380.550781 73.160156 L 370.65625 73.160156 L 370.65625 72.445313 C 372.679688 72.273438 373.34375 72.214844 373.34375 69.816406 L 373.34375 54.757813 C 371.402344 54.871094 368.550781 55.015625 367.992188 59.585938 L 367.191406 59.585938 L 367.273438 53.84375 L 383.902344 53.84375 L 383.960938 59.585938 L 383.15625 59.585938 C 382.601563 55.015625 379.746094 54.871094 377.835938 54.757813 L 377.835938 69.816406 C 377.835938 72.246094 378.5 72.300781 380.550781 72.445313 L 380.550781 73.160156 "/>
<path style=" stroke:none;fill-rule:nonzero;fill:rgb(0%,47.499084%,24.699402%);fill-opacity:1;" d="M 385.261719 53.84375 L 401.253906 53.84375 L 401.253906 59.585938 L 400.5625 59.585938 C 399.921875 55.527344 397.953125 54.816406 394.214844 54.816406 C 392.6875 54.816406 392.191406 54.929688 392.191406 56.15625 L 392.191406 62.785156 C 394.851563 62.816406 396.265625 62.070313 396.679688 58.527344 L 397.398438 58.527344 L 397.398438 68.1875 L 396.679688 68.1875 C 396.347656 64.613281 394.933594 63.757813 392.191406 63.757813 L 392.191406 70.671875 C 392.191406 71.929688 392.71875 72.273438 394.519531 72.273438 C 397.234375 72.273438 400.0625 71.53125 401.808594 67.214844 L 402.582031 67.214844 L 401.476563 73.160156 L 385.261719 73.160156 L 385.261719 72.445313 C 386.839844 72.273438 387.699219 72.1875 387.699219 70.414063 L 387.699219 56.585938 C 387.699219 54.699219 386.535156 54.644531 385.261719 54.558594 L 385.261719 53.84375 "/>
<g clip-path="url(#clip2)" clip-rule="nonzero">
<path style=" stroke:none;fill-rule:nonzero;fill:rgb(0%,47.499084%,24.699402%);fill-opacity:1;" d="M 403.691406 72.445313 C 405.4375 72.445313 405.992188 71.617188 405.992188 70.558594 L 405.992188 56.472656 C 405.992188 54.730469 404.773438 54.671875 403.691406 54.558594 L 403.691406 53.84375 L 412.144531 53.84375 C 419.90625 53.84375 422.429688 58.816406 422.429688 63.214844 C 422.429688 68.472656 419.433594 72.929688 412.449219 73.160156 L 403.691406 73.160156 L 403.691406 72.445313 M 410.480469 70.5 C 410.480469 71.644531 410.730469 72.160156 412.0625 72.160156 C 415.164063 72.160156 417.605469 70.328125 417.605469 63.5 C 417.605469 60.902344 416.96875 54.816406 412.199219 54.816406 C 410.425781 54.816406 410.453125 55.527344 410.480469 56.15625 L 410.480469 70.5 "/>
</g>
<path style=" stroke:none;fill-rule:nonzero;fill:rgb(0%,52.198792%,28.999329%);fill-opacity:1;" d="M 17.039063 33.101563 L 34.652344 31.296875 C 34.605469 31.300781 50.128906 31.070313 50.128906 31.070313 L 50.058594 31.066406 L 67.84375 33.066406 L 67.554688 32.148438 L 53.644531 44.328125 C 53.65625 44.316406 42.292969 53.449219 42.292969 53.449219 L 42.90625 53.417969 L 29.355469 44.695313 L 29.453125 44.769531 L 17.171875 32.050781 L 16.417969 32.789063 L 28.691406 45.503906 L 28.734375 45.546875 L 28.785156 45.582031 L 42.335938 54.300781 L 42.65625 54.511719 L 42.949219 54.277344 L 54.324219 45.140625 C 54.339844 45.125 68.25 32.945313 68.25 32.945313 L 69.148438 32.15625 L 67.960938 32.023438 L 50.175781 30.015625 L 50.140625 30.011719 L 50.105469 30.011719 L 34.589844 30.242188 C 34.546875 30.25 16.929688 32.050781 16.929688 32.050781 L 17.039063 33.101563 "/>
<path style=" stroke:none;fill-rule:nonzero;fill:rgb(0%,52.198792%,28.999329%);fill-opacity:1;" d="M 41.75 14.4375 L 34.121094 30.550781 C 34.101563 30.59375 28.914063 44.851563 28.914063 44.851563 L 28.894531 44.898438 L 28.886719 44.945313 L 25.894531 63.148438 L 25.714844 64.246094 L 26.679688 63.683594 L 42.886719 54.316406 L 42.363281 54.324219 L 58.910156 63.535156 L 60 64.140625 L 59.675781 62.9375 L 54.652344 44.242188 C 54.648438 44.226563 50.535156 30.222656 50.535156 30.222656 L 50.523438 30.175781 L 50.496094 30.136719 L 42.703125 14.425781 L 42.21875 13.457031 L 41.75 14.4375 M 41.761719 14.894531 L 49.554688 30.605469 L 49.523438 30.515625 L 53.640625 44.53125 C 53.632813 44.515625 58.65625 63.210938 58.65625 63.210938 L 59.425781 62.609375 L 42.878906 53.398438 L 42.613281 53.257813 L 42.355469 53.402344 L 26.152344 62.769531 L 26.941406 63.3125 L 29.933594 45.117188 L 29.90625 45.207031 L 35.09375 30.949219 C 35.078125 30.996094 42.703125 14.886719 42.703125 14.886719 L 41.761719 14.894531 "/>
<path style=" stroke:none;fill-rule:nonzero;fill:rgb(0%,52.198792%,28.999329%);fill-opacity:1;" d="M 38.871094 26.574219 C 39.351563 26.277344 40.175781 25.390625 39.867188 24.183594 C 39.855469 24.148438 39.722656 23.726563 40.019531 23.324219 C 40.304688 22.9375 41.070313 22.480469 43.042969 22.515625 L 42.9375 22.488281 L 42.980469 22.507813 C 43.765625 22.878906 45.078125 23.492188 45.1875 25.167969 C 45.21875 25.613281 45.132813 26.1875 45.082031 26.523438 C 45.042969 26.777344 45.035156 26.84375 45.046875 26.910156 L 45.042969 26.863281 L 45.074219 26.742188 C 45.074219 26.75 45.054688 26.769531 45.042969 26.777344 C 44.074219 28.117188 44.507813 29.613281 45.046875 30.632813 L 45.265625 30.246094 L 41.210938 30.503906 L 41.492188 30.796875 C 41.492188 30.765625 41.582031 29.925781 41.144531 29.386719 C 40.9375 29.136719 40.652344 28.992188 40.296875 28.957031 L 40.25 28.957031 C 40.128906 28.972656 39.839844 28.957031 39.765625 28.835938 C 39.699219 28.726563 39.761719 28.410156 40.140625 27.863281 L 40.195313 27.792969 L 40.1875 27.699219 C 40.1875 27.664063 40.125 26.835938 39.003906 26.507813 C 38.976563 26.496094 38.921875 26.46875 38.90625 26.449219 C 38.925781 26.472656 38.929688 26.519531 38.917969 26.550781 C 38.917969 26.550781 38.917969 26.539063 38.925781 26.535156 L 38.871094 26.574219 M 38.542969 26.171875 C 38.378906 26.347656 38.390625 26.515625 38.40625 26.601563 C 38.472656 26.871094 38.78125 26.988281 38.84375 27.007813 C 39.601563 27.234375 39.65625 27.714844 39.664063 27.738281 L 39.707031 27.5625 C 39.230469 28.25 39.105469 28.753906 39.316406 29.109375 C 39.582031 29.554688 40.234375 29.492188 40.308594 29.484375 L 40.253906 29.484375 C 40.464844 29.503906 40.617188 29.578125 40.738281 29.722656 C 41.03125 30.085938 40.96875 30.730469 40.96875 30.742188 L 40.933594 31.054688 L 41.246094 31.035156 L 45.296875 30.773438 L 45.707031 30.746094 L 45.515625 30.386719 C 44.832031 29.097656 44.820313 27.992188 45.472656 27.097656 C 45.53125 27.019531 45.570313 26.957031 45.570313 26.863281 L 45.570313 26.820313 L 45.570313 26.847656 C 45.570313 26.824219 45.589844 26.707031 45.601563 26.605469 C 45.65625 26.242188 45.746094 25.632813 45.710938 25.136719 C 45.589844 23.148438 44.035156 22.421875 43.203125 22.03125 L 43.15625 22.011719 L 43.105469 21.992188 L 43.050781 21.992188 C 41.28125 21.953125 40.109375 22.304688 39.585938 23.023438 C 39.132813 23.648438 39.347656 24.308594 39.355469 24.335938 C 39.644531 25.449219 38.636719 26.097656 38.59375 26.128906 L 38.566406 26.144531 L 38.542969 26.171875 "/>
<path style=" stroke:none;fill-rule:nonzero;fill:rgb(0%,52.198792%,28.999329%);fill-opacity:1;" d="M 42.996094 26.324219 C 43.09375 26.339844 43.351563 26.414063 43.417969 26.566406 C 43.457031 26.660156 43.417969 26.792969 43.300781 26.957031 L 42.800781 27.675781 L 42.847656 27.628906 C 42.851563 27.628906 42.714844 27.691406 42.238281 27.722656 L 42.257813 28.011719 C 42.800781 27.972656 42.964844 27.902344 42.992188 27.878906 L 43.019531 27.863281 L 43.039063 27.835938 L 43.542969 27.125 C 43.722656 26.871094 43.765625 26.648438 43.683594 26.449219 C 43.542969 26.125 43.09375 26.042969 43.042969 26.035156 L 42.996094 26.324219 "/>
<path style=" stroke:none;fill-rule:nonzero;fill:rgb(0%,52.198792%,28.999329%);fill-opacity:1;" d="M 42.613281 27.109375 L 42.785156 26.839844 L 42.613281 26.902344 C 42.640625 26.90625 42.6875 26.933594 42.679688 26.988281 L 42.820313 26.867188 L 42.484375 26.886719 L 42.613281 27.109375 M 42.5 27.171875 L 42.832031 27.15625 L 42.949219 27.148438 L 42.96875 27.03125 C 43.003906 26.789063 42.8125 26.65625 42.703125 26.625 L 42.597656 26.589844 L 42.539063 26.6875 L 42.371094 26.953125 L 42.222656 27.191406 L 42.5 27.171875 "/>
<path style=" stroke:none;fill-rule:nonzero;fill:rgb(0%,52.198792%,28.999329%);fill-opacity:1;" d="M 40.75 25.160156 C 41.417969 25.148438 42.203125 25.195313 42.320313 25.289063 L 42.503906 25.070313 C 42.265625 24.859375 41.097656 24.867188 40.75 24.875 L 40.75 25.160156 "/>
<path style=" stroke:none;fill-rule:nonzero;fill:rgb(0%,52.198792%,28.999329%);fill-opacity:1;" d="M 40.773438 26.386719 C 40.773438 26.386719 41.800781 26.449219 42.113281 25.820313 C 42.113281 25.820313 42.492188 25.242188 40.710938 25.566406 L 40.773438 26.386719 "/>
<path style=" stroke:none;fill-rule:nonzero;fill:rgb(0%,52.198792%,28.999329%);fill-opacity:1;" d="M 41.449219 25.855469 C 41.449219 25.789063 41.507813 25.746094 41.558594 25.746094 C 41.628906 25.746094 41.667969 25.789063 41.667969 25.859375 C 41.667969 25.917969 41.621094 25.964844 41.558594 25.964844 L 41.585938 25.964844 L 41.613281 25.957031 C 41.585938 25.964844 41.542969 25.96875 41.503906 25.941406 C 41.46875 25.917969 41.449219 25.875 41.449219 25.855469 M 41.738281 25.855469 C 41.738281 25.789063 41.714844 25.738281 41.667969 25.703125 C 41.625 25.667969 41.5625 25.667969 41.507813 25.683594 L 41.558594 25.675781 C 41.460938 25.675781 41.382813 25.757813 41.382813 25.859375 C 41.382813 25.949219 41.464844 26.035156 41.558594 26.035156 C 41.664063 26.035156 41.738281 25.957031 41.738281 25.855469 "/>
<path style=" stroke:none;fill-rule:nonzero;fill:rgb(0%,52.198792%,28.999329%);fill-opacity:1;" d="M 37.21875 35.125 C 37.21875 35.125 35.707031 34.136719 36.671875 31.867188 C 36.671875 31.867188 37.867188 31.386719 37.769531 34.136719 L 37.664063 34.6875 L 37.769531 36.136719 L 38.09375 35.898438 C 38.09375 35.898438 38 33.574219 40.023438 32.894531 C 40.023438 32.894531 40.683594 34.636719 37.929688 36.65625 L 37.890625 38.105469 C 37.890625 38.105469 38 38.785156 38.675781 37.574219 C 38.675781 37.574219 39.046875 35.773438 40.648438 35.109375 C 40.648438 35.109375 41.566406 37.597656 38.988281 38.105469 C 38.988281 38.105469 38.214844 38.84375 38.167969 39.191406 L 38.265625 40.765625 C 38.265625 40.765625 38.503906 41.363281 38.855469 40.316406 C 38.855469 40.316406 38.832031 38.875 40.84375 38.261719 C 40.84375 38.261719 41.535156 40.421875 39.175781 41.050781 C 39.175781 41.050781 38.316406 41.652344 38.351563 42.132813 L 38.304688 43.570313 C 38.304688 43.570313 38.84375 44.441406 39.03125 43.117188 C 39.03125 43.117188 39.671875 41.421875 40.945313 40.929688 C 40.945313 40.929688 41.4375 43.238281 39.515625 44.257813 L 37.339844 44.464844 C 37.339844 44.464844 37.808594 43.328125 36.800781 43.671875 C 36.800781 43.671875 32.867188 43.371094 32.867188 40.214844 C 32.867188 40.214844 35.070313 40.289063 36.519531 42.453125 C 36.519531 42.453125 36.730469 43.609375 37.808594 43.265625 L 37.71875 40.808594 C 37.71875 40.808594 36.703125 40.046875 36.230469 40.140625 C 36.230469 40.140625 34.292969 39.859375 34.121094 37.1875 C 34.121094 37.1875 36.054688 37.332031 36.695313 38.804688 C 36.695313 38.804688 37.050781 40.007813 37.582031 39.84375 L 37.453125 37.792969 C 37.453125 37.792969 36.945313 37.28125 36.109375 37.125 C 36.109375 37.125 34.441406 36.824219 34.625 34.335938 C 34.625 34.335938 36.230469 34.664063 36.625 36.019531 C 36.632813 36.070313 36.652344 36.136719 36.671875 36.203125 C 36.96875 37.691406 37.449219 36.699219 37.449219 36.699219 L 37.21875 35.125 "/>
<path style=" stroke:none;fill-rule:nonzero;fill:rgb(0%,52.198792%,28.999329%);fill-opacity:1;" d="M 53.738281 38.742188 C 53.796875 38.753906 55.191406 39 56.546875 38.558594 C 56.578125 38.550781 58.394531 37.875 59.859375 38.558594 L 59.867188 38.570313 L 59.878906 38.570313 C 59.898438 38.574219 59.914063 38.585938 59.929688 38.597656 L 60.089844 38.355469 C 60.058594 38.332031 60.015625 38.308594 59.960938 38.296875 L 59.984375 38.304688 C 58.40625 37.558594 56.535156 38.257813 56.457031 38.289063 C 55.171875 38.707031 53.804688 38.464844 53.792969 38.460938 L 53.738281 38.742188 "/>
<path style=" stroke:none;fill-rule:nonzero;fill:rgb(0%,52.198792%,28.999329%);fill-opacity:1;" d="M 54.339844 40.289063 C 54.414063 40.292969 56.054688 40.460938 57.074219 39.960938 C 57.097656 39.953125 57.964844 39.625 58.503906 40.429688 L 58.746094 40.277344 C 58.074219 39.265625 56.964844 39.695313 56.953125 39.699219 C 56.003906 40.160156 54.390625 40.003906 54.371094 40.003906 L 54.339844 40.289063 "/>
<path style=" stroke:none;fill-rule:nonzero;fill:rgb(0%,52.198792%,28.999329%);fill-opacity:1;" d="M 41.664063 30.71875 L 41.988281 44.242188 L 29.609375 44.265625 L 29.417969 45.25 L 53.988281 44.722656 L 53.84375 43.996094 L 42.859375 44.128906 L 42.554688 30.730469 L 41.664063 30.71875 "/>
<path style=" stroke:none;fill-rule:nonzero;fill:rgb(0%,52.198792%,28.999329%);fill-opacity:1;" d="M 53.332031 52.203125 C 53.375 52.941406 52.804688 53.578125 52.058594 53.621094 C 51.316406 53.667969 50.671875 53.109375 50.628906 52.390625 C 50.582031 51.65625 51.144531 51.019531 51.886719 50.972656 C 52.636719 50.921875 53.285156 51.472656 53.332031 52.203125 M 53.859375 52.167969 C 53.792969 51.152344 52.894531 50.375 51.851563 50.445313 C 50.820313 50.511719 50.035156 51.398438 50.101563 52.414063 C 50.164063 53.429688 51.054688 54.214844 52.089844 54.148438 C 53.128906 54.089844 53.921875 53.199219 53.859375 52.167969 "/>
<path style=" stroke:none;fill-rule:nonzero;fill:rgb(0%,52.198792%,28.999329%);fill-opacity:1;" d="M 48.605469 53.058594 C 48.628906 53.324219 48.535156 53.585938 48.347656 53.800781 C 48.132813 54.042969 47.800781 54.203125 47.449219 54.21875 C 46.785156 54.257813 46.210938 53.804688 46.160156 53.21875 C 46.132813 52.617188 46.65625 52.097656 47.324219 52.054688 C 47.671875 52.03125 48.011719 52.140625 48.257813 52.355469 C 48.46875 52.542969 48.589844 52.796875 48.605469 53.058594 M 49.132813 53.023438 C 49.109375 52.617188 48.921875 52.246094 48.605469 51.964844 C 48.25 51.648438 47.773438 51.492188 47.285156 51.527344 C 46.335938 51.589844 45.59375 52.359375 45.640625 53.25 C 45.707031 54.140625 46.53125 54.804688 47.484375 54.742188 C 47.976563 54.714844 48.433594 54.5 48.742188 54.148438 C 49.027344 53.828125 49.167969 53.429688 49.132813 53.023438 "/>
<path style=" stroke:none;fill-rule:nonzero;fill:rgb(0%,52.198792%,28.999329%);fill-opacity:1;" d="M 53.605469 49.179688 C 53.589844 49.242188 53.023438 50.726563 51.265625 50.425781 L 51.324219 50.441406 C 51.011719 50.308594 50.496094 50.027344 50.398438 49.855469 L 50.066406 49.289063 L 49.914063 49.925781 C 49.90625 49.941406 49.371094 52.011719 48.335938 51.824219 L 48.460938 51.890625 C 48.445313 51.871094 47.984375 51.480469 47.285156 51.527344 L 47.332031 52.054688 C 47.367188 52.046875 48.1875 51.957031 48.585938 51.265625 C 48.882813 50.753906 48.84375 50.066406 48.472656 49.222656 L 48.332031 48.917969 L 48.070313 49.125 L 45.132813 51.414063 L 44.839844 51.644531 L 45.152344 51.84375 L 46.113281 52.464844 L 46.398438 52.027344 L 45.4375 51.402344 L 45.457031 51.828125 L 48.386719 49.539063 L 47.988281 49.441406 C 48.289063 50.117188 48.335938 50.640625 48.128906 51.003906 C 47.871094 51.453125 47.28125 51.527344 47.277344 51.527344 L 47.324219 52.054688 C 47.796875 52.023438 48.101563 52.277344 48.113281 52.289063 L 48.171875 52.328125 L 48.242188 52.347656 C 49.785156 52.621094 50.398438 50.152344 50.421875 50.042969 L 49.9375 50.117188 C 50.171875 50.507813 50.960938 50.855469 51.117188 50.921875 L 51.144531 50.941406 L 51.175781 50.945313 C 53.375 51.320313 54.097656 49.375 54.101563 49.359375 L 53.605469 49.179688 "/>
<path style=" stroke:none;fill-rule:nonzero;fill:rgb(0%,52.198792%,28.999329%);fill-opacity:1;" d="M 51.324219 41.128906 C 51.324219 41.128906 50.773438 42.257813 50.503906 42.609375 C 50.503906 42.609375 50.296875 43.925781 49.933594 44.242188 C 49.921875 44.277344 49.886719 44.292969 49.863281 44.304688 C 49.464844 44.507813 50.566406 44.226563 50.566406 44.226563 C 50.566406 44.226563 51.574219 43.246094 51.667969 42.703125 C 51.667969 42.703125 52.039063 41.226563 51.324219 41.128906 M 50.84375 43.371094 C 50.84375 43.371094 50.46875 42.578125 51.355469 42.074219 C 51.355469 42.074219 51.417969 42.921875 50.84375 43.371094 "/>
<path style=" stroke:none;fill-rule:nonzero;fill:rgb(0%,52.198792%,28.999329%);fill-opacity:1;" d="M 31.265625 35.449219 L 30.894531 35.054688 L 30.8125 33.816406 L 30.386719 33.640625 C 30.386719 33.640625 29.957031 33.332031 31.378906 32.960938 C 31.378906 32.960938 32.722656 33.5 32.847656 32.253906 C 32.847656 32.253906 32.9375 31.5625 32.421875 31.996094 C 32.421875 31.996094 32.503906 32.34375 31.050781 32.222656 C 31.050781 32.222656 29.644531 32.722656 29.84375 34.917969 L 29.175781 34.960938 L 27.859375 34.839844 L 27.683594 34.230469 C 27.683594 34.230469 27.183594 33.847656 28.128906 33.589844 C 28.128906 33.589844 29.503906 33.769531 29.292969 32.546875 C 29.292969 32.546875 29.066406 33.25 28.074219 32.832031 C 28.074219 32.832031 26.636719 32.988281 26.847656 35.105469 L 25.199219 35.078125 L 25.257813 35.898438 L 22.65625 35.78125 L 24.773438 38.738281 L 31.636719 37.972656 L 31.265625 35.449219 M 30.226563 34.265625 L 30.570313 34.1875 L 30.542969 35.007813 L 30.203125 34.960938 L 30.226563 34.265625 M 27.503906 34.652344 L 27.75 35.1875 L 27.28125 35.292969 L 27.167969 34.738281 L 27.503906 34.652344 M 24.988281 38.183594 L 23.691406 36.207031 L 25.707031 36.554688 L 26.691406 38.074219 L 24.988281 38.183594 M 27.515625 37.953125 L 26.144531 35.84375 L 28.421875 36.039063 L 29.640625 37.882813 L 27.515625 37.953125 M 30.101563 37.644531 L 29.007813 35.578125 L 30.957031 35.941406 L 31.273438 37.773438 L 30.101563 37.644531 "/>
<path style=" stroke:none;fill-rule:nonzero;fill:rgb(0%,52.198792%,28.999329%);fill-opacity:1;" d="M 62.878906 35.074219 C 62.878906 35.074219 62.710938 34.597656 62.203125 34.074219 C 62.203125 34.074219 61.589844 34.246094 61.476563 33.441406 L 60.722656 33.351563 L 58.382813 32.269531 C 58.382813 32.269531 58.15625 32.066406 56.363281 31.847656 L 53.960938 31.785156 C 53.960938 31.785156 53.144531 31.980469 53.089844 33.289063 C 53.089844 33.289063 53.234375 35.546875 54.046875 35.421875 C 54.046875 35.421875 53.871094 35.851563 54.023438 36.046875 C 54.023438 36.046875 52.089844 35.957031 51.441406 35.378906 C 50.78125 34.808594 51.300781 35.324219 51.300781 35.324219 L 51.769531 36.121094 C 51.769531 36.121094 53.394531 36.980469 54.929688 37.292969 C 54.929688 37.292969 54.863281 37.429688 53.425781 37.316406 C 53.425781 37.316406 53.210938 38.226563 56.261719 37.691406 C 56.261719 37.691406 58.128906 36.886719 60.351563 37.351563 C 60.351563 37.351563 61.546875 37.765625 60.453125 36.808594 C 60.453125 36.808594 63.316406 35.308594 64.28125 35.523438 L 64.789063 34.871094 L 62.878906 35.074219 M 53.554688 33.046875 C 53.851563 32.207031 54.273438 32.390625 54.273438 32.390625 L 56.746094 32.429688 C 55.117188 33.847656 55.429688 34.503906 55.429688 34.503906 L 54.683594 34.695313 C 53.664063 35.796875 53.554688 33.046875 53.554688 33.046875 M 56.605469 33.476563 L 58.789063 34.363281 L 55.925781 34.613281 C 55.925781 34.613281 55.664063 33.8125 56.605469 33.476563 M 59.582031 35.957031 L 54.585938 36.148438 C 54.585938 36.148438 53.972656 35.359375 55.535156 35.046875 L 59.511719 34.933594 L 59.582031 35.957031 M 59.605469 34.304688 L 56.78125 33.054688 C 56.78125 33.054688 57.089844 32.476563 57.773438 32.503906 L 60.582031 33.824219 C 60.582031 33.824219 60.976563 34.222656 59.605469 34.304688 M 60.449219 35.640625 L 60.191406 34.753906 L 61.066406 34.492188 L 61.539063 35.425781 L 60.449219 35.640625 "/>
<path style=" stroke:none;fill-rule:nonzero;fill:rgb(0%,52.198792%,28.999329%);fill-opacity:1;" d="M 35.925781 51.386719 L 34.03125 51.503906 C 34.03125 51.503906 31.863281 51.550781 31.820313 51.707031 L 31.746094 50.511719 C 31.746094 50.511719 32.035156 50.195313 33 49.925781 C 33 49.925781 33.714844 49.828125 33.816406 48.90625 C 33.816406 48.90625 33.929688 48.421875 33.421875 48.515625 C 33.421875 48.515625 33.492188 48.914063 32.355469 48.792969 C 32.355469 48.792969 29.585938 48.804688 30.726563 50.699219 L 30.871094 52.894531 C 30.871094 52.894531 28.117188 53.378906 29.332031 55.367188 L 30.410156 56.117188 L 38.992188 55.097656 C 38.992188 55.097656 39.683594 54.5 38.992188 52.738281 C 38.992188 52.738281 36.574219 51.910156 35.925781 51.386719 M 37.167969 52.691406 L 37.96875 52.769531 L 38.046875 53.511719 L 37.242188 53.640625 L 37.167969 52.691406 M 36.820313 53.636719 L 35.351563 53.769531 L 35.289063 52.730469 L 36.722656 52.667969 L 36.820313 53.636719 M 31.992188 52.308594 C 31.972656 52 32.316406 51.957031 32.316406 51.957031 L 33.507813 51.847656 L 33.6875 51.964844 L 34.902344 51.964844 L 35.230469 51.796875 L 35.757813 51.683594 C 36.136719 51.863281 36.507813 52.148438 36.507813 52.148438 L 32.007813 52.617188 L 31.992188 52.308594 M 34.84375 53.859375 L 32.894531 53.992188 L 32.765625 52.859375 L 34.667969 52.742188 L 34.84375 53.859375 M 31.167969 49.375 L 33.089844 49.09375 L 33.125 49.460938 C 31.859375 49.800781 31.421875 50.1875 31.421875 50.1875 C 31.230469 50.410156 30.949219 50.160156 30.949219 50.160156 C 30.714844 49.65625 31.167969 49.375 31.167969 49.375 M 31.566406 50.839844 L 31.636719 52.03125 L 31.273438 52.066406 L 31.203125 50.871094 L 31.566406 50.839844 M 31.054688 53.214844 L 32.398438 53.164063 L 32.421875 54.011719 L 30.882813 54.148438 L 30.804688 53.539063 C 30.804688 53.539063 31.109375 53.378906 31.054688 53.214844 M 30.375 53.640625 L 30.464844 53.964844 L 30.074219 53.894531 L 30.03125 53.6875 L 30.375 53.640625 M 30.457031 55.554688 L 29.625 54.851563 C 29.625 54.851563 29.292969 54.113281 29.824219 54.214844 C 29.824219 54.214844 30.226563 54.597656 30.441406 54.726563 L 38.726563 53.957031 L 38.808594 54.636719 L 30.457031 55.554688 "/>
<path style=" stroke:none;fill-rule:nonzero;fill:rgb(0%,52.198792%,28.999329%);fill-opacity:1;" d="M 49.886719 39.628906 C 49.886719 39.628906 49.867188 40.570313 49.230469 40.929688 C 49.230469 40.929688 48.351563 42.558594 48.640625 44.117188 L 49.261719 44.140625 C 49.261719 44.140625 48.832031 43.390625 50.050781 42.097656 C 50.050781 42.097656 50.789063 41.664063 49.945313 39.582031 L 49.886719 39.628906 M 48.945313 42.875 C 48.914063 41.878906 49.871094 40.96875 49.871094 40.96875 C 49.929688 42.269531 48.945313 42.875 48.945313 42.875 "/>
<path style=" stroke:none;fill-rule:nonzero;fill:rgb(0%,52.198792%,28.999329%);fill-opacity:1;" d="M 49.019531 36.046875 C 49.019531 36.046875 49.089844 35.496094 49.40625 35.308594 L 49.296875 34.023438 C 49.296875 34.023438 48.675781 33.828125 49.257813 33.304688 C 49.257813 33.304688 49.382813 32.472656 48.738281 31.996094 C 48.738281 31.996094 48.296875 31.695313 47.953125 32.609375 C 47.953125 32.609375 47.730469 33.480469 48.039063 33.65625 C 48.039063 33.65625 48.277344 34.394531 47.953125 34.359375 L 48.082031 35.515625 C 48.082031 35.515625 48.738281 35.578125 48.105469 35.867188 L 47.386719 36.359375 C 47.386719 36.359375 47.226563 35.308594 46.894531 34.523438 C 46.894531 34.523438 46.390625 34.050781 46.054688 35.015625 C 46.054688 35.015625 45.644531 35.226563 45.570313 34.929688 C 45.570313 34.929688 46.226563 33.78125 45.039063 32.644531 C 45.039063 32.644531 44.371094 31.691406 44.136719 32.960938 C 44.136719 32.960938 43.832031 34.136719 44.785156 35.292969 C 44.785156 35.292969 45.292969 35.375 44.742188 35.886719 L 44.742188 36.683594 L 44.480469 36.636719 C 44.480469 36.636719 43.699219 35.40625 43.632813 35.082031 L 43.332031 35.25 C 43.332031 35.25 42.683594 41.210938 46.804688 43.652344 L 46.992188 44.46875 L 47.730469 44.292969 L 47.539063 43.050781 C 47.539063 43.050781 47.886719 40.929688 49.296875 39.714844 C 49.296875 39.714844 49.886719 39.234375 49.714844 38.011719 C 49.714844 38.011719 50.421875 37.734375 50.214844 36.949219 C 50.214844 36.949219 50.246094 35.8125 49.019531 36.046875 M 48.664063 32.503906 L 48.75 33.429688 C 48.75 33.429688 48.386719 33.871094 48.375 33.308594 C 48.375 33.308594 48.257813 32.566406 48.664063 32.503906 M 48.519531 34.253906 C 48.738281 34.125 48.851563 34.253906 48.851563 34.253906 C 49.40625 35.273438 48.542969 35.378906 48.542969 35.378906 C 48.34375 35.117188 48.519531 34.253906 48.519531 34.253906 M 48.542969 36.207031 L 48.644531 37.078125 C 48.644531 37.078125 48.234375 37.429688 48.199219 37.699219 C 48.199219 37.699219 48.039063 37.265625 47.382813 37.304688 C 47.382813 37.304688 47.738281 36.488281 48.542969 36.207031 M 47.40625 37.773438 L 47.472656 38.078125 L 47.171875 38.175781 L 47.144531 37.949219 L 47.40625 37.773438 M 46.34375 38.101563 C 46.34375 38.101563 46.199219 38.5 45.335938 37.566406 C 45.335938 37.566406 44.757813 36.296875 45.507813 35.476563 C 45.507813 35.476563 46.402344 36.191406 46.34375 38.101563 M 44.6875 34.316406 C 44.582031 33.78125 44.488281 32.890625 44.675781 32.875 C 44.675781 32.875 45.414063 33.601563 45.261719 34.871094 C 45.261719 34.871094 44.796875 34.847656 44.6875 34.316406 M 46.132813 38.746094 C 46.132813 38.746094 46.628906 38.960938 46.667969 40.355469 C 46.667969 40.355469 44.078125 39.632813 43.832031 36.257813 C 43.832031 36.257813 44.652344 38.003906 46.132813 38.746094 M 44.078125 39.195313 C 44.078125 39.195313 46.421875 40.390625 46.863281 41.75 L 47.035156 43.132813 C 47.035156 43.132813 44.71875 42.117188 44.078125 39.195313 M 46.53125 36.542969 C 46.53125 36.542969 46.476563 35.824219 46.183594 35.867188 L 46.1875 35.539063 C 46.1875 35.539063 46.449219 34.839844 46.832031 35.597656 L 46.957031 37.648438 L 46.695313 37.609375 L 46.53125 36.542969 M 47.78125 41.25 C 47.492188 41.5 47.445313 41.90625 47.445313 41.90625 L 47.183594 42.046875 L 47.0625 40.839844 L 47.285156 40.640625 L 47.765625 40.503906 L 47.78125 41.25 M 47.730469 39.9375 C 47.730469 39.9375 47.382813 40.097656 47.363281 40.355469 L 47.035156 40.355469 L 46.992188 39.65625 L 47.78125 39.542969 L 47.730469 39.9375 M 47.828125 39.117188 L 46.847656 39.175781 L 46.910156 38.890625 C 47.476563 38.976563 47.878906 38.253906 47.878906 38.253906 L 47.828125 39.117188 M 49.269531 38.714844 C 48.574219 40.25 48.128906 40.355469 48.128906 40.355469 L 48.15625 38.675781 C 48.554688 38.394531 48.925781 37.371094 48.925781 37.371094 C 49.078125 37.332031 49.203125 37.605469 49.203125 37.605469 L 49.269531 38.714844 M 49.855469 37.332031 C 49.855469 37.332031 49.742188 37.648438 49.46875 37.417969 C 49.46875 37.417969 49.40625 36.949219 49.09375 36.734375 L 49.125 36.425781 C 49.125 36.425781 49.871094 36.140625 49.855469 37.332031 "/>
<path style=" stroke:none;fill-rule:nonzero;fill:rgb(0%,52.198792%,28.999329%);fill-opacity:1;" d="M 48.734375 46.546875 L 49.394531 45.8125 C 50.019531 45.390625 50.191406 44.824219 50.191406 44.824219 L 49.039063 44.796875 C 46.628906 47.0625 43.339844 46.058594 43.339844 46.058594 L 43.355469 45.410156 L 38.976563 45.945313 L 37.683594 46.210938 C 36.941406 46.972656 35.859375 46.867188 35.859375 46.867188 C 35.257813 47.707031 35.894531 48.378906 35.894531 48.378906 C 38.457031 51.320313 43.835938 50.207031 43.835938 50.207031 C 44.554688 50.246094 44.234375 49.886719 44.234375 49.886719 C 43.875 49.820313 43.882813 49.410156 43.882813 49.410156 L 46.074219 48.90625 C 46.984375 48.753906 46.433594 48.085938 46.433594 48.085938 L 48.75 47.761719 C 49.464844 48.269531 49.386719 48.457031 49.386719 48.457031 L 49.988281 47.90625 C 48.503906 47.152344 48.734375 46.546875 48.734375 46.546875 M 36.265625 47.867188 C 36.214844 47.867188 36.167969 47.746094 36.152344 47.59375 C 36.152344 47.441406 36.175781 47.316406 36.230469 47.308594 C 36.277344 47.308594 36.320313 47.429688 36.332031 47.578125 C 36.339844 47.730469 36.304688 47.867188 36.265625 47.867188 M 38.242188 49.441406 C 38.242188 49.441406 37.085938 48.917969 36.535156 48.363281 C 36.535156 48.363281 36.753906 48.261719 36.625 47.253906 C 36.625 47.253906 37.503906 46.757813 38.65625 46.507813 C 38.65625 46.507813 39.089844 46.746094 39.269531 47.304688 L 39.3125 48.515625 C 39.3125 48.515625 39.105469 49.476563 38.242188 49.441406 M 48.363281 47.242188 C 48.363281 47.242188 46.4375 47.351563 45.53125 47.992188 C 45.53125 47.992188 44.914063 48.925781 43.234375 49.171875 L 43.273438 49.679688 L 39.753906 49.9375 C 39.753906 49.9375 39.625 49.714844 39.121094 49.535156 C 39.121094 49.535156 40.738281 47.90625 39.3125 46.617188 C 39.3125 46.617188 39.207031 46.472656 39.386719 46.367188 C 39.386719 46.367188 40.96875 46.058594 43.492188 46.617188 C 43.492188 46.617188 46.453125 47.601563 48.988281 45.492188 C 48.988281 45.492188 47.503906 46.894531 48.363281 47.242188 "/>
<path style=" stroke:none;fill-rule:nonzero;fill:rgb(0%,52.198792%,28.999329%);fill-opacity:1;" d="M 38.316406 47.382813 C 38.066406 47.40625 37.894531 47.675781 37.910156 47.972656 C 37.9375 48.289063 38.148438 48.519531 38.378906 48.515625 C 38.617188 48.503906 38.789063 48.238281 38.769531 47.921875 C 38.746094 47.613281 38.550781 47.375 38.316406 47.382813 "/>
<path style=" stroke:none;fill-rule:nonzero;fill:rgb(0%,52.198792%,28.999329%);fill-opacity:1;" d="M 70.925781 39.808594 C 71.414063 47.402344 68.917969 54.734375 63.890625 60.453125 C 58.867188 66.171875 51.917969 69.589844 44.328125 70.074219 C 28.65625 71.082031 15.085938 59.132813 14.078125 43.449219 C 13.078125 27.765625 25.011719 14.195313 40.683594 13.191406 C 48.28125 12.703125 55.601563 15.199219 61.316406 20.230469 C 67.035156 25.257813 70.445313 32.210938 70.925781 39.808594 M 72.5 39.707031 C 71.996094 31.691406 68.394531 24.347656 62.363281 19.039063 C 56.332031 13.730469 48.597656 11.09375 40.585938 11.609375 C 24.039063 12.671875 11.441406 26.996094 12.496094 43.542969 C 13.5625 60.105469 27.886719 72.714844 44.429688 71.65625 C 52.441406 71.144531 59.777344 67.535156 65.082031 61.5 C 70.386719 55.460938 73.023438 47.71875 72.5 39.707031 "/>
<path style=" stroke:none;fill-rule:nonzero;fill:rgb(0%,52.198792%,28.999329%);fill-opacity:1;" d="M 13.746094 61.257813 C 13.742188 63.515625 11.90625 65.355469 9.636719 65.355469 C 7.355469 65.355469 5.527344 63.511719 5.527344 61.246094 C 5.527344 58.976563 7.371094 57.128906 9.636719 57.136719 C 11.917969 57.136719 13.746094 58.980469 13.746094 61.257813 "/>
<path style=" stroke:none;fill-rule:nonzero;fill:rgb(0%,52.198792%,28.999329%);fill-opacity:1;" d="M 79.296875 61.304688 C 79.296875 63.566406 77.464844 65.410156 75.191406 65.410156 C 72.921875 65.410156 71.085938 63.558594 71.085938 61.304688 C 71.085938 59.027344 72.929688 57.175781 75.203125 57.175781 C 77.464844 57.1875 79.296875 59.039063 79.296875 61.304688 "/>
<path style=" stroke:none;fill-rule:nonzero;fill:rgb(0%,52.198792%,28.999329%);fill-opacity:1;" d="M 12.910156 50.894531 C 12.191406 49.765625 11.953125 46.546875 11.953125 46.546875 L 10.804688 46.617188 L 10.628906 44.625 L 9.777344 44.769531 L 10.417969 49.03125 L 11.273438 49.015625 C 11.273438 49.015625 11.660156 49.964844 11.53125 50.839844 C 11.53125 50.839844 10.792969 51.039063 10.195313 50.921875 C 10.195313 50.921875 9.253906 47.921875 9.382813 47.007813 L 1.480469 47.996094 L 1.046875 40.464844 L 2.363281 40.359375 L 2.515625 44.808594 L 7.792969 44.597656 C 7.792969 44.597656 9.1875 44.648438 8.886719 42.328125 C 8.886719 42.328125 8.730469 40.640625 8.984375 38.371094 L 1.339844 37.898438 C 1.339844 37.898438 1.4375 35.589844 1.75 34.71875 L 9.402344 36.367188 L 9.753906 33.949219 L 2.15625 32.363281 C 2.15625 32.363281 3.8125 26.128906 5.914063 22.738281 L 6.945313 23.363281 C 6.945313 23.363281 4.777344 27.476563 4.269531 29.726563 L 8.375 31.375 C 8.375 31.375 9.410156 32.050781 10.582031 30.824219 L 11.824219 28.191406 L 10.640625 27.6875 L 10.230469 28.554688 C 10.230469 28.554688 10.019531 29.472656 8.949219 28.8125 L 6.292969 27.871094 L 6.945313 26.496094 L 8.996094 27.269531 L 9.667969 25.929688 L 7.613281 24.898438 L 8.226563 23.921875 L 12.804688 26.09375 L 14.035156 24.183594 L 7.113281 20.621094 C 7.113281 20.621094 7.878906 19.191406 8.84375 18.175781 L 14.863281 22.695313 L 16.449219 20.847656 L 9.113281 15.183594 C 9.113281 15.183594 7.515625 14.054688 6.027344 16.0625 L 2.007813 22.332031 C 2.007813 22.332031 2.578125 23.363281 3.242188 22.6875 C 3.242188 22.6875 5.914063 17.910156 6.6875 17.144531 C 6.6875 17.144531 7.988281 16.699219 7.71875 17.785156 C 7.71875 17.785156 -2.871094 31.070313 0.734375 50.476563 L 1.84375 50.4375 C 1.84375 50.4375 0.53125 52.296875 2.445313 55.441406 C 2.445313 55.441406 5.785156 54.660156 6.839844 54.386719 C 6.839844 54.386719 6.792969 51.8125 5.074219 50.246094 C 5.074219 50.246094 4.890625 49.8125 5.304688 49.726563 L 8.625 49.371094 C 8.625 49.371094 8.949219 51.6875 9.875 53.480469 C 9.875 53.480469 11.621094 53.464844 12.621094 52.71875 C 12.621094 52.71875 13.621094 52.027344 12.910156 50.894531 M 7.496094 40.683594 L 7.53125 41.269531 C 7.53125 42.5 6.945313 42.363281 6.945313 42.363281 L 3.691406 42.328125 L 3.667969 40.621094 L 7.496094 40.683594 M 3.519531 52.667969 L 2.691406 52.808594 C 2.691406 52.808594 2.335938 51.4375 3.074219 50.480469 C 3.5625 49.875 3.949219 50.246094 3.949219 50.246094 L 4.953125 51.921875 C 4.953125 51.921875 5.59375 52.574219 3.519531 52.667969 "/>
<path style=" stroke:none;fill-rule:nonzero;fill:rgb(0%,52.198792%,28.999329%);fill-opacity:1;" d="M 16.792969 9.914063 L 19.925781 7.582031 L 20.398438 8.101563 C 20.925781 8.640625 20.507813 8.785156 20.507813 8.785156 L 17.925781 10.535156 C 16.933594 11.121094 17.140625 11.675781 17.140625 11.675781 L 19.398438 15.234375 C 20.191406 16.292969 21.488281 15.675781 21.488281 15.675781 C 22.613281 14.75 24.679688 13.511719 24.679688 13.511719 C 25.972656 13.179688 25.734375 12.53125 25.734375 12.53125 L 22.28125 6.253906 C 22.964844 5.738281 26.085938 4.441406 26.085938 4.441406 L 25.097656 6.007813 C 25.917969 6.007813 27.183594 9.828125 27.183594 9.828125 C 27.761719 10.984375 26.53125 11.15625 26.53125 11.15625 C 26.195313 11.84375 26.761719 12.285156 26.761719 12.285156 L 28.546875 11.539063 C 30.324219 10.914063 29.300781 9.105469 29.300781 9.105469 L 27.835938 5.464844 C 27.28125 5.574219 27.347656 5.203125 27.347656 5.203125 C 28.59375 2.835938 29.964844 2.90625 29.964844 2.90625 L 31.972656 10.167969 L 34.296875 9.527344 L 31.914063 1.292969 C 23.421875 3.039063 15.777344 9.324219 15.777344 9.324219 C 16.527344 10.5 16.792969 9.914063 16.792969 9.914063 M 23.273438 12.859375 C 23.273438 12.859375 23.273438 13.203125 22.726563 13.484375 C 22.726563 13.484375 21.699219 14.609375 21.125 13.449219 L 19.8125 11.121094 C 19.8125 11.121094 19.542969 10.945313 20.089844 10.535156 L 21.324219 9.746094 L 23.273438 12.859375 "/>
<path style=" stroke:none;fill-rule:nonzero;fill:rgb(0%,52.198792%,28.999329%);fill-opacity:1;" d="M 36.707031 4.585938 L 38.929688 4.585938 C 40.75 4.515625 40.570313 4.074219 40.570313 4.074219 L 40.371094 1.363281 C 40.410156 0.265625 39.007813 0.09375 39.007813 0.09375 L 35.410156 0.503906 L 35.640625 3.25 C 35.882813 4.507813 36.707031 4.585938 36.707031 4.585938 M 38.078125 1.195313 C 38.703125 1.195313 38.722656 1.675781 38.722656 1.675781 L 38.832031 3.347656 L 37.9375 3.484375 C 37.21875 3.515625 37.253906 2.730469 37.253906 2.730469 L 37.152344 1.300781 L 38.078125 1.195313 "/>
<path style=" stroke:none;fill-rule:nonzero;fill:rgb(0%,52.198792%,28.999329%);fill-opacity:1;" d="M 38.796875 5.472656 L 35.949219 5.683594 L 36.015625 6.710938 L 38.746094 6.460938 L 38.972656 8.605469 L 40.609375 8.605469 L 40.503906 6.605469 C 40.472656 5.242188 38.796875 5.472656 38.796875 5.472656 "/>
<path style=" stroke:none;fill-rule:nonzero;fill:rgb(0%,52.198792%,28.999329%);fill-opacity:1;" d="M 45.472656 8.703125 C 47.019531 8.5625 48.589844 9.085938 48.589844 9.085938 C 49.0625 9.289063 49.304688 9.148438 49.304688 9.148438 C 49.277344 8.878906 49.304688 8.613281 49.304688 8.613281 L 49.886719 4.183594 L 51.5 4.414063 C 52.117188 4.691406 51.847656 5.003906 51.847656 5.003906 L 51.703125 6.171875 C 51.679688 6.957031 50.484375 6.441406 50.484375 6.441406 L 50.367188 7.761719 L 51.441406 7.949219 C 53.730469 8.089844 53.484375 7.070313 53.902344 5.792969 C 54.3125 4.527344 54.101563 3.808594 52.941406 3.53125 C 51.777344 3.257813 49.992188 2.945313 49.992188 2.945313 L 50.171875 1.792969 C 51.367188 1.679688 54.757813 2.710938 54.757813 2.710938 L 54.949219 1.816406 C 50.75 0.214844 43.699219 0 43.699219 0 L 43.726563 1.058594 C 45.476563 0.960938 47.90625 1.3125 47.90625 1.3125 L 47.867188 2.464844 C 45.035156 2.15625 43.523438 2.253906 43.523438 2.253906 L 43.25 6.199219 C 43.210938 8.632813 45.472656 8.703125 45.472656 8.703125 M 45.675781 3.796875 L 47.5 3.648438 L 47.15625 7.429688 C 47.15625 7.429688 45.882813 7.980469 45.609375 6.953125 L 45.675781 3.796875 "/>
<path style=" stroke:none;fill-rule:nonzero;fill:rgb(0%,52.198792%,28.999329%);fill-opacity:1;" d="M 87.507813 41.9375 L 87.070313 35.640625 L 85.765625 35.84375 C 86.101563 36.867188 86.167969 41.019531 86.167969 41.019531 L 84.988281 41.085938 C 84.875 28.4375 78.109375 19.078125 77.320313 18.152344 C 76.535156 17.230469 77.320313 16.984375 77.320313 16.984375 C 77.628906 16.539063 78.148438 17.019531 78.148438 17.019531 C 79.273438 18.402344 81.691406 22.773438 81.691406 22.773438 L 82.585938 22.40625 C 82.386719 21.140625 80.570313 18.539063 79.03125 16.234375 C 77.492188 13.929688 76.15625 15.027344 76.15625 15.027344 L 75.367188 15.546875 C 71.257813 10.269531 63.972656 5.871094 63.699219 5.566406 C 63.417969 5.257813 63.664063 4.472656 64.480469 4.671875 C 65.308594 4.886719 69.996094 8.691406 69.996094 8.691406 L 70.816406 7.824219 C 70.816406 7.824219 66.09375 4.488281 64.589844 3.375 C 62.878906 2.109375 61.953125 3.339844 61.953125 3.339844 L 57.140625 11.597656 L 59.230469 12.789063 L 62.910156 6.347656 C 66.398438 8.167969 70.679688 12.21875 70.679688 12.21875 L 69.921875 13.066406 L 65.269531 9.367188 C 64.722656 8.964844 64.335938 9.398438 64.335938 9.398438 L 61.839844 12.5625 C 61.230469 13.648438 61.800781 14.304688 61.800781 14.304688 L 64.03125 16.253906 L 64.777344 15.394531 L 63.996094 14.714844 C 63.484375 14.382813 63.65625 14.105469 63.65625 14.105469 C 63.65625 14.105469 65.265625 12.140625 65.636719 11.628906 C 66.015625 11.121094 66.640625 11.90625 66.640625 11.90625 C 66.929688 12.21875 66.640625 12.457031 66.640625 12.457031 L 65.574219 13.921875 L 66.878906 14.914063 C 66.878906 14.914063 67.554688 13.863281 67.835938 13.554688 C 68.097656 13.242188 68.097656 13.105469 68.648438 13.589844 C 69.207031 14.066406 68.882813 14.320313 68.882813 14.320313 L 65.632813 17.699219 L 67.074219 19.246094 L 72.382813 13.6875 C 73.113281 14.449219 74.5625 16.210938 74.5625 16.210938 L 68.476563 20.855469 L 69.84375 22.53125 L 75.871094 17.886719 C 75.871094 17.886719 76.386719 18.597656 77.015625 19.453125 C 77.617188 20.304688 77.449219 20.492188 77.449219 20.492188 C 76.976563 20.617188 76.285156 21.09375 76.285156 21.09375 C 76.800781 21.964844 77.152344 23.84375 77.152344 23.84375 C 77.152344 24.734375 76.140625 24.453125 76.140625 24.453125 L 75.058594 22.332031 C 74.828125 21.785156 74.234375 22.09375 74.234375 22.09375 L 72.378906 23.253906 C 70.589844 24.726563 72.695313 27.433594 72.695313 27.433594 C 73.539063 27.683594 73.886719 26.886719 73.886719 26.886719 L 73.542969 26.238281 C 72.863281 25.519531 73.574219 25.007813 73.574219 25.007813 L 74.917969 24.382813 C 76.175781 26.277344 76.246094 27.683594 76.246094 27.683594 C 75.703125 28.878906 73.710938 29.222656 73.710938 29.222656 C 73.816406 29.320313 74.355469 31.132813 74.355469 31.132813 L 81.480469 28.398438 C 81.734375 28.613281 82.785156 32.074219 82.785156 32.074219 C 82.988281 33.074219 82.472656 32.453125 82.472656 32.453125 L 81.625 31.796875 C 81.453125 31.5625 80.777344 31.632813 80.777344 31.632813 L 77.925781 32.339844 C 74.875 32.789063 75.328125 34.636719 75.328125 34.636719 L 75.449219 36.492188 L 76.992188 36.414063 L 76.863281 35.011719 C 77.753906 34.609375 80.902344 33.882813 80.902344 33.882813 C 81.691406 33.519531 82.441406 33.859375 82.441406 33.859375 C 83.703125 34.46875 83.640625 36.976563 83.640625 36.976563 L 76 37.535156 L 76.160156 42.074219 C 76.578125 43.859375 77.804688 43.789063 77.804688 43.789063 C 77.804688 43.789063 79.796875 43.824219 81.304688 43.71875 C 82.808594 43.609375 82.742188 42.28125 82.742188 42.28125 L 82.609375 40.203125 L 81.378906 40.289063 L 81.304688 41.082031 C 79.320313 41.59375 77.464844 41.21875 77.464844 41.21875 L 77.402344 39.597656 L 83.746094 39.304688 C 84.457031 40.988281 83.320313 49.03125 83.320313 49.03125 L 80.304688 48.515625 C 77.296875 48.238281 78.285156 51.441406 78.285156 51.441406 C 75.269531 51.441406 76.75 49.03125 76.886719 48.132813 C 77.019531 47.242188 78.085938 47.382813 78.085938 47.382813 C 78.832031 47.382813 82.265625 48.039063 82.265625 48.039063 L 82.300781 46.703125 C 82.300781 46.703125 81.378906 46.328125 78.53125 46.015625 C 75.6875 45.707031 75.71875 47.421875 75.71875 47.421875 C 75.625 48.316406 75.132813 50.066406 75.132813 50.066406 C 74.308594 52.933594 76.882813 53.402344 76.882813 53.402344 L 80.40625 54.109375 C 81.289063 53.832031 81.164063 51.980469 81.164063 51.980469 C 79.136719 51.980469 79.421875 51.1875 79.421875 51.1875 C 79.304688 50.621094 80.078125 50.621094 80.078125 50.621094 L 82.699219 51.089844 C 82.875 51.636719 81.902344 54.277344 81.902344 54.277344 C 82.085938 54.824219 82.839844 54.515625 82.839844 54.515625 C 84.214844 52.582031 85.042969 43.417969 85.042969 43.417969 L 86.242188 43.382813 C 87.574219 43.453125 87.507813 41.9375 87.507813 41.9375 M 79.804688 26.71875 L 77.273438 27.78125 L 77.183594 26.304688 L 78.371094 25.648438 C 78.371094 25.648438 78.75 25.695313 78.578125 24.972656 L 78.175781 22.746094 C 78.175781 22.746094 78.582031 22.203125 78.957031 22.570313 L 80.5625 25.867188 C 80.5625 25.867188 80.976563 26.414063 79.804688 26.71875 "/>
<path style=" stroke:none;fill-rule:nonzero;fill:rgb(0%,52.198792%,28.999329%);fill-opacity:1;" d="M 18.199219 64.578125 C 17.269531 65.371094 17.582031 65.570313 17.582031 65.570313 C 18.308594 66.433594 20.253906 67.941406 20.253906 67.941406 C 20.519531 68.109375 20.359375 68.5 20.359375 68.5 C 19.945313 68.976563 19.699219 68.585938 19.699219 68.585938 L 17.101563 66.710938 C 16.480469 66.253906 16.277344 66.640625 16.277344 66.640625 L 13.089844 70.273438 C 12.476563 71.53125 12.984375 72.460938 12.984375 72.460938 L 17.160156 75.855469 L 22.15625 70.054688 C 22.46875 69.589844 22.78125 69.835938 22.78125 69.835938 L 23.773438 70.644531 L 19.496094 77.398438 L 21.472656 78.601563 L 26.515625 70.855469 C 21.585938 68.429688 18.199219 64.578125 18.199219 64.578125 M 18.914063 70.097656 L 16.101563 73.285156 C 16.101563 73.285156 15.382813 73.425781 14.996094 72.496094 C 14.996094 72.496094 14.703125 72.113281 15.277344 71.363281 C 15.277344 71.363281 17.472656 68.421875 18.132813 68.625 L 19.191406 69.449219 C 19.191406 69.449219 19.5 69.519531 18.914063 70.097656 "/>
<path style=" stroke:none;fill-rule:nonzero;fill:rgb(0%,52.198792%,28.999329%);fill-opacity:1;" d="M 30.789063 72.957031 L 28.707031 71.816406 C 27.027344 71.445313 26.683594 73.488281 26.683594 73.488281 C 26.070313 75.078125 26.679688 75.378906 26.679688 75.378906 C 27.433594 76.304688 28.941406 76.679688 28.941406 76.679688 C 29.90625 77.300781 30.417969 76.453125 30.417969 76.453125 L 31.074219 74.671875 C 31.519531 73.15625 30.789063 72.957031 30.789063 72.957031 M 29.464844 74.738281 C 29.464844 74.738281 29.148438 75.6875 28.773438 75.554688 C 28.773438 75.554688 27.671875 75.273438 28.023438 74.246094 C 28.359375 73.222656 28.328125 73.425781 28.328125 73.425781 C 28.328125 73.425781 28.707031 72.949219 29.402344 73.359375 C 29.402344 73.359375 29.980469 73.527344 29.464844 74.738281 "/>
<path style=" stroke:none;fill-rule:nonzero;fill:rgb(0%,52.198792%,28.999329%);fill-opacity:1;" d="M 29.246094 77.949219 L 25.792969 76.464844 L 25.511719 77.402344 L 27.296875 78.058594 C 28.289063 78.433594 27.886719 79.085938 27.886719 79.085938 L 27.058594 81.074219 L 29.222656 81.925781 L 29.800781 80.003906 C 30.351563 78.292969 29.246094 77.949219 29.246094 77.949219 "/>
<g clip-path="url(#clip3)" clip-rule="nonzero">
<path style=" stroke:none;fill-rule:nonzero;fill:rgb(0%,52.198792%,28.999329%);fill-opacity:1;" d="M 74.011719 70.96875 L 73.28125 71.121094 L 67.023438 64.628906 L 65.582031 66.179688 L 66.351563 67.15625 C 63.066406 67.410156 63.628906 69.820313 63.628906 69.820313 C 61.371094 69.3125 59.878906 70.132813 59.878906 70.132813 C 46.972656 78.246094 32.855469 73.550781 32.855469 73.550781 L 32.855469 74.636719 C 34.542969 75.308594 38.808594 75.671875 38.808594 75.671875 L 38.601563 77.355469 L 38.449219 77.410156 C 37.730469 76.742188 35.773438 76.734375 35.773438 76.734375 L 33.929688 76.171875 C 32.335938 75.8125 32.484375 76.472656 32.484375 76.472656 L 31.710938 81.308594 C 31.863281 83.578125 35.257813 83.265625 35.257813 83.265625 L 35.257813 82.558594 C 34.035156 82.601563 33.925781 81.578125 33.925781 81.578125 L 34.441406 77.664063 C 34.84375 77.257813 35.675781 77.816406 35.675781 77.816406 L 35.417969 80.140625 L 36.800781 80.09375 L 37.058594 78.085938 C 38.5 77.722656 38.390625 79.359375 38.390625 79.359375 L 37.621094 83.734375 L 39.929688 83.949219 L 41.027344 75.917969 C 41.121094 76.089844 42.917969 75.878906 42.917969 75.878906 L 43.429688 83.949219 L 45.695313 83.902344 L 45.175781 75.878906 L 46.984375 75.671875 L 48.308594 81.589844 C 48.554688 83.441406 50.207031 83.28125 50.207031 83.28125 L 51.957031 82.921875 C 52.980469 82.777344 52.375 82.152344 52.375 82.152344 L 51.640625 82.152344 C 50.773438 82.414063 50.625 81.125 50.625 81.125 L 49.191406 75.320313 C 49.75 75.40625 52.328125 74.601563 52.328125 74.601563 L 54.679688 81.015625 C 55.191406 81.4375 56.074219 80.617188 56.074219 80.617188 C 58.28125 80.757813 58.535156 76.304688 58.535156 76.304688 L 60.640625 80.113281 L 62.496094 78.976563 L 59.820313 73.265625 C 59.820313 73.265625 59.164063 73.417969 58.285156 73.832031 C 57.40625 74.238281 57.25 74.804688 57.25 74.804688 C 57.5625 77.683594 56.375 78.820313 56.375 78.820313 L 54.53125 73.980469 C 55.71875 73.417969 57.042969 72.753906 60.285156 71.3125 C 63.53125 69.875 64.242188 72.394531 64.242188 72.394531 C 64.550781 74.136719 64.242188 73.6875 63.113281 73.625 C 61.984375 73.578125 62.546875 74.199219 62.546875 74.199219 C 66.191406 77.226563 66.347656 73.472656 66.347656 73.472656 C 69.996094 73.945313 68.449219 70.238281 67.734375 69.921875 C 67.023438 69.621094 67.382813 70.605469 67.382813 70.605469 C 67.167969 71.992188 66.042969 71.167969 66.042969 71.167969 C 66.042969 71.167969 65.429688 70.542969 65.058594 69.921875 C 64.703125 69.316406 65.058594 68.222656 66.40625 68.28125 C 67.734375 68.34375 67.945313 68.644531 67.945313 68.644531 C 67.945313 68.644531 70.054688 71.023438 71.28125 72.246094 C 72.523438 73.484375 73.027344 72.457031 73.027344 72.457031 L 73.851563 71.738281 C 74.671875 71.226563 74.011719 70.96875 74.011719 70.96875 "/>
</g>
</g>
</svg>
