<svg id="svg" version="1.1" xmlns="http://www.w3.org/2000/svg" xmlns:xlink="http://www.w3.org/1999/xlink" width="400" height="400" viewBox="0, 0, 400,400"><g id="svgg"><path id="path0" d="M84.000 21.600 C 84.000 33.480,83.902 43.200,83.783 43.200 C 83.474 43.200,82.657 42.495,80.185 40.100 C 78.213 38.189,76.000 37.252,76.000 38.328 C 76.000 38.694,73.488 41.258,70.443 44.000 C 69.209 45.111,68.435 46.144,68.422 46.699 C 68.397 47.732,89.559 69.200,90.602 69.200 C 90.935 69.200,93.800 66.635,96.968 63.500 C 100.137 60.365,103.691 56.871,104.865 55.735 C 114.376 46.533,114.233 46.978,109.258 41.999 C 104.368 37.106,104.098 37.051,100.872 40.300 C 96.773 44.428,97.200 45.876,97.200 27.849 L 97.200 12.000 149.200 12.000 L 201.200 12.000 201.200 6.000 L 201.200 0.000 142.600 0.000 L 84.000 0.000 84.000 21.600 M229.600 0.259 C 228.107 0.760,225.558 2.183,224.948 2.858 C 224.578 3.266,224.116 3.600,223.920 3.600 C 223.397 3.600,221.600 5.486,221.600 6.035 C 221.600 6.294,221.285 6.797,220.900 7.153 C 219.897 8.080,218.400 11.111,218.400 12.214 C 218.400 12.730,218.220 13.264,218.000 13.400 C 217.735 13.564,217.600 62.537,217.600 159.024 C 217.600 255.675,217.734 304.400,218.000 304.400 C 218.220 304.400,218.400 305.030,218.400 305.800 C 218.400 306.570,218.580 307.200,218.800 307.200 C 219.020 307.200,219.200 307.560,219.200 308.000 C 219.200 308.440,219.380 308.800,219.600 308.800 C 219.820 308.800,220.000 309.120,220.000 309.512 C 220.000 309.903,220.360 310.483,220.800 310.800 C 221.240 311.117,221.600 311.562,221.600 311.788 C 221.601 312.323,223.387 314.400,223.847 314.400 C 224.041 314.401,224.736 314.862,225.390 315.425 C 226.045 315.987,227.215 316.722,227.990 317.058 C 228.766 317.393,229.713 317.832,230.095 318.034 C 230.498 318.246,243.715 318.400,261.595 318.400 L 292.400 318.400 292.400 315.633 C 292.400 313.810,292.233 312.811,291.911 312.704 C 291.602 312.601,291.366 311.414,291.268 309.478 L 291.113 306.415 262.586 306.308 C 230.736 306.187,233.241 306.415,231.025 303.446 L 230.200 302.341 230.200 159.031 C 230.200 34.006,230.275 15.582,230.785 14.627 C 231.107 14.026,232.113 13.099,233.020 12.567 L 234.670 11.600 255.530 11.600 L 276.389 11.600 282.294 23.300 L 288.200 35.000 309.200 35.000 L 330.200 35.000 336.042 23.400 L 341.884 11.800 362.830 11.696 C 386.843 11.578,385.860 11.444,387.900 15.095 C 388.297 15.806,388.400 45.335,388.400 159.000 C 388.400 272.673,388.297 302.191,387.900 302.890 C 385.789 306.601,387.685 306.397,355.300 306.399 L 326.800 306.400 326.800 309.376 C 326.800 311.013,326.620 312.464,326.400 312.600 C 326.180 312.736,326.000 314.097,326.000 315.624 L 326.000 318.400 357.000 318.400 C 377.400 318.400,388.000 318.263,388.000 318.000 C 388.000 317.780,388.324 317.600,388.720 317.600 C 389.614 317.600,391.593 316.706,391.597 316.300 C 391.599 316.135,391.873 316.000,392.207 316.000 C 392.999 316.000,398.000 310.999,398.000 310.207 C 398.000 309.873,398.180 309.600,398.400 309.600 C 398.620 309.600,398.800 309.255,398.800 308.833 C 398.800 308.412,399.025 307.992,399.300 307.900 C 400.122 307.626,400.025 11.489,399.202 9.700 C 398.874 8.985,398.469 8.400,398.302 8.400 C 398.136 8.400,398.000 8.127,398.000 7.793 C 398.000 7.001,392.999 2.000,392.207 2.000 C 391.873 2.000,391.599 1.865,391.597 1.700 C 391.581 0.181,392.740 0.203,309.800 0.129 C 266.020 0.090,229.930 0.149,229.600 0.259 M328.800 12.021 C 328.800 12.253,327.529 14.953,325.975 18.021 L 323.150 23.600 309.475 23.594 C 301.954 23.591,295.597 23.456,295.349 23.294 C 294.650 22.838,289.546 12.411,289.811 11.981 C 290.153 11.429,328.800 11.468,328.800 12.021 M12.000 82.000 C 12.000 82.220,11.676 82.400,11.280 82.400 C 10.386 82.400,8.407 83.294,8.403 83.700 C 8.401 83.865,8.127 84.000,7.793 84.000 C 7.001 84.000,2.000 89.001,2.000 89.793 C 2.000 90.127,1.820 90.400,1.600 90.400 C 1.380 90.400,1.200 90.745,1.200 91.167 C 1.200 91.588,0.975 92.008,0.700 92.100 C 0.317 92.227,0.171 95.255,0.079 104.995 L -0.043 117.723 3.879 117.464 C 6.035 117.321,8.655 117.203,9.700 117.202 L 11.600 117.200 11.600 107.659 C 11.600 92.640,9.447 93.832,36.818 93.690 L 57.979 93.580 63.889 105.290 L 69.800 117.000 90.800 117.000 L 111.800 117.000 117.706 105.300 L 123.611 93.600 144.544 93.600 C 167.640 93.600,167.046 93.538,168.890 96.124 L 169.800 97.400 169.800 241.000 L 169.800 384.600 168.890 385.876 C 166.942 388.606,173.329 388.400,90.798 388.400 L 16.118 388.400 14.769 387.490 C 14.026 386.990,13.010 385.974,12.510 385.231 L 11.600 383.882 11.600 256.564 C 11.600 186.540,11.465 129.168,11.300 129.071 C 11.135 128.974,8.524 128.765,5.498 128.606 L -0.005 128.318 0.098 258.859 C 0.205 395.478,0.158 391.581,1.700 391.597 C 1.865 391.599,2.000 391.873,2.000 392.207 C 2.000 392.999,7.001 398.000,7.793 398.000 C 8.127 398.000,8.400 398.136,8.400 398.302 C 8.400 399.811,7.792 399.800,90.828 399.800 L 170.656 399.800 172.528 398.837 C 173.558 398.308,174.400 397.723,174.400 397.537 C 174.400 397.352,174.635 397.200,174.922 397.200 C 175.613 397.200,178.400 394.630,178.400 393.993 C 178.400 393.718,178.715 393.203,179.100 392.847 C 180.103 391.920,181.600 388.889,181.600 387.786 C 181.600 387.270,181.780 386.736,182.000 386.600 C 182.555 386.257,182.555 95.600,182.000 95.600 C 181.780 95.600,181.600 94.970,181.600 94.200 C 181.600 93.430,181.420 92.800,181.200 92.800 C 180.980 92.800,180.800 92.440,180.800 92.000 C 180.800 91.560,180.620 91.200,180.400 91.200 C 180.180 91.200,180.000 90.880,180.000 90.488 C 180.000 90.097,179.640 89.517,179.200 89.200 C 178.760 88.883,178.400 88.372,178.400 88.066 C 178.400 87.385,175.647 84.800,174.922 84.800 C 174.635 84.800,174.400 84.648,174.400 84.463 C 174.400 84.277,173.545 83.718,172.500 83.219 C 171.455 82.720,170.287 82.152,169.905 81.956 C 168.905 81.443,12.000 81.487,12.000 82.000 M110.188 93.981 C 110.318 94.191,109.157 96.891,107.609 99.981 L 104.795 105.600 90.800 105.600 L 76.805 105.600 73.991 99.981 C 72.443 96.891,71.282 94.191,71.412 93.981 C 71.556 93.748,79.090 93.600,90.800 93.600 C 102.510 93.600,110.044 93.748,110.188 93.981 M303.600 107.004 C 283.203 111.640,273.444 134.663,284.782 151.400 C 285.900 153.051,285.939 153.008,282.782 153.603 C 281.232 153.896,279.871 154.285,279.758 154.468 C 279.645 154.650,279.284 154.800,278.954 154.800 C 276.757 154.800,271.949 159.469,269.895 163.597 L 268.600 166.200 268.479 188.900 L 268.358 211.600 309.179 211.600 L 350.000 211.600 350.000 189.866 C 350.000 165.297,350.029 165.554,346.765 160.749 C 345.195 158.436,340.737 154.800,339.473 154.800 C 339.129 154.800,338.755 154.650,338.642 154.468 C 338.529 154.285,337.168 153.896,335.618 153.603 C 332.568 153.028,332.421 152.862,333.548 151.262 C 347.795 131.032,327.813 101.501,303.600 107.004 M316.400 119.274 C 333.733 127.303,328.237 153.188,309.200 153.188 C 303.190 153.188,296.487 149.620,294.274 145.243 C 293.984 144.669,293.534 143.795,293.274 143.300 C 292.262 141.378,292.106 140.915,291.588 138.300 C 288.987 125.170,304.104 113.578,316.400 119.274 M336.611 166.589 L 338.400 168.379 338.400 184.192 L 338.400 200.005 309.100 199.903 L 279.800 199.800 279.695 184.906 C 279.537 162.512,276.111 164.821,309.511 164.809 L 334.821 164.800 336.611 166.589 M86.000 188.868 C 65.286 193.150,55.389 215.097,66.136 232.920 C 66.772 233.976,67.227 234.890,67.147 234.952 C 67.066 235.014,65.920 235.288,64.600 235.561 C 57.926 236.942,52.886 241.342,50.840 247.572 C 50.028 250.046,50.000 250.862,50.000 271.866 L 50.000 293.600 90.819 293.600 L 131.637 293.600 131.519 271.100 C 131.423 253.041,131.291 248.363,130.849 247.400 C 129.022 243.417,128.402 242.430,126.576 240.599 C 124.103 238.119,120.649 236.295,117.082 235.586 C 114.065 234.987,114.109 235.038,115.218 233.400 C 129.032 213.007,109.946 183.918,86.000 188.868 M96.685 200.859 C 106.855 204.632,111.576 216.225,106.680 225.400 C 106.445 225.840,106.016 226.669,105.726 227.243 C 101.100 236.393,86.070 237.871,78.307 229.937 C 65.332 216.677,79.386 194.440,96.685 200.859 M116.890 247.300 C 120.399 249.296,120.397 249.284,120.399 266.700 L 120.400 282.000 91.000 282.000 L 61.600 282.000 61.600 266.362 C 61.600 248.885,61.517 249.415,64.555 247.562 C 66.130 246.602,115.230 246.356,116.890 247.300 M294.800 288.595 L 294.800 294.400 309.211 294.400 L 323.622 294.400 323.511 288.700 L 323.400 283.000 309.100 282.895 L 294.800 282.790 294.800 288.595 M303.450 309.100 C 303.332 310.585,303.118 313.285,302.975 315.100 L 302.715 318.400 309.358 318.400 L 316.000 318.400 316.000 315.643 C 316.000 313.561,315.853 312.829,315.400 312.655 C 314.940 312.479,314.800 311.721,314.800 309.413 L 314.800 306.400 309.233 306.400 L 303.666 306.400 303.450 309.100 M302.935 336.532 C 299.819 339.649,296.309 343.129,295.135 344.265 C 285.645 353.447,285.791 352.988,290.743 357.981 C 295.621 362.901,295.894 362.957,299.128 359.700 C 303.227 355.572,302.800 354.124,302.800 372.151 L 302.800 388.000 250.800 388.000 L 198.800 388.000 198.800 394.000 L 198.800 400.000 257.400 400.000 L 316.000 400.000 316.000 378.400 C 316.000 366.520,316.098 356.800,316.217 356.800 C 316.526 356.800,317.343 357.505,319.815 359.900 C 321.787 361.811,324.000 362.748,324.000 361.672 C 324.000 361.306,326.512 358.742,329.557 356.000 C 330.806 354.876,331.564 353.858,331.578 353.290 C 331.605 352.155,310.407 330.782,309.304 330.832 C 308.917 330.850,306.051 333.415,302.935 336.532 M76.667 365.067 C 76.520 365.213,76.400 367.823,76.400 370.867 L 76.400 376.400 90.800 376.400 L 105.200 376.400 105.200 370.600 L 105.200 364.800 91.067 364.800 C 83.293 364.800,76.813 364.920,76.667 365.067 " stroke="none" fill="#040506" fill-rule="evenodd"></path><path id="path1" d="M242.690 13.100 C 241.926 14.814,241.777 302.034,242.539 304.235 L 243.080 305.800 267.240 306.000 L 291.400 306.200 291.600 309.000 C 291.882 312.945,291.654 312.800,297.577 312.800 C 303.485 312.800,303.185 313.030,303.195 308.489 L 303.200 305.979 309.100 306.089 L 315.000 306.200 315.120 308.983 C 315.287 312.849,315.209 312.800,321.233 312.800 L 326.368 312.800 326.484 309.500 L 326.600 306.200 355.418 306.000 C 387.461 305.778,385.460 305.961,387.218 303.078 C 388.459 301.043,388.444 16.932,387.202 14.896 C 385.363 11.880,386.290 11.987,363.005 12.099 L 342.209 12.200 336.405 23.695 L 330.600 35.191 309.184 35.195 L 287.768 35.200 281.984 23.618 L 276.200 12.036 259.690 12.018 L 243.180 12.000 242.690 13.100 M376.400 29.200 L 376.400 34.800 370.800 34.800 L 365.200 34.800 365.200 29.200 L 365.200 23.600 370.800 23.600 L 376.400 23.600 376.400 29.200 M376.400 52.800 L 376.400 58.400 370.800 58.400 L 365.200 58.400 365.200 52.800 L 365.200 47.200 370.800 47.200 L 376.400 47.200 376.400 52.800 M24.245 95.604 C 23.255 98.078,23.253 383.917,24.243 386.392 L 24.887 388.000 95.143 387.999 C 174.154 387.997,166.862 388.283,168.803 385.104 C 169.594 383.808,169.598 382.933,169.499 240.532 L 169.400 97.264 168.400 96.194 C 166.293 93.940,166.941 93.999,144.520 94.015 L 123.800 94.029 118.053 105.615 L 112.306 117.200 90.853 117.197 L 69.400 117.194 63.587 105.697 L 57.773 94.200 41.332 94.096 L 24.890 93.991 24.245 95.604 M157.600 111.200 L 157.600 116.800 152.200 116.800 L 146.800 116.800 146.800 111.467 C 146.800 105.032,146.251 105.600,152.467 105.600 L 157.600 105.600 157.600 111.200 M315.800 106.807 C 317.560 107.243,319.405 107.781,319.900 108.000 C 320.395 108.220,321.295 108.619,321.900 108.888 C 328.460 111.797,335.149 119.469,337.168 126.400 C 337.457 127.390,337.867 128.680,338.081 129.266 C 338.585 130.651,338.585 140.549,338.081 141.934 C 337.867 142.520,337.453 143.810,337.160 144.800 C 336.625 146.609,335.128 149.717,333.860 151.652 L 333.179 152.692 335.689 153.184 C 342.803 154.580,348.746 160.404,350.000 167.210 C 350.252 168.579,350.368 177.479,350.304 190.610 L 350.200 211.800 309.200 211.800 L 268.200 211.800 268.097 190.014 C 268.006 171.053,268.076 167.942,268.631 166.014 C 270.559 159.324,275.812 154.543,282.730 153.182 L 285.183 152.699 284.444 151.650 C 274.627 137.710,281.230 114.818,296.800 108.806 C 297.570 108.509,298.380 108.149,298.600 108.005 C 299.039 107.719,301.304 107.045,303.800 106.459 C 306.657 105.787,312.360 105.953,315.800 106.807 M157.600 134.800 L 157.600 140.400 152.200 140.400 L 146.800 140.400 146.800 134.800 L 146.800 129.200 152.200 129.200 L 157.600 129.200 157.600 134.800 M96.274 188.584 C 117.000 193.021,127.269 217.016,115.560 233.645 C 114.687 234.884,114.898 235.200,116.595 235.200 C 120.889 235.200,126.981 239.232,129.589 243.800 C 132.012 248.045,132.017 248.107,131.903 272.014 L 131.800 293.800 90.800 293.800 L 49.800 293.800 49.696 272.610 C 49.586 250.064,49.688 248.478,51.478 244.800 C 53.574 240.495,59.270 236.067,63.600 235.377 C 67.058 234.826,66.954 234.895,66.164 233.690 C 64.874 231.720,63.379 228.623,62.840 226.800 C 62.547 225.810,62.133 224.520,61.919 223.934 C 61.415 222.549,61.415 212.651,61.919 211.266 C 62.133 210.680,62.543 209.390,62.832 208.400 C 65.764 198.334,74.420 191.004,86.600 188.272 C 88.408 187.867,93.724 188.038,96.274 188.584 M323.911 288.700 L 323.800 294.600 309.200 294.600 L 294.600 294.600 294.489 288.700 L 294.379 282.800 309.200 282.800 L 324.021 282.800 323.911 288.700 M105.511 370.700 L 105.400 376.600 90.800 376.600 L 76.200 376.600 76.089 370.700 L 75.979 364.800 90.800 364.800 L 105.621 364.800 105.511 370.700 " stroke="none" fill="#74e4fb" fill-rule="evenodd"></path><path id="path2" d="M365.200 29.200 L 365.200 34.800 370.800 34.800 L 376.400 34.800 376.400 29.200 L 376.400 23.600 370.800 23.600 L 365.200 23.600 365.200 29.200 M365.200 52.800 L 365.200 58.400 370.800 58.400 L 376.400 58.400 376.400 52.800 L 376.400 47.200 370.800 47.200 L 365.200 47.200 365.200 52.800 M147.067 105.867 C 146.920 106.013,146.800 108.533,146.800 111.467 L 146.800 116.800 152.200 116.800 L 157.600 116.800 157.600 111.200 L 157.600 105.600 152.467 105.600 C 149.643 105.600,147.213 105.720,147.067 105.867 M305.930 118.579 C 297.398 120.449,292.230 126.800,292.210 135.439 C 292.204 137.910,292.399 140.305,292.649 140.839 C 294.488 144.770,295.153 145.822,296.958 147.653 C 310.734 161.629,333.438 144.998,324.536 127.452 C 323.009 124.444,317.683 119.600,315.902 119.600 C 315.604 119.600,315.189 119.440,314.980 119.245 C 314.598 118.889,309.828 117.964,308.767 118.041 C 308.455 118.064,307.179 118.306,305.930 118.579 M146.800 134.800 L 146.800 140.400 152.200 140.400 L 157.600 140.400 157.600 134.800 L 157.600 129.200 152.200 129.200 L 146.800 129.200 146.800 134.800 M285.000 165.600 C 284.864 165.820,284.438 166.000,284.052 166.000 C 283.667 166.000,282.778 166.561,282.076 167.247 L 280.800 168.495 280.800 184.047 L 280.800 199.600 309.400 199.600 L 338.000 199.600 338.000 184.338 L 338.000 169.076 336.979 167.737 C 334.962 165.093,336.128 165.200,309.443 165.200 C 293.744 165.200,285.160 165.340,285.000 165.600 M87.000 200.960 C 82.755 202.073,78.206 205.267,76.462 208.357 C 76.167 208.881,75.608 209.873,75.221 210.562 C 72.750 214.962,73.222 221.000,76.500 226.900 C 81.385 235.693,95.635 237.130,103.104 229.582 C 104.854 227.814,105.514 226.765,107.351 222.839 C 107.598 222.311,107.800 219.953,107.800 217.600 C 107.800 215.247,107.598 212.889,107.351 212.361 C 105.465 208.330,104.754 207.207,102.930 205.383 C 98.836 201.288,92.478 199.523,87.000 200.960 M74.000 247.767 C 74.000 248.078,73.775 248.408,73.500 248.500 C 72.743 248.752,72.520 281.176,73.271 281.653 C 73.961 282.090,118.837 282.091,119.527 281.654 C 119.950 281.385,120.028 278.401,119.927 266.360 C 119.784 249.550,119.743 249.318,116.633 247.843 C 114.708 246.929,74.000 246.857,74.000 247.767 " stroke="none" fill="#f8cbaa" fill-rule="evenodd"></path><path id="path3" d="M234.200 12.199 C 231.631 13.103,230.504 14.784,230.209 18.150 C 230.071 19.717,230.013 84.270,230.079 161.600 L 230.200 302.200 231.132 303.506 C 232.635 305.614,233.816 306.000,238.762 306.000 L 243.165 306.000 242.582 304.350 C 241.713 301.886,241.701 16.149,242.569 13.686 C 242.883 12.799,243.033 11.966,242.903 11.836 C 242.436 11.369,235.766 11.647,234.200 12.199 M289.887 11.846 C 289.752 11.982,290.893 14.592,292.423 17.646 L 295.205 23.200 309.200 23.200 L 323.195 23.200 325.982 17.637 C 328.250 13.108,328.654 12.029,328.152 11.837 C 327.330 11.521,290.203 11.531,289.887 11.846 M14.519 94.784 C 11.997 96.322,11.814 97.150,11.674 107.684 L 11.548 117.167 8.474 117.284 L 5.400 117.400 5.289 123.100 L 5.178 128.800 8.387 128.800 L 11.595 128.800 11.698 256.300 C 11.800 383.726,11.800 383.801,12.614 385.186 C 13.993 387.532,15.591 388.172,20.500 388.341 C 25.154 388.501,25.139 388.509,24.200 386.262 C 23.288 384.079,23.288 97.921,24.200 95.738 C 24.530 94.949,24.800 94.234,24.800 94.151 C 24.800 93.521,15.669 94.083,14.519 94.784 M73.996 99.592 C 77.369 106.326,75.364 105.651,91.600 105.512 L 104.600 105.400 107.511 99.700 L 110.422 94.000 90.808 94.000 L 71.195 94.000 73.996 99.592 " stroke="none" fill="#04cbf3" fill-rule="evenodd"></path><path id="path4" d="M259.400 11.909 L 276.200 12.026 282.000 23.610 C 285.190 29.982,287.896 35.196,288.014 35.197 C 288.132 35.199,285.563 29.890,282.307 23.400 L 276.385 11.600 259.492 11.696 L 242.600 11.791 259.400 11.909 M341.717 12.100 C 341.508 12.375,341.012 13.320,340.615 14.200 C 340.218 15.080,339.720 16.137,339.507 16.548 C 339.294 16.960,339.278 17.199,339.472 17.079 C 339.665 16.960,340.346 15.768,340.985 14.431 L 342.147 12.000 362.974 12.001 C 386.269 12.003,385.373 11.896,387.202 14.896 C 388.444 16.932,388.459 301.043,387.218 303.078 C 385.460 305.961,387.461 305.778,355.418 306.000 L 326.600 306.200 326.571 309.400 L 326.542 312.600 326.688 309.500 L 326.834 306.400 355.317 306.399 C 387.683 306.397,385.790 306.601,387.900 302.890 C 388.720 301.447,388.624 16.573,387.803 14.926 C 387.184 13.685,386.435 12.955,384.905 12.100 C 383.606 11.374,342.270 11.374,341.717 12.100 M309.400 23.200 L 295.400 23.416 309.276 23.508 C 318.197 23.567,323.241 23.457,323.400 23.200 C 323.536 22.980,323.592 22.841,323.524 22.892 C 323.456 22.943,317.100 23.081,309.400 23.200 M332.524 30.444 C 331.162 33.070,330.222 35.110,330.436 34.978 C 330.869 34.710,335.321 25.987,335.124 25.792 C 335.056 25.725,333.886 27.818,332.524 30.444 M37.013 93.900 L 57.826 94.007 60.613 99.638 C 62.146 102.736,63.544 105.361,63.721 105.471 C 63.897 105.582,62.681 102.956,61.018 99.636 L 57.995 93.600 37.097 93.696 L 16.200 93.793 37.013 93.900 M81.100 93.900 C 86.435 93.963,95.165 93.963,100.500 93.900 C 105.835 93.837,101.470 93.785,90.800 93.785 C 80.130 93.785,75.765 93.837,81.100 93.900 M117.693 105.400 C 114.437 111.890,111.868 117.199,111.986 117.198 C 112.104 117.196,114.810 111.985,118.000 105.616 L 123.800 94.037 144.520 94.018 C 166.943 93.998,166.293 93.939,168.400 96.194 L 169.400 97.264 169.400 241.000 L 169.400 384.736 168.400 385.805 C 167.850 386.392,167.040 387.082,166.600 387.337 C 166.006 387.681,147.645 387.852,95.200 388.002 L 24.600 388.204 95.039 388.302 C 172.909 388.410,166.942 388.606,168.890 385.876 L 169.800 384.600 169.800 241.000 L 169.800 97.400 168.890 96.124 C 167.046 93.538,167.640 93.600,144.546 93.600 L 123.615 93.600 117.693 105.400 M303.369 106.614 C 294.563 108.548,286.827 114.457,282.855 122.284 C 281.619 124.719,281.817 124.957,283.118 122.600 C 294.189 102.543,321.061 100.845,333.281 119.432 C 334.202 120.832,335.026 121.908,335.112 121.822 C 335.463 121.470,331.118 115.594,329.326 113.999 C 322.034 107.507,312.132 104.690,303.369 106.614 M64.800 107.740 C 64.800 108.209,69.157 116.726,69.508 116.943 C 69.691 117.056,68.772 115.045,67.465 112.474 C 65.024 107.670,64.800 107.271,64.800 107.740 M303.714 118.580 C 295.721 121.079,290.015 130.357,291.588 138.300 C 292.106 140.915,292.262 141.378,293.274 143.300 C 293.534 143.795,293.984 144.669,294.274 145.243 C 298.685 153.968,313.312 155.844,321.083 148.681 C 331.870 138.738,326.225 119.298,312.226 118.183 L 310.200 118.022 312.200 118.412 C 313.300 118.626,314.513 118.981,314.895 119.201 C 315.277 119.420,315.781 119.600,316.017 119.600 C 317.696 119.600,323.060 124.545,324.536 127.452 C 333.438 144.998,310.734 161.629,296.958 147.653 C 295.153 145.822,294.488 144.770,292.649 140.839 C 292.399 140.305,292.204 137.910,292.210 135.439 C 292.230 126.800,297.398 120.449,305.930 118.579 C 307.809 118.168,307.959 118.080,306.800 118.068 C 306.030 118.060,304.641 118.291,303.714 118.580 M336.207 124.800 C 336.888 127.019,337.545 128.566,337.566 128.000 C 337.594 127.242,336.654 124.516,336.224 124.107 C 336.046 123.938,336.039 124.250,336.207 124.800 M281.400 125.600 C 281.250 126.073,281.217 126.550,281.327 126.660 C 281.437 126.770,281.650 126.473,281.800 126.000 C 281.950 125.527,281.983 125.050,281.873 124.940 C 281.763 124.830,281.550 125.127,281.400 125.600 M280.649 127.815 C 280.512 128.173,280.416 128.856,280.436 129.333 C 280.462 129.947,280.585 129.808,280.859 128.856 C 281.257 127.472,281.094 126.658,280.649 127.815 M337.887 131.400 C 338.011 132.940,338.177 134.275,338.256 134.367 C 338.559 134.717,338.327 130.161,338.003 129.400 C 337.797 128.916,337.751 129.708,337.887 131.400 M279.852 131.700 C 279.539 132.868,279.603 138.326,279.944 139.539 C 280.089 140.056,280.207 138.301,280.207 135.639 C 280.207 130.386,280.207 130.377,279.852 131.700 M338.072 138.450 C 338.032 139.248,337.905 140.508,337.789 141.250 C 337.597 142.485,337.615 142.516,338.008 141.615 C 338.244 141.074,338.371 139.814,338.291 138.815 C 338.162 137.218,338.136 137.175,338.072 138.450 M280.446 142.000 C 280.427 142.550,280.587 143.270,280.800 143.600 C 281.294 144.364,281.294 143.542,280.800 142.000 L 280.480 141.000 280.446 142.000 M336.836 144.442 C 336.248 146.408,334.685 149.650,333.549 151.262 C 332.613 152.589,332.597 153.209,333.500 153.168 C 333.950 153.148,334.014 153.062,333.680 152.928 C 333.266 152.763,333.285 152.530,333.773 151.786 C 335.605 148.989,337.788 143.964,337.520 143.160 C 337.433 142.898,337.125 143.475,336.836 144.442 M281.228 144.651 C 281.188 145.294,282.410 148.124,282.632 147.902 C 282.734 147.800,282.466 146.925,282.037 145.958 C 281.608 144.991,281.244 144.403,281.228 144.651 M283.600 150.238 C 283.600 150.369,283.961 150.984,284.403 151.604 C 284.995 152.436,285.074 152.785,284.703 152.934 C 284.399 153.057,284.477 153.149,284.900 153.168 C 285.797 153.209,285.781 152.987,284.767 151.347 C 283.976 150.068,283.600 149.710,283.600 150.238 M281.000 153.600 L 280.200 153.944 281.000 153.932 C 281.440 153.926,282.250 153.776,282.800 153.600 L 283.800 153.280 282.800 153.268 C 282.250 153.262,281.440 153.411,281.000 153.600 M335.600 153.600 C 336.150 153.776,336.960 153.926,337.400 153.932 L 338.200 153.944 337.400 153.600 C 336.960 153.411,336.150 153.262,335.600 153.268 L 334.600 153.280 335.600 153.600 M277.632 154.906 C 274.085 156.700,269.837 161.583,269.022 164.800 C 268.883 165.350,269.315 164.717,269.982 163.394 C 271.977 159.438,276.819 154.800,278.954 154.800 C 279.284 154.800,279.664 154.620,279.800 154.400 C 280.181 153.784,279.565 153.928,277.632 154.906 M340.400 154.908 C 340.510 155.027,341.689 155.925,343.020 156.902 C 344.397 157.915,346.014 159.574,346.771 160.755 C 347.504 161.897,348.191 162.742,348.299 162.634 C 348.644 162.290,345.589 158.444,343.864 157.050 C 342.435 155.896,339.816 154.276,340.400 154.908 M348.411 163.220 C 348.453 163.892,349.950 167.669,349.972 167.160 C 350.007 166.362,349.209 163.930,348.745 163.420 C 348.555 163.211,348.405 163.121,348.411 163.220 M282.710 165.682 C 279.656 167.452,279.576 167.965,279.695 184.906 L 279.800 199.800 309.100 199.903 L 338.400 200.005 338.400 184.192 L 338.400 168.379 336.611 166.589 L 334.821 164.800 309.511 164.809 C 284.311 164.818,284.193 164.822,282.710 165.682 M334.799 165.800 C 335.437 166.129,336.418 167.001,336.979 167.737 L 338.000 169.076 338.000 184.338 L 338.000 199.600 309.400 199.600 L 280.800 199.600 280.800 184.047 L 280.800 168.495 282.076 167.247 C 282.778 166.561,283.667 166.000,284.052 166.000 C 284.438 166.000,284.864 165.820,285.000 165.600 C 285.446 164.878,333.389 165.071,334.799 165.800 M268.208 167.700 C 268.075 168.635,268.019 178.940,268.083 190.600 L 268.200 211.800 309.200 211.800 L 350.200 211.800 350.205 190.200 L 350.211 168.600 350.102 190.100 L 349.993 211.600 309.175 211.600 L 268.358 211.600 268.479 188.800 C 268.545 176.260,268.566 166.000,268.525 166.000 C 268.483 166.000,268.340 166.765,268.208 167.700 M90.000 188.264 C 101.301 188.861,109.614 193.365,115.260 201.951 C 116.327 203.575,117.200 204.727,117.200 204.513 C 117.200 203.040,111.600 196.299,108.400 193.919 C 103.403 190.204,96.325 187.906,90.400 188.074 C 87.814 188.148,87.812 188.149,90.000 188.264 M85.000 188.657 C 81.541 189.364,75.535 192.033,73.218 193.891 C 69.867 196.579,64.291 203.224,64.887 203.820 C 64.974 203.907,65.803 202.825,66.729 201.416 C 70.893 195.083,77.792 190.592,86.000 188.873 C 86.990 188.666,87.350 188.495,86.800 188.494 C 86.250 188.494,85.440 188.566,85.000 188.657 M85.778 200.591 C 68.959 205.906,69.080 229.510,85.953 234.631 C 92.859 236.727,102.811 233.009,105.726 227.243 C 106.016 226.669,106.445 225.840,106.680 225.400 C 113.768 212.117,100.214 196.030,85.778 200.591 M98.213 202.036 C 99.737 202.771,101.739 204.191,102.930 205.383 C 104.754 207.207,105.465 208.330,107.351 212.361 C 107.598 212.889,107.800 215.247,107.800 217.600 C 107.800 219.953,107.598 222.311,107.351 222.839 C 105.514 226.765,104.854 227.814,103.104 229.582 C 95.635 237.130,81.385 235.693,76.500 226.900 C 73.222 221.000,72.750 214.962,75.221 210.562 C 75.608 209.873,76.167 208.881,76.462 208.357 C 80.270 201.609,90.914 198.516,98.213 202.036 M63.377 206.643 C 63.244 207.059,62.970 207.813,62.767 208.319 C 62.565 208.824,62.413 209.544,62.429 209.919 C 62.445 210.293,62.805 209.624,63.228 208.432 C 63.651 207.240,63.912 206.179,63.808 206.075 C 63.704 205.971,63.510 206.226,63.377 206.643 M118.012 207.200 C 118.012 207.530,118.187 208.070,118.400 208.400 C 118.745 208.933,118.788 208.933,118.788 208.400 C 118.788 208.070,118.613 207.530,118.400 207.200 C 118.055 206.667,118.012 206.667,118.012 207.200 M118.846 209.600 C 118.865 209.930,119.024 210.650,119.200 211.200 L 119.520 212.200 119.554 211.200 C 119.573 210.650,119.413 209.930,119.200 209.600 C 118.855 209.067,118.816 209.067,118.846 209.600 M61.856 211.684 C 61.721 212.188,61.632 213.500,61.658 214.600 C 61.702 216.470,61.726 216.419,62.028 213.809 C 62.360 210.942,62.289 210.067,61.856 211.684 M119.779 217.529 C 119.789 220.239,119.915 222.039,120.059 221.529 C 120.406 220.295,120.393 214.861,120.040 213.600 C 119.886 213.050,119.769 214.818,119.779 217.529 M61.628 221.033 C 61.644 222.115,61.812 223.360,62.002 223.800 C 62.216 224.295,62.260 223.610,62.118 222.000 C 61.839 218.843,61.590 218.351,61.628 221.033 M119.249 223.600 C 119.216 223.930,119.089 224.650,118.967 225.200 C 118.775 226.064,118.807 226.103,119.199 225.488 C 119.448 225.097,119.575 224.377,119.481 223.888 C 119.386 223.400,119.282 223.270,119.249 223.600 M62.421 225.247 C 62.396 226.024,63.973 230.036,64.526 230.600 C 64.783 230.862,64.809 230.724,64.602 230.200 C 64.429 229.760,63.872 228.320,63.364 227.000 C 62.857 225.680,62.432 224.891,62.421 225.247 M117.886 228.017 C 117.514 228.966,117.286 229.819,117.381 229.914 C 117.624 230.158,118.846 227.138,118.691 226.674 C 118.621 226.464,118.259 227.068,117.886 228.017 M116.435 231.245 C 116.222 231.770,115.678 232.740,115.226 233.400 C 114.314 234.733,114.203 235.200,114.800 235.200 C 115.020 235.200,115.160 235.065,115.111 234.900 C 115.062 234.735,115.534 233.737,116.160 232.682 C 116.785 231.627,117.190 230.657,117.060 230.526 C 116.929 230.396,116.648 230.719,116.435 231.245 M64.800 231.421 C 64.800 231.543,65.242 232.293,65.782 233.088 C 66.323 233.883,66.672 234.684,66.559 234.867 C 66.445 235.050,66.543 235.200,66.776 235.200 C 67.389 235.200,67.318 234.944,66.162 232.971 C 65.199 231.329,64.800 230.874,64.800 231.421 M62.600 235.600 L 61.800 235.944 62.600 235.932 C 63.040 235.926,63.850 235.776,64.400 235.600 L 65.400 235.280 64.400 235.268 C 63.850 235.262,63.040 235.411,62.600 235.600 M117.200 235.600 C 117.750 235.776,118.560 235.926,119.000 235.932 L 119.800 235.944 119.000 235.600 C 118.560 235.411,117.750 235.262,117.200 235.268 L 116.200 235.280 117.200 235.600 M59.400 236.867 C 56.366 238.444,50.951 243.885,51.686 244.619 C 51.785 244.719,52.519 243.853,53.317 242.695 C 54.890 240.411,57.808 237.973,60.134 237.002 C 60.940 236.665,61.600 236.302,61.600 236.195 C 61.600 235.846,61.028 236.021,59.400 236.867 M120.000 236.153 C 120.000 236.237,121.008 236.799,122.241 237.402 C 123.473 238.005,125.408 239.428,126.541 240.564 C 128.399 242.427,129.020 243.413,130.849 247.400 C 131.291 248.363,131.423 253.041,131.519 271.100 L 131.637 293.600 90.822 293.600 L 50.007 293.600 49.898 272.100 L 49.789 250.600 49.795 272.200 L 49.800 293.800 90.800 293.800 L 131.800 293.800 131.917 272.200 C 132.060 245.914,131.842 244.690,126.082 239.514 C 124.214 237.835,120.000 235.506,120.000 236.153 M64.555 247.562 C 61.517 249.415,61.600 248.885,61.600 266.362 L 61.600 282.000 67.700 281.994 C 71.136 281.990,73.569 281.841,73.271 281.653 C 72.520 281.176,72.743 248.752,73.500 248.500 C 73.775 248.408,74.000 248.078,74.000 247.767 C 74.000 246.857,114.708 246.929,116.633 247.843 C 119.743 249.318,119.784 249.550,119.927 266.360 C 120.028 278.401,119.950 281.385,119.527 281.654 C 119.129 281.906,119.171 281.989,119.700 281.994 C 120.883 282.004,120.760 251.995,119.569 250.042 C 118.637 248.513,118.155 248.019,116.890 247.300 C 115.230 246.356,66.130 246.602,64.555 247.562 M50.273 247.753 C 50.123 248.145,50.011 248.766,50.025 249.133 C 50.042 249.575,50.181 249.474,50.437 248.834 C 50.649 248.303,50.761 247.682,50.685 247.454 C 50.609 247.227,50.424 247.361,50.273 247.753 M294.583 288.600 L 294.600 294.600 309.200 294.600 L 323.800 294.600 323.911 288.700 C 323.972 285.455,323.882 282.800,323.711 282.799 C 323.540 282.799,323.454 285.409,323.521 288.599 L 323.641 294.400 309.231 294.400 L 294.821 294.400 294.694 288.500 L 294.566 282.600 294.583 288.600 M262.900 306.299 L 291.200 306.405 291.205 308.703 C 291.212 311.325,291.523 312.800,292.070 312.800 C 292.278 312.800,292.302 312.575,292.124 312.300 C 291.946 312.025,291.710 310.540,291.600 309.000 L 291.400 306.200 263.000 306.196 L 234.600 306.192 262.900 306.299 M303.418 306.500 C 303.099 307.516,302.913 312.979,303.224 312.200 C 303.400 311.760,303.556 310.275,303.572 308.900 L 303.600 306.400 309.200 306.400 L 314.800 306.400 314.800 309.376 C 314.800 311.013,314.940 312.439,315.111 312.545 C 315.416 312.733,315.308 307.488,314.988 306.500 C 314.868 306.131,313.347 306.000,309.200 306.000 C 305.050 306.000,303.534 306.131,303.418 306.500 M76.089 370.700 L 76.200 376.600 90.800 376.600 L 105.400 376.600 105.417 370.600 L 105.434 364.600 105.306 370.500 L 105.179 376.400 90.769 376.400 L 76.359 376.400 76.479 370.599 C 76.546 367.409,76.460 364.799,76.289 364.799 C 76.118 364.800,76.028 367.455,76.089 370.700 " stroke="none" fill="#97805c" fill-rule="evenodd"></path></g></svg>